<?xml version="1.0" encoding="UTF-8"?>
<svg version="1.1" xmlns="http://www.w3.org/2000/svg" width="512" height="512">
<path d="M0 0 C3.60778571 1.31192208 6.31920545 3.22843284 8.875 6.125 C11.44776548 12.69984511 11.69499552 18.11232191 9.125 24.75 C5.77523535 31.94647241 1.5635459 38.52975486 -3 45 C-3.39396973 45.55913086 -3.78793945 46.11826172 -4.19384766 46.69433594 C-19.6915327 68.2864746 -38.87162294 83.52425047 -62.11938477 95.91699219 C-63.14990967 96.47418945 -64.18043457 97.03138672 -65.2421875 97.60546875 C-66.1585498 98.09168701 -67.07491211 98.57790527 -68.01904297 99.07885742 C-76.42098119 104.46204647 -76.42098119 104.46204647 -80.77856445 113.14648438 C-81.17276812 115.12267628 -81.53272593 117.10592099 -81.86328125 119.09375 C-82.0668071 120.15807251 -82.27033295 121.22239502 -82.48002625 122.31896973 C-83.12108626 125.70783485 -83.71754982 129.10276924 -84.3125 132.5 C-84.72945489 134.75055171 -85.14935139 137.00056053 -85.57226562 139.25 C-86.3806542 143.57008829 -87.17201328 147.89268386 -87.94775391 152.21875 C-88.81345151 157.02415925 -89.74688993 161.81127224 -90.73046875 166.59375 C-97.91386964 202.16559102 -87.63095369 236.98532028 -79.33789062 271.43359375 C-77.50885573 279.03232539 -75.7190466 286.64002102 -73.9375 294.25 C-73.66317139 295.40661133 -73.38884277 296.56322266 -73.10620117 297.75488281 C-66.88992425 324.20425986 -66.88992425 324.20425986 -72 333 C-76.14254027 337.52447661 -79.56285059 339.84018692 -85.8125 340.25 C-90.60020597 340.15372072 -93.8918918 338.89472787 -97.50976562 335.64305115 C-102.14839648 330.7104586 -103.29338481 326.2319713 -104.375 319.66015625 C-104.77751069 317.50442368 -105.18537322 315.34968575 -105.59765625 313.19580078 C-105.81695801 312.03735657 -106.03625977 310.87891235 -106.26220703 309.68536377 C-107.59708218 303.01750337 -109.21362446 296.41692103 -110.8125 289.80859375 C-111.15540632 288.38242658 -111.49809687 286.95620752 -111.84057617 285.52993774 C-112.71382905 281.89727925 -113.59071312 278.26550847 -114.46887207 274.6340332 C-116.04640036 268.11000561 -117.61961258 261.58494503 -119.1875 255.05859375 C-119.35440338 254.36431652 -119.52130676 253.67003929 -119.69326782 252.95472336 C-122.64128247 240.67453439 -125.39588829 228.35779333 -128 216 C-145.28251444 246.47994055 -158.53370987 277.6230183 -169.37109375 310.90234375 C-169.59928802 311.60237518 -169.8274823 312.30240662 -170.06259155 313.02365112 C-171.09851537 316.20727129 -172.12406592 319.39315647 -173.1315918 322.5859375 C-173.64266479 324.18115234 -173.64266479 324.18115234 -174.1640625 325.80859375 C-174.45104004 326.7205249 -174.73801758 327.63245605 -175.03369141 328.57202148 C-176.9490317 333.38456804 -179.97639812 336.77518833 -184.375 339.4375 C-189.39432481 340.5130696 -193.39112181 340.56783936 -198.1875 338.875 C-203.45868014 335.36087991 -206.61063143 331.18900544 -208 325 C-208.20243688 320.22326831 -207.75733234 316.25109191 -206.453125 311.66015625 C-205.93733887 309.84330322 -205.93733887 309.84330322 -205.41113281 307.98974609 C-205.02556057 306.68022974 -204.63847242 305.37115894 -204.25 304.0625 C-204.05192749 303.38793762 -203.85385498 302.71337524 -203.64978027 302.01837158 C-195.11319915 273.08828242 -183.70766865 245.0413044 -170.0546875 218.15234375 C-169.72171158 217.49502258 -169.38873566 216.83770142 -169.04566956 216.16046143 C-167.45107453 213.01962543 -165.84033534 209.89030269 -164.19995117 206.77294922 C-155.04606603 189.01458685 -151.08843018 170.34668977 -147.125 150.875 C-146.62338677 148.45161759 -146.12078903 146.02843875 -145.6171875 143.60546875 C-144.40012347 137.73927237 -143.19514029 131.87070006 -142 126 C-144.23076624 127.25895662 -146.45961412 128.52112035 -148.6875 129.78515625 C-149.31333984 130.13791626 -149.93917969 130.49067627 -150.58398438 130.85412598 C-161.95547782 137.31756973 -169.36768901 143.89680488 -173.125 156.75 C-173.53105469 158.35101563 -173.53105469 158.35101563 -173.9453125 159.984375 C-175.37786478 164.08041337 -177.31801132 166.90305086 -180.9765625 169.2890625 C-184.64710399 170.57871221 -188.17223167 170.54492535 -192 170 C-197.11762818 167.34641502 -200.17705942 164.46882174 -202 159 C-203.60882066 145.10084449 -196.94918349 133.78132142 -188.79296875 123.11328125 C-166.65762171 95.47237941 -135.04363241 78.73871862 -100.98828125 70.8359375 C-79.39628118 65.76663703 -59.73421734 56.78005709 -43 42 C-42.319375 41.46246094 -41.63875 40.92492187 -40.9375 40.37109375 C-31.01893823 32.39225072 -23.81909265 21.56243303 -18.08032227 10.33032227 C-13.97590512 2.47964474 -8.91470335 -1.15858961 0 0 Z " fill="#414042" transform="translate(296,147)"/>
<path d="M0 0 C3.10326555 0.64651366 4.67054673 1.48557978 6.84960938 3.77490234 C9.41781993 7.90518664 9.62244757 13.01534105 10.25 17.75 C10.56612027 19.91950283 10.883759 22.08878509 11.203125 24.2578125 C11.33364258 25.21574707 11.46416016 26.17368164 11.59863281 27.16064453 C11.95312885 29.75040908 11.95312885 29.75040908 13 32.625 C15.14287753 33.9091204 15.14287753 33.9091204 17.8046875 34.96484375 C18.78050781 35.38830078 19.75632812 35.81175781 20.76171875 36.24804688 C22.82920937 37.12095854 24.89691614 37.99335845 26.96484375 38.86523438 C28.43244141 39.50235352 28.43244141 39.50235352 29.9296875 40.15234375 C30.82929199 40.53124756 31.72889648 40.91015137 32.65576172 41.30053711 C35.25182091 42.7672754 36.45194283 44.0989441 38 46.625 C38.50390625 48.80859375 38.50390625 48.80859375 38.5625 51.0625 C38.62630859 52.17431641 38.62630859 52.17431641 38.69140625 53.30859375 C36.83273504 59.53566736 28.50858964 62.72176269 23.1875 65.625 C22.41212891 66.0375 21.63675781 66.45 20.83789062 66.875 C20.10119141 67.2875 19.36449219 67.7 18.60546875 68.125 C17.93668701 68.4859375 17.26790527 68.846875 16.57885742 69.21875 C13.35568058 72.08955541 13.84396403 76.9009397 13.60546875 80.96875 C13.53650391 81.96777344 13.46753906 82.96679688 13.39648438 83.99609375 C13.25721132 86.08128465 13.12959517 88.16728701 13.01367188 90.25390625 C12.69774891 94.58736284 12.34795544 97.91354769 10.42578125 101.84375 C7.69156578 103.8514831 5.62328785 104.54666157 2.20703125 104.32324219 C-2.55970845 102.81518073 -5.68655132 98.82186323 -9 95.25 C-9.77472656 94.4559375 -10.54945313 93.661875 -11.34765625 92.84375 C-17 86.96212246 -17 86.96212246 -17 84.625 C-18.04341553 84.90549194 -18.04341553 84.90549194 -19.10791016 85.19165039 C-22.27709891 86.03608108 -25.45084886 86.86192782 -28.625 87.6875 C-29.71941406 87.98205078 -30.81382812 88.27660156 -31.94140625 88.58007812 C-33.53662109 88.9909668 -33.53662109 88.9909668 -35.1640625 89.41015625 C-36.62513428 89.79506226 -36.62513428 89.79506226 -38.11572266 90.18774414 C-41.38239264 90.68297065 -43.80356046 90.42872902 -47 89.625 C-49.4375 87.625 -49.4375 87.625 -51 84.625 C-51.42153272 76.49901773 -47.53447866 69.76056956 -43.97460938 62.734375 C-41.57004478 58.09779156 -41.57004478 58.09779156 -41.41015625 53.06640625 C-41.93480469 52.26074219 -42.45945312 51.45507812 -43 50.625 C-43.79854865 49.24595786 -44.59229991 47.8641331 -45.3828125 46.48046875 C-46.75396124 44.13759286 -48.13174228 41.80142075 -49.54296875 39.48242188 C-52.59315378 34.21351624 -53.69124637 30.72113464 -53 24.625 C-51.3125 21.5625 -51.3125 21.5625 -48 19.625 C-42.41692236 19.39370107 -36.90795485 20.15067009 -31.49609375 21.49609375 C-27.51501401 22.28341343 -24.96436935 22.59288951 -21 21.625 C-16.20895069 17.77683543 -12.85154775 12.56646137 -9.39404297 7.55126953 C-6.78132799 3.94105567 -4.51079151 0.93974823 0 0 Z " fill="#414042" transform="translate(378,24.375)"/>
<path d="M0 0 C10.01309678 7.01253916 15.52830759 17.68266949 17.6953125 29.5625 C19.06822127 43.32072965 17.0739339 55.29013351 8.6953125 66.5625 C3.2231959 72.58975887 -2.25923922 76.05027175 -10.3828125 76.875 C-17.62503593 77.14447808 -23.10019697 76.3442847 -29.3046875 72.5625 C-29.99175781 72.15 -30.67882812 71.7375 -31.38671875 71.3125 C-41.21074921 64.70053303 -46.14673153 54.41156775 -48.88671875 43.17578125 C-50.88125225 30.70528678 -49.23376917 18.45129335 -42.4921875 7.625 C-31.73138339 -7.07334145 -15.39343372 -9.60132815 0 0 Z " fill="#414042" transform="translate(200.3046875,135.4375)"/>
</svg>
