<?xml version="1.0" encoding="UTF-8"?>
<svg version="1.1" xmlns="http://www.w3.org/2000/svg" width="512" height="512">
<path d="M0 0 C68.31 0 136.62 0 207 0 C207 5.94 207 11.88 207 18 C209.29215454 17.97643433 209.29215454 17.97643433 211.63061523 17.95239258 C217.32782674 17.89788181 223.02501541 17.86357292 228.72241211 17.83520508 C231.18306359 17.8201666 233.64368849 17.79973058 236.10424805 17.77368164 C239.65159692 17.73708144 243.19858977 17.72022365 246.74609375 17.70703125 C247.8370787 17.69154739 248.92806366 17.67606354 250.05210876 17.66011047 C257.19998035 17.65855371 264.64051663 17.9265596 270.15625 22.97265625 C270.5996875 23.66230469 271.043125 24.35195312 271.5 25.0625 C271.9640625 25.75472656 272.428125 26.44695312 272.90625 27.16015625 C274.9911377 30.6672352 275.14532445 32.87760174 275.19287109 36.98413086 C275.21696548 38.8739695 275.21696548 38.8739695 275.24154663 40.80198669 C275.25305091 42.18959874 275.26365657 43.57721848 275.2734375 44.96484375 C275.27876118 45.66744387 275.28408485 46.37004398 275.28956985 47.09393501 C275.31635035 50.83108554 275.33568757 54.56820251 275.35009766 58.30541992 C275.363294 61.36335124 275.39086579 64.42059233 275.43212891 67.47827148 C275.80196804 95.52851001 272.79782653 119.18989775 255 142 C254.53207031 142.62003906 254.06414062 143.24007812 253.58203125 143.87890625 C242.04978453 158.31844206 225.42121421 165.64818534 208 170 C207.93006836 170.67353516 207.86013672 171.34707031 207.78808594 172.04101562 C204.39177235 204.08212193 196.60554496 230.45190881 175 255 C174.21109375 255.91458984 174.21109375 255.91458984 173.40625 256.84765625 C165.28729019 265.60867666 154.85559804 272.47411964 144.125 277.5625 C143.44840332 277.88468506 142.77180664 278.20687012 142.07470703 278.53881836 C138.51350005 280.14244591 135.06969221 281.28443634 131.24560547 282.09741211 C130.04772903 282.3547538 130.04772903 282.3547538 128.82565308 282.61729431 C128.22318756 282.74358719 127.62072205 282.86988007 127 283 C127.49983398 284.66554932 127.49983398 284.66554932 128.00976562 286.36474609 C129.24250221 290.47508942 130.47165192 294.58649798 131.69970703 298.69824219 C132.23225304 300.47946075 132.76577822 302.26038686 133.30029297 304.04101562 C134.06734215 306.5968975 134.83089187 309.15380205 135.59375 311.7109375 C135.83436157 312.50994476 136.07497314 313.30895203 136.32287598 314.13217163 C138 319.77225659 138 319.77225659 138 322 C139.20011719 321.97905273 140.40023437 321.95810547 141.63671875 321.93652344 C146.11690193 321.86376813 150.59703355 321.81807168 155.07763672 321.78027344 C157.01164552 321.76023859 158.94559435 321.73300271 160.87939453 321.69824219 C163.66974743 321.64936429 166.45929501 321.62694981 169.25 321.609375 C170.533302 321.57840729 170.533302 321.57840729 171.8425293 321.54681396 C178.41340138 321.54439369 183.54407296 322.90025708 188.51855469 327.36204529 C191.63927454 330.81166101 193.13322432 334.3802898 194.5 338.76953125 C194.70302734 339.40880051 194.90605469 340.04806976 195.11523438 340.70671082 C195.75672778 342.73810147 196.37850363 344.77491443 197 346.8125 C197.41541058 348.13516078 197.83207 349.45743001 198.25 350.77929688 C201.29039243 360.48479958 204.12983326 370.2414331 207 380 C138.69 380 70.38 380 0 380 C15.93339863 328.21645446 15.93339863 328.21645446 23 324 C27.75454538 321.51789818 32.23014854 321.74274293 37.45703125 321.8046875 C38.35999435 321.8075174 39.26295746 321.81034729 40.19328308 321.81326294 C43.06649234 321.82442393 45.93938555 321.84952103 48.8125 321.875 C50.76496944 321.88503507 52.71744379 321.89416 54.66992188 321.90234375 C59.44673566 321.92434992 64.22331431 321.95885169 69 322 C69.16798096 321.29907227 69.33596191 320.59814453 69.5090332 319.87597656 C71.49240966 311.75654992 73.78451993 303.75413976 76.1875 295.75 C76.55552734 294.51636719 76.92355469 293.28273438 77.30273438 292.01171875 C78.19946228 289.00709799 79.09858611 286.00321756 80 283 C79.44675049 282.89695557 78.89350098 282.79391113 78.32348633 282.68774414 C72.74046913 281.56072838 67.81685673 279.89682996 62.6875 277.4375 C61.95329834 277.08743896 61.21909668 276.73737793 60.46264648 276.37670898 C53.63705757 273.00900112 47.83147928 268.91160773 42 264 C41.14019531 263.29101562 40.28039062 262.58203125 39.39453125 261.8515625 C11.38051021 237.78990722 2.6726673 205.37269428 -1 170 C-1.84820312 169.79246094 -2.69640625 169.58492187 -3.5703125 169.37109375 C-16.49792345 165.9758201 -27.75692433 160.77977914 -38 152 C-38.58910156 151.55398437 -39.17820312 151.10796875 -39.78515625 150.6484375 C-54.13299024 139.47085384 -64.01584593 118.66486241 -67 101 C-67.11496911 98.65176662 -67.17873345 96.3008058 -67.20874023 93.94995117 C-67.21852402 93.2598143 -67.2283078 92.56967743 -67.23838806 91.85862732 C-67.26817228 89.58676032 -67.2896779 87.31495131 -67.30859375 85.04296875 C-67.31516558 84.26319483 -67.3217374 83.48342091 -67.32850838 82.68001747 C-67.36102498 78.55354245 -67.38549642 74.42709245 -67.4050293 70.30053711 C-67.42284292 66.89683343 -67.45767354 63.49395815 -67.50756836 60.09057617 C-67.56792752 55.96741171 -67.59852491 51.845015 -67.60820198 47.72142982 C-67.61672867 46.156569 -67.63547797 44.59172718 -67.6649456 43.02712059 C-67.93657949 27.78620041 -67.93657949 27.78620041 -62.8638916 22.40432739 C-56.00320383 17.23522219 -47.9885959 17.59004914 -39.74609375 17.70703125 C-38.60463394 17.71127609 -37.46317413 17.71552094 -36.28712463 17.71989441 C-32.6703349 17.73657849 -29.05411902 17.77421234 -25.4375 17.8125 C-22.97331538 17.82756008 -20.50912197 17.84124616 -18.04492188 17.85351562 C-12.02972954 17.88644848 -6.01496179 17.93816009 0 18 C0 12.06 0 6.12 0 0 Z M-33 58 C-33.061875 62.49625 -33.12375 66.9925 -33.1875 71.625 C-33.21481201 73.01154785 -33.24212402 74.3980957 -33.27026367 75.82666016 C-33.38051133 92.63883563 -30.02115897 106.40638946 -18.328125 118.73828125 C-12.38161248 124.51517848 -7.98102501 127.00711562 0 130 C0 106.24 0 82.48 0 58 C-10.89 58 -21.78 58 -33 58 Z M207 58 C207 81.76 207 105.52 207 130 C219.82972178 125.72342607 227.78694725 119.34597455 234.25 107.375 C239.5890863 95.80840647 240.43540918 84.21059573 240.1875 71.625 C240.125625 67.12875 240.06375 62.6325 240 58 C229.11 58 218.22 58 207 58 Z M103 78 C95.575 95.82 95.575 95.82 88 114 C76.78 114.33 65.56 114.66 54 115 C57.87662308 122.07634363 57.87662308 122.07634363 62.15625 128.7890625 C62.70410156 129.58570313 63.25195312 130.38234375 63.81640625 131.203125 C64.64978516 132.40195313 64.64978516 132.40195313 65.5 133.625 C66.05558594 134.43195313 66.61117187 135.23890625 67.18359375 136.0703125 C67.73144531 136.864375 68.27929688 137.6584375 68.84375 138.4765625 C69.63652344 139.64106934 69.63652344 139.64106934 70.4453125 140.82910156 C71.93272727 142.98461114 71.93272727 142.98461114 73.5546875 144.75683594 C76.58562407 148.27548536 77.3151632 150.55186153 76.97265625 155.2265625 C76.13455455 161.01510434 74.83496434 166.69902437 73.4375 172.375 C72.9727792 174.27741077 72.51296368 176.18102802 72.05859375 178.0859375 C71.85548584 178.9114209 71.65237793 179.7369043 71.44311523 180.58740234 C70.97985158 183.10970066 70.92280025 185.44129827 71 188 C75.7429792 185.76167648 80.19908015 183.31054586 84.63671875 180.51171875 C85.62607422 179.88845703 86.61542969 179.26519531 87.63476562 178.62304688 C89.68713135 177.32177085 91.73395024 176.01170892 93.77539062 174.69335938 C94.76087891 174.07654297 95.74636719 173.45972656 96.76171875 172.82421875 C97.64819092 172.25791748 98.53466309 171.69161621 99.44799805 171.1081543 C102.57779464 169.74910458 103.80258981 169.89253281 107 171 C109.58374023 172.35107422 109.58374023 172.35107422 112.30859375 174.0546875 C113.30310547 174.66957031 114.29761719 175.28445312 115.32226562 175.91796875 C116.35029297 176.56378906 117.37832031 177.20960938 118.4375 177.875 C120.47652554 179.14538092 122.51685253 180.41367579 124.55859375 181.6796875 C125.45892334 182.24413574 126.35925293 182.80858398 127.28686523 183.39013672 C130.12842768 185.07620374 133.02898557 186.5563515 136 188 C135.26961039 179.89855204 133.568562 172.17637818 131.72851562 164.26367188 C128.94477948 151.95192921 128.94477948 151.95192921 130.95727539 148.22924805 C132.33340108 146.14919224 133.80022517 144.17069039 135.3125 142.1875 C136.41048287 140.69355582 137.50545165 139.19739253 138.59765625 137.69921875 C139.15984863 136.9314209 139.72204102 136.16362305 140.30126953 135.37255859 C143.07654479 131.49642681 145.6699098 127.50772013 148.25 123.5 C148.72735596 122.76418701 149.20471191 122.02837402 149.6965332 121.27026367 C151.96503937 118.34298191 151.96503937 118.34298191 153 115 C141.78 114.67 130.56 114.34 119 114 C114.05 102.12 109.1 90.24 104 78 C103.67 78 103.34 78 103 78 Z " fill="#414042" transform="translate(166,64)"/>
</svg>
