<?xml version="1.0" encoding="UTF-8"?>
<svg version="1.1" xmlns="http://www.w3.org/2000/svg" width="121" height="242">
<path d="M0 0 C33 0 66 0 100 0 C100 12.54 100 25.08 100 38 C70.3 38 40.6 38 10 38 C10 41.63 10 45.26 10 49 C9.88806039 51.05421101 9.7491438 53.10747538 9.5625 55.15625 C9.42714844 56.72052734 9.42714844 56.72052734 9.2890625 58.31640625 C9 61.5 9 61.5 8.7109375 64.68359375 C8.12309983 71.47731767 7.8781174 78.18134543 8 85 C8.38841064 84.44747559 8.77682129 83.89495117 9.17700195 83.32568359 C15.82786575 73.96173616 23.92888858 67.50088914 35.40234375 65.31640625 C52.69843843 63.20966389 69.58737672 67.06304889 83.76123047 77.26806641 C91.09737174 83.03202441 96.62898284 89.74363425 101 98 C101.32983887 98.61085449 101.65967773 99.22170898 101.99951172 99.85107422 C107.71254166 110.57913829 110.89690921 121.0587218 113 133 C113.19078125 133.93972656 113.3815625 134.87945312 113.578125 135.84765625 C117.08387816 162.04342292 110.70364348 186.84390918 94.8359375 207.8671875 C83.00816994 221.673418 65.62159652 232.41071711 47.31860352 234.40014648 C43.45335367 234.57052872 39.61868895 234.60512358 35.75 234.5625 C35.0748938 234.55990173 34.3997876 234.55730347 33.70422363 234.55462646 C21.98332986 234.48560658 10.0168743 233.6779162 0 227 C-0.36076355 224.25387573 -0.36076355 224.25387573 -0.34057617 220.71435547 C-0.34101425 220.07032776 -0.34145233 219.42630005 -0.34190369 218.76275635 C-0.33981094 216.63059336 -0.31645865 214.49921338 -0.29296875 212.3671875 C-0.28737448 210.89031402 -0.28310359 209.41343498 -0.28010559 207.93655396 C-0.26864335 204.04673937 -0.23916473 200.1572601 -0.20599365 196.26757812 C-0.17532222 192.29952531 -0.16160655 188.3314184 -0.14648438 184.36328125 C-0.11429599 176.57536786 -0.06308345 168.78773089 0 161 C0.99 161.33 1.98 161.66 3 162 C3.7734375 164.84375 3.7734375 164.84375 4.375 168.5 C6.08307486 177.16363741 8.79535887 184.18001368 15.93359375 189.71484375 C24.63014393 195.12347326 33.70958398 196.27661409 43.69921875 194.52734375 C51.32939509 192.57598165 57.39495343 188.83258625 61.75 182.1875 C62.52797052 180.80706073 63.27793446 179.41048646 64 178 C64.36996094 177.28714844 64.73992187 176.57429687 65.12109375 175.83984375 C69.40191034 166.94891699 70.37167539 157.89751499 70.3125 148.125 C70.30512817 146.67927612 70.30512817 146.67927612 70.29760742 145.2043457 C70.11689481 134.21238542 68.03807914 125.26730501 62 116 C61.443125 115.0925 60.88625 114.185 60.3125 113.25 C52.5700403 105.71679597 42.89983861 104.63231811 32.58203125 104.71875 C25.79944187 105.25129791 19.55972148 107.72694511 14.42578125 112.296875 C11.77439356 115.46401207 9.86052429 119.14358606 7.90625 122.76953125 C7.2771875 123.50558594 6.648125 124.24164063 6 125 C4.02 125 2.04 125 0 125 C0 83.75 0 42.5 0 0 Z M6 87 C7 89 7 89 7 89 Z " fill="#FAD029" transform="translate(7,4)"/>
</svg>
