<?xml version="1.0" encoding="UTF-8"?>
<svg version="1.1" xmlns="http://www.w3.org/2000/svg" width="512" height="512">
<path d="M0 0 C1.60887409 -0.00711997 3.21774569 -0.01482158 4.82661438 -0.02307129 C8.18778548 -0.03645673 11.54872196 -0.03811284 14.90991211 -0.03222656 C19.17513917 -0.02634978 23.43922035 -0.05686509 27.70422649 -0.09734344 C31.02555695 -0.12345324 34.34662042 -0.1260768 37.66803932 -0.12245178 C39.23821695 -0.12412279 40.80840973 -0.1335658 42.37848473 -0.15159607 C61.38395637 -0.34579582 77.92552934 5.60396202 91.98046875 18.890625 C105.75790123 33.79735522 112.28285049 51.66766899 111.73828125 71.87890625 C111.39509412 77.82538023 109.87486468 83.33993149 108.140625 89.015625 C107.02932973 93.95223314 107.6857732 97.11373389 109.92578125 101.59375 C112.92706192 108.32434477 112.18564841 116.07935193 109.67578125 122.84375 C105.7604495 131.37016931 99.89057725 135.99910711 91.42578125 139.78125 C87.36858008 140.69205026 83.50210949 140.63430313 79.36328125 140.46875 C79.15703125 141.2525 78.95078125 142.03625 78.73828125 142.84375 C73.99411221 155.35110473 64.6245372 166.27868806 53.36328125 173.46875 C52.70328125 173.46875 52.04328125 173.46875 51.36328125 173.46875 C51.57984375 174.30019531 51.79640625 175.13164062 52.01953125 175.98828125 C52.29796875 177.07496094 52.57640625 178.16164062 52.86328125 179.28125 C53.2809375 180.89966797 53.2809375 180.89966797 53.70703125 182.55078125 C54.36328125 185.46875 54.36328125 185.46875 54.36328125 188.46875 C55.42446167 188.54657715 55.42446167 188.54657715 56.50708008 188.62597656 C100.64691414 192.05919448 100.64691414 192.05919448 117.60742188 202.07104492 C118.68592407 202.70596359 119.76442627 203.34088226 120.87561035 203.99504089 C122.10700745 204.7245269 122.10700745 204.7245269 123.36328125 205.46875 C123.36692688 204.76797333 123.37057251 204.06719666 123.37432861 203.34518433 C123.41227554 196.72451783 123.46920345 190.10431419 123.54718399 183.48399162 C123.58660801 180.08078017 123.61882079 176.67782546 123.63427734 173.27441406 C123.6523895 169.35708753 123.70236343 165.44047241 123.75390625 161.5234375 C123.75513489 160.30759979 123.75636353 159.09176208 123.75762939 157.83908081 C123.94585783 146.94999863 123.94585783 146.94999863 128.36328125 142.46875 C133.87407848 138.66013183 137.68310809 137.9238751 144.30078125 138.21875 C145.08001953 138.23679688 145.85925781 138.25484375 146.66210938 138.2734375 C148.56304256 138.32008617 150.46333294 138.39181171 152.36328125 138.46875 C152.36051587 137.8085275 152.35775049 137.148305 152.35490131 136.46807575 C152.28864214 120.40182778 152.23900103 104.33562734 152.20784473 88.26927662 C152.19237722 80.49969894 152.17128998 72.73021249 152.13696289 64.96069336 C152.10705692 58.18860952 152.0877054 51.41659173 152.08101577 44.64444369 C152.07710551 41.05877071 152.06791847 37.47328673 152.04609108 33.88767433 C152.02191908 29.88442228 152.02131202 25.88149861 152.02270508 21.87817383 C152.00652634 20.09577049 152.00652634 20.09577049 151.99002075 18.27735901 C151.99414474 17.18505981 151.99826874 16.09276062 152.0025177 14.96736145 C151.99975232 14.02068006 151.99698694 13.07399866 151.99413776 12.09862995 C152.61035742 7.70851129 154.57054252 5.24518104 157.69108009 2.18883705 C160.79473714 0.19102327 162.45688817 -0.03755767 166.11849976 -0.05264282 C167.26799606 -0.06681244 168.41749237 -0.08098206 169.6018219 -0.09558105 C170.85389938 -0.09062622 172.10597687 -0.08567139 173.39599609 -0.08056641 C174.73512405 -0.08926608 176.07424206 -0.09963421 177.41334534 -0.11154175 C181.04368128 -0.13828914 184.67360038 -0.13948286 188.30401564 -0.13441515 C191.33822647 -0.13227315 194.3723534 -0.14204914 197.40654624 -0.15162599 C204.56731881 -0.17380567 211.72788157 -0.17469769 218.88867188 -0.16259766 C226.26717027 -0.15052108 233.64490562 -0.17513333 241.02327383 -0.21773779 C247.36573142 -0.25300917 253.70794658 -0.26496634 260.0504986 -0.25846231 C263.83526207 -0.2548419 267.61948138 -0.26005371 271.40415573 -0.28789139 C274.96517048 -0.31310439 278.52499941 -0.30911121 282.08599663 -0.28306961 C284.00859056 -0.27610771 285.93122116 -0.29865578 287.85368347 -0.32220459 C294.29746239 -0.24394769 298.42732324 0.14097626 303.10399818 4.79180336 C305.9130693 8.53255275 306.61452142 11.27778346 306.63070679 15.95858765 C306.64350174 17.63245293 306.64350174 17.63245293 306.65655518 19.34013367 C306.6556488 20.55997452 306.65474243 21.77981537 306.65380859 23.03662109 C306.66052582 24.32479233 306.66724304 25.61296356 306.67416382 26.94017029 C306.69182216 30.47123443 306.69651912 34.00220162 306.69779539 37.53330564 C306.69921766 39.74049225 306.70348868 41.94765426 306.70878983 44.15483475 C306.72728962 51.85812188 306.73546051 59.56133983 306.73388672 67.26464844 C306.73268535 74.44018447 306.7537866 81.61541969 306.78537405 88.79087961 C306.8115437 94.95577322 306.82225373 101.12056862 306.8209759 107.28551733 C306.82046646 110.96564348 306.82613934 114.64550226 306.847332 118.32557297 C306.87033062 122.43128707 306.86118938 126.53632908 306.84912109 130.64208984 C306.86036011 131.85788223 306.87159912 133.07367462 306.88317871 134.3263092 C306.83572524 140.67051988 306.709097 144.68815964 302.36328125 149.46875 C294.44791507 156.61188534 290.95470688 154.46875 278.36328125 154.46875 C278.36328125 195.38875 278.36328125 236.30875 278.36328125 278.46875 C289.25328125 278.46875 300.14328125 278.46875 311.36328125 278.46875 C318.36328125 284.46875 318.36328125 284.46875 319.36328125 286.46875 C319.46939114 288.2645665 319.51154198 290.06429883 319.52391052 291.86320496 C319.53395615 293.00857727 319.54400177 294.15394958 319.55435181 295.33403015 C319.5601828 296.59689346 319.56601379 297.85975677 319.57202148 299.16088867 C319.58155868 300.49956509 319.59144978 301.83823902 319.60166931 303.1769104 C319.63307552 307.58015002 319.65332615 311.98340864 319.671875 316.38671875 C319.67517232 317.13594549 319.67846964 317.88517224 319.68186688 318.65710282 C319.71265307 325.72407564 319.7393597 332.79105271 319.75628567 339.85807323 C319.77818402 348.89522528 319.820132 357.93178252 319.88972324 366.96869677 C319.9369982 373.32377995 319.96122399 379.67870287 319.96848255 386.03395635 C319.97343447 389.82890102 319.98846912 393.62317561 320.02822685 397.4179287 C320.0651687 400.99111262 320.07347935 404.56324595 320.06022072 408.13658524 C320.06030013 410.06643853 320.09010357 411.99621964 320.12091064 413.92582703 C320.04153978 423.41998481 320.04153978 423.41998481 316.44471741 427.73994446 C313.00220424 431.11939469 310.76712499 431.59638814 305.96882629 431.62937927 C304.82345398 431.6394249 303.67808167 431.64947052 302.4980011 431.65982056 C301.23513779 431.66565155 299.97227448 431.67148254 298.67114258 431.67749023 C297.33246616 431.68702743 295.99379223 431.69691853 294.65512085 431.70713806 C290.25188123 431.73854427 285.84862261 431.7587949 281.4453125 431.77734375 C280.69608576 431.78064107 279.94685901 431.78393839 279.17492843 431.78733563 C272.10795561 431.81812182 265.04097854 431.84482845 257.97395802 431.86175442 C248.93680597 431.88365277 239.90024873 431.92560075 230.86333448 431.99519199 C224.5082513 432.04246695 218.15332838 432.06669274 211.7980749 432.0739513 C208.00313023 432.07890322 204.20885564 432.09393787 200.41410255 432.1336956 C196.84091863 432.17063745 193.2687853 432.1789481 189.69544601 432.16568947 C187.76559272 432.16576888 185.83581161 432.19557232 183.90620422 432.22637939 C177.4958516 432.17278904 173.32167218 431.82003088 168.62089062 427.24502659 C165.85656205 423.34062491 165.11335211 419.80821395 165.12277222 415.08403015 C165.11864822 413.48344505 165.11864822 413.48344505 165.11444092 411.8505249 C165.12163147 410.69030823 165.12882202 409.53009155 165.13623047 408.3347168 C165.13593842 407.10503677 165.13564636 405.87535675 165.13534546 404.6084137 C165.13649848 401.24508388 165.14651569 397.88200082 165.16049337 394.51871467 C165.17301213 391.00066848 165.17417213 387.48261886 165.17654419 383.96455383 C165.1827556 377.3064869 165.19916181 370.64848579 165.21924317 363.99044782 C165.24161274 356.40886508 165.25259826 348.82727917 165.26263404 341.24567163 C165.28352835 325.65332528 165.31910149 310.06104872 165.36328125 294.46875 C161.40328125 294.13875 157.44328125 293.80875 153.36328125 293.46875 C153.38422852 295.06678467 153.40517578 296.66481934 153.42675781 298.3112793 C153.49965689 304.29181813 153.5452618 310.27231841 153.58300781 316.25317383 C153.6030101 318.83201726 153.63022081 321.410816 153.66503906 323.98950195 C153.71405942 327.71577039 153.73636499 331.44143447 153.75390625 335.16796875 C153.77455139 336.3039299 153.79519653 337.43989105 153.81646729 338.61027527 C153.82044332 353.08866838 149.06798246 365.68467464 139.11328125 376.21875 C131.5741845 383.37836202 122.0320662 389.46875 111.36328125 389.46875 C111.36328125 403.32875 111.36328125 417.18875 111.36328125 431.46875 C51.30328125 431.46875 -8.75671875 431.46875 -70.63671875 431.46875 C-70.63671875 417.60875 -70.63671875 403.74875 -70.63671875 389.46875 C-72.94671875 389.13875 -75.25671875 388.80875 -77.63671875 388.46875 C-89.85491459 384.99385026 -100.09787036 376.30319701 -106.43359375 365.3671875 C-109.37664177 359.6072221 -111.74126642 354.70039595 -111.7906189 348.1783905 C-111.79921936 347.32791138 -111.80781982 346.47743225 -111.81668091 345.60118103 C-111.82094086 344.67600174 -111.82520081 343.75082245 -111.82958984 342.79760742 C-111.83776733 341.81649994 -111.84594482 340.83539246 -111.85437012 339.82455444 C-111.87919642 336.57444866 -111.89573971 333.32438671 -111.91015625 330.07421875 C-111.91547993 328.96025537 -111.9208036 327.846292 -111.9262886 326.69857216 C-111.95301753 320.79392816 -111.97238696 314.88930521 -111.98681641 308.98461914 C-112.00011347 304.11854072 -112.02788871 299.25288581 -112.06884766 294.38696289 C-112.11843772 288.49488164 -112.14297068 282.60318225 -112.15004349 276.71090126 C-112.1567157 274.47643173 -112.17183109 272.24196935 -112.1959343 270.00761986 C-112.43602823 246.38961344 -106.87038655 229.54505198 -90.63671875 211.96875 C-72.88956914 194.82116626 -49.50252249 192.51414405 -26.18359375 189.38671875 C-25.49773193 189.29325668 -24.81187012 189.19979462 -24.10522461 189.10350037 C-20.54813174 188.63998375 -17.24618937 188.46875 -13.63671875 188.46875 C-12.64671875 183.84875 -11.65671875 179.22875 -10.63671875 174.46875 C-12.43109375 173.19 -14.22546875 171.91125 -16.07421875 170.59375 C-26.34687936 162.97786008 -33.38136227 154.09474763 -38.63671875 142.46875 C-38.63671875 141.80875 -38.63671875 141.14875 -38.63671875 140.46875 C-39.93609375 140.55125 -41.23546875 140.63375 -42.57421875 140.71875 C-48.00191695 140.71875 -51.92695343 139.02879289 -56.63671875 136.46875 C-57.68859375 135.911875 -58.74046875 135.355 -59.82421875 134.78125 C-65.85644428 129.82142012 -70.09339244 122.81711833 -70.88671875 115.0078125 C-71.1171831 109.86557675 -70.67635835 106.0019718 -68.57421875 101.28125 C-66.05383918 95.57911466 -66.81846937 91.51161488 -68.38671875 85.6796875 C-73.2231555 66.93849511 -70.73178547 49.94716301 -61.61328125 32.7578125 C-52.04973524 16.84376954 -37.50935446 6.32161179 -19.76010132 1.11347961 C-13.26291717 -0.22767119 -6.60773501 -0.00358643 0 0 Z M-43.32421875 33.15625 C-51.44565383 42.95473316 -56.37300211 56.18817697 -55.94140625 68.9921875 C-55.25636378 74.56035324 -53.93935707 80.01782892 -52.63671875 85.46875 C-48.6672657 85.44094297 -45.29014132 85.07811887 -41.63671875 83.46875 C-39.78892051 80.57327668 -38.81770371 77.7619128 -37.72265625 74.51171875 C-34.80138775 66.32586205 -28.13730176 62.23715885 -20.63671875 58.46875 C-13.95836189 55.77172127 -6.75452189 55.87548161 0.36328125 55.46875 C0.36328125 60.41875 0.36328125 65.36875 0.36328125 70.46875 C-1.28671875 70.406875 -2.93671875 70.345 -4.63671875 70.28125 C-10.9804939 70.32191523 -15.77810766 70.90955865 -20.61328125 75.23828125 C-26.37556624 81.43925871 -27.94824025 87.03859293 -27.9375 95.47265625 C-27.94178513 96.23239243 -27.94607025 96.9921286 -27.95048523 97.77488708 C-27.9562067 99.3792929 -27.95674494 100.98372465 -27.95239258 102.58813477 C-27.94925937 104.99998331 -27.97262424 107.41057077 -27.99804688 109.82226562 C-28.06590387 126.09903064 -25.54652117 140.21451826 -14.26171875 152.65625 C-3.59759265 162.78636068 8.82440482 166.81136198 23.3203125 166.61328125 C34.79887133 166.06808654 46.21752571 161.79963635 54.36328125 153.46875 C65.04533601 140.18948977 68.73955521 129.14069529 68.55859375 112.11328125 C68.55434891 110.57180672 68.55434891 110.57180672 68.55001831 108.99919128 C68.53894225 105.75975229 68.51386208 102.52060354 68.48828125 99.28125 C68.47823517 97.06706132 68.46911219 94.85286825 68.4609375 92.63867188 C68.43904429 87.24858836 68.40460317 81.85871816 68.36328125 76.46875 C73.31328125 76.46875 78.26328125 76.46875 83.36328125 76.46875 C83.36328125 78.77875 83.36328125 81.08875 83.36328125 83.46875 C86.66328125 84.12875 89.96328125 84.78875 93.36328125 85.46875 C97.38213303 70.20668192 97.55040512 56.01011541 90.17578125 41.59375 C82.20278743 28.80272004 70.69626764 19.4090977 55.95068359 15.89355469 C45.30640052 13.88896149 34.52499692 14.16708655 23.734375 14.20800781 C20.37091035 14.21872569 17.00797967 14.2080677 13.64453125 14.1953125 C-8.76684142 14.17840303 -27.04293216 16.02365431 -43.32421875 33.15625 Z M167.36328125 14.46875 C167.36328125 55.38875 167.36328125 96.30875 167.36328125 138.46875 C208.28328125 138.46875 249.20328125 138.46875 291.36328125 138.46875 C291.36328125 97.54875 291.36328125 56.62875 291.36328125 14.46875 C282.45328125 14.46875 273.54328125 14.46875 264.36328125 14.46875 C264.36328125 28.32875 264.36328125 42.18875 264.36328125 56.46875 C240.93328125 56.46875 217.50328125 56.46875 193.36328125 56.46875 C193.36328125 42.60875 193.36328125 28.74875 193.36328125 14.46875 C184.78328125 14.46875 176.20328125 14.46875 167.36328125 14.46875 Z M208.36328125 14.46875 C208.36328125 23.37875 208.36328125 32.28875 208.36328125 41.46875 C212.65328125 41.46875 216.94328125 41.46875 221.36328125 41.46875 C221.36328125 32.55875 221.36328125 23.64875 221.36328125 14.46875 C217.07328125 14.46875 212.78328125 14.46875 208.36328125 14.46875 Z M236.36328125 14.46875 C236.36328125 23.37875 236.36328125 32.28875 236.36328125 41.46875 C240.65328125 41.46875 244.94328125 41.46875 249.36328125 41.46875 C249.36328125 32.55875 249.36328125 23.64875 249.36328125 14.46875 C245.07328125 14.46875 240.78328125 14.46875 236.36328125 14.46875 Z M83.36328125 98.46875 C83.36328125 107.37875 83.36328125 116.28875 83.36328125 125.46875 C91.02919617 123.35060684 91.02919617 123.35060684 95.36328125 117.46875 C96.77051788 113.18623358 96.5229919 110.06766493 95.36328125 105.71875 C92.78131549 101.52305564 90.82694769 100.46145823 86.36328125 98.46875 C85.37328125 98.46875 84.38328125 98.46875 83.36328125 98.46875 Z M-52.63671875 102.46875 C-55.42217619 106.85795566 -56.18863265 110.5074664 -55.26953125 115.54296875 C-54.12294844 119.03226089 -52.31796495 121.02065564 -49.63671875 123.46875 C-47.32671875 124.12875 -45.01671875 124.78875 -42.63671875 125.46875 C-42.63671875 116.55875 -42.63671875 107.64875 -42.63671875 98.46875 C-46.3915951 98.46875 -49.60203524 100.36924447 -52.63671875 102.46875 Z M139.36328125 154.46875 C139.18140677 163.09309772 139.03513524 171.71591619 138.94878387 180.34167671 C138.90730633 184.3484726 138.85119936 188.35387134 138.75976562 192.35986328 C138.67183332 196.23740909 138.62480178 200.11362509 138.60426331 203.99209213 C138.58965813 205.46000956 138.56114374 206.92786705 138.5174408 208.39520645 C138.23260381 218.36972446 139.95332309 225.03601031 145.40270996 233.29367065 C153.63455396 246.6248655 152.71588864 263.57872008 153.36328125 278.46875 C189.66328125 278.46875 225.96328125 278.46875 263.36328125 278.46875 C263.36328125 237.54875 263.36328125 196.62875 263.36328125 154.46875 C254.45328125 154.46875 245.54328125 154.46875 236.36328125 154.46875 C236.36328125 167.99875 236.36328125 181.52875 236.36328125 195.46875 C212.93328125 195.46875 189.50328125 195.46875 165.36328125 195.46875 C165.36328125 181.93875 165.36328125 168.40875 165.36328125 154.46875 C156.78328125 154.46875 148.20328125 154.46875 139.36328125 154.46875 Z M181.36328125 154.46875 C181.03328125 163.04875 180.70328125 171.62875 180.36328125 180.46875 C184.65328125 180.46875 188.94328125 180.46875 193.36328125 180.46875 C193.36328125 171.88875 193.36328125 163.30875 193.36328125 154.46875 C189.40328125 154.46875 185.44328125 154.46875 181.36328125 154.46875 Z M208.36328125 154.46875 C208.36328125 163.04875 208.36328125 171.62875 208.36328125 180.46875 C212.65328125 180.46875 216.94328125 180.46875 221.36328125 180.46875 C221.36328125 171.88875 221.36328125 163.30875 221.36328125 154.46875 C217.07328125 154.46875 212.78328125 154.46875 208.36328125 154.46875 Z M4.36328125 180.46875 C1.1935898 187.86930283 1.1935898 187.86930283 2.36328125 194.46875 C4.02108964 196.67369525 4.02108964 196.67369525 6.1796875 198.67578125 C6.94345703 199.42666016 7.70722656 200.17753906 8.49414062 200.95117188 C9.29658203 201.72009766 10.09902344 202.48902344 10.92578125 203.28125 C12.13524414 204.46364258 12.13524414 204.46364258 13.36914062 205.66992188 C15.35848294 207.61217916 17.35655396 209.54448661 19.36328125 211.46875 C24.34209788 209.23669947 27.79577171 205.59771885 31.67578125 201.84375 C32.42923828 201.15667969 33.18269531 200.46960938 33.95898438 199.76171875 C37.86269451 196.14453594 37.86269451 196.14453594 39.68896484 191.33691406 C39.27466873 187.4254443 37.8219299 184.11537161 36.36328125 180.46875 C25.80328125 180.46875 15.24328125 180.46875 4.36328125 180.46875 Z M-16.63671875 204.46875 C-15.20667199 211.61898379 -13.44163628 218.7194172 -10.63671875 225.46875 C-8.52892479 226.81148437 -8.52892479 226.81148437 -5.66796875 225.54296875 C-4.50265625 225.08535156 -3.33734375 224.62773437 -2.13671875 224.15625 C-0.38875 223.48142578 -0.38875 223.48142578 1.39453125 222.79296875 C4.41070047 221.65981484 4.41070047 221.65981484 6.36328125 219.46875 C3.82142356 216.78173263 1.25168246 214.12311643 -1.32421875 211.46875 C-2.04544922 210.705625 -2.76667969 209.9425 -3.50976562 209.15625 C-4.21552734 208.434375 -4.92128906 207.7125 -5.6484375 206.96875 C-6.29256592 206.2984375 -6.93669434 205.628125 -7.6003418 204.9375 C-10.68075597 202.71573143 -13.28263365 202.79170745 -16.63671875 204.46875 Z M41.86328125 211.40625 C40.77273437 212.55770508 40.77273437 212.55770508 39.66015625 213.73242188 C37.87254892 215.62587438 36.10923374 217.5369565 34.36328125 219.46875 C37.47490182 221.89194424 40.26564664 223.37418656 43.98828125 224.71875 C44.94992188 225.07453125 45.9115625 225.4303125 46.90234375 225.796875 C49.34251969 226.75704537 49.34251969 226.75704537 51.36328125 225.46875 C52.18633209 223.69483638 52.18633209 223.69483638 52.8359375 221.5390625 C53.22555664 220.34603516 53.22555664 220.34603516 53.62304688 219.12890625 C53.88794922 218.29230469 54.15285156 217.45570313 54.42578125 216.59375 C54.69455078 215.76488281 54.96332031 214.93601562 55.24023438 214.08203125 C55.74045287 212.53771579 56.23759265 210.99239744 56.73071289 209.44580078 C57.26278105 207.78285677 57.81115089 206.12514107 58.36328125 204.46875 C50.08838361 202.0925125 47.32250567 205.3556096 41.86328125 211.40625 Z M-82.73046875 225.40625 C-97.46750448 240.91891919 -97.79602291 260.59570574 -97.8046875 280.59375 C-97.80790734 282.34912136 -97.81127194 284.10449246 -97.81477356 285.85986328 C-97.82073336 289.52442039 -97.82261659 293.18895402 -97.82202148 296.85351562 C-97.82191976 301.52688744 -97.83559718 306.20010771 -97.85279369 310.8734436 C-97.86395977 314.4939034 -97.86593932 318.114327 -97.86541176 321.73480225 C-97.86658396 323.45701624 -97.87096254 325.17923141 -97.87874413 326.90142822 C-97.93740872 341.21834926 -97.65035086 354.18256687 -87.81640625 365.578125 C-80.71058932 372.30995156 -71.54863831 375.50714566 -61.83398438 375.66162109 C-60.90952515 375.67768402 -59.98506592 375.69374695 -59.03259277 375.71029663 C-54.83961038 375.75502394 -50.64677828 375.79575685 -46.45361328 375.81884766 C-44.24224353 375.83545002 -42.03092835 375.86279571 -39.81982422 375.90087891 C-36.62309083 375.95559305 -33.42760697 375.9775076 -30.23046875 375.9921875 C-28.75060486 376.02619156 -28.75060486 376.02619156 -27.24084473 376.06088257 C-22.7775652 376.04712262 -20.32583184 375.9110567 -16.50512695 373.45874023 C-14.10974183 369.62543545 -13.99940029 366.48528517 -14.1484375 362.10546875 C-14.1534729 361.40280884 -14.1585083 360.70014893 -14.16369629 359.97619629 C-14.18971774 357.36912826 -14.25952546 354.76264514 -14.32421875 352.15625 C-14.42734375 346.319375 -14.53046875 340.4825 -14.63671875 334.46875 C-37.73671875 334.46875 -60.83671875 334.46875 -84.63671875 334.46875 C-84.63671875 329.51875 -84.63671875 324.56875 -84.63671875 319.46875 C-80.01671875 319.46875 -75.39671875 319.46875 -70.63671875 319.46875 C-70.63671875 301.31875 -70.63671875 283.16875 -70.63671875 264.46875 C-65.68671875 264.46875 -60.73671875 264.46875 -55.63671875 264.46875 C-55.63671875 282.61875 -55.63671875 300.76875 -55.63671875 319.46875 C-51.34671875 319.46875 -47.05671875 319.46875 -42.63671875 319.46875 C-42.62213623 318.13175049 -42.60755371 316.79475098 -42.5925293 315.41723633 C-42.53449751 310.45033201 -42.4572644 305.48387871 -42.37426758 300.51733398 C-42.34104129 298.36897102 -42.31300222 296.22052125 -42.2902832 294.07202148 C-42.25669544 290.98123224 -42.20437654 287.89123688 -42.1484375 284.80078125 C-42.14204758 283.84226761 -42.13565765 282.88375397 -42.1290741 281.89619446 C-42.01848471 276.86481348 -41.73218711 273.64220119 -38.63671875 269.46875 C-38.63671875 268.80875 -38.63671875 268.14875 -38.63671875 267.46875 C-33.67257456 264.83128224 -28.70489758 265.18031934 -23.234375 265.1940918 C-22.18829071 265.18898087 -21.14220642 265.18386993 -20.06442261 265.17860413 C-16.60929634 265.16471287 -13.15436961 265.16566437 -9.69921875 265.16796875 C-7.29695563 265.16408199 -4.89469319 265.15974737 -2.49243164 265.15498352 C2.54120106 265.14752262 7.57476361 265.147812 12.60839844 265.15307617 C19.06148728 265.1588751 25.5142895 265.14192868 31.96733093 265.1187315 C36.92754802 265.10400761 41.88769584 265.10312056 46.84793091 265.10624123 C49.22739226 265.10572749 51.60685743 265.10047994 53.98629761 265.09042931 C57.31136783 265.07810659 60.63587641 265.08483162 63.9609375 265.09643555 C64.94498566 265.08879181 65.92903381 265.08114807 66.94290161 265.07327271 C71.89551075 265.11151584 75.36487678 265.19953131 79.36328125 268.46875 C83.35701468 273.01776188 82.83757409 278.27738196 82.875 284.01953125 C82.8929512 285.03347458 82.9109024 286.04741791 82.92939758 287.09208679 C82.98345971 290.32176592 83.01738369 293.55129757 83.05078125 296.78125 C83.08395788 298.97462987 83.11844786 301.1679903 83.15429688 303.36132812 C83.23918412 308.7303623 83.30601528 314.09935304 83.36328125 319.46875 C87.65328125 319.46875 91.94328125 319.46875 96.36328125 319.46875 C96.36328125 301.31875 96.36328125 283.16875 96.36328125 264.46875 C101.31328125 264.46875 106.26328125 264.46875 111.36328125 264.46875 C111.36328125 282.61875 111.36328125 300.76875 111.36328125 319.46875 C115.98328125 319.46875 120.60328125 319.46875 125.36328125 319.46875 C125.36328125 324.41875 125.36328125 329.36875 125.36328125 334.46875 C111.50328125 334.46875 97.64328125 334.46875 83.36328125 334.46875 C83.36328125 347.99875 83.36328125 361.52875 83.36328125 375.46875 C106.37478301 376.72742344 106.37478301 376.72742344 126.65234375 367.234375 C135.43533718 358.17064662 138.51629363 347.85879608 138.50854492 335.46655273 C138.51190353 334.68676559 138.51526215 333.90697845 138.51872253 333.1035614 C138.52818657 330.53647242 138.53017378 327.96944907 138.53125 325.40234375 C138.53446723 323.60360183 138.53783164 321.80486016 138.54133606 320.00611877 C138.54731705 316.236088 138.54917717 312.46608011 138.54858398 308.69604492 C138.54848276 303.89730247 138.56209797 299.09870931 138.57935619 294.3000021 C138.59055445 290.58247727 138.59250076 286.86498754 138.59197426 283.14744759 C138.59314404 281.3802648 138.5975086 279.61308081 138.60530663 277.84591484 C138.69217651 256.11487191 136.07547575 238.84073628 120.49609375 222.51171875 C107.44021232 210.07883581 90.45754078 208.06722311 73.36328125 206.46875 C69.76581511 215.66666708 66.48778972 224.93258971 63.48828125 234.34375 C63.17818115 235.3126416 62.86808105 236.2815332 62.54858398 237.27978516 C60.9734239 241.79098696 60.9734239 241.79098696 60.36328125 246.46875 C56.55859306 244.97583935 52.75407652 243.48249215 48.94970703 241.98876953 C47.66003866 241.48246955 46.37032639 240.9762814 45.08056641 240.47021484 C43.82780886 239.97865108 42.57518339 239.48675059 41.32269287 238.99450684 C39.47961495 238.27142012 37.63483213 237.55268399 35.79003906 236.83398438 C33.65580665 235.98369742 31.53261615 235.10441835 29.42871094 234.18164062 C28.56922852 233.80716797 27.70974609 233.43269531 26.82421875 233.046875 C26.0976709 232.7159082 25.37112305 232.38494141 24.62255859 232.04394531 C19.47538972 230.73351416 14.68269236 232.96656582 9.93359375 234.8671875 C8.72574219 235.34671875 7.51789063 235.82625 6.2734375 236.3203125 C5.0116319 236.82790916 3.74991371 237.33572315 2.48828125 237.84375 C1.23460029 238.34431462 -0.01930437 238.84431935 -1.2734375 239.34375 C-3.66556748 240.29652594 -6.05719385 241.25056754 -8.44824219 242.20605469 C-12.16079381 243.67629335 -15.88996321 245.08836638 -19.63671875 246.46875 C-19.86230469 245.29183594 -20.08789062 244.11492187 -20.3203125 242.90234375 C-21.71856125 236.61330421 -23.87527184 230.5795707 -26.00512695 224.50952148 C-26.7057507 222.51263292 -27.39936288 220.51341344 -28.09179688 218.51367188 C-30.10840014 212.3857022 -30.10840014 212.3857022 -32.63671875 206.46875 C-51.80534942 206.46875 -68.63125964 212.35922068 -82.73046875 225.40625 Z M-27.63671875 279.46875 C-27.63671875 292.66875 -27.63671875 305.86875 -27.63671875 319.46875 C-22.75632812 319.47261719 -22.75632812 319.47261719 -17.77734375 319.4765625 C-14.58988883 319.49944512 -11.40268604 319.53245308 -8.21533203 319.56640625 C-6.01780228 319.58445842 -3.82016003 319.59215455 -1.62255859 319.58886719 C23.90394446 319.56567182 23.90394446 319.56567182 33.36035156 328.31689453 C38.83930276 334.09833305 40.91079285 340.00780558 40.80078125 347.84375 C40.79248291 348.59962402 40.78418457 349.35549805 40.77563477 350.13427734 C40.60593979 355.71549084 39.95101693 360.01868023 36.36328125 364.46875 C35.87730469 365.09007812 35.39132813 365.71140625 34.890625 366.3515625 C30.53554767 371.27290284 25.81295513 374.16229685 19.36328125 375.46875 C14.83474905 375.70781416 10.29497245 375.78382492 5.76318359 375.61474609 C3.08965635 375.60936676 0.92171875 375.68108027 -1.63671875 376.46875 C-3.38049888 378.36858932 -4.43310644 380.23075584 -5.59545898 382.52685547 C-7.00640799 385.15820093 -8.5875467 386.14965745 -11.26171875 387.40625 C-12.01710938 387.78652344 -12.7725 388.16679687 -13.55078125 388.55859375 C-18.09552204 389.89900464 -22.91789023 390.03976559 -27.63671875 390.46875 C-27.63671875 399.37875 -27.63671875 408.28875 -27.63671875 417.46875 C4.04328125 417.46875 35.72328125 417.46875 68.36328125 417.46875 C68.36328125 371.92875 68.36328125 326.38875 68.36328125 279.46875 C64.07328125 279.46875 59.78328125 279.46875 55.36328125 279.46875 C55.32589844 280.71011719 55.28851563 281.95148438 55.25 283.23046875 C55.18432175 284.87242511 55.11787505 286.51435087 55.05078125 288.15625 C55.02822266 288.97287109 55.00566406 289.78949219 54.98242188 290.63085938 C54.77257448 295.3428873 54.43962844 298.67435381 51.36328125 302.46875 C48.23969237 305.29799992 46.21566338 305.84863293 42.03149414 305.87280273 C40.43447411 305.89182899 40.43447411 305.89182899 38.80519104 305.91123962 C37.66033737 305.90830399 36.5154837 305.90536835 35.3359375 305.90234375 C34.15486923 305.9075856 32.97380096 305.91282745 31.75694275 305.91822815 C29.25960069 305.9246507 26.76222839 305.92330838 24.26489258 305.91479492 C20.44362497 305.90628972 16.6238541 305.93503833 12.80273438 305.96679688 C10.37630253 305.96840907 7.94986804 305.96783101 5.5234375 305.96484375 C4.38060806 305.97607773 3.23777863 305.98731171 2.06031799 305.99888611 C-5.82549333 305.92960892 -5.82549333 305.92960892 -9.77172852 303.68774414 C-12.69752947 300.20658105 -13.8561572 297.68185281 -14.05078125 293.140625 C-14.08945313 292.34140625 -14.128125 291.5421875 -14.16796875 290.71875 C-14.19890625 289.89375 -14.22984375 289.06875 -14.26171875 288.21875 C-14.30039063 287.37828125 -14.3390625 286.5378125 -14.37890625 285.671875 C-14.47287711 283.60451618 -14.55587439 281.53666373 -14.63671875 279.46875 C-18.92671875 279.46875 -23.21671875 279.46875 -27.63671875 279.46875 Z M0.36328125 279.46875 C0.36328125 283.42875 0.36328125 287.38875 0.36328125 291.46875 C13.56328125 291.46875 26.76328125 291.46875 40.36328125 291.46875 C40.36328125 287.50875 40.36328125 283.54875 40.36328125 279.46875 C27.16328125 279.46875 13.96328125 279.46875 0.36328125 279.46875 Z M181.36328125 293.46875 C181.03328125 334.38875 180.70328125 375.30875 180.36328125 417.46875 C221.61328125 417.46875 262.86328125 417.46875 305.36328125 417.46875 C305.36328125 376.54875 305.36328125 335.62875 305.36328125 293.46875 C296.45328125 293.46875 287.54328125 293.46875 278.36328125 293.46875 C278.36328125 306.99875 278.36328125 320.52875 278.36328125 334.46875 C254.93328125 334.46875 231.50328125 334.46875 207.36328125 334.46875 C207.36328125 320.93875 207.36328125 307.40875 207.36328125 293.46875 C198.78328125 293.46875 190.20328125 293.46875 181.36328125 293.46875 Z M222.36328125 293.46875 C222.36328125 302.04875 222.36328125 310.62875 222.36328125 319.46875 C226.65328125 319.46875 230.94328125 319.46875 235.36328125 319.46875 C235.36328125 310.88875 235.36328125 302.30875 235.36328125 293.46875 C231.07328125 293.46875 226.78328125 293.46875 222.36328125 293.46875 Z M250.36328125 293.46875 C250.36328125 302.04875 250.36328125 310.62875 250.36328125 319.46875 C254.65328125 319.46875 258.94328125 319.46875 263.36328125 319.46875 C263.36328125 310.88875 263.36328125 302.30875 263.36328125 293.46875 C259.07328125 293.46875 254.78328125 293.46875 250.36328125 293.46875 Z M0.36328125 334.46875 C0.36328125 343.37875 0.36328125 352.28875 0.36328125 361.46875 C12.71596124 362.49720448 12.71596124 362.49720448 23.36328125 357.46875 C26.57497028 353.84264948 26.89415086 350.36938068 26.70703125 345.68359375 C26.14836346 342.08399559 24.82134414 340.11589465 22.36328125 337.46875 C15.75050992 333.06023578 8.01059563 334.26572395 0.36328125 334.46875 Z M-55.63671875 390.46875 C-55.63671875 399.37875 -55.63671875 408.28875 -55.63671875 417.46875 C-51.34671875 417.46875 -47.05671875 417.46875 -42.63671875 417.46875 C-42.63671875 408.55875 -42.63671875 399.64875 -42.63671875 390.46875 C-46.92671875 390.46875 -51.21671875 390.46875 -55.63671875 390.46875 Z M83.36328125 390.46875 C83.36328125 399.37875 83.36328125 408.28875 83.36328125 417.46875 C87.65328125 417.46875 91.94328125 417.46875 96.36328125 417.46875 C96.36328125 408.55875 96.36328125 399.64875 96.36328125 390.46875 C92.07328125 390.46875 87.78328125 390.46875 83.36328125 390.46875 Z " fill="#555050" transform="translate(148.63671875,56.53125)"/>
<path d="M0 0 C1.3726682 1.97321053 2.70427617 3.97543152 4 6 C8.35815415 8.80567864 12.99079687 8.64890151 18 8 C22.00631009 5.96042395 24.57198777 3.77690791 27 0 C32.06998019 0.65419099 36.41990777 2.8546409 41 5 C39.82237382 11.34769233 35.47864412 16.29327647 30.265625 19.8828125 C22.6965361 24.11741089 15.50507933 26.36340917 6.80078125 24.5390625 C-2.14947867 21.88366252 -9.32256361 17.14779243 -14 9 C-14 7.68 -14 6.36 -14 5 C-12.421924 4.15675328 -10.8372958 3.32576082 -9.25 2.5 C-8.36828125 2.0359375 -7.4865625 1.571875 -6.578125 1.09375 C-4 0 -4 0 0 0 Z " fill="#555050" transform="translate(156,186)"/>
<path d="M0 0 C4.95 0 9.9 0 15 0 C15.103125 1.98 15.20625 3.96 15.3125 6 C15.79248017 12.39277941 17.23229235 17.10787239 19.87109375 22.91796875 C20 25 20 25 18.12890625 27.359375 C17.28199219 28.14828125 16.43507812 28.9371875 15.5625 29.75 C14.71816406 30.54921875 13.87382812 31.3484375 13.00390625 32.171875 C12.34261719 32.77515625 11.68132812 33.3784375 11 34 C6.97288951 32.51494841 5.75968585 30.3591919 3.8125 26.625 C3.30332031 25.66851562 2.79414063 24.71203125 2.26953125 23.7265625 C0.55017258 20.03390911 -0.12843048 16.95282361 -0.09765625 12.890625 C-0.09443359 12.13652344 -0.09121094 11.38242188 -0.08789062 10.60546875 C-0.07951172 9.82816406 -0.07113281 9.05085938 -0.0625 8.25 C-0.05798828 7.45722656 -0.05347656 6.66445312 -0.04882812 5.84765625 C-0.03708565 3.89840492 -0.01915146 1.94919262 0 0 Z " fill="#555050" transform="translate(189,112)"/>
<path d="M0 0 C4.95 0 9.9 0 15 0 C15.03867188 1.73636719 15.03867188 1.73636719 15.078125 3.5078125 C15.13443349 5.04691128 15.1917802 6.58597233 15.25 8.125 C15.26417969 8.88554688 15.27835938 9.64609375 15.29296875 10.4296875 C15.52245436 15.75375366 16.69734269 18.65370299 20 23 C20 25 20 25 18.390625 26.65625 C17.68421875 27.2646875 16.9778125 27.873125 16.25 28.5 C15.55390625 29.1084375 14.8578125 29.716875 14.140625 30.34375 C12.15539208 31.87976963 10.28127955 32.9723966 8 34 C7.03874097 32.58531689 6.08111675 31.1681636 5.125 29.75 C4.32449219 28.56664062 4.32449219 28.56664062 3.5078125 27.359375 C0.97303768 23.39304342 -0.25351947 20.78859659 -0.1953125 16.015625 C-0.18886719 15.08105469 -0.18242187 14.14648438 -0.17578125 13.18359375 C-0.15902344 12.21550781 -0.14226562 11.24742188 -0.125 10.25 C-0.11597656 9.26644531 -0.10695312 8.28289062 -0.09765625 7.26953125 C-0.07412925 4.84624974 -0.03825937 2.42309369 0 0 Z " fill="#555050" transform="translate(162,112)"/>
<path d="M0 0 C2.4375 1.625 2.4375 1.625 4 4 C4.5625 6.9375 4.5625 6.9375 4 10 C1.9375 12.9375 1.9375 12.9375 -1 15 C-4.54361243 15 -6.86591591 14.65850044 -9.9375 12.875 C-11.6712306 9.81547541 -11.42145216 7.43182475 -11 4 C-8.11188513 -0.5054592 -5.11821063 -0.73117295 0 0 Z " fill="#555050" transform="translate(145,154)"/>
<path d="M0 0 C2.375 1.5625 2.375 1.5625 4 4 C4.5625 7.5 4.5625 7.5 4 11 C1.61186047 13.66106976 -0.01553885 14.77849624 -3.5 15.5625 C-7.23996182 14.72100859 -8.70853575 13.01163873 -11 10 C-11.625 6.9375 -11.625 6.9375 -11 4 C-7.64872034 0.25445214 -4.97139349 -0.84619464 0 0 Z " fill="#555050" transform="translate(200,154)"/>
</svg>
