<?xml version="1.0" encoding="UTF-8"?>
<svg version="1.1" xmlns="http://www.w3.org/2000/svg" width="200" height="200">
<path d="M0 0 C37.62 0 75.24 0 114 0 C114 46.2 114 92.4 114 140 C119.61 140 125.22 140 131 140 C130.53732869 147.63407654 129.29725412 151.95003994 123.5 157.3125 C119.91225669 159.73422673 116.89437736 160.12293401 112.62457275 160.14717102 C111.32105865 160.15790398 111.32105865 160.15790398 109.99121094 160.16885376 C109.04568359 160.17154266 108.10015625 160.17423157 107.12597656 160.17700195 C106.12387146 160.18357315 105.12176636 160.19014435 104.08929443 160.19691467 C100.77307051 160.21662468 97.45689182 160.22830497 94.140625 160.23828125 C92.44002552 160.24439454 92.44002552 160.24439454 90.7050705 160.25063133 C84.70474938 160.27148188 78.70445106 160.28578824 72.70410156 160.29516602 C66.51242256 160.30623056 60.32110291 160.34063432 54.12955093 160.38033772 C49.36309142 160.40650297 44.59671758 160.41485778 39.83019257 160.41844749 C37.54808881 160.42331334 35.26598887 160.43492719 32.98395538 160.45348549 C29.78621553 160.47787506 26.58940627 160.47691191 23.39160156 160.4699707 C21.98545593 160.48918579 21.98545593 160.48918579 20.55090332 160.50878906 C13.7349931 160.45502439 8.19861547 159.00967303 3.13598633 154.24609375 C-0.39909713 148.51945953 -0.6094316 143.62385882 -0.3125 137 C-0.28994141 136.03449219 -0.26738281 135.06898438 -0.24414062 134.07421875 C-0.18573128 131.71448126 -0.10390208 129.35809777 0 127 C1.65 127 3.3 127 5 127 C5.03738281 128.15757812 5.07476562 129.31515625 5.11328125 130.5078125 C5.17897425 132.04690561 5.24542042 133.5859667 5.3125 135.125 C5.33505859 135.88554687 5.35761719 136.64609375 5.38085938 137.4296875 C5.65145363 143.13676624 6.72055781 147.55774052 10.75 151.875 C13.97517523 153.48758762 16.43848601 153.31241351 20 153 C22.475 152.01 22.475 152.01 25 151 C25.99 147.37 26.98 143.74 28 140 C54.4 140 80.8 140 108 140 C108 95.78 108 51.56 108 6 C74.01 6 40.02 6 5 6 C5 15.24 5 24.48 5 34 C3.35 34 1.7 34 0 34 C0 22.78 0 11.56 0 0 Z M33 146 C29.8509288 151.18010841 29.8509288 151.18010841 30 154 C41.37004091 154.11590926 52.739941 154.20472345 64.11045265 154.25906086 C69.39041657 154.28514176 74.66997594 154.32051272 79.94970703 154.37719727 C85.04608505 154.43157015 90.14207423 154.46143188 95.23871994 154.47438622 C97.1820017 154.48361658 99.12526246 154.50164161 101.06837845 154.52865028 C103.79295898 154.56501095 106.51593808 154.56994245 109.24072266 154.56762695 C110.44266266 154.59459152 110.44266266 154.59459152 111.66888428 154.62210083 C115.7271983 154.5848438 118.29318132 154.18477582 121.54745483 151.65202332 C124.33947799 149.23494884 124.33947799 149.23494884 124 146 C93.97 146 63.94 146 33 146 Z " fill="#58595B" transform="translate(64,20)"/>
<path d="M0 0 C0.83289551 0.45665039 1.66579102 0.91330078 2.52392578 1.38378906 C3.47388428 1.90094482 4.42384277 2.41810059 5.40258789 2.95092773 C6.92057983 3.79167847 6.92057983 3.79167847 8.46923828 4.64941406 C10.03847046 5.51046753 10.03847046 5.51046753 11.6394043 6.38891602 C14.96240095 8.21734726 18.27876646 10.0573782 21.59423828 11.89941406 C22.7017041 12.51155762 23.80916992 13.12370117 24.95019531 13.75439453 C28.14833964 15.52431481 31.34114841 17.30341727 34.53173828 19.08691406 C36.02326416 19.91497559 36.02326416 19.91497559 37.54492188 20.75976562 C38.45709473 21.2737793 39.36926758 21.78779297 40.30908203 22.31738281 C41.11466553 22.76879639 41.92024902 23.22020996 42.75024414 23.68530273 C44.59423828 24.89941406 44.59423828 24.89941406 45.59423828 26.89941406 C44.79840332 27.35268066 44.00256836 27.80594727 43.18261719 28.27294922 C40.18144921 29.98298291 37.18087086 31.69404263 34.18066406 33.40576172 C32.89117909 34.14118867 31.60147194 34.87622622 30.31152344 35.61083984 C29.05844451 36.32452038 27.80573603 37.03885177 26.55340576 37.75384521 C25.31733134 38.45893764 24.08006827 39.16195047 22.84161377 39.862854 C18.35221536 42.41712788 14.01957738 45.16251454 9.75585938 48.07666016 C7.59423828 48.89941406 7.59423828 48.89941406 5.13183594 48.23388672 C2.56658758 46.8848731 0.07953872 45.39059433 -2.40576172 43.89941406 C-2.40576172 54.12941406 -2.40576172 64.35941406 -2.40576172 74.89941406 C2.82908594 71.50524518 2.82908594 71.50524518 8.06298828 68.10961914 C10.23703121 66.701456 12.41534717 65.30006211 14.59423828 63.89941406 C15.34576172 63.41134277 16.09728516 62.92327148 16.87158203 62.42041016 C17.58443359 61.96359863 18.29728516 61.50678711 19.03173828 61.03613281 C19.66982422 60.62451904 20.30791016 60.21290527 20.96533203 59.78881836 C22.59423828 58.89941406 22.59423828 58.89941406 24.59423828 58.89941406 C24.59423828 52.95941406 24.59423828 47.01941406 24.59423828 40.89941406 C26.57423828 40.89941406 28.55423828 40.89941406 30.59423828 40.89941406 C31.7220374 47.82140166 32.68421885 55.09156147 30.59423828 61.89941406 C26.74262055 66.79425701 20.67818323 69.09356841 15.1484375 71.6328125 C10.14360931 74.11465619 5.6559886 77.45450093 1.07885742 80.63818359 C-3.89523735 83.95585945 -3.89523735 83.95585945 -6.33789062 83.68579102 C-8.7483188 82.76914531 -10.77962639 81.60557742 -12.96826172 80.23925781 C-14.27972168 79.42473145 -14.27972168 79.42473145 -15.61767578 78.59375 C-16.53774414 78.01399414 -17.4578125 77.43423828 -18.40576172 76.83691406 C-19.34387695 76.25071289 -20.28199219 75.66451172 -21.24853516 75.06054688 C-40.01490885 63.29026693 -40.01490885 63.29026693 -42.40576172 60.89941406 C-42.3927331 59.06388945 -42.32304915 57.22871772 -42.22998047 55.39550781 C-41.30930191 43.64368299 -41.30930191 43.64368299 -44.82275391 32.88720703 C-48.54261527 29.73923571 -52.75376061 28.18396663 -57.40576172 26.89941406 C-54.91760796 24.10083201 -52.17930259 22.50761392 -48.90966797 20.71191406 C-47.80252441 20.10025391 -46.69538086 19.48859375 -45.5546875 18.85839844 C-44.35943341 18.2049989 -43.16395349 17.55201231 -41.96826172 16.89941406 C-40.13451996 15.89410902 -38.30126326 14.88792321 -36.46801758 13.88171387 C-35.23452057 13.20497767 -34.00063225 12.52895423 -32.76635742 11.8536377 C-28.93538955 9.75402656 -25.13331523 7.61050929 -21.34716797 5.43066406 C-20.44216553 4.91503906 -19.53716309 4.39941406 -18.60473633 3.86816406 C-16.92610732 2.91031221 -15.25338348 1.94201394 -13.58764648 0.96191406 C-12.83926514 0.53910156 -12.09088379 0.11628906 -11.31982422 -0.31933594 C-10.67996582 -0.68994141 -10.04010742 -1.06054688 -9.38085938 -1.44238281 C-5.89871336 -2.6028112 -3.23564988 -1.48024251 0 0 Z M-12.19091797 6.96191406 C-12.76660019 7.27265869 -13.34228241 7.58340332 -13.93540955 7.90356445 C-15.78075346 8.9002344 -17.62451652 9.89979028 -19.46826172 10.89941406 C-20.71620583 11.57408334 -21.9642514 12.248565 -23.21240234 12.92285156 C-26.27803732 14.57952718 -29.3422606 16.23879519 -32.40576172 17.89941406 C-30.04878776 24.97033595 -19.09585669 29.01860253 -12.81201172 32.32128906 C-7.65022537 34.7677525 -7.65022537 34.7677525 -2.12451172 34.54003906 C0.85882159 32.99363235 3.39048249 31.35301015 5.95996094 29.19091797 C8.88496663 26.87940316 12.20249513 25.23704065 15.46923828 23.46191406 C17.51785461 22.28598089 19.55543632 21.09233011 21.59423828 19.89941406 C19.10741922 17.09373164 16.37447271 15.53117213 13.08642578 13.76269531 C12.01779297 13.18583984 10.94916016 12.60898438 9.84814453 12.01464844 C8.73310547 11.41974609 7.61806641 10.82484375 6.46923828 10.21191406 C5.34646484 9.60541016 4.22369141 8.99890625 3.06689453 8.37402344 C-4.54732389 3.79507488 -4.54732389 3.79507488 -12.19091797 6.96191406 Z M-43.65576172 24.89941406 C-44.23326172 25.55941406 -44.81076172 26.21941406 -45.40576172 26.89941406 C-41.49385738 29.22004284 -37.5754671 31.52949024 -33.65576172 33.83691406 C-31.98900391 34.82594727 -31.98900391 34.82594727 -30.28857422 35.83496094 C-29.21865234 36.46337891 -28.14873047 37.09179688 -27.04638672 37.73925781 C-26.06186523 38.32054443 -25.07734375 38.90183105 -24.06298828 39.50073242 C-21.75024154 40.71809057 -19.9896578 41.59740474 -17.40576172 41.89941406 C-14.67594339 40.54540761 -14.67594339 40.54540761 -12.40576172 38.89941406 C-16.65408851 34.36509519 -21.54254115 31.69124065 -26.90576172 28.64941406 C-27.85580078 28.09511719 -28.80583984 27.54082031 -29.78466797 26.96972656 C-30.70119141 26.44636719 -31.61771484 25.92300781 -32.56201172 25.38378906 C-33.39539062 24.90651367 -34.22876953 24.42923828 -35.08740234 23.9375 C-38.70727516 22.31663867 -40.66084032 22.2372617 -43.65576172 24.89941406 Z M13.34423828 29.71191406 C12.21759766 30.35451172 11.09095703 30.99710938 9.93017578 31.65917969 C8.33302734 32.59213867 8.33302734 32.59213867 6.70361328 33.54394531 C5.72360352 34.1147583 4.74359375 34.68557129 3.73388672 35.27368164 C3.02780273 35.81017334 2.32171875 36.34666504 1.59423828 36.89941406 C1.59423828 37.88941406 1.59423828 38.87941406 1.59423828 39.89941406 C5.14016836 41.49438913 6.83510647 42.16931376 10.5703125 40.84130859 C11.58625488 40.24431152 12.60219727 39.64731445 13.64892578 39.03222656 C14.75751953 38.39414063 15.86611328 37.75605469 17.00830078 37.09863281 C18.16220872 36.40766409 19.31585137 35.71625215 20.46923828 35.02441406 C21.64523628 34.33895488 22.82231094 33.65533931 24.00048828 32.97363281 C26.8761863 31.30007085 29.73952297 29.60844119 32.59423828 27.89941406 C32.59423828 26.90941406 32.59423828 25.91941406 32.59423828 24.89941406 C25.61589806 20.24718725 19.60297703 26.02709978 13.34423828 29.71191406 Z M-36.40576172 38.89941406 C-37.87325554 50.04470338 -37.87325554 50.04470338 -34.77685547 60.33300781 C-32.09100319 62.15538812 -29.32939459 63.48530259 -26.40576172 64.89941406 C-23.34144325 66.81302957 -20.34858804 68.83231255 -17.34326172 70.83691406 C-15.85549837 71.80915633 -14.36482386 72.77696565 -12.87060547 73.73925781 C-12.22728271 74.15554443 -11.58395996 74.57183105 -10.92114258 75.00073242 C-9.55604452 75.9844286 -9.55604452 75.9844286 -8.40576172 75.89941406 C-8.40576172 65.00941406 -8.40576172 54.11941406 -8.40576172 42.89941406 C-11.37576172 44.54941406 -14.34576172 46.19941406 -17.40576172 47.89941406 C-20.08154297 47.43847656 -20.08154297 47.43847656 -22.40576172 45.89941406 C-23.40994141 45.32964844 -24.41412109 44.75988281 -25.44873047 44.17285156 C-27.55311473 42.90237858 -29.6572798 41.63154247 -31.76123047 40.36035156 C-34.1939931 38.7382288 -34.1939931 38.7382288 -36.40576172 38.89941406 Z " fill="#58595B" transform="translate(62.40576171875,59.1005859375)"/>
<path d="M0 0 C9.71428571 5.14285714 9.71428571 5.14285714 13 9 C11.68 10.32 10.36 11.64 9 13 C8.01 12.67 7.02 12.34 6 12 C6.0825 13.11375 6.165 14.2275 6.25 15.375 C6.25 21.86753088 3.62324199 27.51102895 0.125 32.875 C-5.54589055 38.54589055 -11.38236998 41.04365752 -19.3125 41.375 C-26.23110729 41.26173494 -31.33235882 38.77842745 -37 35 C-36.67 33.68 -36.34 32.36 -36 31 C-34.25 30.3125 -34.25 30.3125 -32 30 C-29.9375 31.375 -29.9375 31.375 -28 33 C-22.39614002 34.86795333 -16.29258879 34.73535867 -10.6875 32.9375 C-6.31974842 29.78865584 -2.71976605 26.15929816 -1 21 C-0.93334624 19.60560336 -0.91461801 18.20830125 -0.9375 16.8125 C-0.958125 15.554375 -0.97875 14.29625 -1 13 C-1.33 13.66 -1.66 14.32 -2 15 C-4.86724686 14.42655063 -5.8614515 14.1385485 -8 12 C-5.36 8.04 -2.72 4.08 0 0 Z " fill="#58595B" transform="translate(155,46)"/>
<path d="M0 0 C6.94492707 0.46299514 12.60626657 2.43812034 17.75 7.25 C17.09 8.57 16.43 9.89 15.75 11.25 C12.54478745 11.25 11.7772734 10.82171757 9.125 9.25 C3.90028356 6.57065824 -0.80246404 6.14629244 -6.421875 7.9453125 C-11.31243602 10.13319506 -14.18719116 12.88781771 -17.25 17.25 C-18.16692961 20.00078884 -18.35886083 21.60948913 -18.3125 24.4375 C-18.291875 25.695625 -18.27125 26.95375 -18.25 28.25 C-17.92 27.59 -17.59 26.93 -17.25 26.25 C-15.6 26.91 -13.95 27.57 -12.25 28.25 C-12.88389235 31.74844386 -14.30177694 34.09086876 -16.3125 37 C-16.86035156 37.79921875 -17.40820312 38.5984375 -17.97265625 39.421875 C-18.39417969 40.02515625 -18.81570312 40.6284375 -19.25 41.25 C-22.81305823 39.96455342 -25.57844233 38.45155344 -28.5625 36.125 C-29.25988281 35.58617187 -29.95726563 35.04734375 -30.67578125 34.4921875 C-31.19527344 34.08226562 -31.71476562 33.67234375 -32.25 33.25 C-31.59 31.93 -30.93 30.61 -30.25 29.25 C-28.6 29.58 -26.95 29.91 -25.25 30.25 C-25.29640625 29.63253906 -25.3428125 29.01507813 -25.390625 28.37890625 C-25.72973705 20.4218842 -24.07014577 14.69684483 -19 8.5 C-12.86419434 3.47979537 -7.95426209 0.61186631 0 0 Z " fill="#58595B" transform="translate(133.25,32.75)"/>
<path d="M0 0 C21.12 0 42.24 0 64 0 C64 1.98 64 3.96 64 6 C42.88 6 21.76 6 0 6 C0 4.02 0 2.04 0 0 Z " fill="#58595B" transform="translate(99,128)"/>
<path d="M0 0 C21.12 0 42.24 0 64 0 C64 1.65 64 3.3 64 5 C42.88 5 21.76 5 0 5 C0 3.35 0 1.7 0 0 Z " fill="#58595B" transform="translate(99,142)"/>
<path d="M0 0 C11.55 0 23.1 0 35 0 C35 1.65 35 3.3 35 5 C23.45 5 11.9 5 0 5 C0 3.35 0 1.7 0 0 Z " fill="#58595B" transform="translate(128,115)"/>
<path d="M0 0 C11.55 0 23.1 0 35 0 C35 1.65 35 3.3 35 5 C23.45 5 11.9 5 0 5 C0 3.35 0 1.7 0 0 Z " fill="#58595B" transform="translate(128,103)"/>
</svg>
