<?xml version="1.0" encoding="UTF-8"?>
<svg version="1.1" xmlns="http://www.w3.org/2000/svg" width="512" height="512">
<path d="M0 0 C1.09423782 0.29462128 2.18847565 0.58924255 3.31587219 0.89279175 C6.90077894 1.8595306 10.48379547 2.83305955 14.06665039 3.80737305 C16.57804413 4.4877312 19.0894839 5.16791945 21.60096741 5.84794617 C26.85278977 7.27087911 32.10342448 8.6981356 37.35351562 10.12744141 C43.39136216 11.77109486 49.43169987 13.4053411 55.47330755 15.03510982 C61.323452 16.61369615 67.17109352 18.20137129 73.01785469 19.79244041 C75.48850475 20.46357128 77.95985389 21.13213447 80.43192863 21.79799843 C83.89818587 22.73258449 87.3614613 23.67754112 90.82421875 24.625 C91.82977814 24.89375443 92.83533752 25.16250885 93.87136841 25.43940735 C108.15463522 29.38030103 121.67665403 34.66066595 129.47680664 48.0065918 C132.28216363 53.70636474 134.62910233 58.59467353 134.47680664 65.0065918 C152.6090958 55.15618633 170.56459184 45.01425145 188.36743164 34.58081055 C196.9458907 29.55449982 205.56011705 24.59046087 214.17993164 19.63549805 C218.2642149 17.28722298 222.3363541 14.91997401 226.39868164 12.53393555 C227.33172119 11.9901123 228.26476074 11.44628906 229.22607422 10.88598633 C230.94358246 9.88489942 232.65736954 8.8773826 234.36621094 7.86157227 C246.6986063 0.70972836 258.54581041 -2.53815685 272.72680664 1.0690918 C283.41178193 4.89150392 291.47775706 11.38760744 296.75415039 21.44018555 C301.71489014 32.19139733 302.43907003 44.68704284 298.53930664 55.9440918 C292.70703699 68.89753046 282.32360462 75.24762619 270.47680664 82.0065918 C269.62248047 82.49498535 268.7681543 82.98337891 267.88793945 83.48657227 C263.11186024 86.20778676 258.32248996 88.90464977 253.52758789 91.5925293 C247.53611795 94.95965234 241.59499278 98.40876859 235.66430664 101.8815918 C224.05738584 108.67544896 212.41287712 115.40249061 200.7590332 122.11547852 C195.33020722 125.24339328 189.90361383 128.37517628 184.47680664 131.5065918 C182.31015081 132.75661059 180.14348414 134.00661058 177.97680664 135.2565918 C176.90430664 135.8753418 175.83180664 136.4940918 174.72680664 137.1315918 C171.47680664 139.0065918 168.22680664 140.8815918 164.97680664 142.7565918 C163.36684814 143.68544189 163.36684814 143.68544189 161.72436523 144.63305664 C159.56590167 145.87828664 157.40737341 147.12340452 155.2487793 148.3684082 C148.56887898 152.22138197 141.89158433 156.07882919 135.21582031 159.93896484 C131.9340615 161.83409184 128.64913026 163.72361129 125.36352539 165.61206055 C121.81060631 167.65471913 118.2702101 169.71505005 114.74633789 171.80737305 C104.59665354 177.78040696 94.36816736 182.23940723 82.47680664 183.0065918 C81.70723633 183.0581543 80.93766602 183.1097168 80.14477539 183.1628418 C61.16573781 183.8457457 41.51211085 177.1487305 23.12243652 172.90545654 C17.12368707 171.52146465 11.12394213 170.14185773 5.12300491 168.76738358 C3.04693871 168.29074968 0.97173513 167.81049049 -1.10342407 167.32992554 C-2.36939423 167.03937286 -3.63536438 166.74882019 -4.93969727 166.44946289 C-6.04536041 166.19425873 -7.15102356 165.93905457 -8.29019165 165.67611694 C-23.99825262 162.42312088 -38.34658188 164.47709952 -52.28881836 172.4440918 C-54.64690952 174.0931066 -56.55584177 175.91289652 -58.52319336 178.0065918 C-58.19319336 178.9965918 -57.86319336 179.9865918 -57.52319336 181.0065918 C-56.79465656 187.8381172 -57.25398087 192.53324245 -61.52319336 198.0065918 C-67.72640922 202.3136656 -74.51973063 203.90953517 -81.77319336 205.7565918 C-82.9372168 206.07241211 -84.10124023 206.38823242 -85.30053711 206.71362305 C-93.09829796 208.730737 -101.71073678 210.95205297 -109.46069336 207.8190918 C-115.24020136 202.74013022 -116.8767725 197.50780697 -118.84716797 190.2824707 C-119.14595572 189.22208399 -119.44474348 188.16169727 -119.75258541 187.06917763 C-120.6910131 183.7188963 -121.60992556 180.36381208 -122.52319336 177.0065918 C-122.8063805 175.97094841 -123.08956764 174.93530502 -123.38133621 173.8682785 C-125.40348135 166.45251365 -127.37495693 159.02369606 -129.33959961 151.5925293 C-129.96513137 149.23565442 -130.59094647 146.87885473 -131.21702576 144.52212524 C-132.84634707 138.38632852 -134.4723321 132.24965315 -136.09741211 126.11273193 C-138.69920491 116.28996786 -141.30653313 106.46867117 -143.91322136 96.64720535 C-144.81021311 93.26580785 -145.70596789 89.88408487 -146.60145569 86.50228882 C-146.8831961 85.43999369 -147.1649365 84.37769855 -147.4552145 83.28321266 C-148.00666919 81.20218838 -148.55657679 79.12075343 -149.10483646 77.03888512 C-150.44007516 71.98864282 -151.81544012 66.95553536 -153.27267456 61.93902588 C-153.5529824 60.95958323 -153.83329023 59.98014057 -154.12209225 58.97101784 C-154.64588524 57.14873645 -155.18087437 55.32961256 -155.7302103 53.51486778 C-157.80661039 46.24283562 -159.25506583 38.47033673 -155.77319336 31.5065918 C-151.90865346 27.21265858 -148.68590507 25.53584955 -143.10522461 23.9987793 C-141.85032227 23.65202148 -140.59541992 23.30526367 -139.30249023 22.94799805 C-138.65014404 22.77284668 -137.99779785 22.59769531 -137.32568359 22.41723633 C-135.35619801 21.88711102 -133.39183137 21.34058994 -131.42749023 20.79174805 C-114.48267253 16.1680727 -114.48267253 16.1680727 -107.77319336 18.0690918 C-103.83149702 20.41894923 -102.0683294 22.18888774 -99.52319336 26.0065918 C-98.71069336 29.3815918 -98.71069336 29.3815918 -98.52319336 32.0065918 C-92.9898503 29.17843868 -88.50899605 25.60758278 -83.74194336 21.6394043 C-57.01256231 -0.41570999 -34.04944541 -9.28727977 0 0 Z M-70.1418457 33.12231445 C-74.04689563 36.21224426 -78.00252073 39.23520662 -81.96069336 42.2565918 C-82.67628418 42.80516846 -83.391875 43.35374512 -84.12915039 43.91894531 C-84.79414551 44.4273999 -85.45914063 44.93585449 -86.14428711 45.4597168 C-86.72621826 45.90476562 -87.30814941 46.34981445 -87.90771484 46.80834961 C-89.41107301 47.92342923 -90.96579427 48.96832574 -92.52319336 50.0065918 C-91.91353465 55.85798047 -90.7949103 61.33024207 -89.25415039 67.00195312 C-89.02473755 67.86327347 -88.79532471 68.72459381 -88.55895996 69.61201477 C-87.80467078 72.43892305 -87.04290441 75.26375704 -86.28100586 78.08862305 C-85.75108075 80.06853766 -85.22161847 82.0485762 -84.69259644 84.0287323 C-83.30106813 89.23219576 -81.90314783 94.43392115 -80.50390625 99.63531494 C-79.08839358 104.90189038 -77.67916526 110.17014641 -76.26928711 115.43823242 C-70.44079363 137.23445522 -70.44079363 137.23445522 -64.52319336 159.0065918 C-63.42362305 158.46389648 -62.32405273 157.92120117 -61.19116211 157.36206055 C-53.13143471 153.4399521 -45.37300292 149.7735073 -36.52319336 148.0065918 C-35.38881836 147.7797168 -34.25444336 147.5528418 -33.08569336 147.3190918 C-11.47921881 145.42378701 9.93222402 152.28545667 30.83117676 157.10772705 C36.82992621 158.49171895 42.82967115 159.87132586 48.83060837 161.24580002 C50.90667457 161.72243392 52.98187815 162.2026931 55.05703735 162.68325806 C56.32300751 162.97381073 57.58897766 163.2643634 58.89331055 163.5637207 C59.99897369 163.81892487 61.10463684 164.07412903 62.24380493 164.33706665 C81.17713487 168.25798648 95.15582928 163.44036136 111.47680664 154.0065918 C112.13600098 153.62615723 112.79519531 153.24572266 113.47436523 152.85375977 C116.88400002 150.87554033 120.27694632 148.87032588 123.66430664 146.85424805 C129.38396925 143.45668106 135.14946745 140.13923663 140.91430664 136.8190918 C142.02088623 136.18148926 143.12746582 135.54388672 144.26757812 134.88696289 C146.53886134 133.57848672 148.81026534 132.27022019 151.08178711 130.9621582 C156.54850644 127.81327126 162.01255551 124.65975916 167.47680664 121.5065918 C169.64345975 120.2565683 171.81012643 119.00656833 173.97680664 117.7565918 C175.04930664 117.1378418 176.12180664 116.5190918 177.22680664 115.8815918 C212.97680664 95.2565918 212.97680664 95.2565918 216.22949219 93.38012695 C218.38730467 92.13517898 220.54502017 90.8900629 222.70263672 89.64477539 C228.25397256 86.44106529 233.80717205 83.2406555 239.36352539 80.0456543 C253.36553784 71.99949155 253.36553784 71.99949155 267.28930664 63.8190918 C268.38887695 63.16553711 269.48844727 62.51198242 270.62133789 61.83862305 C277.30482193 57.55058746 280.94382039 53.58478838 283.47680664 46.0065918 C284.43479336 39.58147395 284.22335462 33.51003677 280.87524414 27.82299805 C276.10400335 21.62571601 270.89327669 17.72230807 263.08227539 16.69018555 C257.58536605 16.32057934 253.68948293 17.08784457 248.79711914 19.6394043 C247.74927246 20.18564453 246.70142578 20.73188477 245.62182617 21.29467773 C240.84720499 23.89362539 236.15098178 26.6067027 231.47680664 29.3815918 C229.37331695 30.61972181 227.26912059 31.85665186 225.16430664 33.0925293 C224.07375977 33.73287109 222.98321289 34.37321289 221.85961914 35.03295898 C216.0893374 38.39951193 210.28235885 41.7014151 204.47680664 45.0065918 C194.76725154 50.53847126 185.0900447 56.12254706 175.44726562 61.77026367 C170.15093093 64.87038432 164.84406594 67.9508252 159.51977539 71.00268555 C158.64376678 71.50542747 158.64376678 71.50542747 157.75006104 72.01832581 C154.93236329 73.63534174 152.11313148 75.24953022 149.29077148 76.85839844 C144.60607837 79.54556682 139.94744334 82.26652725 135.39086914 85.16674805 C134.34793701 85.83009155 134.34793701 85.83009155 133.28393555 86.50683594 C130.52698555 88.79485861 129.20575207 91.60557329 127.63305664 94.7722168 C122.50097956 104.68960899 112.75740353 109.6958911 102.47680664 113.0065918 C91.01023653 115.66080398 80.54417163 113.15950238 69.47680664 110.1315918 C67.96276923 109.7288243 66.44843973 109.32715341 64.93383789 108.92651367 C60.10833762 107.64336928 55.29213159 106.32732742 50.47680664 105.0065918 C49.222146 104.66356018 49.222146 104.66356018 47.94213867 104.31359863 C17.10144539 95.88147138 17.10144539 95.88147138 11.47680664 94.0065918 C11.3955874 92.40326389 11.3375153 90.79875153 11.28930664 89.1940918 C11.25450195 88.30077148 11.21969727 87.40745117 11.18383789 86.48706055 C11.47680664 84.0065918 11.47680664 84.0065918 12.61352539 82.24487305 C16.0545531 79.95806847 19.51812233 79.84319844 23.51844788 80.5249939 C24.59146652 80.82620148 25.66448517 81.12740906 26.77001953 81.43774414 C27.99471451 81.77494476 29.21940948 82.11214539 30.48121643 82.45956421 C31.80402404 82.83701328 33.12677143 83.21467342 34.44946289 83.5925293 C35.81865094 83.97383535 37.18815862 84.35399534 38.55796814 84.73306274 C42.15445136 85.73136132 45.74671647 86.74406068 49.3381958 87.76019287 C53.69814735 88.99105738 58.06261089 90.20580068 62.42666531 91.42202187 C65.8228621 92.36870024 69.21823849 93.31801864 72.61134338 94.27572632 C73.8328862 94.61923126 75.05442902 94.96273621 76.31298828 95.31665039 C77.38521133 95.61944916 78.45743439 95.92224792 79.56214905 96.23422241 C89.29508487 98.81340072 97.48488452 99.1324218 106.47680664 94.0065918 C113.43207119 88.81109297 117.55286683 82.3148705 118.81665039 73.6862793 C119.22031016 64.418251 115.91941846 57.88856672 109.90258789 51.04956055 C102.36979437 44.70551705 92.54907921 42.88280175 83.25805664 40.40893555 C81.65046673 39.97406288 80.04308977 39.53840235 78.43591309 39.102005 C74.1647968 37.9444442 69.89101105 36.79706637 65.61651611 35.65205383 C61.21307627 34.47106469 56.8117789 33.28215006 52.41040039 32.09350586 C50.65869583 31.62049755 48.90698686 31.14750554 47.15527344 30.67453003 C46.29404877 30.44198391 45.4328241 30.20943779 44.54550171 29.96984482 C41.95359849 29.27048045 39.36135667 28.5723834 36.76904297 27.87454224 C27.47958168 25.37204315 18.20263109 22.83381811 8.94555664 20.21362305 C8.00570923 19.94883652 7.06586182 19.68404999 6.09753418 19.41123962 C-0.69377517 17.49710867 -0.69377517 17.49710867 -3.84277344 16.58395386 C-32.05033718 8.40634893 -48.07500782 15.54473176 -70.1418457 33.12231445 Z " fill="#58595B" transform="translate(184.523193359375,301.993408203125)"/>
<path d="M0 0 C2.45284945 1.90527144 4.76385149 3.88823934 7.0546875 5.984375 C7.73660156 6.57476562 8.41851562 7.16515625 9.12109375 7.7734375 C23.32439602 20.83714017 31.29243977 40.14092462 32.33984375 59.19140625 C33.04704818 81.17493119 26.10771588 100.50039348 11.48828125 116.85546875 C-2.88656735 131.92554474 -21.39715743 140.77220746 -42.24633789 141.38720703 C-63.77509474 141.63504517 -82.82909772 135.68741423 -98.9453125 120.984375 C-99.85796875 120.20900391 -99.85796875 120.20900391 -100.7890625 119.41796875 C-115.40547754 106.16353784 -122.7446232 85.83038831 -123.82006836 66.63232422 C-124.63606926 45.44404009 -117.16247266 25.6512277 -102.9453125 9.984375 C-75.35987537 -18.40544023 -32.35788651 -22.14412392 0 0 Z M-51.2578125 18.609375 C-53.1841399 20.92158667 -53.1841399 20.92158667 -53.3203125 24.046875 C-53.5265625 25.01625 -53.7328125 25.985625 -53.9453125 26.984375 C-56.6953125 28.546875 -56.6953125 28.546875 -59.9453125 29.984375 C-65.86721674 35.20129064 -69.47614516 40.29270162 -70.2578125 48.109375 C-69.67747291 55.30558596 -67.44070608 61.04608205 -62.0703125 65.984375 C-56.43362987 70.39839485 -51.31256792 71.20495924 -44.3125 71.54296875 C-41.44110506 72.07839388 -40.02934111 72.95221135 -37.9453125 74.984375 C-37.42396631 78.63379831 -37.13380194 80.89059989 -39.3828125 83.921875 C-43.28210506 85.53865484 -46.79516136 85.7722003 -50.9453125 84.984375 C-52.90470003 83.84206 -54.56235958 82.541618 -56.3203125 81.11328125 C-58.06359524 79.73390027 -58.06359524 79.73390027 -61.1328125 79.421875 C-64.69124041 80.13356058 -65.89901938 80.99363891 -67.9453125 83.984375 C-68.6554576 87.18002796 -68.54822522 89.01393329 -66.8046875 91.8203125 C-63.69323019 95.7014461 -60.67087832 98.19916125 -55.9453125 99.984375 C-54.9553125 99.984375 -53.9653125 99.984375 -52.9453125 99.984375 C-53.0278125 100.891875 -53.1103125 101.799375 -53.1953125 102.734375 C-53.20756097 106.00294018 -53.20756097 106.00294018 -51.3828125 108.359375 C-48.0458912 110.5839892 -45.87625957 110.48467735 -41.9453125 109.984375 C-39.98905272 109.02888519 -39.98905272 109.02888519 -38.9453125 106.984375 C-38.7184375 105.870625 -38.4915625 104.756875 -38.2578125 103.609375 C-36.63015209 99.11393196 -35.05995199 98.56920011 -31.05078125 96.37109375 C-26.6416977 93.46715189 -23.59790955 88.94216615 -21.9453125 83.984375 C-21.24201158 76.84760012 -21.52967493 70.83077782 -25.9453125 64.984375 C-31.90444539 58.56879789 -36.91671172 56.15842072 -45.6328125 55.609375 C-46.56480469 55.58101562 -47.49679687 55.55265625 -48.45703125 55.5234375 C-50.9453125 54.984375 -50.9453125 54.984375 -52.78125 53.171875 C-54.56218543 49.82515071 -53.93599583 47.550835 -52.9453125 43.984375 C-50.54732078 41.86307463 -48.70919335 41.96290962 -45.5078125 41.671875 C-40.72324208 42.09157416 -38.28095068 43.99120815 -34.5078125 46.796875 C-31.931546 48.28051873 -31.931546 48.28051873 -28.8203125 47.484375 C-25.40507675 45.70251287 -24.2611092 44.60281593 -22.9453125 40.984375 C-23.59869603 35.86620405 -26.20126355 33.33128632 -30.05859375 30.2421875 C-32.55316063 28.57914291 -35.04382992 27.69205368 -37.9453125 26.984375 C-38.0278125 25.89125 -38.1103125 24.798125 -38.1953125 23.671875 C-38.61875088 20.03767615 -38.61875088 20.03767615 -40.6328125 18.046875 C-44.64239568 16.20463408 -47.59333817 16.03433899 -51.2578125 18.609375 Z " fill="#58595B" transform="translate(340.9453125,104.015625)"/>
<path d="M0 0 C21.13570979 18.65107879 33.43056788 44.7222431 35.25 72.8125 C36.90981429 101.83410132 26.16687474 128.4034403 7.0625 149.875 C-10.89701347 169.33192112 -36.37174402 180.91138564 -62.83203125 182.09765625 C-92.95601973 182.87198075 -119.70914007 172.93484916 -141.77661133 152.23754883 C-158.54473788 135.95745536 -170.56681273 112.59177829 -171.91113281 88.98266602 C-172.28848293 62.77657812 -172.28848293 62.77657812 -168.75 50.8125 C-168.55132324 50.13960938 -168.35264648 49.46671875 -168.14794922 48.7734375 C-159.83911283 21.38850858 -141.7281168 -0.0500415 -116.6875 -13.8125 C-78.86932905 -33.86478869 -32.29305576 -27.32363589 0 0 Z M-133.75 20.8125 C-150.09470052 39.98865734 -156.32611017 62.14865613 -154.96875 87.09863281 C-153.23103095 108.65720975 -142.19926033 129.76209013 -125.75 143.8125 C-106.45750093 159.78095362 -83.61297833 166.48730784 -58.75 164.8125 C-35.75993871 162.20312567 -15.78043133 150.19002572 -0.75 132.8125 C13.80929459 113.90241231 20.46910871 90.67404377 17.5 67 C14.68362849 49.1179699 7.56631377 33.12685988 -4.75 19.8125 C-5.43578125 19.03519531 -6.1215625 18.25789063 -6.828125 17.45703125 C-21.41263749 1.76517614 -43.17971172 -7.20189591 -64.37109375 -8.390625 C-91.1344947 -8.7193464 -115.5207529 0.79669735 -133.75 20.8125 Z " fill="#58595B" transform="translate(363.75,89.1875)"/>
<path d="M0 0 C1.28866212 0.55738558 2.56975788 1.13250981 3.84375 1.72265625 C4.88088135 2.19300293 4.88088135 2.19300293 5.93896484 2.67285156 C41.54593811 19.24139086 68.66681397 48.9947196 82.51953125 85.625 C96.60443386 124.48469753 93.8740169 165.6708773 76.6640625 202.98828125 C76.01050781 204.37273437 76.01050781 204.37273437 75.34375 205.78515625 C75.93285156 205.62789062 76.52195312 205.470625 77.12890625 205.30859375 C80.37956106 204.5403614 83.01229465 204.43447674 86.34375 204.78515625 C90.03561542 207.37731708 91.17258761 208.82664689 91.96875 213.28515625 C91.35771757 216.70693786 90.77070441 218.19988848 88.265625 220.55419922 C83.73584342 223.45551511 78.19952553 224.35033136 73.03125 225.59765625 C71.23397461 226.06461914 71.23397461 226.06461914 69.40039062 226.54101562 C57.30277847 229.57375035 57.30277847 229.57375035 51.34375 228.78515625 C48.53571924 226.85294216 47.58764111 225.57465944 46.5859375 222.33203125 C46.46476562 221.4090625 46.34359375 220.48609375 46.21875 219.53515625 C46.074375 218.48328125 45.93 217.43140625 45.78125 216.34765625 C45.636875 215.17203125 45.4925 213.99640625 45.34375 212.78515625 C45.15785364 211.43076851 44.97029238 210.07660846 44.78125 208.72265625 C42.28630303 190.27802256 42.28630303 190.27802256 45.46875 185.78515625 C48.86835766 183.42021179 50.28962851 183.10946934 54.34375 183.78515625 C57.09375 184.91015625 57.09375 184.91015625 59.34375 186.78515625 C60.0681902 188.76496201 60.74148453 190.76482936 61.34375 192.78515625 C65.12953937 184.31591612 68.01778229 175.93790574 70.15625 166.91015625 C70.3627417 166.04366455 70.5692334 165.17717285 70.78198242 164.28442383 C78.35429917 131.01520692 71.02262133 96.2119401 53.2578125 67.40234375 C38.22187119 44.87557248 18.9712471 28.10976324 -6.07324219 17.55981445 C-10.38868547 15.67788793 -13.14944599 13.96531654 -15.65625 9.78515625 C-16.07350634 6.93738171 -15.56318419 4.50595883 -14.65625 1.78515625 C-10.86542607 -2.8804732 -5.19439611 -1.7259158 0 0 Z " fill="#58595B" transform="translate(351.65625,30.21484375)"/>
<path d="M0 0 C2.89013672 2.11376953 2.89013672 2.11376953 5.6796875 4.8828125 C6.42703659 5.62155106 6.42703659 5.62155106 7.18948364 6.37521362 C8.23364132 7.41530787 9.2703387 8.46294024 10.29980469 9.51757812 C11.87103222 11.12095105 13.47173259 12.68976116 15.078125 14.2578125 C16.09307505 15.27672775 17.1061621 16.29750287 18.1171875 17.3203125 C19.48786377 18.70114014 19.48786377 18.70114014 20.88623047 20.10986328 C23.37924565 23.51853893 23.8239532 25.81633607 24 30 C22.04156427 35.47335749 16.79182525 38.61063182 12.3125 42 C11.53455078 42.60328125 10.75660156 43.2065625 9.95507812 43.828125 C-3.22439254 53.94081308 -3.22439254 53.94081308 -8.75 54.125 C-12.68387149 52.76327525 -13.98521045 51.62662119 -16 48 C-16.5625 45 -16.5625 45 -16 42 C-14.38263758 40.28544631 -12.71894089 38.61269891 -11 37 C-47.23890803 40.30791122 -78.81987081 56.86988172 -102.43945312 84.69580078 C-123.16085353 110.5059987 -133.71436893 144.65475872 -130.5 177.625 C-129.26729074 190.50405193 -129.26729074 190.50405193 -131.5 195.0625 C-134.32357351 197.25076947 -136.35066409 197.59345257 -139.90234375 197.6640625 C-143.35437175 196.57124172 -144.80565923 194.85337935 -147 192 C-147.87641623 189.00267848 -148.11045814 186.04557735 -148.3125 182.9375 C-148.38243164 182.08406006 -148.45236328 181.23062012 -148.52441406 180.35131836 C-148.7127939 177.90168454 -148.86512721 175.45309798 -149 173 C-149.09087891 171.41058594 -149.09087891 171.41058594 -149.18359375 169.7890625 C-150.16490782 129.49746123 -134.17016706 91.73421232 -106.70703125 62.7734375 C-79.61885602 35.02076157 -45.04023161 21.91455168 -7 18 C-7.42587402 17.61473145 -7.85174805 17.22946289 -8.29052734 16.83251953 C-9.11738037 16.05303955 -9.11738037 16.05303955 -9.9609375 15.2578125 C-10.78537354 14.49428467 -10.78537354 14.49428467 -11.62646484 13.71533203 C-13.27051884 11.66216399 -13.52135955 10.48298169 -13.625 7.875 C-12.94969119 3.68808536 -12.35367022 2.46593398 -9 0 C-5.77742611 -1.61128695 -3.44347708 -0.80102877 0 0 Z " fill="#58595B" transform="translate(296,1)"/>
<path d="M0 0 C1.17949219 0.47824219 2.35898438 0.95648438 3.57421875 1.44921875 C5.27384766 2.16271484 5.27384766 2.16271484 7.0078125 2.890625 C8.03793457 3.31891602 9.06805664 3.74720703 10.12939453 4.18847656 C13.27075987 5.9750827 14.88561342 7.75162269 16.875 10.75 C17.49123195 14.44739168 17.11587358 16.24635524 15.5 19.625 C11.5533278 22.81992512 7.76672798 22.17009114 2.875 21.75 C5.85158321 25.43627782 8.85439521 29.099708 11.875 32.75 C12.53242188 33.54792969 13.18984375 34.34585938 13.8671875 35.16796875 C33.73558881 58.45769227 64.72246292 73.21228444 94.875 76.75 C111.81890992 77.82904625 128.48604557 77.34464583 144.875 72.75 C145.5448291 72.56808105 146.2146582 72.38616211 146.90478516 72.19873047 C162.53992581 67.83679519 177.14806267 60.06186701 189.95703125 50.13671875 C192.728613 47.99312067 194.54866501 46.79479108 198.0625 46.3125 C201.72402914 46.8820712 203.87662274 47.46637209 206.1875 50.4375 C207.28442066 54.12714223 207.05006124 56.03928029 205.875 59.75 C192.38883732 76.95396969 164.43353034 86.79405435 143.875 91.75 C143.22257324 91.91371094 142.57014648 92.07742188 141.89794922 92.24609375 C103.97892957 101.37003385 64.22338765 92.43446077 31.25 72.9375 C14.75752816 62.47190676 -7.52986396 45.93585029 -14.125 26.75 C-14.785 26.75 -15.445 26.75 -16.125 26.75 C-16.24875 28.35875 -16.24875 28.35875 -16.375 30 C-17.19620695 34.10603475 -17.74415374 35.37427019 -21.125 37.75 C-24.71880604 38.89695938 -26.39246252 39.066323 -29.875 37.5625 C-32.32174997 35.59150697 -33.30831736 34.77172578 -34.125 31.75 C-33.58310642 24.60534152 -31.72450512 17.88642516 -29.8125 11 C-29.51666016 9.87722656 -29.22082031 8.75445312 -28.91601562 7.59765625 C-28.61759766 6.51871094 -28.31917969 5.43976563 -28.01171875 4.328125 C-27.61279419 2.86487793 -27.61279419 2.86487793 -27.20581055 1.37207031 C-25.96828551 -1.63019283 -24.61482003 -3.18812238 -22.125 -5.25 C-14.67673675 -7.73275442 -6.80388802 -2.8667647 0 0 Z " fill="#58595B" transform="translate(185.125,220.25)"/>
</svg>
