<?xml version="1.0" encoding="UTF-8"?>
<svg version="1.1" xmlns="http://www.w3.org/2000/svg" width="512" height="512">
<path d="M0 0 C7.45450632 5.22850791 11.52241744 11.21098946 14 20 C14.1953125 23.4296875 14.1953125 23.4296875 14.125 26.875 C14.10695312 28.02742188 14.08890625 29.17984375 14.0703125 30.3671875 C14.04710937 31.23601562 14.02390625 32.10484375 14 33 C14.55349121 32.97905273 15.10698242 32.95810547 15.67724609 32.93652344 C38.32986893 32.19165051 38.32986893 32.19165051 46.26171875 38.91796875 C51.8610571 44.59772848 55 50.94241878 55 59 C56.01904922 58.98334541 56.01904922 58.98334541 57.0586853 58.96635437 C64.16447734 58.85526726 71.27002051 58.78012813 78.37646484 58.7253418 C81.02435332 58.70028241 83.67217322 58.66622565 86.31982422 58.62280273 C90.13786804 58.56177721 93.95499294 58.53370268 97.7734375 58.51171875 C98.94675629 58.48591232 100.12007507 58.4601059 101.32894897 58.43351746 C110.99749012 58.43025849 118.02638172 60.80257045 124.9375 67.6875 C131.69604501 75.17669853 131.43266955 85.97064126 131.38095093 95.43554688 C131.38441358 96.77348969 131.38918221 98.11142965 131.39513266 99.44936371 C131.40758901 103.10165274 131.40149697 106.75370484 131.39217401 110.40599442 C131.3853617 114.35425627 131.39587552 118.30247854 131.40411377 122.25073242 C131.4174301 129.97578186 131.41458275 137.70074369 131.40587585 145.42579651 C131.39909143 151.70599077 131.39818586 157.98616054 131.4014473 164.26635742 C131.401907 165.16133234 131.40236669 166.05630725 131.40284032 166.97840261 C131.40379953 168.79671797 131.40477217 170.61503332 131.4057581 172.43334866 C131.41430584 189.47024033 131.40448753 206.50708352 131.388357 223.54396725 C131.37495438 238.1517316 131.37728264 252.75942443 131.39111328 267.3671875 C131.40717998 284.34451728 131.41348192 301.32180461 131.40427649 318.29914093 C131.40332088 320.11064147 131.40237776 321.92214202 131.4014473 323.73364258 C131.40098447 324.62485731 131.40052164 325.51607203 131.40004479 326.43429327 C131.39745817 332.70449693 131.40181882 338.97467357 131.40888596 345.24487305 C131.41731326 352.88965985 131.41499498 360.53435429 131.39904372 368.17913055 C131.39117754 372.07710349 131.38804107 375.9749226 131.39799118 379.87289429 C131.40697304 383.44567575 131.40194833 387.01816173 131.38605852 390.59091663 C131.38115435 392.48585105 131.39087594 394.38080621 131.40123022 396.27571869 C131.32758276 407.02985041 129.7805859 415.20661791 122.1796875 423.0859375 C114.1616749 430.12684462 105.13507619 430.15079436 94.95559692 430.13371277 C93.95957927 430.13597833 92.96356161 430.13824388 91.9373616 430.14057809 C88.60813154 430.14689569 85.27894242 430.14609017 81.94970703 430.14526367 C79.55936633 430.14825653 77.16902611 430.15165936 74.77868652 430.15544128 C68.96462752 430.16335513 63.15058088 430.16649534 57.33651675 430.16705366 C52.60897515 430.16752957 47.88143688 430.16958807 43.15389633 430.17275429 C29.73848572 430.18155574 16.32308308 430.18617439 2.90766956 430.18542381 C2.18516497 430.18538386 1.46266038 430.1853439 0.71826172 430.18530273 C-0.00512898 430.18526185 -0.72851968 430.18522097 -1.47383131 430.18517885 C-13.19759899 430.18477239 -24.92133456 430.1943433 -36.64509295 430.2084411 C-48.69468253 430.22281595 -60.74425646 430.22971069 -72.79385483 430.22884732 C-79.55411075 430.22851577 -86.31433297 430.23124481 -93.07458115 430.24202538 C-99.43245441 430.25170892 -105.79025655 430.25178371 -112.14813232 430.24450874 C-114.47934193 430.24346327 -116.81055597 430.24582355 -119.14175797 430.2518692 C-122.3284653 430.25959721 -125.51492751 430.25493882 -128.70162964 430.24723816 C-129.62003061 430.25238172 -130.53843158 430.25752529 -131.48466289 430.26282471 C-141.28518618 430.21063254 -149.50728344 428.66331641 -157 422 C-161.54920643 416.41124744 -164.12008045 411.75396831 -164.13701439 404.47382259 C-164.14208893 403.31752911 -164.14716347 402.16123562 -164.15239179 400.96990293 C-164.15288955 399.69366782 -164.15338731 398.41743271 -164.15390015 397.1025238 C-164.15791473 395.73762657 -164.16235295 394.37273053 -164.1671797 393.00783592 C-164.17915172 389.24859845 -164.18479512 385.48937382 -164.18936086 381.73012102 C-164.19531466 377.67881132 -164.20692514 373.62751699 -164.21765137 369.57621765 C-164.24218176 359.78720331 -164.25680412 349.99818388 -164.26971143 340.20914826 C-164.27342311 337.4443092 -164.27739637 334.67947064 -164.2814641 331.91463208 C-164.30670203 314.74624427 -164.32875571 297.57785566 -164.34119225 280.40945339 C-164.34412196 276.43206721 -164.34708362 272.45468105 -164.35009766 268.47729492 C-164.35084371 267.48873043 -164.35158976 266.50016593 -164.35235842 265.48164494 C-164.3650094 249.47095093 -164.39822847 233.46036805 -164.43989949 217.44972598 C-164.48233026 201.01242159 -164.50588866 184.57517407 -164.51111281 168.13781506 C-164.51452579 158.90868459 -164.52626755 149.67972772 -164.55921555 140.45065117 C-164.58723302 132.58974757 -164.59820799 124.72905315 -164.58702008 116.8681035 C-164.5818376 112.85867402 -164.58469299 108.84968247 -164.60948563 104.84031677 C-164.63202028 101.16534413 -164.63120644 97.49112291 -164.61228175 93.81613673 C-164.60816996 91.86615511 -164.62859648 89.91616864 -164.65006864 87.9663009 C-164.57374256 79.48643684 -163.13102736 72.49249079 -157.24456251 66.09096235 C-149.57953627 58.85709273 -141.96063212 58.5776921 -131.84765625 58.70703125 C-130.59238632 58.71127609 -129.33711639 58.71552094 -128.04380798 58.71989441 C-124.72770663 58.73379372 -121.41223948 58.76068498 -118.09631348 58.79400635 C-114.7042383 58.8248508 -111.31209726 58.83843025 -107.91992188 58.85351562 C-101.27977447 58.88652362 -94.6399238 58.93667785 -88 59 C-87.94131744 58.31025589 -87.88263489 57.62051178 -87.82217407 56.90986633 C-87.73986542 56.00673203 -87.65755676 55.10359772 -87.57275391 54.1730957 C-87.49344635 53.27710159 -87.41413879 52.38110748 -87.33242798 51.45796204 C-86.60324068 46.06637406 -83.17485185 41.99930327 -79.2578125 38.3984375 C-72.4563627 33.22933565 -65.92526582 32.7210721 -57.625 32.875 C-56.23474609 32.88853516 -56.23474609 32.88853516 -54.81640625 32.90234375 C-52.54399923 32.92577063 -50.2721382 32.95857252 -48 33 C-48.04640625 32.26136719 -48.0928125 31.52273437 -48.140625 30.76171875 C-48.48175698 21.17347334 -46.93675311 13.23046782 -40.8125 5.625 C-30.2734886 -5.43641929 -13.23391648 -7.81168681 0 0 Z M-29.8125 13.375 C-34.80460535 19.36552642 -35.44755662 23.49494871 -35.5625 31.125 C-35.59695965 32.91945442 -35.63957852 34.7137757 -35.69140625 36.5078125 C-35.70373291 37.29816895 -35.71605957 38.08852539 -35.72875977 38.90283203 C-36 41 -36 41 -38 44 C-41.16761284 45.05587095 -43.40972019 45.1104146 -46.734375 45.10546875 C-47.86617187 45.12029297 -48.99796875 45.13511719 -50.1640625 45.15039062 C-52.53894105 45.17496725 -54.91410055 45.18043316 -57.2890625 45.16601562 C-63.74010614 45.28669841 -68.00261448 45.63492545 -72.73925781 50.2277832 C-76.57322539 55.61716559 -76.30682688 60.96150197 -76.30078125 67.33984375 C-76.30506638 68.33955704 -76.3093515 69.33927032 -76.31376648 70.36927795 C-76.31949966 72.47982019 -76.32001751 74.59038218 -76.31567383 76.70092773 C-76.31251451 79.92270749 -76.33598392 83.14356809 -76.36132812 86.36523438 C-76.36360134 88.41926968 -76.36430451 90.47330744 -76.36328125 92.52734375 C-76.372491 93.48688461 -76.38170074 94.44642548 -76.39118958 95.43504333 C-76.34382518 102.31191633 -75.38882358 106.49843954 -70.49359131 111.62469482 C-66.39650261 114.93358953 -62.33584637 114.71102154 -57.25024414 114.6628418 C-56.28525497 114.67320969 -55.32026581 114.68357758 -54.32603455 114.69425964 C-51.14530555 114.72129984 -47.96595834 114.71167368 -44.78515625 114.69921875 C-42.56847245 114.70512888 -40.35179186 114.7123761 -38.13511658 114.72090149 C-33.49233351 114.73277711 -28.85002999 114.72608178 -24.20727539 114.70678711 C-18.26405623 114.68390863 -12.32226754 114.71067206 -6.37918949 114.75184917 C-1.80226462 114.77745248 2.7743192 114.77484014 7.35128975 114.76395607 C9.54210267 114.76247123 11.73294196 114.77013797 13.92368889 114.78720665 C16.99028542 114.80722019 20.05436803 114.78875282 23.12084961 114.76049805 C24.47157059 114.78107269 24.47157059 114.78107269 25.84957886 114.80206299 C31.47565606 114.69871528 34.49994405 113.53849332 38.62075138 109.67638874 C41.39179363 106.3083636 42.25053969 103.55737469 42.2746582 99.23486328 C42.28419022 98.29353546 42.29372223 97.35220764 42.30354309 96.38235474 C42.30263168 95.3718808 42.30172028 94.36140686 42.30078125 93.3203125 C42.30720894 91.75203201 42.30720894 91.75203201 42.31376648 90.15206909 C42.31950675 87.94139327 42.32001227 85.73069855 42.31567383 83.52001953 C42.31251825 80.14452717 42.33596226 76.769915 42.36132812 73.39453125 C42.36360163 71.24479277 42.36430437 69.09505194 42.36328125 66.9453125 C42.372491 65.93888702 42.38170074 64.93246155 42.39118958 63.89553833 C42.35577715 58.50798251 42.06134137 54.63730905 39 50 C33.58052945 44.65207361 27.02762426 45.40647469 19.875 45.375 C17.5389567 45.34946947 15.20298338 45.31595483 12.8671875 45.2734375 C11.32200439 45.26449463 11.32200439 45.26449463 9.74560547 45.25537109 C6.99459031 44.99949684 5.34646013 44.41208498 3 43 C2.94392578 41.19015625 2.94392578 41.19015625 2.88671875 39.34375 C2.82100781 37.72913822 2.75456229 36.11455622 2.6875 34.5 C2.66494141 33.70851563 2.64238281 32.91703125 2.61914062 32.1015625 C2.27504957 24.46899733 0.58155636 17.58155636 -5 12 C-13.62721187 6.50995609 -22.10528474 6.86668489 -29.8125 13.375 Z M-147.64453125 75.5 C-151.11148571 79.95254352 -152.12398595 82.80938989 -152.13422108 88.37559032 C-152.13867892 89.49828325 -152.14313676 90.62097618 -152.14772969 91.77769011 C-152.14754533 93.01637998 -152.14736097 94.25506985 -152.14717102 95.53129578 C-152.15084771 96.84311838 -152.1545244 98.15494099 -152.1583125 99.5065158 C-152.16833738 103.15560114 -152.17205008 106.80467002 -152.17470181 110.45376718 C-152.17860342 114.38642666 -152.18818186 118.31907309 -152.19691467 122.25172424 C-152.21668318 131.75300158 -152.2267458 141.25428 -152.23564246 150.75557277 C-152.24002474 155.22895914 -152.24539171 159.70234432 -152.25063133 164.17572975 C-152.26764402 179.04470289 -152.28213845 193.91367529 -152.28938007 208.78265667 C-152.29128999 212.64180693 -152.29321032 216.50095718 -152.29516602 220.36010742 C-152.29564976 221.31929039 -152.2961335 222.27847336 -152.2966319 223.26672248 C-152.30493313 238.80669368 -152.33027144 254.34658794 -152.36274669 269.88652553 C-152.39581025 285.83791574 -152.4138282 301.78926683 -152.41702431 317.74069148 C-152.41919007 326.69809891 -152.42794825 335.65539412 -152.45348549 344.61276817 C-152.47518289 352.24094994 -152.48324766 359.86899223 -152.47351871 367.49720135 C-152.46897119 371.3888594 -152.47088622 375.28022964 -152.49028015 379.1718483 C-152.51113302 383.39269711 -152.50093566 387.61290646 -152.48774719 391.83378601 C-152.49871644 393.06132227 -152.50968568 394.28885853 -152.52098733 395.55359286 C-152.47170942 402.07581471 -152.28007844 407.78496924 -148 413 C-142.45733337 417.39760991 -137.69079105 417.57174876 -130.78355408 417.50120544 C-129.76908551 417.50673984 -128.75461695 417.51227424 -127.70940691 417.51797634 C-124.31765778 417.53156536 -120.92664671 417.51662257 -117.53491211 417.50170898 C-115.10029284 417.50549275 -112.66567573 417.51099327 -110.23106384 417.51808167 C-104.30965604 417.53059554 -98.388443 417.52447225 -92.4670574 417.50940608 C-85.56871794 417.49252388 -78.67043137 417.49575898 -71.77207763 417.49950016 C-59.46283611 417.50537517 -47.15369697 417.49122073 -34.84448242 417.46655273 C-22.90466475 417.44262777 -10.96498382 417.43555095 0.97485352 417.44604492 C13.98325317 417.4574576 26.99158961 417.45938028 39.9999885 417.44494683 C41.38738183 417.44342102 42.77477516 417.44190066 44.1621685 417.44038582 C44.84475866 417.439628 45.52734882 417.43887019 46.23062353 417.43808941 C51.03742113 417.4333497 55.84419046 417.43519576 60.65098763 417.43945122 C67.12133507 417.44489597 73.59153516 417.43412315 80.06184959 417.41249657 C82.43785081 417.40692744 84.81387023 417.40646454 87.18987274 417.41144943 C90.43030538 417.41739584 93.67015741 417.40490885 96.91053772 417.38768005 C97.85324101 417.3936901 98.7959443 417.39970014 99.76721436 417.40589231 C104.93058906 417.35588887 108.5398273 416.89549132 113 414 C117.0516881 409.61979665 118.12348456 406.46898197 118.13422108 400.59038162 C118.14090784 398.89496699 118.14090784 398.89496699 118.14772969 397.16530156 C118.14754533 395.91814768 118.14736097 394.67099379 118.14717102 393.38604736 C118.15046992 392.05201064 118.15419554 390.71797491 118.1583125 389.38394046 C118.16833757 385.71012137 118.1720501 382.03631862 118.17470181 378.36248779 C118.17860332 374.40326238 118.18818172 370.44404992 118.19691467 366.48483276 C118.21668271 356.9197856 118.22674542 347.35473737 118.23564246 337.78967488 C118.24002453 333.28677179 118.24539153 328.78386987 118.25063133 324.28096771 C118.26764344 309.31505706 118.28213826 294.34914714 118.28938007 279.3832283 C118.29129001 275.49897511 118.29321033 271.61472192 118.29516602 267.73046875 C118.29564976 266.76504224 118.2961335 265.79961573 118.2966319 264.80493388 C118.30493466 249.16082294 118.33027581 233.51678841 118.36274669 217.87271085 C118.39580225 201.81623433 118.41382745 185.75979666 118.41702431 169.70328593 C118.41919073 160.68610697 118.42795871 151.66903945 118.45348549 142.65189362 C118.47517191 134.97354452 118.48325305 127.29533394 118.47351871 119.61695769 C118.46896809 115.69909583 118.47090418 111.78151987 118.49028015 107.86369705 C118.50787061 104.27593379 118.5069481 100.68866586 118.49138286 97.10089764 C118.48787318 95.19046685 118.50406383 93.28003111 118.52098733 91.36967206 C118.47078916 84.69654072 118.09437247 80.37370647 114 75 C108.02250746 70.18605587 102.39660385 70.46961966 94.94140625 70.609375 C93.79711655 70.61503479 92.65282684 70.62069458 91.47386169 70.62652588 C87.83630699 70.64883044 84.1997546 70.69901832 80.5625 70.75 C78.08920698 70.77007254 75.61589845 70.78832198 73.14257812 70.8046875 C67.09466871 70.84867625 61.04750402 70.91766502 55 71 C55 77.27 55 83.54 55 90 C59.63869141 90.09087891 59.63869141 90.09087891 64.37109375 90.18359375 C67.35297217 90.24533109 70.33481064 90.30874032 73.31665039 90.37231445 C75.39539057 90.41573334 77.47416803 90.45740312 79.55297852 90.49731445 C82.53413145 90.55484921 85.51509549 90.61859119 88.49609375 90.68359375 C89.43150497 90.70030624 90.3669162 90.71701874 91.33067322 90.73423767 C92.62189842 90.7641555 92.62189842 90.7641555 93.93920898 90.79467773 C94.70087875 90.81022202 95.46254852 90.8257663 96.24729919 90.84178162 C98 91 98 91 99 92 C99.09891188 93.62447617 99.12739513 95.25327503 99.12863445 96.88075924 C99.1318589 97.94395254 99.13508335 99.00714584 99.1384055 100.10255712 C99.1360826 101.87625035 99.1360826 101.87625035 99.13371277 103.68577576 C99.13597833 104.93070252 99.13824388 106.17562928 99.14057809 107.4582811 C99.14583675 110.92965759 99.146559 114.40098254 99.14538372 117.8723594 C99.14518046 121.60997845 99.15069123 125.34758964 99.15544128 129.08520508 C99.16376476 136.41373482 99.16649689 143.74225651 99.16705366 151.07079058 C99.16752801 157.02469898 99.1695787 162.97860472 99.17275429 168.93251228 C99.18156543 185.79442032 99.18617294 202.65632198 99.18542381 219.51823234 C99.18538386 220.42817514 99.1853439 221.33811794 99.18530273 222.27563477 C99.18526185 223.18668215 99.18522097 224.09772953 99.18517885 225.03638441 C99.18477223 239.80776034 99.19434457 254.5791108 99.2084411 269.35047936 C99.22278451 284.49946873 99.22971241 299.64844567 99.22884732 314.79744202 C99.22851465 323.30975517 99.23129234 331.82204162 99.24202538 340.33434868 C99.25110366 347.58100991 99.25332775 354.82763233 99.24651595 362.07429677 C99.24323717 365.77474057 99.24324259 369.47510981 99.2518692 373.17554665 C99.26110775 377.17950187 99.25499373 381.18328233 99.24723816 385.1872406 C99.25238172 386.36747203 99.25752529 387.54770346 99.26282471 388.76369947 C99.25822592 389.82950052 99.25362712 390.89530157 99.24888897 391.99339962 C99.24921502 393.38122376 99.24921502 393.38122376 99.24954766 394.79708475 C99 397 99 397 97 399 C94.00866152 399.1980567 91.10977003 399.26914007 88.1171875 399.25396729 C87.18583984 399.25708727 86.25449219 399.26020725 85.29492188 399.26342177 C82.1548847 399.27143833 79.01503882 399.26506393 75.875 399.25878906 C73.63167202 399.2614973 71.38834493 399.26505729 69.14501953 399.26940918 C63.0377384 399.27855533 56.93052455 399.27497977 50.82324219 399.26865101 C44.44465955 399.26360251 38.06608285 399.26827925 31.6875 399.27142334 C20.28686846 399.27529998 8.88627433 399.26906799 -2.51435089 399.25890467 C-12.85854082 399.24996874 -23.20268588 399.25152065 -33.546875 399.26074219 C-45.54914244 399.27143679 -57.55137596 399.27543375 -69.5536499 399.26951766 C-75.91077757 399.26639271 -82.2678743 399.26600297 -88.625 399.27259064 C-94.60031221 399.27834964 -100.57553931 399.27439379 -106.55084229 399.26280212 C-108.74953062 399.26014778 -110.94822607 399.26093373 -113.14691162 399.26532745 C-116.13710173 399.27075389 -119.12701524 399.26398426 -122.1171875 399.25396729 C-122.99713379 399.25842873 -123.87708008 399.26289017 -124.78369141 399.26748681 C-130.77169999 399.22830001 -130.77169999 399.22830001 -133 397 C-133.24839699 394.78952205 -133.24839699 394.78952205 -133.24609566 391.97498894 C-133.25007775 390.90508779 -133.25405985 389.83518665 -133.25816262 388.73286426 C-133.25233693 387.54805977 -133.24651125 386.36325527 -133.24050903 385.14254761 C-133.24221788 383.89127174 -133.24392673 382.63999586 -133.24568737 381.35080254 C-133.25017621 377.86639377 -133.24213626 374.3821071 -133.23213124 370.8977139 C-133.22352106 367.14447603 -133.22641517 363.39124545 -133.22793579 359.63800049 C-133.22898619 353.1315128 -133.22269346 346.62506512 -133.21146011 340.11858749 C-133.19522898 330.71123568 -133.18999956 321.30390328 -133.18748413 311.89653899 C-133.18310327 296.63495382 -133.16978358 281.37338999 -133.15087891 266.11181641 C-133.13253021 251.2836925 -133.11836877 236.45557437 -133.10986328 221.62744141 C-133.10933783 220.71394621 -133.10881239 219.80045101 -133.10827102 218.85927413 C-133.10566101 214.27668964 -133.10313357 209.6941051 -133.10064721 205.11152053 C-133.07990254 167.07433134 -133.04411725 129.03716873 -133 91 C-110.725 90.505 -110.725 90.505 -88 90 C-88 83.73 -88 77.46 -88 71 C-95.29571311 70.92575597 -102.5912055 70.87135253 -109.88720703 70.83520508 C-112.3683658 70.82013338 -114.84949799 70.79967254 -117.33056641 70.77368164 C-120.90013189 70.73722833 -124.46934461 70.72025708 -128.0390625 70.70703125 C-129.14553131 70.69154739 -130.25200012 70.67606354 -131.39199829 70.66011047 C-137.81828824 70.65871117 -142.67539062 70.96757719 -147.64453125 75.5 Z M-121 102 C-121 196.05 -121 290.1 -121 387 C-52.03 387 16.94 387 88 387 C88 292.95 88 198.9 88 102 C77.11 102 66.22 102 55 102 C54.01 104.97 53.02 107.94 52 111 C48.60892369 118.02877635 44.21827865 122.06019197 37 125 C34.19490267 125.81876009 31.69458317 126.12844155 28.77642822 126.14044189 C27.52339905 126.14900711 27.52339905 126.14900711 26.24505615 126.15774536 C24.88286957 126.15942215 24.88286957 126.15942215 23.49316406 126.16113281 C22.53007324 126.16609772 21.56698242 126.17106262 20.57470703 126.17617798 C17.38833908 126.1907833 14.20202093 126.19759924 11.015625 126.203125 C8.79848225 126.2088782 6.58133951 126.21463591 4.36419678 126.22039795 C-0.28617586 126.23090358 -4.93653123 126.23674899 -9.58691406 126.24023438 C-15.53639468 126.24571534 -21.48564601 126.26973689 -27.43505478 126.29820633 C-32.01622172 126.31686071 -36.59733376 126.32203983 -41.17853546 126.32357025 C-43.37131248 126.32659143 -45.56408866 126.33460187 -47.75682831 126.34775543 C-50.8299232 126.36487269 -53.90246229 126.36292156 -56.97558594 126.35644531 C-57.8756134 126.3656601 -58.77564087 126.37487488 -59.70294189 126.3843689 C-67.80271298 126.33108854 -74.62525359 124.24145816 -81 119 C-85.55277456 113.4509119 -86.35452337 109.40464482 -88 102 C-98.89 102 -109.78 102 -121 102 Z " fill="#58595B" transform="translate(172,74)"/>
<path d="M0 0 C1.09328865 -0.0098568 1.09328865 -0.0098568 2.20866394 -0.01991272 C4.62128812 -0.03962494 7.03385003 -0.05130531 9.4465332 -0.0612793 C10.27227152 -0.06535482 11.09800983 -0.06943035 11.94877052 -0.07362938 C16.32163873 -0.09448395 20.69447564 -0.1087868 25.06738281 -0.11816406 C29.57204278 -0.12921111 34.07620642 -0.16359274 38.58069134 -0.20333576 C42.05439639 -0.22955391 45.52798427 -0.23786062 49.00177956 -0.24144554 C50.66148025 -0.24630019 52.3211761 -0.25788209 53.98077965 -0.27648354 C70.68698739 -0.45205358 70.68698739 -0.45205358 76.80981445 4.17700195 C80.57018475 9.67413884 80.23104944 15.04782874 80.19076538 21.45680237 C80.19544535 22.5977122 80.20012532 23.73862203 80.20494711 24.91410488 C80.21691929 28.73956684 80.20743086 32.56467205 80.19799805 36.39013672 C80.20041231 39.13165019 80.20729543 41.87314847 80.21392822 44.61465454 C80.22726456 51.28914418 80.22438841 57.96353259 80.2156903 64.63802619 C80.20891433 70.06214347 80.20799665 75.4862324 80.21126175 80.91035271 C80.21172145 81.68242194 80.21218115 82.45449117 80.21265478 83.24995644 C80.21361395 84.81840159 80.21458659 86.38684673 80.21557255 87.95529186 C80.22412601 102.66048742 80.21429272 117.36562687 80.19817145 132.07081323 C80.18476564 144.68981504 80.1870986 157.30873406 80.20092773 169.92773438 C80.21697975 184.58196578 80.22330484 199.23614803 80.21409094 213.890387 C80.21313529 215.45274698 80.21219218 217.01510697 80.21126175 218.57746696 C80.21079892 219.34618024 80.2103361 220.11489352 80.20985924 220.90690114 C80.20726842 226.32530635 80.21164229 231.74368038 80.21870041 237.16208076 C80.22711129 243.76407561 80.22484389 250.36596343 80.20885818 256.967946 C80.20097015 260.33672693 80.19950568 263.70518147 80.20780563 267.07398415 C80.21597149 270.72423068 80.20575893 274.37397112 80.19076538 278.02418518 C80.19745755 279.09110283 80.20414971 280.15802048 80.21104467 281.25726897 C80.13933993 290.22235192 80.13933993 290.22235192 76.80981445 294.17700195 C71.86750827 298.51658787 68.96526231 299.3296864 62.53369141 299.35400391 C61.7838649 299.3605751 61.03403839 299.3671463 60.26148987 299.37391663 C57.77369082 299.39366661 55.28595228 299.40531782 52.7980957 299.4152832 C51.94812704 299.41935873 51.09815838 299.42343426 50.22243309 299.42763329 C45.7210451 299.44850429 41.21968765 299.46279982 36.71826172 299.47216797 C32.07559779 299.48321638 27.43341528 299.51759494 22.79092121 299.55733967 C19.21603018 299.5835318 15.64125319 299.59186225 12.06627464 299.59544945 C10.35550891 299.60031109 8.64474812 299.61191307 6.93407631 299.63048744 C4.53330456 299.65492809 2.13376914 299.65390506 -0.26708984 299.64697266 C-0.96813843 299.65978271 -1.66918701 299.67259277 -2.39147949 299.68579102 C-7.8597558 299.6285231 -10.90522567 298.40937541 -15.19018555 295.17700195 C-18.58973294 289.15836449 -18.7260757 283.519902 -18.86959839 276.70791626 C-18.9192543 275.05405802 -18.9192543 275.05405802 -18.96991336 273.36678851 C-19.28019131 262.13975573 -19.33140427 250.91291845 -19.31958008 239.68237305 C-19.32094041 237.45987418 -19.32272385 235.23737554 -19.32489014 233.01487732 C-19.32938886 227.06251821 -19.3277067 221.11017672 -19.32451105 215.15781736 C-19.32194847 208.87861814 -19.32433564 202.59942025 -19.32589722 196.32022095 C-19.32782276 185.11377992 -19.32474965 173.90734526 -19.31963788 162.70090576 C-19.3151697 152.59332455 -19.31595031 142.48575483 -19.32055664 132.37817383 C-19.32593883 120.56305634 -19.32788414 108.74794443 -19.32494438 96.93282568 C-19.32339817 90.70672367 -19.32314184 84.48062953 -19.32648087 78.25452805 C-19.32940301 72.39870237 -19.32730547 66.54289807 -19.32158661 60.68707466 C-19.32028214 58.55846377 -19.32061285 56.42985103 -19.32284927 54.30124092 C-19.33323579 43.39696768 -19.22548506 32.49876395 -18.86959839 21.59976196 C-18.84762048 20.64247959 -18.82564257 19.68519723 -18.80299866 18.6989063 C-18.60073469 13.4881496 -18.10123584 9.67422885 -15.19018555 5.17700195 C-10.21135508 0.57158377 -6.65791921 0.04967781 0 0 Z M-5.19018555 13.17700195 C-5.19018555 18.45700195 -5.19018555 23.73700195 -5.19018555 29.17700195 C-0.34424143 29.42632936 -0.34424143 29.42632936 4.50268555 29.6550293 C9.58759223 29.95477973 9.58759223 29.95477973 11.80981445 32.17700195 C11.93481445 35.80200195 11.93481445 35.80200195 11.80981445 39.17700195 C6.65197572 42.31766613 0.68432383 41.82453139 -5.19018555 42.17700195 C-5.19018555 47.45700195 -5.19018555 52.73700195 -5.19018555 58.17700195 C0.03012105 58.46617591 0.03012105 58.46617591 5.25097656 58.74511719 C10.69870334 59.06589084 10.69870334 59.06589084 11.80981445 60.17700195 C11.95096607 62.84759046 11.85228553 65.50132433 11.80981445 68.17700195 C8.76868447 69.69756694 5.52783648 69.55111805 2.18481445 69.73950195 C-0.24893555 69.88387695 -2.68268555 70.02825195 -5.19018555 70.17700195 C-5.19018555 75.45700195 -5.19018555 80.73700195 -5.19018555 86.17700195 C0.03012105 86.46617591 0.03012105 86.46617591 5.25097656 86.74511719 C10.69870334 87.06589084 10.69870334 87.06589084 11.80981445 88.17700195 C11.95174783 91.18031213 11.85217824 94.16917329 11.80981445 97.17700195 C3.39481445 97.67200195 3.39481445 97.67200195 -5.19018555 98.17700195 C-5.19018555 103.45700195 -5.19018555 108.73700195 -5.19018555 114.17700195 C-1.81799805 114.36262695 -1.81799805 114.36262695 1.62231445 114.55200195 C8.43481445 114.92700195 8.43481445 114.92700195 11.80981445 117.17700195 C12.12231445 120.67700195 12.12231445 120.67700195 11.80981445 124.17700195 C8.96386398 127.02295243 6.00183284 126.63233882 2.18481445 126.80200195 C-1.46581055 126.98762695 -1.46581055 126.98762695 -5.19018555 127.17700195 C-5.19018555 132.45700195 -5.19018555 137.73700195 -5.19018555 143.17700195 C-0.34424143 143.42632936 -0.34424143 143.42632936 4.50268555 143.6550293 C9.58759223 143.95477973 9.58759223 143.95477973 11.80981445 146.17700195 C11.93481445 149.80200195 11.93481445 149.80200195 11.80981445 153.17700195 C6.65197572 156.31766613 0.68432383 155.82453139 -5.19018555 156.17700195 C-5.19018555 161.45700195 -5.19018555 166.73700195 -5.19018555 172.17700195 C-0.34402665 172.46584281 -0.34402665 172.46584281 4.50268555 172.74511719 C9.58759223 173.06589084 9.58759223 173.06589084 11.80981445 174.17700195 C11.80981445 176.81700195 11.80981445 179.45700195 11.80981445 182.17700195 C8.76868447 183.69756694 5.52783648 183.55111805 2.18481445 183.73950195 C-1.46581055 183.95606445 -1.46581055 183.95606445 -5.19018555 184.17700195 C-5.19018555 189.45700195 -5.19018555 194.73700195 -5.19018555 200.17700195 C-3.12768555 200.30075195 -1.06518555 200.42450195 1.05981445 200.55200195 C5.14693452 200.79722916 8.27794613 201.02640887 11.80981445 203.17700195 C11.93481445 206.55200195 11.93481445 206.55200195 11.80981445 210.17700195 C8.96386398 213.02295243 6.00183284 212.63233882 2.18481445 212.80200195 C-1.46581055 212.98762695 -1.46581055 212.98762695 -5.19018555 213.17700195 C-5.19018555 218.45700195 -5.19018555 223.73700195 -5.19018555 229.17700195 C-0.34424143 229.42632936 -0.34424143 229.42632936 4.50268555 229.6550293 C9.58759223 229.95477973 9.58759223 229.95477973 11.80981445 232.17700195 C12.12231445 235.67700195 12.12231445 235.67700195 11.80981445 239.17700195 C6.73573434 242.55972203 0.80738177 241.84686063 -5.19018555 242.17700195 C-5.19018555 247.45700195 -5.19018555 252.73700195 -5.19018555 258.17700195 C3.22481445 258.67200195 3.22481445 258.67200195 11.80981445 259.17700195 C11.9074707 266.1105957 11.9074707 266.1105957 11.80981445 268.17700195 C9.75059044 270.23622597 5.59273321 269.59127775 2.74731445 269.73950195 C1.98870117 269.78268555 1.23008789 269.82586914 0.44848633 269.87036133 C-1.43083992 269.97673829 -3.31048798 270.07740129 -5.19018555 270.17700195 C-5.21703234 272.82290209 -5.23694911 275.46853291 -5.25268555 278.11450195 C-5.26525391 279.24662109 -5.26525391 279.24662109 -5.27807617 280.40161133 C-5.28670996 282.32694509 -5.24242887 284.25235776 -5.19018555 286.17700195 C-3.32032734 288.04686016 -0.15870934 287.30479544 2.33325195 287.30639648 C3.01454163 287.3081488 3.6958313 287.30990112 4.39776611 287.31170654 C6.66014112 287.31612438 8.92243858 287.31318733 11.18481445 287.30981445 C12.75040705 287.31048751 14.31599955 287.31145755 15.8815918 287.31271362 C19.1669209 287.3141905 22.45222287 287.31203636 25.73754883 287.30737305 C29.95801961 287.30167576 34.17842681 287.30495482 38.39889526 287.31094551 C41.63298017 287.3145514 44.8670499 287.31341241 48.10113525 287.31081772 C49.65773526 287.31014853 51.21433663 287.31097661 52.77093506 287.31329727 C54.94278641 287.31582425 57.11453341 287.3119826 59.28637695 287.30639648 C61.14383545 287.30520309 61.14383545 287.30520309 63.03881836 287.3039856 C65.71836187 287.49311973 65.71836187 287.49311973 66.80981445 286.17700195 C66.90651172 284.71742974 66.93353236 283.25318362 66.93286228 281.79041195 C66.93485333 280.83745391 66.93684438 279.88449587 66.93889576 278.90266031 C66.93598292 277.84334427 66.93307008 276.78402822 66.93006897 275.69261169 C66.93092339 274.57694748 66.93177782 273.46128326 66.93265814 272.31181103 C66.9343162 268.54216801 66.92878624 264.77256867 66.92333984 261.00292969 C66.92305802 258.31316019 66.9231715 255.62339343 66.92378235 252.93362427 C66.92430778 247.12667316 66.921159 241.31973325 66.91554451 235.51278496 C66.90743207 227.11681878 66.90481455 218.72085803 66.90355652 210.32488836 C66.9013656 196.70438213 66.89470442 183.08388188 66.88525391 169.46337891 C66.87608083 156.22900421 66.86899949 142.99463114 66.86474609 129.76025391 C66.86435201 128.5374733 66.86435201 128.5374733 66.86394996 127.28999006 C66.86264496 123.20060925 66.86138125 119.11122843 66.86013806 115.02184761 C66.84976419 81.07356043 66.83132521 47.12528435 66.80981445 13.17700195 C43.04981445 13.17700195 19.28981445 13.17700195 -5.19018555 13.17700195 Z " fill="#58595B" transform="translate(425.190185546875,205.822998046875)"/>
<path d="M0 0 C4.873963 4.39329603 7.81266192 9.84697655 8.18731594 16.40690517 C8.23070759 17.95655878 8.26869877 19.50636882 8.30259705 21.05625916 C8.33562914 22.33805009 8.33562914 22.33805009 8.36932856 23.6457358 C8.44147134 26.52275593 8.5060772 29.39988729 8.57006836 32.27709961 C8.59393049 33.28415829 8.61779263 34.29121696 8.64237785 35.32879257 C9.11814947 55.41193215 9.39861001 75.49755092 9.61696529 95.58498287 C9.75916422 108.34545518 9.95688257 121.09986992 10.29858398 133.85668945 C13.25539462 246.41243414 13.25539462 246.41243414 -22.01953125 291.78515625 C-24.01953125 293.78515625 -24.01953125 293.78515625 -27.33203125 294.41015625 C-31.01953125 293.78515625 -31.01953125 293.78515625 -32.26519775 292.3913269 C-35.78813924 286.37524315 -38.90000123 280.18985381 -41.94140625 273.91796875 C-42.48686096 272.80203339 -43.03231567 271.68609802 -43.59429932 270.53634644 C-45.32349843 266.99627694 -47.04661421 263.45328673 -48.76953125 259.91015625 C-49.94181755 257.50607467 -51.11547603 255.10266626 -52.2890625 252.69921875 C-54.85770458 247.4372822 -57.42248268 242.17348267 -59.98382568 236.9079895 C-60.65587975 235.53051431 -61.33409787 234.15602301 -62.01953125 232.78515625 C-62.12638104 229.93562023 -62.17174921 227.11004755 -62.1734314 224.2598877 C-62.17781365 223.36685298 -62.1821959 222.47381827 -62.18671095 221.5537219 C-62.20013052 218.54297399 -62.20628497 215.53225537 -62.21240234 212.52148438 C-62.22030103 210.36995307 -62.22856983 208.2184231 -62.23718262 206.06689453 C-62.26343684 198.98341137 -62.27871686 191.8999222 -62.29296875 184.81640625 C-62.29832764 182.37918595 -62.30370515 179.9419657 -62.3091011 177.50474548 C-62.33073768 167.3650692 -62.3494735 157.22539453 -62.3607235 147.08570099 C-62.3769548 132.55100059 -62.41010411 118.01656788 -62.46712434 103.4819684 C-62.50583823 93.26529578 -62.52535812 83.04869471 -62.53064406 72.83195066 C-62.53429641 66.72932199 -62.54630534 60.6269786 -62.5787468 54.52442932 C-62.6088513 48.77880901 -62.61513043 43.03364625 -62.60336304 37.28796387 C-62.60314248 35.18292026 -62.61143236 33.0778553 -62.62901688 30.97288513 C-62.79612287 9.81128481 -62.79612287 9.81128481 -57.01953125 2.78515625 C-43.59862887 -9.76244394 -14.91317194 -10.7427628 0 0 Z M-47.26953125 12.34765625 C-50.10352512 16.29500485 -50.13831655 18.46453757 -50.1171875 23.32421875 C-50.11468994 24.49678223 -50.11219238 25.6693457 -50.10961914 26.87744141 C-50.10051514 28.3732373 -50.09141113 29.8690332 -50.08203125 31.41015625 C-50.06140625 36.15390625 -50.04078125 40.89765625 -50.01953125 45.78515625 C-34.83953125 45.78515625 -19.65953125 45.78515625 -4.01953125 45.78515625 C-3.95765625 41.28890625 -3.89578125 36.79265625 -3.83203125 32.16015625 C-3.80471924 30.7529834 -3.77740723 29.34581055 -3.74926758 27.89599609 C-3.7417749 26.77402832 -3.73428223 25.65206055 -3.7265625 24.49609375 C-3.70299683 22.78365479 -3.70299683 22.78365479 -3.67895508 21.03662109 C-4.20206237 16.04254019 -5.87059049 12.82200523 -9.58203125 9.47265625 C-14.99506462 5.72517161 -20.40556527 6.56275245 -26.83203125 6.53515625 C-28.02119141 6.51453125 -29.21035156 6.49390625 -30.43554688 6.47265625 C-32.15741211 6.46492187 -32.15741211 6.46492187 -33.9140625 6.45703125 C-34.96440674 6.44768555 -36.01475098 6.43833984 -37.09692383 6.42871094 C-41.71963129 6.99250284 -44.2433085 8.90112478 -47.26953125 12.34765625 Z M-50.01953125 58.78515625 C-50.01953125 63.73515625 -50.01953125 68.68515625 -50.01953125 73.78515625 C-34.83953125 73.78515625 -19.65953125 73.78515625 -4.01953125 73.78515625 C-4.01953125 68.83515625 -4.01953125 63.88515625 -4.01953125 58.78515625 C-19.19953125 58.78515625 -34.37953125 58.78515625 -50.01953125 58.78515625 Z M-50.01953125 85.78515625 C-50.01953125 130.99515625 -50.01953125 176.20515625 -50.01953125 222.78515625 C-34.83953125 222.78515625 -19.65953125 222.78515625 -4.01953125 222.78515625 C-4.01953125 177.57515625 -4.01953125 132.36515625 -4.01953125 85.78515625 C-19.19953125 85.78515625 -34.37953125 85.78515625 -50.01953125 85.78515625 Z M-46.01953125 234.78515625 C-40.32234575 247.6264315 -34.41010464 260.27594877 -28.01953125 272.78515625 C-25.17182185 269.30713034 -23.21627138 265.46834326 -21.2265625 261.46484375 C-20.70022469 260.4150383 -20.70022469 260.4150383 -20.16325378 259.34402466 C-19.42596068 257.87079476 -18.69067218 256.39656013 -17.95727539 254.92138672 C-16.83100445 252.65809285 -15.69621975 250.39921314 -14.56054688 248.140625 C-13.8445386 246.70728764 -13.12902634 245.27370237 -12.4140625 243.83984375 C-12.07349319 243.1627536 -11.73292389 242.48566345 -11.3820343 241.78805542 C-9.61039122 238.4476683 -9.61039122 238.4476683 -9.01953125 234.78515625 C-21.22953125 234.78515625 -33.43953125 234.78515625 -46.01953125 234.78515625 Z " fill="#58595B" transform="translate(382.01953125,211.21484375)"/>
<path d="M0 0 C15.86766792 13.67028115 26.91480232 32.96460302 29 54 C30.7648155 79.49528102 24.23624925 101.47538921 7.47265625 120.93359375 C-7.98523551 137.29943804 -28.76356399 146.6277565 -51.2644043 147.40258789 C-75.9748558 147.74115209 -96.39385139 139.27451259 -114.25 122.125 C-130.48834923 105.15917272 -137.57873169 84.76691972 -137.34960938 61.41186523 C-136.68792746 38.0406342 -126.86877826 17.69939159 -110.0078125 1.56640625 C-78.11472634 -25.64626597 -32.52108321 -26.14275463 0 0 Z M-74.25 -3.5625 C-74.96929687 -3.33240234 -75.68859375 -3.10230469 -76.4296875 -2.86523438 C-80.29075273 -1.62423613 -80.29075273 -1.62423613 -84 0 C-83.505 1.051875 -83.505 1.051875 -83 2.125 C-81.89295539 5.30775326 -81.70251443 7.65328734 -82 11 C-84 13 -84 13 -87.375 13.5 C-91 13 -91 13 -93.4375 10 C-93.953125 9.01 -94.46875 8.02 -95 7 C-101.28119035 11.25984984 -106.14267865 16.18671647 -111 22 C-110.67 22.99 -110.34 23.98 -110 25 C-109.34 25.268125 -108.68 25.53625 -108 25.8125 C-106 27 -106 27 -105 29.875 C-105 33 -105 33 -106.5625 35.4375 C-109 37 -109 37 -112.0625 36.8125 C-114.05694126 36.26084603 -116.03686316 35.65437895 -118 35 C-121.56032571 42.31076591 -124.53430376 49.71829165 -124 58 C-121.03 58.66 -118.06 59.32 -115 60 C-115 62.97 -115 65.94 -115 69 C-119.455 69.495 -119.455 69.495 -124 70 C-123.54116337 77.80022265 -122.79322523 88.20677477 -117 94 C-116.484375 93.649375 -115.96875 93.29875 -115.4375 92.9375 C-112.05993333 91.6384359 -109.49531943 92.32782319 -106 93 C-105.1875 95.6875 -105.1875 95.6875 -105 99 C-107.4375 101.6875 -107.4375 101.6875 -110 104 C-110 108.82769172 -106.56484902 111.19098092 -103.40234375 114.61328125 C-100.74265849 117.25566774 -98.25091391 119.16615113 -95 121 C-94.443125 120.195625 -93.88625 119.39125 -93.3125 118.5625 C-91 116 -91 116 -88.4375 115.125 C-86 115 -86 115 -83 116 C-82.05330698 120.82813441 -81.98074154 123.53759295 -84 128 C-76.33199893 131.29772071 -68.50682485 134.54882741 -60 134 C-59.67 131.03 -59.34 128.06 -59 125 C-55.7 125 -52.4 125 -49 125 C-48.505 129.455 -48.505 129.455 -48 134 C-40.23690256 133.54334721 -33.16653257 132.12871686 -26 129 C-25.67 128.34 -25.34 127.68 -25 127 C-25.33 126.4225 -25.66 125.845 -26 125.25 C-27.38236705 122.13967415 -26.91245334 120.22868106 -26 117 C-23 115 -23 115 -20 115.0625 C-17 116 -17 116 -15.125 118.5625 C-14.75375 119.366875 -14.3825 120.17125 -14 121 C-6.56575247 117.60574445 -1.39502254 111.72987826 3 105 C2.01 104.484375 1.02 103.96875 0 103.4375 C-3 101 -3 101 -3.5 97.375 C-3 94 -3 94 -1 92 C2.7687064 92.3489543 6.34308028 93.05757796 10 94 C13.29772071 86.33199893 16.54882741 78.50682485 16 70 C14.081875 69.814375 14.081875 69.814375 12.125 69.625 C8.25 69.25 8.25 69.25 6 67 C5.75 64 5.75 64 6 61 C9.00617269 57.99382731 11.82381598 58.40414684 16 58 C15.66228102 50.36755101 14.31643977 42.94165151 11 36 C10.01 35.67 9.02 35.34 8 35 C7.401875 35.33 6.80375 35.66 6.1875 36 C3.16682186 37.38088144 1.16417307 36.77346453 -2 36 C-3 35 -3 35 -3.4375 31.6875 C-3 28 -3 28 0 25.5625 C0.99 25.046875 1.98 24.53125 3 24 C-0.15559838 17.05458984 -5.94487414 11.50614018 -12 7 C-12.66 7 -13.32 7 -14 7 C-14.556875 7.99 -15.11375 8.98 -15.6875 10 C-18 13 -18 13 -21.625 13.5625 C-22.73875 13.376875 -23.8525 13.19125 -25 13 C-27 10 -27 10 -26.6875 7.0625 C-26.15662283 4.69768353 -25.59367096 2.3493133 -25 0 C-32.53724079 -3.59414723 -39.47638797 -6.4261806 -48 -6 C-48.185625 -4.081875 -48.185625 -4.081875 -48.375 -2.125 C-48.75 1.75 -48.75 1.75 -51 4 C-54 4.25 -54 4.25 -57 4 C-60.00617269 0.99382731 -59.59585316 -1.82381598 -60 -6 C-65.23851634 -6.32122978 -69.35304991 -5.19033231 -74.25 -3.5625 Z " fill="#58595B" transform="translate(476,26)"/>
<path d="M0 0 C1.15822266 -0.02900391 2.31644531 -0.05800781 3.50976562 -0.08789062 C4.61900391 -0.09626953 5.72824219 -0.10464844 6.87109375 -0.11328125 C7.89001709 -0.12786377 8.90894043 -0.14244629 9.95874023 -0.1574707 C12.5625 0.3125 12.5625 0.3125 14.38623047 2.15063477 C15.93388018 4.99505946 16.07496355 7.34182937 16.25 10.5625 C16.31574219 11.64015625 16.38148438 12.7178125 16.44921875 13.828125 C16.50529297 15.05789062 16.50529297 15.05789062 16.5625 16.3125 C17.820625 16.663125 19.07875 17.01375 20.375 17.375 C24.48951615 18.70330836 27.64013538 20.60436767 31.1875 23.0625 C35.30734963 25.8405709 35.30734963 25.8405709 40.1875 26.3125 C41.30125 25.9825 42.415 25.6525 43.5625 25.3125 C45.11635561 24.97782341 46.68031489 24.68762868 48.25 24.4375 C49.33861328 24.22480469 49.33861328 24.22480469 50.44921875 24.0078125 C52.5625 24.3125 52.5625 24.3125 54.56640625 26.375 C56.75191523 29.59124804 58.84790758 32.83314035 60.8125 36.1875 C61.17601562 36.77402344 61.53953125 37.36054688 61.9140625 37.96484375 C64.43784701 42.28184357 65.66699133 45.38560239 64.5625 50.3125 C62.5637207 52.08691406 62.5637207 52.08691406 60.09765625 53.9609375 C57.20616446 56.31612709 55.76581699 57.55972936 54.78466797 61.19238281 C54.61369494 64.49445888 54.73891368 67.64201049 55 70.9375 C55.0319043 72.59652344 55.0319043 72.59652344 55.06445312 74.2890625 C55.34867546 80.34169669 55.34867546 80.34169669 58.41455078 85.35058594 C60.54611079 86.9809318 60.54611079 86.9809318 62.76977539 88.23974609 C64.5625 89.3125 64.5625 89.3125 65.5625 91.3125 C66.42371471 97.35932672 63.76081193 101.12657478 60.6875 106.0625 C60.22730469 106.82949219 59.76710938 107.59648437 59.29296875 108.38671875 C55.91179548 113.96320452 55.91179548 113.96320452 53.5625 116.3125 C49.05139138 116.62361094 45.88842589 116.48877031 41.6875 114.875 C38.74301403 114.03041267 37.84033648 114.16461223 35.08203125 115.6328125 C33.35122936 116.88443626 31.64387428 118.16909518 29.9609375 119.484375 C26.14059091 122.39630041 22.45120779 124.3125 17.5625 124.3125 C17.52511719 125.04855469 17.48773438 125.78460938 17.44921875 126.54296875 C17.38347656 127.51878906 17.31773437 128.49460937 17.25 129.5 C17.19199219 130.46292969 17.13398438 131.42585937 17.07421875 132.41796875 C16.47999283 135.77920084 15.65973543 137.61736973 13.5625 140.3125 C10.8828125 140.94360352 10.8828125 140.94360352 7.6875 140.94140625 C5.96273437 140.94430664 5.96273437 140.94430664 4.203125 140.94726562 C3.00171875 140.92341797 1.8003125 140.89957031 0.5625 140.875 C-1.23960937 140.89143555 -1.23960937 140.89143555 -3.078125 140.90820312 C-11.91944338 140.83386469 -11.91944338 140.83386469 -14.27270508 138.46557617 C-15.80890999 135.62596369 -15.95048365 133.27360091 -16.125 130.0625 C-16.19074219 128.98484375 -16.25648438 127.9071875 -16.32421875 126.796875 C-16.36160156 125.97703125 -16.39898437 125.1571875 -16.4375 124.3125 C-17.22125 124.27125 -18.005 124.23 -18.8125 124.1875 C-24.65434813 122.77739873 -29.91635667 119.47555388 -34.47265625 115.56640625 C-36.34752856 114.0960741 -36.34752856 114.0960741 -38.55078125 114.45703125 C-39.27652344 114.67746094 -40.00226563 114.89789063 -40.75 115.125 C-44.767723 116.18403736 -48.25087516 116.73116248 -52.4375 116.3125 C-55.93153028 113.39431226 -57.89471568 109.46105122 -60.125 105.5625 C-60.54072266 104.8715625 -60.95644531 104.180625 -61.38476562 103.46875 C-63.941589 99.00165629 -65.35954446 95.58973318 -64.4375 90.3125 C-62.46875 88.80078125 -62.46875 88.80078125 -59.9375 87.625 C-57.28754862 86.02561486 -57.28754862 86.02561486 -55.4375 83.3125 C-54.33627454 77.45109636 -54.99674633 71.39988231 -55.375 65.48730469 C-55.4472327 62.97383238 -55.12006509 60.73159098 -54.4375 58.3125 C-54.97375 58.085625 -55.51 57.85875 -56.0625 57.625 C-60.43783193 55.20705341 -63.86457381 53.13481943 -65.41015625 48.21875 C-65.44795608 42.81877403 -63.40450263 39.55431999 -60.6875 35 C-60.23117188 34.18982422 -59.77484375 33.37964844 -59.3046875 32.54492188 C-55.8858861 26.61142406 -55.8858861 26.61142406 -52.4375 24.3125 C-50.421875 24.30078125 -50.421875 24.30078125 -48.1875 24.625 C-47.38699219 24.72425781 -46.58648437 24.82351562 -45.76171875 24.92578125 C-43.4375 25.3125 -43.4375 25.3125 -40 26.3125 C-35.06413895 26.3125 -32.83978163 24.04396947 -29.015625 21.10546875 C-25.40070269 18.5914546 -21.67373099 17.38690641 -17.4375 16.3125 C-17.38851562 15.64863281 -17.33953125 14.98476562 -17.2890625 14.30078125 C-16.50919696 5.09030035 -16.50919696 5.09030035 -14.4375 1.3125 C-10.20179299 -0.80535351 -4.65386657 0.03871769 0 0 Z M-4.4375 12.3125 C-4.51484375 13.19292969 -4.5921875 14.07335937 -4.671875 14.98046875 C-5.22264776 18.73991011 -5.88577949 21.83596771 -7.4375 25.3125 C-10.313649 27.30029717 -12.96391749 28.21873049 -16.2890625 29.2734375 C-21.82987974 31.10204468 -26.67552239 34.34323091 -30.5625 38.6875 C-32.4375 40.3125 -32.4375 40.3125 -35.6875 40.6875 C-39.80544825 40.27570517 -43.45730488 39.42974775 -47.4375 38.3125 C-49.82117192 41.52797816 -49.82117192 41.52797816 -50.24609375 45.33984375 C-49.23410262 47.80871101 -48.23416538 48.33077258 -45.9375 49.625 C-42.8274628 51.68986077 -42.51489763 52.03677094 -41.4375 55.875 C-41.4375 59.3125 -41.4375 59.3125 -41.9296875 61.078125 C-42.64780483 64.23784125 -42.56909911 67.26313565 -42.5625 70.5 C-42.56419189 71.16692871 -42.56588379 71.83385742 -42.56762695 72.52099609 C-42.55091058 76.24829471 -42.27405812 79.771867 -41.625 83.4375 C-41.4375 87.3125 -41.4375 87.3125 -43.625 90.125 C-45.0171875 91.2078125 -45.0171875 91.2078125 -46.4375 92.3125 C-47.200625 93.075625 -47.96375 93.83875 -48.75 94.625 C-49.306875 95.181875 -49.86375 95.73875 -50.4375 96.3125 C-49.1175 98.2925 -47.7975 100.2725 -46.4375 102.3125 C-45.54998047 102.0959375 -45.54998047 102.0959375 -44.64453125 101.875 C-43.85433594 101.689375 -43.06414062 101.50375 -42.25 101.3125 C-41.47269531 101.126875 -40.69539063 100.94125 -39.89453125 100.75 C-37.27475028 100.28352072 -35.08923015 100.03021905 -32.4375 100.3125 C-30.62109375 101.6328125 -30.62109375 101.6328125 -28.875 103.4375 C-23.39879526 108.57014057 -16.73400884 111.77409241 -9.69921875 114.29296875 C-7.4375 115.3125 -7.4375 115.3125 -5.4375 118.3125 C-5.00011304 120.02694889 -4.62901312 121.75917784 -4.3125 123.5 C-4.06113281 124.85158203 -4.06113281 124.85158203 -3.8046875 126.23046875 C-3.68351562 126.91753906 -3.56234375 127.60460937 -3.4375 128.3125 C-0.7975 128.3125 1.8425 128.3125 4.5625 128.3125 C4.60503906 127.44367188 4.64757812 126.57484375 4.69140625 125.6796875 C5.17641301 121.7734168 5.80293741 118.84858481 7.5625 115.3125 C10.58832995 113.50525089 13.25683704 112.46664874 16.59033203 111.43481445 C21.51297568 109.88491863 24.62075048 107.92780496 28.5 104.375 C32.97136957 100.41445455 32.97136957 100.41445455 35.8046875 99.92578125 C37.875 100.1875 37.875 100.1875 41.5625 101.3125 C43.295 101.5909375 43.295 101.5909375 45.0625 101.875 C45.8875 102.019375 46.7125 102.16375 47.5625 102.3125 C49.28065438 100.06082154 49.28065438 100.06082154 50.5625 97.3125 C49.6151001 93.40447541 46.63354956 91.67484581 43.5625 89.3125 C42.01395574 86.21541148 42.83053244 83.04924539 43.125 79.6875 C43.72935569 72.05577161 43.06531926 65.20974828 41.64453125 57.703125 C41.5625 54.3125 41.5625 54.3125 43.33984375 51.53515625 C44.07332031 50.80167969 44.80679688 50.06820312 45.5625 49.3125 C46.47 48.384375 47.3775 47.45625 48.3125 46.5 C49.055 45.778125 49.7975 45.05625 50.5625 44.3125 C49.2425 42.3325 47.9225 40.3525 46.5625 38.3125 C45.36625 38.6425 44.17 38.9725 42.9375 39.3125 C39.39347711 40.29016149 36.23800615 40.66911444 32.5625 40.3125 C30.17578125 38.73828125 30.17578125 38.73828125 27.875 36.625 C22.22304356 31.80120032 16.05669278 28.50404391 8.8515625 26.59375 C6.5625 25.3125 6.5625 25.3125 5.41796875 22.2734375 C5.19753906 21.09007812 4.97710937 19.90671875 4.75 18.6875 C4.40001953 16.90472656 4.40001953 16.90472656 4.04296875 15.0859375 C3.88441406 14.17070312 3.72585937 13.25546875 3.5625 12.3125 C0.9225 12.3125 -1.7175 12.3125 -4.4375 12.3125 Z " fill="#58595B" transform="translate(155.4375,224.6875)"/>
<path d="M0 0 C1.25205231 -0.00571014 2.50410461 -0.01142029 3.7940979 -0.01730347 C5.18418874 -0.0185488 6.5742797 -0.0196739 7.96437073 -0.02069092 C9.42628606 -0.02531948 10.88820019 -0.03034419 12.35011292 -0.03573608 C16.32321717 -0.04885633 20.29630453 -0.05530403 24.26942706 -0.05974674 C26.75079816 -0.0626774 29.23216463 -0.06678214 31.7135334 -0.07125092 C39.47482451 -0.08492337 47.23610506 -0.09459189 54.99740738 -0.09845281 C63.96149398 -0.10293645 72.92542832 -0.12049956 81.88946861 -0.1494534 C88.81607675 -0.17105125 95.74264199 -0.18115603 102.66928345 -0.18249393 C106.80762176 -0.1835431 110.94581689 -0.18947489 115.0841198 -0.20731354 C118.97554656 -0.22376207 122.866722 -0.22596554 126.75817108 -0.21717453 C128.18683863 -0.21640248 129.61551951 -0.22076892 131.04415321 -0.23063278 C132.99342461 -0.24330287 134.94279646 -0.23570179 136.89208984 -0.22705078 C137.98328345 -0.22851734 139.07447706 -0.2299839 140.19873714 -0.2314949 C143.38932078 0.19069651 144.77786101 0.83987821 147.00953674 3.14044189 C147.74823109 9.04999666 147.74823109 9.04999666 145.86134243 11.83538246 C143.19426278 13.71500594 141.18925278 13.51807181 137.94314575 13.52139282 C136.67426514 13.52985229 135.40538452 13.53831177 134.09805298 13.54702759 C132.68907038 13.54119445 131.28008904 13.53504993 129.87110901 13.52862549 C128.38948682 13.53268993 126.90786767 13.53803109 125.42625427 13.54455566 C121.39935691 13.55825158 117.37268971 13.55292101 113.34578824 13.54341841 C109.13424632 13.53583213 104.92272432 13.54286468 100.71118164 13.5475769 C93.63701331 13.55303808 86.56293887 13.54583402 79.48878479 13.53155518 C71.308421 13.51523424 63.12828158 13.52051161 54.94792324 13.53703439 C47.92788127 13.55064651 40.90790686 13.55257008 33.88785595 13.54471838 C29.6936484 13.54003954 25.49954632 13.53942267 21.30534554 13.54932785 C17.3613586 13.55799106 13.41766096 13.5519876 9.47370529 13.53464508 C8.02569878 13.53067649 6.57766795 13.53182068 5.1296711 13.53843307 C3.15409333 13.5466232 1.17846241 13.53453438 -0.79708862 13.52139282 C-2.45600207 13.51969621 -2.45600207 13.51969621 -4.14842892 13.51796532 C-7.34430127 13.0934396 -8.74138785 12.42709323 -10.99046326 10.14044189 C-11.50067054 6.05878363 -11.30408128 4.61086893 -8.99046326 1.14044189 C-5.75359199 0.0614848 -3.40541083 0.00928657 0 0 Z " fill="#58595B" transform="translate(86.99046325683594,388.85955810546875)"/>
<path d="M0 0 C5.49897157 3.32523281 9.92592029 8.05067011 12.625 13.875 C14.45108097 21.60072719 14.26341315 29.25166842 10.4375 36.3125 C6.70380645 42.08275367 2.01869666 45.26404806 -4.5625 47.3125 C-11.50959191 48.20915047 -18.67300426 48.4588386 -24.8203125 44.69921875 C-31.10101753 39.70000286 -34.96839064 34.22560142 -36.5625 26.3125 C-37.27517555 19.66086154 -35.79841288 13.66045421 -32.0859375 8.1015625 C-24.15285588 -1.64272497 -12.00507429 -5.58110665 0 0 Z M-19.5625 13.3125 C-22.35195399 16.54239409 -23.45769026 18.5788318 -24.0625 22.8125 C-23.45769026 27.0461682 -22.35195399 29.08260591 -19.5625 32.3125 C-16.14669615 34.66560932 -14.21792661 35.3125 -10.0625 35.3125 C-5.6859544 34.0620584 -3.80054808 32.4734517 -0.5625 29.3125 C1.18330224 25.82089553 1.00733131 22.12204642 0.4375 18.3125 C-1.3090045 14.87021934 -3.71526281 12.76711508 -7.125 10.9375 C-12.20678678 9.63447775 -15.23587032 10.60835645 -19.5625 13.3125 Z " fill="#58595B" transform="translate(166.5625,272.6875)"/>
<path d="M0 0 C3.4375 0.25 3.4375 0.25 7 1 C9 4 9 4 9.125 7.1875 C7.78064365 11.74337431 5.86391048 13.59865757 2.3984375 16.71484375 C-0.30456952 19.29018432 -2.69543893 22.04787513 -5.13525391 24.87036133 C-8.12755756 28.28773038 -11.25371874 31.57579884 -14.375 34.875 C-19.19139906 39.98775667 -23.95281028 45.13708222 -28.62890625 50.37890625 C-31.71390538 53.78917712 -34.85635431 57.14384486 -38 60.5 C-41.93136135 64.69824772 -45.84691249 68.90562416 -49.6875 73.1875 C-50.37972656 73.95191406 -51.07195312 74.71632813 -51.78515625 75.50390625 C-53.47307876 77.40616812 -55.11548832 79.32703384 -56.74609375 81.27734375 C-57.70557121 82.39336498 -58.6652046 83.50925218 -59.625 84.625 C-60.05643311 85.15891357 -60.48786621 85.69282715 -60.93237305 86.24291992 C-63.5164832 89.20531143 -64.74776732 89.97241619 -68.71484375 90.40625 C-72 90 -72 90 -73.9375 88.875 C-75.52666445 86.07059214 -75.35863565 84.18915792 -75 81 C-73.015625 78.24609375 -73.015625 78.24609375 -70.25 75.4375 C-69.23405729 74.384421 -68.21844359 73.33102451 -67.203125 72.27734375 C-66.40938477 71.46885986 -66.40938477 71.46885986 -65.59960938 70.64404297 C-63.00937488 67.98185752 -60.50948529 65.23803064 -58 62.5 C-56.98996187 61.40590042 -55.97954586 60.31214958 -54.96875 59.21875 C-52.13844173 56.15258271 -49.31780288 53.0776579 -46.5 50 C-42.17263584 45.27357055 -37.8293507 40.56209935 -33.48046875 35.85546875 C-30.14532748 32.24455353 -26.81947095 28.62532195 -23.5 25 C-19.54526704 20.68418273 -15.58915842 16.36966347 -11.625 12.0625 C-10.89313477 11.26489258 -10.89313477 11.26489258 -10.14648438 10.45117188 C-7.17146332 7.22243513 -4.12359737 4.0849663 -1 1 C-0.67 0.67 -0.34 0.34 0 0 Z " fill="#58595B" transform="translate(317,16)"/>
<path d="M0 0 C1.3122908 -0.01702469 1.3122908 -0.01702469 2.65109253 -0.03439331 C3.60807037 -0.03146271 4.56504822 -0.0285321 5.55102539 -0.0255127 C6.56101593 -0.03398224 7.57100647 -0.04245178 8.61160278 -0.05117798 C11.95742303 -0.07461924 15.30278541 -0.0755685 18.64868164 -0.07434082 C20.96891465 -0.08143749 23.2891459 -0.08913575 25.609375 -0.09741211 C30.4750659 -0.11087292 35.3405945 -0.1124182 40.20629883 -0.10656738 C46.45133316 -0.10066643 52.69559137 -0.13127262 58.94047546 -0.17168427 C63.73250548 -0.1974914 68.52434683 -0.20044508 73.31643677 -0.1967926 C75.6194148 -0.19849005 77.92240098 -0.20819212 80.22531128 -0.22593689 C83.44118734 -0.24799059 86.65546883 -0.23849357 89.87133789 -0.2208252 C90.82831573 -0.23408844 91.78529358 -0.24735168 92.77127075 -0.26101685 C95.18890952 -0.23004181 97.35867117 -0.16198423 99.71118164 0.39440918 C101.87304688 2.72973633 101.87304688 2.72973633 102.71118164 5.39440918 C101.51118164 10.59440918 101.51118164 10.59440918 99.71118164 12.39440918 C98.36477372 12.4961735 97.01311025 12.52958086 95.66287231 12.53485107 C94.79076111 12.54056122 93.9186499 12.54627136 93.02011108 12.55215454 C92.05594269 12.5532724 91.09177429 12.55439026 90.09838867 12.55554199 C88.58384094 12.56298935 88.58384094 12.56298935 87.03869629 12.57058716 C83.6821221 12.58525108 80.32559516 12.59201774 76.96899414 12.59753418 C74.64590452 12.60328206 72.32281492 12.60903984 69.99972534 12.61480713 C65.12212909 12.62532911 60.24454938 12.63116396 55.36694336 12.63464355 C49.10637118 12.64013136 42.84601617 12.66416064 36.58551216 12.69261551 C31.78493606 12.71120742 26.98441263 12.71644565 22.18380356 12.71797943 C19.87525113 12.72101419 17.56669981 12.72907023 15.25818253 12.74216461 C12.03287323 12.75915333 8.80809912 12.75736236 5.58276367 12.75085449 C4.14258377 12.76467667 4.14258377 12.76467667 2.67330933 12.77877808 C1.79555847 12.77320892 0.91780762 12.76763977 0.01345825 12.76190186 C-0.74940931 12.76336842 -1.51227688 12.76483498 -2.29826164 12.76634598 C-4.85425043 12.28875784 -5.73792033 11.45214207 -7.28881836 9.39440918 C-7.93227954 4.24671975 -7.93227954 4.24671975 -6.03343201 1.73155975 C-3.85974194 0.06554566 -2.71918182 0.01333612 0 0 Z " fill="#58595B" transform="translate(83.288818359375,422.6055908203125)"/>
<path d="M0 0 C4.44496055 2.49696987 7.0635749 5.44072469 8.6875 10.3125 C9.17738853 15.87795491 9.45564541 20.71930952 7 25.8125 C2.99454137 30.14272555 -0.44295334 33.07086513 -6.3125 34.3125 C-12.37136263 34.41057511 -16.57476159 33.27897867 -21.3125 29.3125 C-26.08361213 23.89664299 -26.73400173 20.56574408 -26.6484375 13.4296875 C-26.14236723 8.73382616 -24.62623711 5.65840932 -21.3125 2.3125 C-14.84792859 -2.63430247 -7.37202701 -3.35092137 0 0 Z M-13.1875 12.5 C-14.56427597 14.32174255 -14.56427597 14.32174255 -14.125 16.875 C-13.46622967 19.45691272 -13.46622967 19.45691272 -11.3125 21.3125 C-8.85508463 21.81264953 -8.85508463 21.81264953 -6.3125 21.3125 C-4.32216359 19.65876504 -4.32216359 19.65876504 -3.3125 17.3125 C-3.57754879 14.30861368 -4.14554275 13.47945725 -6.3125 11.3125 C-9.18262296 10.94453552 -10.72024618 10.93740591 -13.1875 12.5 Z " fill="#58595B" transform="translate(273.3125,8.6875)"/>
<path d="M0 0 C4.6436526 2.60666001 8.20908714 5.88189751 9.7265625 11.1171875 C10.45471866 16.76039772 10.53408872 21.44231829 8.0390625 26.6171875 C4.03360387 30.94741305 0.59610916 33.87555263 -5.2734375 35.1171875 C-11.33230013 35.21526261 -15.53569909 34.08366617 -20.2734375 30.1171875 C-24.96363875 24.91993747 -25.69981957 20.81417208 -25.609375 13.9765625 C-25.0756283 9.43350923 -23.4371741 6.38869128 -20.2734375 3.1171875 C-14.43295558 -1.45418749 -6.95838929 -2.70205495 0 0 Z M-8.2734375 11.1171875 C-9.9234375 12.4371875 -11.5734375 13.7571875 -13.2734375 15.1171875 C-12.69891004 19.04794394 -12.69891004 19.04794394 -10.2734375 22.1171875 C-7.81602213 22.61733703 -7.81602213 22.61733703 -5.2734375 22.1171875 C-3.26377976 20.52102745 -3.26377976 20.52102745 -2.2734375 18.1171875 C-2.10366256 15.46591281 -2.10366256 15.46591281 -3.2734375 13.1171875 C-5.74979762 11.74252125 -5.74979762 11.74252125 -8.2734375 11.1171875 Z " fill="#58595B" transform="translate(310.2734375,80.8828125)"/>
<path d="M0 0 C2.19790933 1.61890062 2.91416949 2.50898468 3.38818359 5.22070312 C3.39156738 6.06568359 3.39495117 6.91066406 3.3984375 7.78125 C3.40423828 9.16763672 3.40423828 9.16763672 3.41015625 10.58203125 C3.39855469 11.54496094 3.38695312 12.50789063 3.375 13.5 C3.38660156 14.46292969 3.39820313 15.42585938 3.41015625 16.41796875 C3.40628906 17.34222656 3.40242188 18.26648438 3.3984375 19.21875 C3.39505371 20.06373047 3.39166992 20.90871094 3.38818359 21.77929688 C2.90491811 24.54394014 2.18129445 25.27527411 0 27 C-2.0489502 27.38095093 -2.0489502 27.38095093 -4.42382812 27.38818359 C-5.31485229 27.39764008 -6.20587646 27.40709656 -7.12390137 27.4168396 C-8.08332642 27.41076691 -9.04275146 27.40469421 -10.03125 27.3984375 C-11.01871216 27.40130768 -12.00617432 27.40417786 -13.02355957 27.40713501 C-15.1115781 27.40917675 -17.1996157 27.40363925 -19.28759766 27.39111328 C-22.48773883 27.3750615 -25.68661696 27.39095859 -28.88671875 27.41015625 C-30.91406529 27.40817384 -32.94141105 27.40433021 -34.96875 27.3984375 C-36.40788757 27.40754654 -36.40788757 27.40754654 -37.87609863 27.4168396 C-39.21263489 27.40265488 -39.21263489 27.40265488 -40.57617188 27.38818359 C-41.35988159 27.38579681 -42.14359131 27.38341003 -42.9510498 27.38095093 C-45.54428984 26.89880295 -46.43145328 26.09220179 -48 24 C-48.37506332 20.99949341 -48.58503878 18.96406608 -46.98706055 16.33081055 C-43.83734788 14.22132735 -40.49083941 14.63364459 -36.83203125 14.70703125 C-36.03721848 14.71127609 -35.2424057 14.71552094 -34.42350769 14.71989441 C-31.88615979 14.7366807 -29.34960762 14.77433176 -26.8125 14.8125 C-25.09180835 14.82754695 -23.37110424 14.84123534 -21.65039062 14.85351562 C-17.43328738 14.88658393 -13.21677858 14.93836505 -9 15 C-9.05220703 13.75283203 -9.05220703 13.75283203 -9.10546875 12.48046875 C-9.13253906 11.39378906 -9.15960938 10.30710937 -9.1875 9.1875 C-9.22230469 8.10855469 -9.25710938 7.02960938 -9.29296875 5.91796875 C-9 3 -9 3 -7.67578125 1.13671875 C-5.06649976 -0.63321345 -3.0622653 -0.38278316 0 0 Z " fill="#58595B" transform="translate(425,69)"/>
</svg>
