<?xml version="1.0" encoding="UTF-8"?>
<svg version="1.1" xmlns="http://www.w3.org/2000/svg" width="512" height="512">
<path d="M0 0 C1.28326172 -0.00322266 2.56652344 -0.00644531 3.88867188 -0.00976562 C9.81328625 0.02412452 14.59504888 0.22515928 20.1875 2.3125 C21.0846875 2.57289062 21.981875 2.83328125 22.90625 3.1015625 C43.48627092 9.28713059 61.15317013 23.383847 71.50927734 42.2097168 C72.41515487 43.90368473 73.30195049 45.60781718 74.1875 47.3125 C74.6103125 48.10527344 75.033125 48.89804688 75.46875 49.71484375 C83.9295752 66.92493137 83.84816102 90.29796485 77.91503906 108.31396484 C71.75096057 125.24656436 61.6347554 138.62341953 47.1875 149.3125 C46.31480469 149.95960938 45.44210938 150.60671875 44.54296875 151.2734375 C27.34849821 163.08013541 5.23387835 167.30370115 -15.23828125 163.625 C-37.070521 158.90338643 -56.65096918 146.8173096 -69.12109375 128.09765625 C-78.04490877 113.40324491 -82.58233183 99.36882329 -82.4375 82.0625 C-82.43518372 81.38884399 -82.43286743 80.71518799 -82.43048096 80.02111816 C-82.3523989 68.49566167 -80.73509507 58.74478863 -75.8125 48.3125 C-75.33296875 47.26578125 -74.8534375 46.2190625 -74.359375 45.140625 C-65.77739151 28.07096553 -51.38825864 15.24036162 -34.375 7.0625 C-33.35599609 6.56834595 -33.35599609 6.56834595 -32.31640625 6.06420898 C-21.59004421 1.09844171 -11.77779563 -0.15015038 0 0 Z M-5.4609375 22.55859375 C-7.12174194 24.71379951 -7.16216003 26.06459356 -7.375 28.75 C-7.84375 31.1796875 -7.84375 31.1796875 -8.8125 33.3125 C-11.16085778 34.69441823 -13.48271364 35.40960554 -16.07421875 36.2421875 C-22.29539709 38.67386063 -27.28938549 43.61026564 -30.375 49.5 C-33.20580965 57.10124812 -33.10795387 65.36694912 -29.75 72.75 C-24.14249752 82.32302909 -16.23569573 85.35232263 -5.8125 88.3125 C-1.69455976 89.36561572 2.43999531 90.32129148 6.59375 91.22265625 C11.34811419 92.66446887 14.82943042 94.77919564 18.125 98.5 C19.68951194 102.64135514 19.81483832 106.15374651 18.1875 110.3125 C11.98320094 116.29118819 4.67082201 116.64627336 -3.5390625 116.609375 C-8.15095287 116.19111287 -10.88628583 114.7118531 -14.8125 112.3125 C-16.2975 111.8175 -16.2975 111.8175 -17.8125 111.3125 C-18.8125 109.125 -18.8125 109.125 -19.8125 106.3125 C-21.90421685 101.57610939 -21.90421685 101.57610939 -25.8125 98.3125 C-29.07245538 97.8109684 -30.37065654 98.01395712 -33.125 99.875 C-35.55850808 103.39006723 -35.49530079 105.07913508 -34.8125 109.3125 C-30.80565899 118.40832156 -24.67337521 124.91774573 -15.5 128.75 C-12.65063939 129.81906937 -10.88334096 130.3125 -7.8125 130.3125 C-7.895 131.529375 -7.9775 132.74625 -8.0625 134 C-8.05102756 137.22949298 -7.79016925 138.35372599 -6.1875 141.3125 C-3.93200542 143.54481298 -3.93200542 143.54481298 -0.8125 143.875 C2.2070633 143.49064414 2.2070633 143.49064414 4.5625 141.875 C6.94923366 138.11130462 6.52137931 134.65293107 6.1875 130.3125 C7.321875 130.23 8.45625 130.1475 9.625 130.0625 C17.1829404 129.09765655 23.21450595 126.13800732 28.1875 120.3125 C28.909375 119.549375 29.63125 118.78625 30.375 118 C34.31003907 112.1652869 34.56242694 106.47143441 33.66015625 99.69921875 C32.24709154 92.56382587 28.82045453 87.00601059 23.02734375 82.7109375 C17.00492414 78.83597338 11.13378603 76.86453121 4.1875 75.3125 C-11.89606476 71.68462825 -11.89606476 71.68462825 -16.8125 66 C-18.19903523 62.27368657 -17.88441033 60.13118056 -16.8125 56.3125 C-14.54614847 52.6223068 -11.90615847 49.83977633 -7.8125 48.3125 C-4.3515625 47.9765625 -4.3515625 47.9765625 -0.4375 47.9375 C0.84898438 47.90914062 2.13546875 47.88078125 3.4609375 47.8515625 C8.85092483 48.51824856 11.86331519 50.84118355 15.4375 54.8125 C17.1875 57.3125 17.1875 57.3125 18.1875 59.5 C19.53087273 61.93486307 20.53507317 62.50203625 23.1875 63.3125 C26.27745097 63.39473366 26.27745097 63.39473366 29.1875 62.3125 C31.26726712 60.15178533 31.26726712 60.15178533 32.1875 57.3125 C31.32612292 49.8634081 26.54145326 44.12733323 20.9375 39.4375 C16.36987784 36.08376039 11.68297902 34.51714571 6.1875 33.3125 C6.23390625 32.69761719 6.2803125 32.08273438 6.328125 31.44921875 C6.69744204 26.49508353 6.69744204 26.49508353 4.5625 22.25 C1.03671375 20.85824227 -2.27490605 20.15019557 -5.4609375 22.55859375 Z " fill="#555050" transform="translate(107.8125,39.6875)"/>
<path d="M0 0 C3.30522659 0.61563772 5.83453154 1.25332643 8.71484375 3.00390625 C9.39377686 3.4107666 10.07270996 3.81762695 10.7722168 4.23681641 C11.48676025 4.67429199 12.20130371 5.11176758 12.9375 5.5625 C14.4630941 6.47861033 15.98914222 7.39396497 17.515625 8.30859375 C18.27294922 8.76476074 19.03027344 9.22092773 19.81054688 9.69091797 C22.91250489 11.54559001 26.04623258 13.33760463 29.1875 15.125 C30.88519531 16.09179688 30.88519531 16.09179688 32.6171875 17.078125 C33.73351562 17.71234375 34.84984375 18.3465625 36 19 C44.13723707 23.62300305 52.23784558 28.2986425 60.29614258 33.05786133 C66.84425173 36.9210898 73.42642844 40.72442856 80.02026367 44.5090332 C80.78701416 44.95077881 81.55376465 45.39252441 82.34375 45.84765625 C83.02630859 46.23961182 83.70886719 46.63156738 84.41210938 47.03540039 C86 48 86 48 87 49 C87.09532328 52.07454761 87.1255138 55.12659158 87.11352539 58.20141602 C87.11367142 59.16716553 87.11381744 60.13291504 87.1139679 61.12792969 C87.11326834 64.33661099 87.10547397 67.54523503 87.09765625 70.75390625 C87.09579222 72.97208118 87.09436825 75.19025652 87.09336853 77.40843201 C87.08954216 83.25940071 87.07971086 89.11034477 87.06866455 94.96130371 C87.05845299 100.92667304 87.05387146 106.89204633 87.04882812 112.85742188 C87.03808869 124.57162544 87.02101085 136.28581067 87 148 C83.25242906 147.3210643 80.68448616 146.42802063 77.45703125 144.3828125 C73.69351642 142.04722152 69.91199451 139.76666558 66.07421875 137.5546875 C65.04111572 136.95881836 64.0080127 136.36294922 62.94360352 135.74902344 C61.86908936 135.1305957 60.7945752 134.51216797 59.6875 133.875 C58.55175537 133.22047852 57.41601074 132.56595703 56.24584961 131.89160156 C49.1935156 127.82899491 42.13134386 123.78380025 35.0625 119.75 C28.22229281 115.8452451 21.3859714 111.93394352 14.5625 108 C13.78720947 107.55495117 13.01191895 107.10990234 12.21313477 106.65136719 C11.48408936 106.23016602 10.75504395 105.80896484 10.00390625 105.375 C9.37299072 105.01148438 8.7420752 104.64796875 8.09204102 104.2734375 C7.40166748 103.85320312 6.71129395 103.43296875 6 103 C4.98090042 102.51053894 3.96180084 102.02107788 2.91181946 101.51678467 C-0.21928308 98.81046617 -0.42738198 98.58872217 -0.7215271 94.76055908 C-0.73891312 92.99307626 -0.72297934 91.22508118 -0.68115234 89.45800781 C-0.6820285 88.49182022 -0.68290466 87.52563263 -0.68380737 86.53016663 C-0.6796276 83.33699658 -0.6329555 80.14592795 -0.5859375 76.953125 C-0.57474679 74.73924914 -0.56620602 72.52535843 -0.56021118 70.3114624 C-0.53730333 64.48479175 -0.47836192 58.65901867 -0.4119873 52.83270264 C-0.35060772 46.88728987 -0.32320533 40.94173204 -0.29296875 34.99609375 C-0.22862166 23.33033483 -0.12621747 11.66524205 0 0 Z " fill="#555050" transform="translate(299,347)"/>
<path d="M0 0 C0.98871094 0.57363281 1.97742188 1.14726562 2.99609375 1.73828125 C3.70491699 2.13354004 4.41374023 2.52879883 5.14404297 2.93603516 C7.77199864 4.42578807 10.35202529 5.98208572 12.93359375 7.55078125 C20.832022 12.2877155 28.77650632 16.91908966 36.80859375 21.42578125 C44.29021756 25.62925105 51.72773767 29.8937277 59.11157227 34.26660156 C64.72148666 37.58744054 70.37335618 40.82916834 76.04296875 44.046875 C77.0175 44.60503906 77.99203125 45.16320312 78.99609375 45.73828125 C79.95 46.26550781 80.90390625 46.79273438 81.88671875 47.3359375 C82.5828125 47.79871094 83.27890625 48.26148438 83.99609375 48.73828125 C83.99609375 49.39828125 83.99609375 50.05828125 83.99609375 50.73828125 C83.35696045 51.09543213 82.71782715 51.45258301 82.05932617 51.82055664 C79.09889405 53.47734162 76.14124452 55.13903654 73.18359375 56.80078125 C71.67635742 57.64286133 71.67635742 57.64286133 70.13867188 58.50195312 C65.14555164 61.3115867 60.23425865 64.18650499 55.421875 67.296875 C50.96771752 70.16909242 46.42162294 72.7579295 41.75097656 75.25976562 C37.08426303 77.76433999 32.4819558 80.3827619 27.87109375 82.98828125 C26.87988525 83.54459229 25.88867676 84.10090332 24.86743164 84.67407227 C20.16718839 87.32342416 15.50900421 90.00834104 10.9375 92.875 C9.78822021 93.5870459 9.78822021 93.5870459 8.61572266 94.31347656 C7.19938889 95.19769478 5.79326674 96.09856619 4.39990234 97.01855469 C1.25223322 98.97305822 -0.41570528 99.83974592 -4.12890625 99.19921875 C-7.01566074 97.73230818 -9.72307917 96.18647299 -12.44140625 94.42578125 C-18.59322522 90.52223966 -24.90040085 86.92731602 -31.25390625 83.36328125 C-38.92554304 79.05474094 -46.55418996 74.6882867 -54.12597656 70.20678711 C-62.37214572 65.32830528 -70.68358372 60.56602568 -79.06640625 55.92578125 C-79.75734375 55.54164063 -80.44828125 55.1575 -81.16015625 54.76171875 C-82.79381541 53.85489947 -84.42993265 52.9525116 -86.06640625 52.05078125 C-86.70578125 51.61765625 -87.34515625 51.18453125 -88.00390625 50.73828125 C-88.00390625 50.07828125 -88.00390625 49.41828125 -88.00390625 48.73828125 C-87.39619385 48.39684082 -86.78848145 48.05540039 -86.16235352 47.70361328 C-75.34285302 41.61974609 -64.54148127 35.51465462 -53.85864258 29.19335938 C-47.95823792 25.7029192 -42.01441003 22.29253313 -36.0546875 18.90429688 C-31.7859138 16.47719412 -27.51960064 14.04579086 -23.25390625 11.61328125 C-22.39055664 11.12230957 -21.52720703 10.63133789 -20.63769531 10.12548828 C-19.3726416 9.40401611 -19.3726416 9.40401611 -18.08203125 8.66796875 C-17.24607422 8.19584961 -16.41011719 7.72373047 -15.54882812 7.23730469 C-13.78452952 6.19808813 -12.05245874 5.10293274 -10.34960938 3.96582031 C-3.82204264 -0.33299981 -3.82204264 -0.33299981 0 0 Z " fill="#555050" transform="translate(395.00390625,284.26171875)"/>
<path d="M0 0 C0.55812287 12.79432347 0.98346331 25.58572159 1.24349213 38.38977242 C1.36836663 44.337323 1.53733671 50.27650705 1.81054688 56.21923828 C3.58993797 95.92811473 3.58993797 95.92811473 -2.31729126 103.50128174 C-7.86027658 108.61720568 -13.98866629 111.19208369 -21.19351196 113.17396545 C-24.98189715 114.28900211 -27.86544064 116.01223147 -31.1875 118.125 C-34.26986633 119.88149552 -37.3542017 121.634349 -40.44140625 123.38232422 C-54.21323764 131.17249532 -54.21323764 131.17249532 -67.63671875 139.5390625 C-70.94730996 141.58560979 -74.3938868 143.28637797 -77.90625 144.95703125 C-80.21350439 146.0516853 -80.21350439 146.0516853 -83 148 C-83.99 148 -84.98 148 -86 148 C-86.34807004 135.24832384 -86.61432241 122.49778273 -86.77718258 109.74231815 C-86.85536572 103.81860781 -86.96131831 97.89815396 -87.1315918 91.97631836 C-87.29500094 86.25719398 -87.38434054 80.54119289 -87.42315865 74.81991386 C-87.45080461 72.64143106 -87.50480203 70.46311328 -87.58595085 68.28596687 C-88.18016447 51.67797337 -88.18016447 51.67797337 -84.55948639 47.23056602 C-81.04108651 44.2700867 -77.16093742 42.43626755 -72.89989662 40.78217888 C-69.94029915 39.56372593 -67.3180488 37.92482022 -64.5859375 36.26171875 C-62.51644409 35.0688903 -60.44611849 33.87750458 -58.375 32.6875 C-57.25963867 32.04506348 -56.14427734 31.40262695 -54.99511719 30.74072266 C-47.25477361 26.28566605 -39.49863265 21.8587175 -31.73461914 17.44506836 C-27.08961178 14.79560044 -22.4733397 12.10353033 -17.87890625 9.3671875 C-16.86602539 8.76406738 -15.85314453 8.16094727 -14.80957031 7.53955078 C-12.84680589 6.36758408 -10.88641951 5.19162333 -8.92871094 4.01123047 C-8.05118164 3.48674316 -7.17365234 2.96225586 -6.26953125 2.421875 C-5.49198486 1.95362305 -4.71443848 1.48537109 -3.91333008 1.00292969 C-2 0 -2 0 0 0 Z " fill="#555050" transform="translate(486,347)"/>
<path d="M0 0 C3.08694332 2.66337106 5.5068253 5.78607116 8 9 C8.75023437 9.96550781 9.50046875 10.93101562 10.2734375 11.92578125 C11.49813835 13.51709966 12.72255431 15.10867276 13.93676758 16.70800781 C17.36406827 21.2173757 20.9124504 25.61743136 24.5 30 C30.14006323 36.89728068 35.62091968 43.89712174 41 51 C41.57621094 51.70640625 42.15242188 52.4128125 42.74609375 53.140625 C44.76064643 56.12793677 44.43619263 58.51045894 44 62 C41.94502229 65.00342896 40.52366286 65.83287356 37.0625 66.9375 C33.21350072 67.01605101 32.10792645 66.26441085 29 64 C26.80392922 61.68198725 24.84284536 59.20010256 22.875 56.6875 C22.3696875 56.05521484 21.864375 55.42292969 21.34375 54.77148438 C19.55169493 52.52267381 17.77605712 50.2614788 16 48 C15.07612551 46.82414328 14.15222438 45.6483075 13.228302 44.4724884 C12.2409031 43.21579189 11.25350691 41.95909324 10.26611328 40.70239258 C9.75834854 40.05614174 9.2505838 39.4098909 8.72743225 38.7440567 C7.48495246 37.16270633 6.2424759 35.58135342 5 34 C4.90695136 43.84949356 4.83605915 53.69888101 4.79275131 63.54872608 C4.77195623 68.12338194 4.743788 72.6977351 4.69824219 77.2722168 C4.6544939 81.69428635 4.63080227 86.11606638 4.62049103 90.5383358 C4.61315129 92.21789794 4.59881966 93.89744584 4.57707977 95.57688332 C4.45934658 105.05669829 4.82017084 113.27046787 9 122 C9.46921875 123.05574219 9.9384375 124.11148438 10.421875 125.19921875 C17.27121704 138.03166251 27.79816065 146.03680769 41.671875 150.4921875 C47.97894545 151.86789079 54.2210986 152.14631777 60.64746094 152.1418457 C61.47125748 152.14532013 62.29505402 152.14879456 63.14381409 152.15237427 C64.91761361 152.15967921 66.69142196 152.16505234 68.46523285 152.16866493 C71.27305883 152.17588066 74.08071511 152.19158066 76.88848877 152.21000671 C84.8662295 152.26226772 92.84386867 152.3105149 100.82177734 152.32592773 C105.71356608 152.33599483 110.60491393 152.36527156 115.49652863 152.40724754 C117.3576347 152.41956502 119.21880293 152.42467744 121.07994843 152.42244911 C123.67715372 152.42010232 126.27308401 152.44220865 128.87011719 152.4699707 C129.6379805 152.46336929 130.40584381 152.45676788 131.19697571 152.44996643 C134.67746707 152.51115819 136.63196998 152.72063803 139.44171143 154.85343933 C141.52937006 157.72921342 142.07137593 159.43120335 142 163 C138.39245923 168.46284745 138.39245923 168.46284745 135.29196167 169.65888977 C132.03441543 170.14370693 128.8014522 170.14738356 125.51611328 170.14526367 C124.39317116 170.15030159 124.39317116 170.15030159 123.24754333 170.15544128 C120.7717828 170.16493927 118.29609013 170.16689461 115.8203125 170.16796875 C114.08836846 170.17118493 112.35642468 170.17454927 110.6244812 170.17805481 C106.987929 170.18404519 103.35140054 170.18589508 99.71484375 170.18530273 C95.09101618 170.18520176 90.46734441 170.19878715 85.84355354 170.21607494 C82.26066412 170.22729058 78.67781102 170.22921894 75.09490585 170.22869301 C73.39274439 170.22986135 71.69058161 170.23421747 69.98843765 170.24202538 C49.09022792 170.32882351 30.11264134 168.18636433 13 155 C12.19949219 154.39414062 11.39898437 153.78828125 10.57421875 153.1640625 C1.70693965 145.9048392 -5.09865705 135.75344781 -9 125 C-9.28488281 124.22785156 -9.56976563 123.45570313 -9.86328125 122.66015625 C-12.24949659 115.86340071 -13.14592177 109.4588402 -13.20532227 102.25048828 C-13.21522186 101.49858719 -13.22512146 100.7466861 -13.23532104 99.97200012 C-13.26672395 97.50480214 -13.2916089 95.03758496 -13.31640625 92.5703125 C-13.33699413 90.85252401 -13.35799107 89.13474038 -13.37937927 87.41696167 C-13.4344106 82.90926055 -13.48390292 78.40151515 -13.53222656 73.89373779 C-13.5825804 69.28849373 -13.6381938 64.68331349 -13.69335938 60.078125 C-13.80070908 51.05213793 -13.90220496 42.0260953 -14 33 C-16.19878098 35.82094198 -18.39636053 38.64281776 -20.59375 41.46484375 C-21.20702148 42.25161499 -21.82029297 43.03838623 -22.45214844 43.84899902 C-29.26481074 52.59995043 -29.26481074 52.59995043 -35.90576172 61.48132324 C-38.16947996 64.39856256 -39.58924476 65.87707694 -43.171875 66.94921875 C-46.36471775 67.0065488 -48.21445027 66.54752763 -51 65 C-53.50663651 61.24004523 -53.47658171 59.4591061 -53 55 C-51.19921875 51.96484375 -51.19921875 51.96484375 -48.6875 48.9375 C-48.23600586 48.38151123 -47.78451172 47.82552246 -47.31933594 47.25268555 C-46.36618597 46.07898416 -45.40657429 44.91050388 -44.44091797 43.74707031 C-42.15678599 40.97762801 -39.9586891 38.1421663 -37.75 35.3125 C-36.83370654 34.14814371 -35.91702769 32.98409061 -35 31.8203125 C-30.42857044 26.00745024 -25.89661873 20.16377048 -21.359375 14.32421875 C-20.81087891 13.62216309 -20.26238281 12.92010742 -19.69726562 12.19677734 C-18.50344682 10.65161313 -17.32649382 9.0933433 -16.16210938 7.52587891 C-15.55689453 6.71940918 -14.95167969 5.91293945 -14.328125 5.08203125 C-13.78575195 4.34831299 -13.24337891 3.61459473 -12.68457031 2.85864258 C-8.85403421 -1.36771559 -5.37410498 -1.70179991 0 0 Z " fill="#555050" transform="translate(112,245)"/>
<path d="M0 0 C1.48651062 -0.0131424 1.48651062 -0.0131424 3.00305176 -0.02655029 C6.28063753 -0.04855856 9.55687297 -0.03397441 12.83447266 -0.01708984 C15.12310036 -0.02046022 17.41172631 -0.02531468 19.7003479 -0.03158569 C24.50385532 -0.03896124 29.30689816 -0.02823891 34.11035156 -0.00488281 C40.23090849 0.02344373 46.35036132 0.00730724 52.47087669 -0.02274513 C57.20338025 -0.04093729 61.93562856 -0.03500297 66.66814041 -0.02210617 C68.92210651 -0.01879659 71.17609664 -0.02277189 73.43003464 -0.03450394 C95.48056645 -0.12400675 113.11419582 3.97628315 129.40087891 19.86181641 C145.96015499 36.80121935 149.51221826 54.59675568 149.81103516 77.45947266 C149.84428845 79.23098097 149.87878517 81.00246641 149.91455078 82.77392578 C149.99852303 87.06481283 150.06575577 91.35565628 150.12353516 95.64697266 C157.03389105 87.18755447 163.9233513 78.71845696 170.60717773 70.078125 C176.1586871 62.94062207 176.1586871 62.94062207 179.99853516 61.77197266 C183.75462378 61.62172911 185.18767878 62.36352881 188.12353516 64.64697266 C190.12353516 67.64697266 190.12353516 67.64697266 190.11962891 70.85791016 C188.83060102 75.76127112 186.47854625 78.51240916 183.18603516 82.27197266 C181.98673184 83.69267826 180.78882885 85.11456707 179.59228516 86.53759766 C178.99931641 87.235625 178.40634766 87.93365234 177.79541016 88.65283203 C175.5065604 91.38287362 173.34440727 94.18731061 171.18603516 97.02197266 C170.39841797 98.05322266 169.61080078 99.08447266 168.79931641 100.14697266 C168.38117676 100.69482422 167.96303711 101.24267578 167.53222656 101.80712891 C164.66105679 105.55706572 161.76775811 109.28981843 158.87353516 113.02197266 C158.29482666 113.77140137 157.71611816 114.52083008 157.11987305 115.29296875 C155.46772924 117.42193441 153.80194894 119.5386661 152.12353516 121.64697266 C151.58470703 122.32445557 151.04587891 123.00193848 150.49072266 123.69995117 C149.97251953 124.3308667 149.45431641 124.96178223 148.92041016 125.61181641 C148.46504883 126.1698999 148.0096875 126.7279834 147.54052734 127.30297852 C146.12353516 128.64697266 146.12353516 128.64697266 142.62353516 129.83447266 C138.22877388 129.59903902 136.59680095 128.30819155 133.12353516 125.64697266 C130.73681641 122.90478516 130.73681641 122.90478516 128.43603516 119.77197266 C127.56711804 118.60595585 126.6972945 117.44061407 125.82666016 116.27587891 C125.38257813 115.67662598 124.93849609 115.07737305 124.48095703 114.45996094 C122.26698428 111.50295344 119.97622906 108.60758521 117.68603516 105.70947266 C116.76278368 104.53635411 115.839607 103.36317671 114.91650391 102.18994141 C113.04606341 99.81599642 111.17314514 97.4440249 109.29931641 95.07275391 C107.0068782 92.17021851 104.72658822 89.25845104 102.45214844 86.34179688 C101.1220456 84.64507253 99.77742237 82.96056999 98.43212891 81.27587891 C97.59941248 80.21261308 96.76734969 79.14883492 95.93603516 78.08447266 C95.19998047 77.15505859 94.46392578 76.22564453 93.70556641 75.26806641 C91.95402551 72.36613075 91.64495435 70.96921384 92.12353516 67.64697266 C93.68603516 64.89697266 93.68603516 64.89697266 96.12353516 62.64697266 C99.3831632 61.773858 101.77977309 61.21093558 105.03759766 62.26806641 C107.993647 64.22215895 109.89566052 66.84909659 111.99853516 69.64697266 C112.96072609 70.89961419 113.92296841 72.15221626 114.88525391 73.40478516 C115.40007324 74.08057617 115.91489258 74.75636719 116.4453125 75.45263672 C118.90810278 78.67282278 121.40291736 81.86780047 123.89550781 85.06494141 C126.64271708 88.58876426 129.38306064 92.11791139 132.12353516 95.64697266 C132.19870568 91.30944055 132.25260878 86.97227163 132.28833008 82.63427734 C132.30324945 81.16415792 132.32359242 79.69408166 132.34985352 78.22412109 C132.61407342 63.03406696 130.35431874 49.13567985 121.12353516 36.64697266 C120.75099609 36.10556641 120.37845703 35.56416016 119.99462891 35.00634766 C112.28328361 24.78593777 100.2415561 20.19398221 88.04299927 18.12431335 C83.58659594 17.58158031 79.26220084 17.51741263 74.77929688 17.53686523 C72.89517211 17.536323 71.01104735 17.53573604 69.12692261 17.53511047 C68.13722347 17.53653864 67.14752434 17.5379668 66.12783432 17.53943825 C60.86463125 17.5429743 55.60153296 17.5171551 50.33837891 17.49658203 C43.6512754 17.47221862 36.96448558 17.45660141 30.27734375 17.47192383 C24.86141826 17.48356897 19.44626511 17.46624148 14.03046036 17.4294796 C11.96920558 17.42085801 9.90787698 17.42295388 7.84664536 17.43598366 C4.96656043 17.45283998 2.08892533 17.43272574 -0.79101562 17.40405273 C-1.64101135 17.4178447 -2.49100708 17.43163666 -3.36676025 17.44584656 C-8.99855394 17.3370485 -8.99855394 17.3370485 -11.52532578 15.35089684 C-13.51782162 13.05348998 -14.77904938 11.04637607 -15.50146484 8.08447266 C-13.4253197 -0.0124934 -6.97851085 -0.07587061 0 0 Z " fill="#555050" transform="translate(251.87646484375,113.35302734375)"/>
</svg>
