<svg xmlns="http://www.w3.org/2000/svg" width="512" height="512" viewBox="0 0 512 512" version="1.1"><path d="" stroke="none" fill="#144c94" fill-rule="evenodd"/><path d="M 287.585 52.107 C 247.483 57.955, 219.904 83.316, 209.822 123.614 L 207.599 132.500 207.227 165.206 L 206.855 197.913 178.454 198.206 L 150.053 198.500 147.776 200.777 L 145.500 203.053 145.215 239.930 L 144.930 276.807 147.377 279.654 L 149.824 282.500 178.412 282.807 L 207 283.114 207.022 369.307 L 207.044 455.500 208.964 458 L 210.884 460.500 249.347 460.784 L 287.810 461.067 290.655 458.621 L 293.500 456.174 293.766 369.587 L 294.033 283 324.867 283 C 357.746 283, 360.795 282.625, 363.107 278.294 L 364.500 275.684 364.378 240.920 C 364.242 202.139, 364.245 202.167, 360.137 199.740 L 357.191 198 325.596 198 L 294 198 294 173.443 C 294 131.813, 294.568 131.217, 334.481 131.038 C 360.280 130.922, 362.331 130.667, 365.031 127.234 L 367 124.730 367 90.788 L 367 56.846 364.077 53.923 L 361.154 51 327.327 51.122 C 308.722 51.189, 290.838 51.632, 287.585 52.107" stroke="none" fill="#144c8c" fill-rule="evenodd"/></svg>