<svg xmlns="http://www.w3.org/2000/svg" width="512" height="512" viewBox="0 0 512 512" version="1.1"><path d="" stroke="none" fill="#144c94" fill-rule="evenodd"/><path d="M 47 1.482 C -1.105 15.414, -16.254 70.702, 18.500 105.492 C 67.955 154.998, 147.336 96.128, 116.179 33.051 C 104.244 8.888, 72.091 -5.785, 47 1.482 M 373 161.608 C 335.635 166.073, 303.799 184.429, 287.462 210.927 L 283.500 217.353 283.232 193.677 L 282.964 170 231.982 170 L 181 170 181 341 L 181 512 234.523 512 L 288.045 512 287.988 416.250 L 287.930 320.500 290.013 309.050 C 301.131 247.942, 379.906 232.431, 399.045 287.581 C 405.606 306.486, 405.661 307.606, 405.859 426.750 L 406 512 459 512 L 512 512 511.979 404.750 C 511.956 280.684, 511.618 273.697, 504.289 245.500 C 498.467 223.105, 485.774 199.600, 474.290 189.951 C 449.201 168.870, 408.211 157.400, 373 161.608 M 8 341 L 8 512 61.500 512 L 115 512 115 341 L 115 170 61.500 170 L 8 170 8 341" stroke="none" fill="#144c8c" fill-rule="evenodd"/></svg>