<svg xmlns="http://www.w3.org/2000/svg" width="512" height="512" viewBox="0 0 512 512" version="1.1"><path d="" stroke="none" fill="#144c94" fill-rule="evenodd"/><path d="M 371.500 0.416 C 370.950 0.627, 367.230 1.551, 363.234 2.470 C 323.406 11.626, 292.405 55.730, 298.898 94 C 300.010 100.558, 299.998 100.574, 290.500 104.727 C 282.215 108.350, 243.870 126.079, 229.174 133.080 C 223.495 135.786, 218.666 138, 218.443 138 C 218.220 138, 212.331 140.713, 205.356 144.030 L 192.674 150.060 189.620 146.280 C 134.679 78.272, 27.459 101.126, 3.270 186 L 0.848 194.500 0.284 208.236 C -3.654 304.296, 116.172 358.771, 180.437 290.137 C 182.052 288.412, 183.750 287, 184.210 287 C 184.972 287, 262.529 334.412, 264.235 335.921 C 264.640 336.278, 264.056 338.979, 262.938 341.922 C 258.648 353.213, 256.884 363.113, 256.335 379 L 255.798 394.500 257.435 404.500 C 266.120 457.548, 306.102 498.844, 359.283 509.696 L 371.500 512.188 387.500 511.734 C 456.660 509.768, 509.627 457.004, 511.750 387.958 L 512.228 372.417 510.082 361.195 C 500.333 310.239, 464.463 272.076, 414.352 259.345 L 403.500 256.588 383.500 256.603 L 363.500 256.619 353.530 259.307 C 330.644 265.480, 312.429 275.550, 295.206 291.549 L 287.164 299.021 255.332 279.370 C 237.824 268.562, 219.763 257.470, 215.196 254.721 L 206.892 249.723 207.514 248.112 C 213.263 233.219, 214.926 213.227, 211.881 195.618 C 210.666 188.592, 210.069 189.263, 222.500 183.698 C 228 181.235, 242.400 174.618, 254.500 168.993 C 266.600 163.368, 280.257 157.018, 284.849 154.882 C 289.441 152.747, 293.323 151, 293.475 151 C 293.626 151, 298.978 148.525, 305.367 145.500 C 319.372 138.869, 317.366 138.857, 324 145.611 C 373.754 196.261, 460.423 166.050, 469.048 95.049 L 470.196 85.599 468.999 76.082 C 464.424 39.737, 441.184 12.746, 405.500 2.334 C 400.936 1.003, 373.945 -0.520, 371.500 0.416" stroke="none" fill="#144c8c" fill-rule="evenodd"/></svg>