<svg xmlns="http://www.w3.org/2000/svg" width="307" height="265" viewBox="0 0 307 265" version="1.1"><path d="M 127.869 5.028 C 101.023 10.132, 77.370 23.049, 57.785 43.301 L 50.069 51.279 45.628 50.036 C 4.154 38.424, -19.686 97.289, 18.820 116.229 C 54.815 133.934, 88.144 89.063, 60.929 59.538 L 56.678 54.927 60.089 51.221 C 125.627 -19.985, 242.625 5.510, 270.405 97.052 C 273.838 108.364, 273.767 108.675, 268.607 104.970 C 263.104 101.018, 257.484 102.866, 260.765 107.548 C 261.999 109.309, 277.355 120, 278.650 120 C 280.108 120, 292 103.783, 292 101.794 C 292 96.736, 287.586 97.111, 283.794 102.491 L 280.628 106.981 278.254 98.757 C 259.164 32.634, 194.536 -7.646, 127.869 5.028 M 30.500 56.017 C 2.062 61.824, -2.632 98.455, 23.500 110.648 C 36.941 116.919, 54.054 110.736, 60.697 97.208 C 70.912 76.406, 52.650 51.494, 30.500 56.017 M 32.667 57.667 C 32.300 58.033, 32 59.377, 32 60.653 C 32 62.322, 31.087 63.359, 28.750 64.349 C 15.605 69.912, 19.569 85.609, 34.640 87.674 C 41.945 88.675, 44.708 92.292, 41 96 C 37.012 99.988, 27 97.534, 27 92.567 C 27 90.200, 22.857 89.475, 21.322 91.575 C 18.788 95.040, 22.349 101.465, 28.133 103.867 C 30.952 105.037, 31.945 105.982, 31.639 107.204 C 30.323 112.449, 36.910 113.498, 38.445 108.288 C 39.046 106.251, 40.378 104.672, 42.097 103.960 C 53.931 99.058, 50.633 81.022, 37.899 81.004 C 30.860 80.994, 25.867 76.275, 28.957 72.551 C 31.872 69.039, 40.220 69.967, 41.482 73.944 C 43.089 79.007, 49 78.483, 49 73.278 C 49 70.480, 43.133 64, 40.600 64 C 39.597 64, 39 63.142, 39 61.700 C 39 58.053, 34.895 55.438, 32.667 57.667 M 136.852 58.023 C 135.705 58.693, 134.996 61.061, 134.518 65.820 C 133.672 74.246, 133.760 74.119, 126.792 76.911 L 121.084 79.198 115.230 74.599 C 107.541 68.559, 107.888 68.459, 96.623 79.925 L 86.871 89.851 88.407 92.675 C 89.252 94.229, 91.498 97.519, 93.397 99.987 C 95.325 102.490, 96.505 104.921, 96.066 105.487 C 95.634 106.044, 94.489 108.618, 93.521 111.207 C 91.843 115.696, 91.548 115.943, 87.131 116.566 C 84.584 116.926, 80.925 117.527, 79 117.903 L 75.500 118.587 75.223 133.315 C 75.011 144.575, 75.247 148.140, 76.223 148.456 C 76.925 148.684, 80.720 149.383, 84.656 150.010 L 91.812 151.149 94.047 157.126 L 96.283 163.103 93.130 167.302 C 91.396 169.611, 89.279 172.771, 88.425 174.325 L 86.871 177.149 96.623 187.075 C 107.928 198.582, 107.182 198.366, 115.027 192.399 L 121.076 187.799 126.788 190.087 C 133.762 192.881, 133.672 192.752, 134.519 201.193 C 135.391 209.875, 135.630 210, 151.312 210 C 165.915 210, 165.703 210.132, 167.267 200.033 L 168.358 192.983 173.800 190.491 C 180.622 187.368, 179.606 187.210, 186.576 192.473 C 194.173 198.210, 192.980 198.563, 204.269 187.232 C 215.564 175.894, 215.362 176.618, 209.388 168.854 L 204.776 162.860 207.331 157.180 L 209.886 151.500 217.193 150 C 227.563 147.871, 227.002 148.806, 226.985 133.691 C 226.966 117.836, 227.278 118.420, 218.146 117.154 C 209.532 115.960, 210.315 116.527, 207.409 109.378 L 205.106 103.711 209.623 97.840 C 215.258 90.517, 215.396 90.977, 204.142 79.524 C 193.228 68.417, 194.479 68.769, 186.409 74.528 L 180.064 79.055 174.282 76.625 L 168.500 74.195 167.282 66.989 C 166.612 63.025, 165.545 59.156, 164.910 58.391 C 163.539 56.740, 139.589 56.425, 136.852 58.023 M 141.617 66.750 C 141.319 68.263, 140.782 71.643, 140.422 74.262 C 139.689 79.606, 139.619 79.677, 132 82.638 C 128.975 83.813, 125.076 85.360, 123.335 86.075 C 120.308 87.318, 119.934 87.192, 114.743 83.187 C 107.952 77.948, 108.556 77.869, 101.595 84.904 L 95.753 90.808 99.876 96.567 C 103.788 102.030, 105.049 106.234, 103.130 107.420 C 102.651 107.716, 101.231 110.780, 99.975 114.229 C 97.008 122.371, 97.054 122.330, 89.208 123.500 L 82.500 124.500 82.214 133.645 L 81.928 142.790 88.922 143.492 C 96.872 144.291, 96.864 144.284, 99.967 152.771 C 101.228 156.220, 102.651 159.284, 103.130 159.580 C 105.049 160.766, 103.788 164.970, 99.876 170.433 L 95.753 176.192 101.595 182.096 C 108.536 189.110, 107.767 188.996, 114.384 184 C 120.034 179.734, 122.366 179.205, 125.399 181.501 C 126.443 182.291, 129.593 183.687, 132.399 184.601 C 139.291 186.849, 139.727 187.317, 140.485 193.300 C 141.650 202.483, 141.069 202, 150.942 202 L 159.750 202 160.375 198.875 C 160.719 197.156, 161 194.427, 161 192.809 C 161 188.957, 162.643 186, 164.785 185.999 C 165.728 185.999, 169.353 184.649, 172.840 182.999 C 180.785 179.240, 180.273 179.200, 187.298 184.128 L 193.183 188.256 199.092 182.409 C 206.111 175.464, 205.993 176.259, 201 169.500 C 197.035 164.133, 196.167 161.633, 197.897 160.564 C 198.390 160.259, 200.025 156.632, 201.531 152.505 C 203.036 148.377, 204.320 144.972, 204.384 144.937 C 204.448 144.903, 207.875 144.340, 212 143.687 L 219.500 142.500 219.500 133.500 L 219.500 124.500 212.039 123.500 L 204.578 122.500 203.201 118.500 C 202.443 116.300, 200.675 111.953, 199.271 108.841 L 196.719 103.181 201.258 97.212 L 205.798 91.243 199.882 85.122 C 192.867 77.864, 193.700 78.001, 187 83 C 180.663 87.728, 181.119 87.675, 174.362 84.478 C 171.430 83.091, 167.658 81.682, 165.980 81.346 C 162.153 80.581, 161.419 79.151, 160.544 70.750 L 159.841 64 151 64 L 142.159 64 141.617 66.750 M 140 94.937 C 97.451 107.961, 104.367 170.890, 148.561 172.835 C 171.505 173.845, 200.853 144.577, 190.004 131.505 C 187.042 127.936, 184.600 130.048, 183.287 137.313 C 176.012 177.568, 118.588 174.187, 118.516 133.500 C 118.473 109.164, 143.407 93.598, 165.250 104.323 C 171.949 107.613, 174.500 107.531, 174.500 104.026 C 174.500 97.203, 151.980 91.270, 140 94.937 M 166.040 124.486 L 147.460 142.973 137.729 133.242 C 127.736 123.249, 125.199 122.159, 124.165 127.416 C 123.831 129.116, 142.481 149.072, 146.384 151.191 C 148.014 152.076, 151.020 149.465, 168.634 131.866 C 188.469 112.049, 190.297 109.697, 187.800 107.200 C 185.688 105.088, 184.933 105.688, 166.040 124.486 M 17.996 152.087 C 11.638 160.661, 11.121 162.026, 13.487 163.989 C 15.572 165.720, 17.468 164.718, 20.795 160.124 L 23.671 156.154 25.435 163.827 C 48.032 262.131, 173.577 297.038, 245.096 224.903 L 253.770 216.155 258.135 217.674 C 299.205 231.968, 323.510 170.505, 284.500 151 C 249.686 133.593, 214.539 183.438, 243.622 208.973 C 247.781 212.625, 247.931 212.277, 238.045 221.895 C 170.916 287.204, 58.223 255.779, 32.988 164.713 C 30.236 154.784, 30.364 154.328, 34.894 157.916 C 39.220 161.342, 41.154 161.724, 42.989 159.513 C 44.906 157.204, 43.711 155.605, 35.575 149.587 C 25.650 142.248, 25.249 142.305, 17.996 152.087 M 258.385 156.617 C 243.084 162.044, 235.539 182.395, 243.476 196.833 C 255.967 219.555, 289.425 215.985, 296.642 191.160 C 303.137 168.818, 280.815 148.662, 258.385 156.617 M 266.238 157.162 C 265.557 157.843, 265 159.435, 265 160.700 C 265 162.142, 264.403 163, 263.400 163 C 262.520 163, 260.270 164.530, 258.400 166.400 C 250.532 174.268, 257.357 186.890, 269.527 186.978 C 275.828 187.024, 278.727 191.273, 275 195 C 271.012 198.988, 261 196.534, 261 191.567 C 261 189.200, 256.857 188.475, 255.322 190.575 C 252.961 193.803, 256.141 200.146, 261.370 202.640 C 263.539 203.674, 264.956 205.263, 265.571 207.350 C 266.891 211.827, 271.357 211.935, 271.799 207.500 C 272.040 205.079, 272.852 204.180, 276.008 202.842 C 288.013 197.751, 284.665 180, 271.699 180 C 264.443 180, 259.650 174.921, 263.383 171.188 C 265.727 168.844, 272.974 168.978, 274.405 171.391 C 277.429 176.490, 278.549 177.312, 280.817 176.098 C 284.942 173.890, 281.655 166.007, 275.546 163.455 C 273.004 162.393, 272.055 161.326, 271.818 159.265 C 271.465 156.200, 268.368 155.032, 266.238 157.162" stroke="none" fill="#606161" fill-rule="evenodd"/></svg>