<?xml version="1.0" encoding="UTF-8"?>
<svg version="1.1" xmlns="http://www.w3.org/2000/svg" width="512" height="512">
<path d="M0 0 C4.62682631 2.14727585 8.91792014 4.76341359 13.25 7.4375 C14.53390164 8.21231637 15.8187507 8.98556477 17.10449219 9.75732422 C20.43033264 11.75925941 23.74326113 13.7815783 27.05322266 15.80963135 C30.1120007 17.67993948 33.18114486 19.5330094 36.25 21.38671875 C40.31189492 23.84228411 44.36843354 26.30627569 48.41867065 28.78102112 C53.67199981 31.99007955 58.9432867 35.16380757 64.2421875 38.296875 C65.41116712 38.99001376 66.58011304 39.68320936 67.74902344 40.37646484 C69.94955942 41.67915414 72.15319913 42.97661908 74.36035156 44.26806641 C75.33713867 44.84733887 76.31392578 45.42661133 77.3203125 46.0234375 C78.17898926 46.52794434 79.03766602 47.03245117 79.92236328 47.55224609 C82 49 82 49 84 52 C84.26006222 53.97938347 84.26006222 53.97938347 84.27415466 56.27536011 C84.28412979 57.14733032 84.29410492 58.01930054 84.30438232 58.91769409 C84.305047 59.87152985 84.30571167 60.8253656 84.30639648 61.80810547 C84.31472 62.81488342 84.32304352 63.82166138 84.33161926 64.85894775 C84.35576208 68.19506673 84.36449653 71.53099037 84.37109375 74.8671875 C84.38005658 77.18262797 84.38917835 79.49806783 84.39845276 81.81350708 C84.4149568 86.67077036 84.4226455 91.52796459 84.42553711 96.38525391 C84.43092332 102.61212331 84.46860796 108.83834474 84.51428127 115.06503105 C84.54400932 119.84854508 84.55125974 124.63190225 84.55226326 129.41550064 C84.55647374 131.7112538 84.56894095 134.00700709 84.58978081 136.30266953 C84.61660681 139.51330092 84.61189522 142.7224196 84.59936523 145.93310547 C84.62161667 147.35778641 84.62161667 147.35778641 84.64431763 148.81124878 C84.59377652 153.35416145 84.51756288 155.34016631 81.6366272 159.01303101 C78.88479529 161.08681856 76.14448956 162.89848687 73.15234375 164.609375 C72.59197418 164.93333252 72.03160461 165.25729004 71.45425415 165.59106445 C70.24820436 166.28747007 69.04017216 166.98045189 67.83035278 167.67028809 C64.56223413 169.53447249 61.3094016 171.42504238 58.0546875 173.3125 C57.38488358 173.70008484 56.71507965 174.08766968 56.02497864 174.48699951 C49.73506321 178.13435517 43.51581906 181.89262402 37.31118774 185.68276978 C35.56808573 186.74659101 33.82287354 187.80685888 32.0769043 188.8659668 C26.57937935 192.20211825 21.09634234 195.55911939 15.63671875 198.95703125 C13.67478268 200.15934958 11.71255924 201.36119915 9.75 202.5625 C8.87545166 203.11711914 8.00090332 203.67173828 7.09985352 204.24316406 C-0.81159294 209.04230441 -0.81159294 209.04230441 -5.74316406 208.64770508 C-11.37396655 207.03168182 -16.30212965 203.61669875 -21.25 200.5625 C-22.53390164 199.78768363 -23.8187507 199.01443523 -25.10449219 198.24267578 C-28.43033264 196.24074059 -31.74326113 194.2184217 -35.05322266 192.19036865 C-38.1120007 190.32006052 -41.18114486 188.4669906 -44.25 186.61328125 C-48.31189492 184.15771589 -52.36843354 181.69372431 -56.41867065 179.21897888 C-61.67199981 176.00992045 -66.9432867 172.83619243 -72.2421875 169.703125 C-73.41116712 169.00998624 -74.58011304 168.31679064 -75.74902344 167.62353516 C-77.94955942 166.32084586 -80.15319913 165.02338092 -82.36035156 163.73193359 C-83.33713867 163.15266113 -84.31392578 162.57338867 -85.3203125 161.9765625 C-86.17898926 161.47205566 -87.03766602 160.96754883 -87.92236328 160.44775391 C-90 159 -90 159 -92 156 C-92.26006222 154.02061653 -92.26006222 154.02061653 -92.27415466 151.72463989 C-92.28412979 150.85266968 -92.29410492 149.98069946 -92.30438232 149.08230591 C-92.305047 148.12847015 -92.30571167 147.1746344 -92.30639648 146.19189453 C-92.31472 145.18511658 -92.32304352 144.17833862 -92.33161926 143.14105225 C-92.35576208 139.80493327 -92.36449653 136.46900963 -92.37109375 133.1328125 C-92.38005658 130.81737203 -92.38917835 128.50193217 -92.39845276 126.18649292 C-92.4149568 121.32922964 -92.4226455 116.47203541 -92.42553711 111.61474609 C-92.43092332 105.38787669 -92.46860796 99.16165526 -92.51428127 92.93496895 C-92.54400932 88.15145492 -92.55125974 83.36809775 -92.55226326 78.58449936 C-92.55647374 76.2887462 -92.56894095 73.99299291 -92.58978081 71.69733047 C-92.61660681 68.48669908 -92.61189522 65.2775804 -92.59936523 62.06689453 C-92.61419952 61.11710724 -92.62903381 60.16731995 -92.64431763 59.18875122 C-92.59377652 54.64583855 -92.51756288 52.65983369 -89.6366272 48.98696899 C-86.88479529 46.91318144 -84.14448956 45.10151313 -81.15234375 43.390625 C-80.3117894 42.90468872 -80.3117894 42.90468872 -79.45425415 42.40893555 C-78.24820436 41.71252993 -77.04017216 41.01954811 -75.83035278 40.32971191 C-72.56223413 38.46552751 -69.3094016 36.57495762 -66.0546875 34.6875 C-65.38488358 34.29991516 -64.71507965 33.91233032 -64.02497864 33.51300049 C-57.73506321 29.86564483 -51.51581906 26.10737598 -45.31118774 22.31723022 C-43.56808573 21.25340899 -41.82287354 20.19314112 -40.0769043 19.1340332 C-34.57937935 15.79788175 -29.09634234 12.44088061 -23.63671875 9.04296875 C-21.67478268 7.84065042 -19.71255924 6.63880085 -17.75 5.4375 C-16.87545166 4.88288086 -16.00090332 4.32826172 -15.09985352 3.75683594 C-10.20173793 0.78560378 -5.80329877 -1.66552917 0 0 Z M-10.1953125 21.05078125 C-11.83608765 22.0560083 -11.83608765 22.0560083 -13.51000977 23.08154297 C-14.71501169 23.82518692 -15.92000829 24.56883949 -17.125 25.3125 C-19.65577673 26.86618903 -22.18885379 28.41609488 -24.72265625 29.96484375 C-25.38549118 30.37031433 -26.04832611 30.77578491 -26.73124695 31.19354248 C-31.75227561 34.2575503 -36.80383821 37.2670622 -41.87109375 40.25390625 C-42.59913208 40.68345108 -43.32717041 41.11299591 -44.07727051 41.55555725 C-46.9472224 43.24782638 -49.81770171 44.93910663 -52.69317627 46.62197876 C-54.69486161 47.79364192 -56.69333641 48.9706227 -58.69140625 50.1484375 C-59.28706894 50.49463638 -59.88273163 50.84083527 -60.4964447 51.19752502 C-63.33879351 52.87849852 -65.81215347 54.50829932 -68 57 C-66.81132324 57.80497925 -66.81132324 57.80497925 -65.59863281 58.6262207 C-58.24901246 63.60359357 -50.90002702 68.58190241 -43.55168152 73.56115723 C-39.31132242 76.43434239 -35.07035646 79.30662835 -30.8288269 82.17808533 C-28.26538572 83.91378524 -25.70250584 85.65031256 -23.13977051 87.38705444 C-21.92719876 88.20855175 -20.71439162 89.02970173 -19.50134277 89.85049438 C-17.80886495 90.99576582 -16.11722814 92.14226922 -14.42578125 93.2890625 C-13.47098877 93.93568848 -12.51619629 94.58231445 -11.5324707 95.24853516 C-9 97 -9 97 -6.80786133 98.76513672 C-5.91296997 99.37639404 -5.91296997 99.37639404 -5 100 C-0.60427653 99.00694619 2.81124232 96.14492513 6.375 93.5 C11.12447869 90.04328619 15.90920032 86.6724542 20.8125 83.4375 C29.04339445 77.99973264 37.19277493 72.44307745 45.3449707 66.88842773 C46.37710693 66.18532471 47.40924316 65.48222168 48.47265625 64.7578125 C49.39312744 64.1302002 50.31359863 63.50258789 51.26196289 62.85595703 C54.1645919 60.88843267 57.08001367 58.94164455 60 57 C56.346827 53.9381142 52.53591381 51.40667023 48.42578125 49.015625 C47.79231277 48.64244644 47.1588443 48.26926788 46.50617981 47.88478088 C45.14773481 47.08473419 43.78832579 46.28632248 42.42803955 45.4894104 C38.83649948 43.38527006 35.25161419 41.26989553 31.66796875 39.15234375 C30.58032227 38.50980904 30.58032227 38.50980904 29.47070312 37.85429382 C24.67599173 35.01385399 19.91363383 32.12564209 15.17578125 29.19140625 C14.26905418 28.62995407 14.26905418 28.62995407 13.3440094 28.05715942 C10.49065848 26.28734559 7.64247287 24.50981842 4.7980957 22.72558594 C3.29315552 21.78827637 3.29315552 21.78827637 1.7578125 20.83203125 C0.8827002 20.28264893 0.00758789 19.7332666 -0.89404297 19.16723633 C-4.84456221 16.97764295 -6.58410637 18.82404274 -10.1953125 21.05078125 Z M-76 72 C-76.65371618 81.48190223 -77.14842335 90.9559145 -77.45074081 100.45555019 C-77.5960164 104.8698942 -77.7919362 109.26869633 -78.11230469 113.67407227 C-80.07280538 131.83935127 -80.07280538 131.83935127 -74.8302002 148.66372299 C-68.60627942 155.40837532 -59.80858963 159.04136376 -51.48498535 162.4961853 C-46.83646441 164.50208014 -42.66984868 167.03891094 -38.40625 169.74609375 C-37.06024269 170.55247246 -35.71137039 171.35409247 -34.359375 172.15039062 C-31.6912507 173.73128813 -29.02470887 175.31479278 -26.359375 176.90039062 C-25.0417728 177.6824705 -23.72406913 178.46437946 -22.40625 179.24609375 C-21.81477173 179.59804306 -21.22329346 179.94999237 -20.6138916 180.31260681 C-17.7874653 181.98472272 -14.94563246 183.55027852 -12 185 C-11.62759973 176.06424065 -11.34420319 167.13118621 -11.17100525 158.18933392 C-11.08782524 154.03577046 -10.97529494 149.88754794 -10.79296875 145.73706055 C-9.29009089 128.64059249 -9.29009089 128.64059249 -13.39950562 112.53198242 C-16.91637643 108.73391669 -21.08663523 106.76223693 -25.85394287 104.90628052 C-29.23889119 103.47681591 -32.05690136 101.37154785 -35.01953125 99.2265625 C-36.14397936 98.45860559 -37.27118331 97.69466809 -38.40112305 96.93481445 C-38.95907562 96.55700836 -39.5170282 96.17920227 -40.09188843 95.78994751 C-40.65969025 95.40551483 -41.22749207 95.02108215 -41.8125 94.625 C-48.55013935 90.06161254 -55.28703551 85.49778624 -61.9921875 80.88671875 C-62.8793042 80.27683105 -63.7664209 79.66694336 -64.68041992 79.03857422 C-66.31480144 77.91333541 -67.94784458 76.78614939 -69.5793457 75.65673828 C-72.55735888 73.16552782 -72.55735888 73.16552782 -76 72 Z M63.625 74.24609375 C62.89990234 74.74496094 62.17480469 75.24382812 61.42773438 75.7578125 C60.62658203 76.31210938 59.82542969 76.86640625 59 77.4375 C57.2606989 78.63452478 55.52110035 79.83111744 53.78125 81.02734375 C52.84667969 81.6704248 51.91210938 82.31350586 50.94921875 82.97607422 C44.84744379 87.1634678 38.72030173 91.31367301 32.59765625 95.47045898 C30.57702932 96.84320396 28.57888996 98.24945941 26.60083008 99.68286133 C23.86423249 101.57405771 21.08738538 102.86369603 18.0300293 104.16674805 C12.3223303 106.86219153 7.47812555 109.5858217 4 115 C1.02512798 125.74579246 2.11755679 137.32620109 2.69537354 148.34197998 C2.89140331 152.47678838 2.97685288 156.61381705 3.07226562 160.75195312 C3.27476341 168.840733 3.59796643 176.91868854 4 185 C10.16866725 181.66391444 16.31043896 178.30370741 22.3359375 174.71484375 C22.98084137 174.33244034 23.62574524 173.95003693 24.29019165 173.55604553 C25.64341479 172.75292661 26.99606439 171.94884054 28.34814453 171.14379883 C31.00037679 169.56530213 33.65592262 167.99248944 36.31541443 166.42625427 C37.67484682 165.6112026 39.02292172 164.7769345 40.35951233 163.92494202 C44.36743147 161.39878863 48.22666174 159.48027615 52.67358398 157.82788086 C58.86768348 155.26413354 64.1762162 152.68946476 68 147 C71.28447705 135.5328609 70.07753367 123.11435565 69.44195557 111.34020996 C69.22546467 106.90403492 69.13088425 102.46534611 69.02539062 98.02539062 C68.80143261 89.34333576 68.44411602 80.67357007 68 72 C66.25373209 72 65.02794417 73.27673807 63.625 74.24609375 Z " fill="#58595B" transform="translate(260,16)"/>
<path d="M0 0 C7.23456675 5.60930623 12.09109452 14.04890924 14 23 C14.9006211 37.89715877 13.68454502 48.36548879 3.70703125 60.1015625 C2.82311253 61.08459338 1.93478928 62.06521072 1 63 C1.82242188 63.02578125 2.64484375 63.0515625 3.4921875 63.078125 C13.50179036 63.58669605 21.96585779 65.2894568 29.46875 72.296875 C35.7661451 79.30112057 38.31999615 86.63429562 38.22705078 96.02490234 C38.22734283 96.80606415 38.22763489 97.58722595 38.22793579 98.39205933 C38.22654992 100.95680103 38.21102398 103.52124697 38.1953125 106.0859375 C38.19157972 107.87098024 38.188734 109.65602503 38.18673706 111.44107056 C38.17912143 116.12642123 38.15949079 120.8116468 38.1373291 125.49694824 C38.11682599 130.28310453 38.10772581 135.06928115 38.09765625 139.85546875 C38.07624287 149.23704282 38.04107767 158.6184914 38 168 C32.72 168 27.44 168 22 168 C21.98541748 165.8660376 21.97083496 163.7320752 21.95581055 161.53344727 C21.90531224 154.4566239 21.83869089 147.38001705 21.76428509 140.30340672 C21.71969355 136.01584847 21.68041323 131.7283828 21.65356445 127.44067383 C21.62741887 123.29725526 21.58693836 119.15419507 21.53681374 115.01099968 C21.5202207 113.4359377 21.50865958 111.86081384 21.50238609 110.28567696 C21.83030993 96.45834067 21.83030993 96.45834067 15.75 84.5625 C8.09166845 80.21117526 0.22187912 80.68926765 -8.3671875 80.69921875 C-9.77051926 80.69532469 -11.17384985 80.69098857 -12.57717896 80.68623352 C-15.51063873 80.67879778 -18.44397809 80.67904304 -21.37744141 80.68432617 C-25.11509092 80.69011421 -28.85224381 80.67319349 -32.58981133 80.6499815 C-35.48624497 80.63516557 -38.3825612 80.63438311 -41.27902603 80.63749123 C-42.65597643 80.63698185 -44.03293408 80.63181707 -45.40984726 80.62167931 C-58.37867306 80.36313943 -58.37867306 80.36313943 -69.4375 86.25 C-72.5636821 91.7520805 -73.25294234 97.15403232 -73.31884766 103.40405273 C-73.32889328 104.107332 -73.3389389 104.81061127 -73.34928894 105.53520203 C-73.37991174 107.83465843 -73.39709709 110.13399958 -73.4140625 112.43359375 C-73.43279104 114.03785683 -73.45236569 115.64211023 -73.4727478 117.24635315 C-73.52389711 121.44988276 -73.56361441 125.65344424 -73.60089111 129.8571167 C-73.64103911 134.15417251 -73.692082 138.45109768 -73.7421875 142.74804688 C-73.83874297 151.16528157 -73.92220432 159.58257099 -74 168 C-79.28 168 -84.56 168 -90 168 C-90.09062439 157.74201646 -90.16390188 147.48430189 -90.20724869 137.22600746 C-90.22806042 132.46188015 -90.25625989 127.69804262 -90.30175781 122.93408203 C-90.34544564 118.33047032 -90.36918527 113.72713611 -90.37950897 109.12333298 C-90.38685939 107.37316906 -90.40121246 105.62301912 -90.42292023 103.8729744 C-90.56380381 92.03681777 -90.20222121 81.63129241 -81.703125 72.53125 C-75.08560923 66.58155692 -67.98525892 63.91746483 -59.125 63.375 C-57.39636719 63.26285156 -57.39636719 63.26285156 -55.6328125 63.1484375 C-54.76398438 63.09945312 -53.89515625 63.05046875 -53 63 C-53.44730469 62.53851563 -53.89460938 62.07703125 -54.35546875 61.6015625 C-64.02277753 51.17158757 -66.50319338 41.45476441 -66.27734375 27.56640625 C-65.81205639 16.29071115 -60.29590632 7.95403826 -52.375 0.3125 C-36.99301664 -12.61428217 -15.66779207 -11.49879696 0 0 Z M-45.5546875 18.90234375 C-49.67977895 24.88930081 -49.71608142 30.94935212 -49 38 C-47.22657567 44.64472914 -42.5533353 49.17367959 -37 53 C-31.00112996 55.94062257 -24.1171647 56.09883788 -17.6875 54.3828125 C-11.55867139 51.67750925 -6.76047208 46.59136305 -3.828125 40.609375 C-1.92194143 34.60309848 -1.93561313 27.49708442 -4.5 21.6875 C-7.98462138 15.74752263 -13.4345583 11.08364317 -20 9 C-31.43445097 7.64363754 -38.17817489 10.27353946 -45.5546875 18.90234375 Z " fill="#58595B" transform="translate(458,328)"/>
<path d="M0 0 C7.23456675 5.60930623 12.09109452 14.04890924 14 23 C14.9006211 37.89715877 13.68454502 48.36548879 3.70703125 60.1015625 C2.82311253 61.08459338 1.93478928 62.06521072 1 63 C1.82242188 63.02578125 2.64484375 63.0515625 3.4921875 63.078125 C13.50179036 63.58669605 21.96585779 65.2894568 29.46875 72.296875 C35.7661451 79.30112057 38.31999615 86.63429562 38.22705078 96.02490234 C38.22734283 96.80606415 38.22763489 97.58722595 38.22793579 98.39205933 C38.22654992 100.95680103 38.21102398 103.52124697 38.1953125 106.0859375 C38.19157972 107.87098024 38.188734 109.65602503 38.18673706 111.44107056 C38.17912143 116.12642123 38.15949079 120.8116468 38.1373291 125.49694824 C38.11682599 130.28310453 38.10772581 135.06928115 38.09765625 139.85546875 C38.07624287 149.23704282 38.04107767 158.6184914 38 168 C32.72 168 27.44 168 22 168 C21.98541748 165.8660376 21.97083496 163.7320752 21.95581055 161.53344727 C21.90531224 154.4566239 21.83869089 147.38001705 21.76428509 140.30340672 C21.71969355 136.01584847 21.68041323 131.7283828 21.65356445 127.44067383 C21.62741887 123.29725526 21.58693836 119.15419507 21.53681374 115.01099968 C21.5202207 113.4359377 21.50865958 111.86081384 21.50238609 110.28567696 C21.83030993 96.45834067 21.83030993 96.45834067 15.75 84.5625 C8.09166845 80.21117526 0.22187912 80.68926765 -8.3671875 80.69921875 C-9.77051926 80.69532469 -11.17384985 80.69098857 -12.57717896 80.68623352 C-15.51063873 80.67879778 -18.44397809 80.67904304 -21.37744141 80.68432617 C-25.11509092 80.69011421 -28.85224381 80.67319349 -32.58981133 80.6499815 C-35.48624497 80.63516557 -38.3825612 80.63438311 -41.27902603 80.63749123 C-42.65597643 80.63698185 -44.03293408 80.63181707 -45.40984726 80.62167931 C-58.37867306 80.36313943 -58.37867306 80.36313943 -69.4375 86.25 C-72.5636821 91.7520805 -73.25294234 97.15403232 -73.31884766 103.40405273 C-73.32889328 104.107332 -73.3389389 104.81061127 -73.34928894 105.53520203 C-73.37991174 107.83465843 -73.39709709 110.13399958 -73.4140625 112.43359375 C-73.43279104 114.03785683 -73.45236569 115.64211023 -73.4727478 117.24635315 C-73.52389711 121.44988276 -73.56361441 125.65344424 -73.60089111 129.8571167 C-73.64103911 134.15417251 -73.692082 138.45109768 -73.7421875 142.74804688 C-73.83874297 151.16528157 -73.92220432 159.58257099 -74 168 C-79.28 168 -84.56 168 -90 168 C-90.09062439 157.74201646 -90.16390188 147.48430189 -90.20724869 137.22600746 C-90.22806042 132.46188015 -90.25625989 127.69804262 -90.30175781 122.93408203 C-90.34544564 118.33047032 -90.36918527 113.72713611 -90.37950897 109.12333298 C-90.38685939 107.37316906 -90.40121246 105.62301912 -90.42292023 103.8729744 C-90.56380381 92.03681777 -90.20222121 81.63129241 -81.703125 72.53125 C-75.08560923 66.58155692 -67.98525892 63.91746483 -59.125 63.375 C-57.39636719 63.26285156 -57.39636719 63.26285156 -55.6328125 63.1484375 C-54.76398438 63.09945312 -53.89515625 63.05046875 -53 63 C-53.44730469 62.53851563 -53.89460938 62.07703125 -54.35546875 61.6015625 C-64.02277753 51.17158757 -66.50319338 41.45476441 -66.27734375 27.56640625 C-65.81205639 16.29071115 -60.29590632 7.95403826 -52.375 0.3125 C-36.99301664 -12.61428217 -15.66779207 -11.49879696 0 0 Z M-45.5546875 18.90234375 C-49.67977895 24.88930081 -49.71608142 30.94935212 -49 38 C-47.22657567 44.64472914 -42.5533353 49.17367959 -37 53 C-31.00112996 55.94062257 -24.1171647 56.09883788 -17.6875 54.3828125 C-11.55867139 51.67750925 -6.76047208 46.59136305 -3.828125 40.609375 C-1.92194143 34.60309848 -1.93561313 27.49708442 -4.5 21.6875 C-7.98462138 15.74752263 -13.4345583 11.08364317 -20 9 C-31.43445097 7.64363754 -38.17817489 10.27353946 -45.5546875 18.90234375 Z " fill="#58595B" transform="translate(282,328)"/>
<path d="M0 0 C7.23456675 5.60930623 12.09109452 14.04890924 14 23 C14.9006211 37.89715877 13.68454502 48.36548879 3.70703125 60.1015625 C2.82311253 61.08459338 1.93478928 62.06521072 1 63 C1.82242188 63.02578125 2.64484375 63.0515625 3.4921875 63.078125 C13.50179036 63.58669605 21.96585779 65.2894568 29.46875 72.296875 C35.7661451 79.30112057 38.31999615 86.63429562 38.22705078 96.02490234 C38.22734283 96.80606415 38.22763489 97.58722595 38.22793579 98.39205933 C38.22654992 100.95680103 38.21102398 103.52124697 38.1953125 106.0859375 C38.19157972 107.87098024 38.188734 109.65602503 38.18673706 111.44107056 C38.17912143 116.12642123 38.15949079 120.8116468 38.1373291 125.49694824 C38.11682599 130.28310453 38.10772581 135.06928115 38.09765625 139.85546875 C38.07624287 149.23704282 38.04107767 158.6184914 38 168 C32.72 168 27.44 168 22 168 C21.98541748 165.8660376 21.97083496 163.7320752 21.95581055 161.53344727 C21.90531224 154.4566239 21.83869089 147.38001705 21.76428509 140.30340672 C21.71969355 136.01584847 21.68041323 131.7283828 21.65356445 127.44067383 C21.62741887 123.29725526 21.58693836 119.15419507 21.53681374 115.01099968 C21.5202207 113.4359377 21.50865958 111.86081384 21.50238609 110.28567696 C21.83030993 96.45834067 21.83030993 96.45834067 15.75 84.5625 C8.09166845 80.21117526 0.22187912 80.68926765 -8.3671875 80.69921875 C-9.77051926 80.69532469 -11.17384985 80.69098857 -12.57717896 80.68623352 C-15.51063873 80.67879778 -18.44397809 80.67904304 -21.37744141 80.68432617 C-25.11509092 80.69011421 -28.85224381 80.67319349 -32.58981133 80.6499815 C-35.48624497 80.63516557 -38.3825612 80.63438311 -41.27902603 80.63749123 C-42.65597643 80.63698185 -44.03293408 80.63181707 -45.40984726 80.62167931 C-58.37867306 80.36313943 -58.37867306 80.36313943 -69.4375 86.25 C-72.5636821 91.7520805 -73.25294234 97.15403232 -73.31884766 103.40405273 C-73.32889328 104.107332 -73.3389389 104.81061127 -73.34928894 105.53520203 C-73.37991174 107.83465843 -73.39709709 110.13399958 -73.4140625 112.43359375 C-73.43279104 114.03785683 -73.45236569 115.64211023 -73.4727478 117.24635315 C-73.52389711 121.44988276 -73.56361441 125.65344424 -73.60089111 129.8571167 C-73.64103911 134.15417251 -73.692082 138.45109768 -73.7421875 142.74804688 C-73.83874297 151.16528157 -73.92220432 159.58257099 -74 168 C-79.28 168 -84.56 168 -90 168 C-90.09062439 157.74201646 -90.16390188 147.48430189 -90.20724869 137.22600746 C-90.22806042 132.46188015 -90.25625989 127.69804262 -90.30175781 122.93408203 C-90.34544564 118.33047032 -90.36918527 113.72713611 -90.37950897 109.12333298 C-90.38685939 107.37316906 -90.40121246 105.62301912 -90.42292023 103.8729744 C-90.56380381 92.03681777 -90.20222121 81.63129241 -81.703125 72.53125 C-75.08560923 66.58155692 -67.98525892 63.91746483 -59.125 63.375 C-57.39636719 63.26285156 -57.39636719 63.26285156 -55.6328125 63.1484375 C-54.76398437 63.09945312 -53.89515625 63.05046875 -53 63 C-53.44730469 62.53851563 -53.89460938 62.07703125 -54.35546875 61.6015625 C-64.02277753 51.17158757 -66.50319338 41.45476441 -66.27734375 27.56640625 C-65.81205639 16.29071115 -60.29590632 7.95403826 -52.375 0.3125 C-36.99301664 -12.61428217 -15.66779207 -11.49879696 0 0 Z M-45.5546875 18.90234375 C-49.67103099 24.87660443 -49.74045426 30.9611138 -49 38 C-46.93475488 44.80972715 -42.51801827 49.69943842 -36.4375 53.3125 C-30.53052847 56.04824296 -23.93220223 56.06817039 -17.69921875 54.375 C-11.55854907 51.70410678 -6.75656691 46.58339651 -3.828125 40.609375 C-1.92194143 34.60309848 -1.93561313 27.49708442 -4.5 21.6875 C-7.98462138 15.74752263 -13.4345583 11.08364317 -20 9 C-31.43445097 7.64363754 -38.17817489 10.27353946 -45.5546875 18.90234375 Z " fill="#58595B" transform="translate(106,328)"/>
<path d="M0 0 C4.29227942 0.46269985 6.02922065 2.90159458 8.75 6.0625 C9.54921875 6.98160156 10.3484375 7.90070313 11.171875 8.84765625 C11.77515625 9.55792969 12.3784375 10.26820313 13 11 C11.70493625 13.85530722 10.31887623 15.84020569 8.125 18.0625 C1.92793185 25.21646838 0.28774178 33.64639359 0.6171875 42.92578125 C2.00705579 54.08727452 9.93191796 62.66324814 18.1171875 69.7734375 C53.88343315 97.39777357 105.8535398 101.20429506 149 96 C178.92730234 91.72592101 212.94531762 82.25955586 232 57 C237.19740141 48.35272926 238.42244998 39.92198591 236.38671875 30.015625 C234.12699448 22.96767441 230.23465861 18.14572024 225 13 C226.51553404 9.52224821 228.5773456 7.0442016 231.125 4.25 C231.84945312 3.45078125 232.57390625 2.6515625 233.3203125 1.828125 C234.15175781 0.92320312 234.15175781 0.92320312 235 0 C239.50188019 0.75521737 241.2756615 2.94955058 244.125 6.3515625 C253.4804973 19.56620244 256.39272725 33.10550029 255 49 C254.17230441 53.01150191 252.88621836 56.37492408 251 60 C250.5875 60.82371094 250.175 61.64742187 249.75 62.49609375 C236.31885478 86.95451446 208.20750598 100.22513801 182.484375 107.734375 C176.3740585 109.42127219 170.21894319 110.78003785 164 112 C163.18837402 112.16516113 162.37674805 112.33032227 161.54052734 112.50048828 C134.0916302 117.82294337 101.36426807 117.72596924 74 112 C73.03336426 111.80132324 72.06672852 111.60264648 71.07080078 111.39794922 C42.74670005 105.37778134 9.50774415 93.78586768 -8 69 C-16.08099267 55.23586304 -19.37217241 42.37596234 -16.31640625 26.43359375 C-13.08425541 16.14703901 -7.34598592 7.78065964 0 0 Z " fill="#58595B" transform="translate(137,141)"/>
<path d="M0 0 C3.46089672 1.43739237 5.16535462 3.13819083 7.3984375 6.12109375 C8.03523438 6.96414062 8.67203125 7.8071875 9.328125 8.67578125 C10.00359375 9.58714844 10.6790625 10.49851563 11.375 11.4375 C12.08398438 12.38109375 12.79296875 13.3246875 13.5234375 14.296875 C18.62019923 21.0955911 23.6675393 27.93225153 28.67553711 34.79663086 C31.87336783 39.16780925 35.13325582 43.47964589 38.46484375 47.75 C39.20927734 48.70841797 39.95371094 49.66683594 40.72070312 50.65429688 C42.17549946 52.52181957 43.63879331 54.38276004 45.11132812 56.23632812 C45.76423828 57.07615234 46.41714844 57.91597656 47.08984375 58.78125 C47.67628662 59.52439453 48.26272949 60.26753906 48.86694336 61.03320312 C49.24085205 61.68224609 49.61476074 62.33128906 50 63 C48.68774191 66.93677426 46.8038606 67.8271782 43.4375 70.1875 C42.42558594 70.90292969 41.41367187 71.61835938 40.37109375 72.35546875 C39.58863281 72.89816406 38.80617188 73.44085938 38 74 C34.53910328 72.56260763 32.83464538 70.86180917 30.6015625 67.87890625 C29.96476562 67.03585937 29.32796875 66.1928125 28.671875 65.32421875 C27.99640625 64.41285156 27.3209375 63.50148438 26.625 62.5625 C25.91601562 61.61890625 25.20703125 60.6753125 24.4765625 59.703125 C19.37980077 52.9044089 14.3324607 46.06774847 9.32446289 39.20336914 C6.12663217 34.83219075 2.86674418 30.52035411 -0.46484375 26.25 C-1.20927734 25.29158203 -1.95371094 24.33316406 -2.72070312 23.34570312 C-4.17549946 21.47818043 -5.63879331 19.61723996 -7.11132812 17.76367188 C-7.76423828 16.92384766 -8.41714844 16.08402344 -9.08984375 15.21875 C-9.67628662 14.47560547 -10.26272949 13.73246094 -10.86694336 12.96679688 C-11.4278064 11.99323242 -11.4278064 11.99323242 -12 11 C-10.68774191 7.06322574 -8.8038606 6.1728218 -5.4375 3.8125 C-4.42558594 3.09707031 -3.41367187 2.38164062 -2.37109375 1.64453125 C-1.58863281 1.10183594 -0.80617188 0.55914062 0 0 Z " fill="#58595B" transform="translate(389,227)"/>
<path d="M0 0 C3.83663072 1.34929464 6.65172569 3.07751025 9.8125 5.625 C10.60269531 6.25664062 11.39289063 6.88828125 12.20703125 7.5390625 C12.79871094 8.02117187 13.39039063 8.50328125 14 9 C12.66558629 11.82749964 11.16230649 14.29610568 9.3046875 16.80859375 C8.49064453 17.91267578 8.49064453 17.91267578 7.66015625 19.0390625 C7.07105469 19.83054688 6.48195312 20.62203125 5.875 21.4375 C5.25753906 22.27152344 4.64007813 23.10554688 4.00390625 23.96484375 C-1.26880623 31.06557078 -6.62477818 38.10195884 -12.00927734 45.11816406 C-15.39037434 49.53358545 -18.72611831 53.9734281 -21.984375 58.48046875 C-22.61859375 59.35574219 -23.2528125 60.23101562 -23.90625 61.1328125 C-25.10625887 62.79553666 -26.29935532 64.4632788 -27.484375 66.13671875 C-28.020625 66.87921875 -28.556875 67.62171875 -29.109375 68.38671875 C-29.57311523 69.03858154 -30.03685547 69.69044434 -30.51464844 70.36206055 C-32 72 -32 72 -36 74 C-39.96 71.03 -43.92 68.06 -48 65 C-46.52688963 62.05377925 -45.22464911 59.78821467 -43.3046875 57.19140625 C-42.76199219 56.45535156 -42.21929687 55.71929687 -41.66015625 54.9609375 C-41.07105469 54.16945313 -40.48195313 53.37796875 -39.875 52.5625 C-38.94880859 51.31146484 -38.94880859 51.31146484 -38.00390625 50.03515625 C-32.73167723 42.9350803 -27.37167971 35.90305568 -21.99511719 28.88183594 C-16.68826475 21.93971741 -11.48670876 14.92473499 -6.33984375 7.86328125 C-5.79714844 7.12078125 -5.25445312 6.37828125 -4.6953125 5.61328125 C-4.22109863 4.96141846 -3.74688477 4.30955566 -3.25830078 3.63793945 C-2 2 -2 2 0 0 Z " fill="#58595B" transform="translate(121,227)"/>
<path d="M0 0 C5.28 0 10.56 0 16 0 C16 23.76 16 47.52 16 72 C10.72 72 5.44 72 0 72 C0 48.24 0 24.48 0 0 Z " fill="#58595B" transform="translate(456,424)"/>
<path d="M0 0 C5.28 0 10.56 0 16 0 C16 23.76 16 47.52 16 72 C10.72 72 5.44 72 0 72 C0 48.24 0 24.48 0 0 Z " fill="#58595B" transform="translate(392,424)"/>
<path d="M0 0 C5.28 0 10.56 0 16 0 C16 23.76 16 47.52 16 72 C10.72 72 5.44 72 0 72 C0 48.24 0 24.48 0 0 Z " fill="#58595B" transform="translate(280,424)"/>
<path d="M0 0 C5.28 0 10.56 0 16 0 C16 23.76 16 47.52 16 72 C10.72 72 5.44 72 0 72 C0 48.24 0 24.48 0 0 Z " fill="#58595B" transform="translate(216,424)"/>
<path d="M0 0 C5.28 0 10.56 0 16 0 C16 23.76 16 47.52 16 72 C10.72 72 5.44 72 0 72 C0 48.24 0 24.48 0 0 Z " fill="#58595B" transform="translate(104,424)"/>
<path d="M0 0 C5.28 0 10.56 0 16 0 C16 23.76 16 47.52 16 72 C10.72 72 5.44 72 0 72 C0 48.24 0 24.48 0 0 Z " fill="#58595B" transform="translate(40,424)"/>
<path d="M0 0 C5.28 0 10.56 0 16 0 C16 10.56 16 21.12 16 32 C10.72 32 5.44 32 0 32 C0 21.44 0 10.88 0 0 Z " fill="#58595B" transform="translate(248,272)"/>
</svg>
