<?xml version="1.0" encoding="UTF-8"?>
<svg version="1.1" xmlns="http://www.w3.org/2000/svg" width="512" height="512">
<path d="M0 0 C1.3455448 -0.01152344 1.3455448 -0.01152344 2.71827233 -0.02327967 C3.69977348 -0.0215467 4.68127463 -0.01981374 5.69251823 -0.01802826 C6.73835323 -0.0239705 7.78418823 -0.02991275 8.8617152 -0.03603506 C12.37760381 -0.0534234 15.89335635 -0.05642674 19.40928459 -0.0594101 C21.9256399 -0.06866553 24.44199239 -0.07871473 26.9583416 -0.08950043 C33.80360022 -0.11576364 40.64881397 -0.1287151 47.4941144 -0.13752174 C51.770407 -0.14304976 56.04669057 -0.15152516 60.32297707 -0.16053009 C72.16811174 -0.18491589 84.0132392 -0.20551308 95.85839844 -0.21228027 C96.61641842 -0.21271941 97.37443841 -0.21315854 98.1554287 -0.21361098 C98.91524334 -0.21404753 99.67505798 -0.21448409 100.45789731 -0.21493387 C101.99751989 -0.2158208 103.53714248 -0.21671392 105.07676506 -0.21761322 C105.84046795 -0.21805608 106.60417083 -0.21849894 107.39101623 -0.21895522 C119.75781371 -0.2268464 132.12437514 -0.26173937 144.49108149 -0.30833226 C157.19486521 -0.35580772 169.89853063 -0.38068623 182.60240448 -0.38301611 C189.7322957 -0.38484716 196.86187952 -0.39628867 203.99168587 -0.43265533 C210.70098699 -0.46675689 217.40960631 -0.46992694 224.1190033 -0.45237732 C226.57880972 -0.45083663 229.0386475 -0.45952156 231.49837494 -0.47929382 C234.86285332 -0.50474817 238.22526969 -0.49297507 241.58973503 -0.47212982 C242.55785185 -0.48824263 243.52596867 -0.50435544 244.52342236 -0.52095652 C251.65379851 -0.41798887 256.97419497 1.70318588 262.52207756 6.26285553 C262.52207756 6.92285553 262.52207756 7.58285553 262.52207756 8.26285553 C263.18207756 8.26285553 263.84207756 8.26285553 264.52207756 8.26285553 C270.72431986 14.38146243 272.33069874 20.28023732 272.42564672 28.79277813 C272.40568318 30.15074347 272.38506418 31.5086993 272.36385918 32.86664581 C272.36691624 34.33134016 272.37305365 35.79603074 272.38198334 37.26070106 C272.39756119 41.26336014 272.36974268 45.26469644 272.33453691 49.26718712 C272.30420673 53.59152131 272.31454437 57.91578554 272.31985283 62.24019623 C272.32351698 69.72508179 272.30162137 77.20953903 272.26218796 84.69431686 C272.20521203 95.51586982 272.18705903 106.33721642 272.17827202 117.15890311 C272.16296513 134.71775975 272.11641737 152.2763883 272.05015373 169.83512115 C271.98586553 186.88816947 271.93633373 203.94115575 271.90659904 220.99430084 C271.90475998 222.04608305 271.90292092 223.09786525 271.90102612 224.18151964 C271.89189062 229.45819006 271.88304472 234.73486092 271.8743428 240.01153207 C271.80181785 283.76213118 271.67856265 327.51248156 271.52207756 371.26285553 C270.86207756 371.59285553 270.20207756 371.92285553 269.52207756 372.26285553 C268.98582756 373.29410553 268.44957756 374.32535553 267.89707756 375.38785553 C263.63962787 383.03869686 256.65215945 387.48416571 248.52207756 390.26285553 C245.22729941 390.77008494 242.01621897 390.77227304 238.68784904 390.71695709 C237.75019203 390.7175412 236.81253502 390.71812531 235.84646416 390.71872711 C232.7783099 390.71596284 229.71115372 390.68494959 226.64317131 390.65348053 C224.50369612 390.64601225 222.36421404 390.64032209 220.22472954 390.63632965 C214.61700585 390.62111967 209.00970219 390.5818778 203.40214348 390.53751373 C197.67069491 390.49646086 191.93917792 390.47829728 186.20762444 390.45816803 C174.97892513 390.41537907 163.75053639 390.34718406 152.52207756 390.26285553 C152.84641273 391.00740494 153.17074791 391.75195435 153.50491142 392.51906586 C154.88213292 396.2340992 154.82748016 399.79498098 154.82285881 403.70426178 C154.82714394 404.50895401 154.83142906 405.31364624 154.83584404 406.14272308 C154.84156918 407.83794974 154.84210103 409.53320096 154.83775139 411.2284317 C154.83458361 413.82040909 154.8580991 416.4112528 154.88340569 419.0030899 C154.88567811 420.65347909 154.88638244 422.30387134 154.88535881 423.95426178 C154.89456856 424.7272612 154.90377831 425.50026062 154.91326714 426.29668427 C154.8850835 429.57407409 154.72996356 431.88815236 153.12437248 434.78214264 C151.52207756 436.26285553 151.52207756 436.26285553 149.52207756 436.26285553 C149.52207756 436.92285553 149.52207756 437.58285553 149.52207756 438.26285553 C109.35069033 438.3772458 69.17932429 438.46537637 29.0078068 438.51818218 C24.26752764 438.52443587 19.52724881 438.53090747 14.78697014 438.53751373 C13.37138606 438.53948106 13.37138606 438.53948106 11.92720433 438.54148813 C-3.36280273 438.56325754 -18.652716 438.60268751 -33.94266739 438.64861951 C-49.62612779 438.69534146 -65.30953899 438.7231419 -80.99306613 438.733298 C-90.67432611 438.74016602 -100.35532102 438.76187462 -110.03649942 438.80243786 C-116.6710524 438.82882365 -123.30546791 438.836866 -129.94006958 438.83036242 C-133.77064998 438.82715299 -137.60076651 438.83214694 -141.43126488 438.8588829 C-145.58117136 438.88763732 -149.73008478 438.87782209 -153.88006783 438.86412811 C-155.09504328 438.87869232 -156.31001873 438.89325653 -157.56181163 438.90826207 C-166.62146277 438.82706071 -166.62146277 438.82706071 -169.72434425 435.85478973 C-171.4408515 433.31764946 -172.11493972 432.13541615 -172.17250252 429.12882233 C-172.19761406 428.34500183 -172.2227256 427.56118134 -172.2485981 426.7536087 C-172.24822044 425.91490234 -172.24784279 425.07619598 -172.24745369 424.21207428 C-172.26234337 423.328573 -172.27723305 422.44507172 -172.29257393 421.53479767 C-172.32496366 418.67237259 -172.3122309 415.81285036 -172.29042244 412.95035553 C-172.2901606 411.98209839 -172.28989876 411.01384125 -172.28962898 410.01624298 C-172.2331245 392.46139359 -169.43410804 378.04033865 -161.47792244 362.26285553 C-160.81792244 362.26285553 -160.15792244 362.26285553 -159.47792244 362.26285553 C-159.39155525 361.71500397 -159.30518806 361.1671524 -159.21620369 360.60269928 C-158.24300277 357.51832177 -156.59929258 355.41222079 -154.66542244 352.82535553 C-153.97835213 351.89851959 -153.29128181 350.97168365 -152.58339119 350.01676178 C-151.8885865 349.10797272 -151.19378181 348.19918365 -150.47792244 347.26285553 C-149.77280525 346.32312897 -149.06768806 345.3834024 -148.34120369 344.41519928 C-147.72632088 343.70492584 -147.11143806 342.9946524 -146.47792244 342.26285553 C-145.81792244 342.26285553 -145.15792244 342.26285553 -144.47792244 342.26285553 C-144.47792244 341.60285553 -144.47792244 340.94285553 -144.47792244 340.26285553 C-143.81792244 340.26285553 -143.15792244 340.26285553 -142.47792244 340.26285553 C-142.25104744 339.64410553 -142.02417244 339.02535553 -141.79042244 338.38785553 C-140.09862409 335.64875344 -138.48548083 335.21261081 -135.47792244 334.26285553 C-135.47792244 333.60285553 -135.47792244 332.94285553 -135.47792244 332.26285553 C-133.64540291 330.79825592 -133.64540291 330.79825592 -131.09510994 329.11051178 C-130.17471931 328.49885162 -129.25432869 327.88719147 -128.30604744 327.25699615 C-126.84425056 326.30083405 -126.84425056 326.30083405 -125.35292244 325.32535553 C-124.40159431 324.69178131 -123.45026619 324.05820709 -122.47010994 323.40543365 C-115.03544221 318.49545518 -115.03544221 318.49545518 -110.84510994 316.74723053 C-108.12786635 315.43041828 -108.12786635 315.43041828 -107.74354744 312.11832428 C-107.73839119 310.90789459 -107.73323494 309.6974649 -107.72792244 308.45035553 C-107.63340061 301.10128303 -106.7394628 295.66659968 -101.47792244 290.26285553 C-94.85417661 285.16766643 -88.15781872 285.59724824 -80.04042244 285.63785553 C-78.11359627 285.58951569 -78.11359627 285.58951569 -76.14784431 285.54019928 C-69.00080964 285.532835 -64.27854979 285.96352592 -58.8136158 290.77701569 C-57.47792244 292.26285553 -57.47792244 292.26285553 -56.47792244 294.26285553 C-56.39110768 290.63800554 -56.33759523 287.0134211 -56.29042244 283.38785553 C-56.26528572 282.35531647 -56.240149 281.3227774 -56.21425056 280.25894928 C-56.2045826 279.27281647 -56.19491463 278.28668365 -56.18495369 277.27066803 C-56.16924324 276.35946198 -56.15353279 275.44825592 -56.13734627 274.50943756 C-56.2497364 273.76806549 -56.36212654 273.02669342 -56.47792244 272.26285553 C-57.46792244 271.60285553 -58.45792244 270.94285553 -59.47792244 270.26285553 C-59.47792244 269.60285553 -59.47792244 268.94285553 -59.47792244 268.26285553 C-60.13792244 268.26285553 -60.79792244 268.26285553 -61.47792244 268.26285553 C-61.47792244 267.60285553 -61.47792244 266.94285553 -61.47792244 266.26285553 C-62.13792244 266.26285553 -62.79792244 266.26285553 -63.47792244 266.26285553 C-65.20448494 264.36441803 -65.20448494 264.36441803 -67.10292244 261.88785553 C-67.73456306 261.07574615 -68.36620369 260.26363678 -69.01698494 259.42691803 C-70.47792244 257.26285553 -70.47792244 257.26285553 -70.47792244 255.26285553 C-71.13792244 255.26285553 -71.79792244 255.26285553 -72.47792244 255.26285553 C-73.49658473 253.6075293 -74.49603057 251.94025415 -75.47792244 250.26285553 C-76.13792244 249.93285553 -76.79792244 249.60285553 -77.47792244 249.26285553 C-77.85587747 247.94147788 -78.18052393 246.60466141 -78.47792244 245.26285553 C-79.10195934 243.65008483 -79.7494179 242.04625319 -80.41542244 240.45035553 C-82.61985818 235.00740327 -84.47792244 230.20824167 -84.47792244 224.26285553 C-85.30292244 224.07723053 -86.12792244 223.89160553 -86.97792244 223.70035553 C-93.92188344 220.84837155 -98.42795335 216.233636 -101.61219978 209.50650787 C-103.10384088 205.64069239 -103.68838611 201.73016526 -104.22792244 197.63785553 C-104.41656868 196.32941681 -104.41656868 196.32941681 -104.60902596 194.99454498 C-105.3141174 189.74852967 -105.56844343 184.73808095 -105.41542244 179.45035553 C-105.25022457 173.5582982 -106.32803928 171.13085678 -109.47792244 166.26285553 C-111.1443031 159.36105502 -110.97876027 152.51369395 -107.41542244 146.26285553 C-104.16517679 141.40638384 -99.71728282 136.6364359 -94.26698494 134.32535553 C-92.28827792 133.4319871 -92.28827792 133.4319871 -91.97401619 131.38004303 C-91.94501228 130.27016022 -91.94501228 130.27016022 -91.91542244 129.13785553 C-91.57254299 124.34516277 -90.33601719 120.66034645 -88.47792244 116.26285553 C-88.12729744 115.34504303 -87.77667244 114.42723053 -87.41542244 113.48160553 C-84.5481194 106.16243724 -80.95740565 99.71670812 -76.47792244 93.26285553 C-75.95456306 92.49973053 -75.43120369 91.73660553 -74.89198494 90.95035553 C-74.42534431 90.39348053 -73.95870369 89.83660553 -73.47792244 89.26285553 C-72.81792244 89.26285553 -72.15792244 89.26285553 -71.47792244 89.26285553 C-71.24718025 88.69824615 -71.01643806 88.13363678 -70.77870369 87.55191803 C-69.139838 84.66790814 -67.1328123 82.84999816 -64.66542244 80.63785553 C-63.81335213 79.8618399 -62.96128181 79.08582428 -62.08339119 78.28629303 C-59.58306317 76.34450905 -57.46270138 75.25956807 -54.47792244 74.26285553 C-54.47792244 73.60285553 -54.47792244 72.94285553 -54.47792244 72.26285553 C-47.81125577 68.9295222 -41.14458911 65.59618886 -34.47792244 62.26285553 C-34.56042244 61.45848053 -34.64292244 60.65410553 -34.72792244 59.82535553 C-34.28847433 53.56321996 -31.98988614 48.49259081 -27.29042244 44.32535553 C-23.24253339 40.02510432 -23.90773219 34.61932615 -23.81141853 29.05069733 C-23.66289633 22.80307868 -22.47667648 17.81403743 -19.47792244 12.26285553 C-18.81792244 12.26285553 -18.15792244 12.26285553 -17.47792244 12.26285553 C-17.21753181 11.66730865 -16.95714119 11.07176178 -16.68885994 10.45816803 C-15.39940656 8.12051384 -14.14252622 6.83900978 -12.10292244 5.13785553 C-11.51768806 4.6402774 -10.93245369 4.14269928 -10.32948494 3.63004303 C-6.91111221 1.10592814 -4.26686828 0.01374743 0 0 Z M-0.56221962 23.62078857 C-1.59966341 26.61411337 -1.77966771 28.91456974 -1.66542244 32.07535553 C-1.63835213 33.05117584 -1.61128181 34.02699615 -1.58339119 35.03238678 C-1.5485865 35.76844147 -1.51378181 36.50449615 -1.47792244 37.26285553 C-0.38479744 37.73723053 0.70832756 38.21160553 1.83457756 38.70035553 C2.44946037 38.96719147 3.06434319 39.2340274 3.69785881 39.50894928 C5.27918777 40.16247495 6.89883162 40.72177355 8.52207756 41.26285553 C8.52207756 41.92285553 8.52207756 42.58285553 8.52207756 43.26285553 C9.18207756 43.26285553 9.84207756 43.26285553 10.52207756 43.26285553 C10.81082756 43.86098053 11.09957756 44.45910553 11.39707756 45.07535553 C12.56949782 47.45613345 12.56949782 47.45613345 14.52207756 50.26285553 C14.77333037 52.40408777 14.97631652 54.5512059 15.14707756 56.70035553 C15.65400815 61.13118288 15.65400815 61.13118288 17.93614006 64.75894928 C20.08339684 65.78689136 22.26800185 66.49366055 24.52207756 67.26285553 C26.99494439 68.49117231 29.44906739 69.73745853 31.89707756 71.01285553 C36.00478807 73.36072085 36.00478807 73.36072085 40.52207756 74.26285553 C40.52207756 74.92285553 40.52207756 75.58285553 40.52207756 76.26285553 C41.95623154 77.48443136 43.44723272 78.6395309 44.95957756 79.76285553 C54.46539499 87.227876 60.85568972 95.64022768 66.52207756 106.26285553 C66.922976 106.9615274 67.32387444 107.66019928 67.73692131 108.38004303 C71.41828945 115.07596545 73.30174159 122.73079933 73.89707756 130.32535553 C74.2057263 133.38419072 74.2057263 133.38419072 76.58457756 134.76285553 C77.55395256 135.25785553 78.52332756 135.75285553 79.52207756 136.26285553 C86.01297974 141.00973752 91.61808873 146.58684875 92.92832756 154.81363678 C93.13191061 160.4036879 91.95833695 164.28882594 89.52207756 169.26285553 C89.52207756 170.25285553 89.52207756 171.24285553 89.52207756 172.26285553 C88.86207756 172.26285553 88.20207756 172.26285553 87.52207756 172.26285553 C86.2979294 175.02831483 86.2979294 175.02831483 86.95957756 176.95035553 C88.51671456 183.35191875 87.26583438 190.00879018 86.14707756 196.38785553 C85.95758537 197.54607819 85.95758537 197.54607819 85.76426506 198.72769928 C84.5830811 205.66124913 83.09750933 210.77233741 78.52207756 216.26285553 C78.52207756 216.92285553 78.52207756 217.58285553 78.52207756 218.26285553 C78.00645256 218.51035553 77.49082756 218.75785553 76.95957756 219.01285553 C75.75301506 219.63160553 75.75301506 219.63160553 74.52207756 220.26285553 C73.34645256 220.73723053 72.17082756 221.21160553 70.95957756 221.70035553 C68.38723327 223.15452875 67.61866335 224.03690754 66.44004631 226.79410553 C65.67222365 229.60819451 65.05094087 232.39478913 64.52207756 235.26285553 C64.23977287 236.67244537 64.23977287 236.67244537 63.95176506 238.11051178 C63.80996819 238.82078522 63.66817131 239.53105865 63.52207756 240.26285553 C62.86207756 240.26285553 62.20207756 240.26285553 61.52207756 240.26285553 C61.10957756 241.47973053 60.69707756 242.69660553 60.27207756 243.95035553 C58.88796106 247.65874312 57.12430884 250.25402561 54.52207756 253.26285553 C54.02707756 254.08785553 53.53207756 254.91285553 53.02207756 255.76285553 C51.52207756 258.26285553 51.52207756 258.26285553 49.33457756 260.95035553 C47.31645034 263.03551337 47.31645034 263.03551337 47.52207756 265.26285553 C46.96520256 265.48973053 46.40832756 265.71660553 45.83457756 265.95035553 C42.55631468 267.81099122 40.83474168 269.19932643 38.52207756 272.26285553 C37.75527802 276.3603582 37.73146085 280.41509857 37.70957756 284.57535553 C37.68444084 285.69748444 37.65930412 286.81961334 37.63340569 287.97574615 C37.57462436 290.73846839 37.53827776 293.49960945 37.52207756 296.26285553 C38.18207756 295.93285553 38.84207756 295.60285553 39.52207756 295.26285553 C39.52207756 294.27285553 39.52207756 293.28285553 39.52207756 292.26285553 C40.35739006 291.86066803 40.35739006 291.86066803 41.20957756 291.45035553 C43.56874256 290.30353384 43.56874256 290.30353384 45.75059319 288.71353912 C49.11389744 286.95307807 51.39495725 286.8754836 55.17832756 286.86441803 C56.44805412 286.86055084 57.71778069 286.85668365 59.02598381 286.85269928 C60.34469475 286.86430084 61.66340569 286.8759024 63.02207756 286.88785553 C64.3407885 286.87625397 65.65949944 286.8646524 67.01817131 286.85269928 C68.28789787 286.85656647 69.55762444 286.86043365 70.86582756 286.86441803 C72.02276115 286.86780182 73.17969475 286.87118561 74.37168694 286.87467194 C77.82389514 287.30004477 79.66273614 288.35346772 82.52207756 290.26285553 C83.18207756 290.26285553 83.84207756 290.26285553 84.52207756 290.26285553 C84.81082756 290.86098053 85.09957756 291.45910553 85.39707756 292.07535553 C86.56949782 294.45613345 86.56949782 294.45613345 88.52207756 297.26285553 C88.90098381 300.22379303 88.90098381 300.22379303 89.08457756 303.63785553 C89.20902863 305.84749699 89.35376734 308.05612149 89.52207756 310.26285553 C89.5704174 311.5718985 89.5704174 311.5718985 89.61973381 312.90738678 C91.02800109 316.58351305 94.08884029 317.80172255 97.39707756 319.57535553 C98.76548665 320.34693844 100.13135498 321.1230436 101.49473381 321.90348053 C102.17423088 322.29213287 102.85372795 322.68078522 103.55381584 323.0812149 C107.39032032 325.38445004 110.89922195 328.10810975 114.44785881 330.82926178 C116.37605308 332.45237731 116.37605308 332.45237731 118.52207756 332.26285553 C118.52207756 332.92285553 118.52207756 333.58285553 118.52207756 334.26285553 C120.07590903 335.79523104 120.07590903 335.79523104 122.08457756 337.38785553 C125.83964369 340.55598415 128.97473413 343.95715789 132.07676506 347.75894928 C132.79219475 348.50338287 132.79219475 348.50338287 133.52207756 349.26285553 C134.18207756 349.26285553 134.84207756 349.26285553 135.52207756 349.26285553 C135.74895256 349.92285553 135.97582756 350.58285553 136.20957756 351.26285553 C137.63924808 354.53067387 139.42609941 357.34369389 141.36192131 360.32926178 C142.52207756 362.26285553 142.52207756 362.26285553 143.58457756 365.20035553 C143.89395256 365.88098053 144.20332756 366.56160553 144.52207756 367.26285553 C147.22432251 368.19175817 149.73475093 368.38967136 152.57601738 368.3965683 C153.37363487 368.40083328 154.17125237 368.40509827 154.99304008 368.40949249 C155.85912392 368.40903931 156.72520775 368.40858612 157.61753654 368.4081192 C158.99624931 368.41315712 158.99624931 368.41315712 160.40281487 368.41829681 C163.44128076 368.42779603 166.47969149 368.42974933 169.51817131 368.43082428 C171.63039994 368.43403728 173.74262834 368.43740139 175.85485649 368.44091034 C180.28242827 368.44689882 184.70998053 368.4487505 189.13755608 368.44815826 C194.81151681 368.44805659 200.48535255 368.46171542 206.15928364 368.47893047 C210.52157987 368.49004674 214.88384584 368.4920776 219.24615479 368.49154854 C221.3381328 368.49272896 223.43011158 368.49715422 225.52207565 368.50488091 C228.44721436 368.51467429 231.37208099 368.51180539 234.29722404 368.50577545 C235.16128365 368.51139496 236.02534325 368.51701447 236.91558647 368.52280426 C241.18651366 368.50042355 244.69361679 368.40233534 248.52207756 366.26285553 C249.83996308 363.6270845 249.64993282 361.66855032 249.65350533 358.7152338 C249.65734647 357.52874731 249.66118762 356.34226081 249.66514516 355.11982018 C249.66427868 353.8047698 249.66341219 352.48971942 249.66251945 351.13481903 C249.66510167 349.73279804 249.66811442 348.33077779 249.67152286 346.92875856 C249.67961285 343.06253032 249.68138353 339.19632062 249.68212032 335.33008492 C249.68396738 331.16573786 249.69151288 327.0014005 249.69825554 322.83705902 C249.71185291 313.72569768 249.71786558 304.61434073 249.7222662 295.50297093 C249.72502588 289.8179911 249.72926269 284.13301297 249.73377037 278.44803429 C249.74596417 262.7195385 249.75626372 246.99104409 249.75964546 231.26254368 C249.75986503 230.25538078 249.76008459 229.24821788 249.76031081 228.2105349 C249.76052909 227.20091516 249.76074737 226.19129542 249.76097226 225.15108114 C249.76141573 223.10508732 249.7618623 221.05909349 249.76231194 219.01309967 C249.76253337 217.99820858 249.76275479 216.98331749 249.76298293 215.93767213 C249.76693331 199.48249571 249.78439413 183.02736351 249.80767146 166.57220418 C249.83135652 149.69312938 249.84384599 132.8140768 249.84501338 115.9349851 C249.84593167 106.45180856 249.85172272 96.96868966 249.86983299 87.48552895 C249.88519555 79.41253285 249.89037724 71.33961218 249.88209489 63.26660425 C249.87817486 59.14474448 249.87918346 55.0230368 249.89315224 50.90119553 C249.90581054 47.13171743 249.90476551 43.36250697 249.89256153 39.59302967 C249.8896529 37.57522067 249.90160108 35.55740739 249.91398358 33.53963429 C249.90739374 32.35054004 249.90080389 31.1614458 249.89401436 29.9363184 C249.89490999 28.39039441 249.89490999 28.39039441 249.89582372 26.81323963 C249.7121255 24.24997333 249.7121255 24.24997333 248.26052022 22.43220848 C246.11726801 20.99056283 244.90797438 20.88519747 242.33505821 20.87974548 C241.47750325 20.87068884 240.61994828 20.8616322 239.7364068 20.85230112 C238.79390935 20.85762905 237.85141191 20.86295697 236.88035393 20.86844635 C235.87943702 20.86235525 234.87852012 20.85626414 233.8472724 20.84998846 C230.47769261 20.83327723 227.10848736 20.83814588 223.73887444 20.84293365 C221.32953305 20.83559811 218.92019519 20.8270134 216.51086235 20.81726837 C210.63675274 20.79730707 204.76273516 20.79167464 198.88860142 20.79345626 C194.11561197 20.79476271 189.34265337 20.79096573 184.56966972 20.78353119 C183.19602951 20.78143205 181.82238929 20.77933445 180.44874907 20.77723837 C179.76510524 20.77619484 179.08146142 20.77515131 178.37710112 20.77407616 C165.44221182 20.75516602 152.50737921 20.75622653 139.57248181 20.76304549 C127.73116711 20.7686232 115.89006862 20.74778735 104.04880446 20.71468502 C91.89765298 20.68097929 79.74660518 20.66577567 67.59540606 20.67040205 C60.7703818 20.67264971 53.94555745 20.66736053 47.12057304 20.64250946 C40.70523184 20.6193493 34.2902276 20.622041 27.87487411 20.64243698 C25.51534427 20.64586376 23.15578457 20.64068688 20.79629517 20.6264534 C17.58492818 20.60841206 14.37511886 20.62089783 11.16380119 20.64139557 C10.22130374 20.62887772 9.2788063 20.61635987 8.30774832 20.6034627 C3.21661601 20.53434435 3.21661601 20.53434435 -0.56221962 23.62078857 Z M-9.47792244 56.26285553 C-10.46792244 56.92285553 -11.45792244 57.58285553 -12.47792244 58.26285553 C-12.91286844 61.35202057 -12.91286844 61.35202057 -12.80604744 64.98551178 C-12.80417427 65.64619156 -12.8023011 66.30687134 -12.80037117 66.98757172 C-12.79364854 68.3838277 -12.77972961 69.78006478 -12.75917244 71.17618561 C-12.72799324 73.32048667 -12.71820042 75.46405332 -12.71229744 77.60855865 C-13.3015576 83.91902494 -13.3015576 83.91902494 -11.47792244 89.26285553 C-9.4783388 89.30366336 -7.4774699 89.30539909 -5.47792244 89.26285553 C-4.04283023 86.39267112 -4.36633738 83.9274183 -4.38026619 80.72379303 C-4.38510017 78.77086334 -4.38510017 78.77086334 -4.39003181 76.77848053 C-4.39838778 75.39827154 -4.40685273 74.01806321 -4.41542244 72.63785553 C-4.42043743 71.24983627 -4.42500034 69.86181531 -4.42909431 68.47379303 C-4.44091268 65.07010421 -4.4573881 61.66650114 -4.47792244 58.26285553 C-6.80646707 57.06447344 -6.80646707 57.06447344 -9.47792244 56.26285553 Z M-35.47792244 86.26285553 C-47.31286878 91.38129612 -56.90446704 101.40314701 -63.47792244 112.26285553 C-63.87624275 112.90609772 -64.27456306 113.5493399 -64.68495369 114.21207428 C-68.16894887 120.43629039 -68.77253155 125.87282834 -70.47792244 133.26285553 C-29.55792244 133.26285553 11.36207756 133.26285553 53.52207756 133.26285553 C48.34121113 112.53938981 39.62184976 99.25041529 21.61192131 87.99332428 C18.82148518 86.09997654 18.82148518 86.09997654 16.52207756 86.26285553 C16.35192131 86.98730865 16.18176506 87.71176178 16.00645256 88.45816803 C13.93130047 96.7367003 11.51681748 102.23171405 4.40098381 107.18473053 C-1.4883272 110.56404412 -6.80005665 111.01297196 -13.47792244 110.26285553 C-18.83444456 108.6641397 -23.3865776 106.09849132 -27.47792244 102.26285553 C-27.97292244 101.27285553 -27.97292244 101.27285553 -28.47792244 100.26285553 C-29.13792244 100.26285553 -29.79792244 100.26285553 -30.47792244 100.26285553 C-31.42556879 96.5980639 -32.15680051 92.90323788 -32.88026619 89.18863678 C-33.17610603 88.23537506 -33.17610603 88.23537506 -33.47792244 87.26285553 C-34.13792244 86.93285553 -34.79792244 86.60285553 -35.47792244 86.26285553 Z M-88.47792244 156.26285553 C-88.18808975 159.56969019 -88.18808975 159.56969019 -86.47792244 162.26285553 C-84.47031431 162.36617546 -82.45902114 162.39808341 -80.44876289 162.40329742 C-79.13767052 162.40900757 -77.82657814 162.41471771 -76.47575569 162.42060089 C-75.0091115 162.42184638 -73.5424672 162.42297144 -72.07582283 162.42398834 C-70.54199287 162.42861404 -69.00816407 162.43363836 -67.47433662 162.43903351 C-63.29670928 162.45218247 -59.11909803 162.45860717 -54.94145322 162.46304417 C-52.33447631 162.46597054 -49.72750385 162.47007448 -47.12052917 162.47454834 C-38.97266569 162.48822911 -30.8248123 162.49789324 -22.67693812 162.50175023 C-13.25493053 162.50623424 -3.83306779 162.52379557 5.58889574 162.55275083 C12.86107685 162.57432776 20.1332171 162.58445235 27.4054299 162.58579135 C31.75388271 162.58684214 36.10219948 162.59280791 40.45061874 162.61061096 C44.53899536 162.62702322 48.62713269 162.62928079 52.7155304 162.62047195 C54.21921362 162.61969791 55.72290935 162.62409224 57.22656059 162.63393021 C59.27298003 162.64653808 61.31949448 162.63902225 63.36593437 162.63034821 C64.51318961 162.63181477 65.66044485 162.63328133 66.8424654 162.63479233 C67.72673741 162.51205318 68.61100943 162.38931404 69.52207756 162.26285553 C71.80807784 159.55953248 71.80807784 159.55953248 71.20957756 157.13785553 C70.6762927 155.276917 70.6762927 155.276917 69.52207756 154.26285553 C67.51440882 154.16172846 65.5031299 154.13208013 63.49291801 154.12914276 C62.18182564 154.12487778 60.87073326 154.12061279 59.51991081 154.11621857 C58.0532665 154.11656813 56.5866222 154.11702969 55.11997795 154.11759186 C53.58614838 154.11460202 52.05231956 154.1111999 50.51849174 154.10741425 C46.34085995 154.09855225 42.16324862 154.09623521 37.98560834 154.09559846 C34.50379958 154.09465119 31.02199564 154.09097501 27.54018873 154.08742636 C19.32882694 154.07927346 11.11747613 154.07684289 2.90611076 154.0775528 C-5.57753291 154.07815383 -14.06111303 154.06759887 -22.54474062 154.05180913 C-29.81692173 154.03875412 -37.08908203 154.03336804 -44.36127478 154.0340082 C-48.70969374 154.03426379 -53.05805628 154.0313793 -57.40646362 154.02083015 C-61.49480316 154.01118336 -65.58303194 154.01104632 -69.67137527 154.01834679 C-71.17505364 154.01939691 -72.67873878 154.01700461 -74.18240547 154.01098633 C-76.22884964 154.00332383 -78.27533117 154.00908436 -80.32177925 154.01561737 C-81.46903449 154.0150726 -82.61628973 154.01452784 -83.79831028 154.01396656 C-86.63015198 153.98929848 -86.63015198 153.98929848 -88.47792244 156.26285553 Z M-83.47792244 183.26285553 C-83.14792244 186.23285553 -82.81792244 189.20285553 -82.47792244 192.26285553 C-81.97792244 197.20035553 -81.97792244 197.20035553 -81.75917244 199.41519928 C-81.561142 201.35268443 -81.561142 201.35268443 -80.47792244 203.26285553 C-78.45271729 203.69307166 -78.45271729 203.69307166 -76.10292244 203.82535553 C-73.28314779 204.05038641 -71.19128541 204.35840121 -68.47792244 205.26285553 C-66.23894795 208.56239688 -65.9104696 212.13443974 -65.29042244 216.01285553 C-62.9376925 228.85860256 -57.40076206 241.58106173 -48.47792244 251.26285553 C-47.81792244 251.26285553 -47.15792244 251.26285553 -46.47792244 251.26285553 C-46.47792244 251.92285553 -46.47792244 252.58285553 -46.47792244 253.26285553 C-35.73389076 262.53853621 -24.89503162 268.66852184 -10.41542244 268.63785553 C-9.68879402 268.6376944 -8.9621656 268.63753326 -8.21351814 268.63736725 C0.60672334 268.45562493 9.73798823 266.52968968 17.52207756 262.26285553 C17.52207756 261.60285553 17.52207756 260.94285553 17.52207756 260.26285553 C18.10215569 260.16230865 18.68223381 260.06176178 19.27989006 259.95816803 C29.22979484 256.87265749 36.93922845 243.88780459 41.52207756 235.26285553 C43.51278551 230.98320623 44.97163462 227.05813081 44.52207756 222.26285553 C45.18207756 222.26285553 45.84207756 222.26285553 46.52207756 222.26285553 C46.68063225 221.38242584 46.83918694 220.50199615 47.00254631 219.59488678 C48.88123315 210.2429705 48.88123315 210.2429705 51.64707756 206.01285553 C55.53174909 203.64827286 59.03592274 203.37036687 63.52207756 203.26285553 C65.51554336 196.35217409 65.89826574 190.74859733 66.52207756 183.26285553 C17.02207756 183.26285553 -32.47792244 183.26285553 -83.47792244 183.26285553 Z M-34.47792244 285.26285553 C-34.47792244 289.22285553 -34.47792244 293.18285553 -34.47792244 297.26285553 C-32.01631227 298.49366062 -30.41295251 298.3832953 -27.66102791 298.37638092 C-26.66014137 298.37630539 -25.65925484 298.37622986 -24.62803841 298.37615204 C-23.54467201 298.37099075 -22.46130562 298.36582947 -21.34510994 298.36051178 C-20.23813759 298.35909683 -19.13116524 298.35768188 -17.99064827 298.35622406 C-14.44471251 298.35061325 -10.89883921 298.3380589 -7.35292244 298.32535553 C-4.95318377 298.32034192 -2.55344411 298.31577877 -0.15370369 298.31168365 C5.73824757 298.30064031 11.63015196 298.28336839 17.52207756 298.26285553 C17.52207756 293.97285553 17.52207756 289.68285553 17.52207756 285.26285553 C16.57332756 285.55160553 15.62457756 285.84035553 14.64707756 286.13785553 C13.27346505 286.51790642 11.89834007 286.8925158 10.52207756 287.26285553 C9.85434319 287.45363678 9.18660881 287.64441803 8.49864006 287.84098053 C-4.20811958 290.96193904 -18.09890253 290.23814811 -30.47792244 286.26285553 C-31.79792244 285.93285553 -33.11792244 285.60285553 -34.47792244 285.26285553 Z M-85.47792244 307.26285553 C-85.48203133 308.99777252 -85.48614021 310.73268951 -85.49037361 312.52017975 C-85.50986275 318.28790323 -85.5523161 324.0552193 -85.61001301 329.82266808 C-85.6441315 333.31551116 -85.66936904 336.80792394 -85.67347908 340.30094147 C-85.67862332 344.32782464 -85.72388883 348.35342916 -85.77089119 352.38004303 C-85.76695854 353.61898315 -85.76302589 354.85792328 -85.75897408 356.13440704 C-85.88541806 363.73316867 -86.75157108 370.09935197 -91.47792244 376.26285553 C-93.78792244 378.24285553 -96.09792244 380.22285553 -98.47792244 382.26285553 C-98.47792244 393.81285553 -98.47792244 405.36285553 -98.47792244 417.26285553 C-39.07792244 417.26285553 20.32207756 417.26285553 81.52207756 417.26285553 C81.52207756 406.04285553 81.52207756 394.82285553 81.52207756 383.26285553 C79.21207756 381.28285553 76.90207756 379.30285553 74.52207756 377.26285553 C72.99864006 375.03238678 72.99864006 375.03238678 72.14707756 373.07535553 C71.702351 372.0950235 71.702351 372.0950235 71.24864006 371.09488678 C69.7781624 367.38706944 69.37602282 364.47718808 69.31675529 360.50626373 C69.29681007 359.32526596 69.27686485 358.14426819 69.25631523 356.9274826 C69.23124649 355.01487892 69.23124649 355.01487892 69.20567131 353.06363678 C69.18489021 351.75831497 69.16410912 350.45299316 69.14269829 349.10811615 C69.08755483 345.641032 69.03811161 342.17388907 68.989851 338.70670319 C68.93957946 335.16742484 68.88392293 331.62823164 68.82871819 328.0890274 C68.72123116 321.1470424 68.62026302 314.20497826 68.52207756 307.26285553 C64.89207756 307.26285553 61.26207756 307.26285553 57.52207756 307.26285553 C57.53367912 308.57512115 57.54528069 309.88738678 57.55723381 311.23941803 C57.62722951 322.8777936 57.48425986 334.50470832 57.14707756 346.13785553 C57.10079216 348.0339859 57.10079216 348.0339859 57.0535717 349.96842194 C56.83876591 356.66625417 56.24394498 362.7813546 54.52207756 369.26285553 C53.86207756 369.26285553 53.20207756 369.26285553 52.52207756 369.26285553 C52.15082756 369.98473053 51.77957756 370.70660553 51.39707756 371.45035553 C47.7237772 376.96030608 41.76539925 379.52572463 35.52207756 381.26285553 C32.6317918 381.54066629 29.75994762 381.53648087 26.85801506 381.52164459 C26.00846245 381.52514923 25.15890984 381.52865387 24.2836132 381.53226471 C21.48801709 381.54103466 18.69267605 381.53524962 15.89707756 381.52848053 C13.94704452 381.52982854 11.9970118 381.53177021 10.0469799 381.53427887 C5.96507878 381.53722372 1.88326534 381.53295302 -2.19862556 381.52359772 C-7.42404854 381.5122036 -12.64926603 381.51876649 -17.87468147 381.53074265 C-21.89989449 381.53797848 -25.92505901 381.53566538 -29.95027351 381.53048706 C-31.87674674 381.52915534 -33.80322442 381.53078153 -35.72969246 381.53544617 C-38.4245332 381.54053971 -41.11904371 381.53276145 -43.81385994 381.52164459 C-45.00166054 381.52771729 -45.00166054 381.52771729 -46.21345711 381.53391266 C-52.84153645 381.48340064 -57.95888221 379.94260313 -63.54042244 376.26285553 C-64.356399 375.74723053 -65.17237556 375.23160553 -66.01307869 374.70035553 C-72.28140644 368.50156549 -74.04327882 361.34833493 -74.1968708 352.74427032 C-74.19293816 351.59282532 -74.18900551 350.44138031 -74.18495369 349.25504303 C-74.200075 348.04841003 -74.2151963 346.84177704 -74.23077583 345.59857941 C-74.27345905 341.77814512 -74.28247279 337.95850394 -74.29042244 334.13785553 C-74.31358157 331.53366806 -74.33894982 328.92949925 -74.36659431 326.32535553 C-74.42925626 319.97111933 -74.46174269 313.6173732 -74.47792244 307.26285553 C-78.10792244 307.26285553 -81.73792244 307.26285553 -85.47792244 307.26285553 Z M-53.47792244 320.26285553 C-55.2874739 340.96524339 -55.2874739 340.96524339 -51.47792244 360.26285553 C-40.42985813 360.30912564 -29.38181673 360.34469757 -18.33367538 360.36647987 C-13.20398863 360.37693246 -8.074368 360.39111846 -2.94471931 360.41373444 C2.00247793 360.43541036 6.94961144 360.44741304 11.89685249 360.45261002 C13.78756654 360.45631524 15.67827697 360.46355026 17.568964 360.47431564 C20.21015113 360.48876086 22.85107236 360.49083641 25.4922924 360.48990631 C26.27991463 360.49709686 27.06753685 360.50428741 27.87902641 360.51169586 C32.16333748 360.65435495 32.16333748 360.65435495 35.52207756 358.26285553 C35.85207756 345.72285553 36.18207756 333.18285553 36.52207756 320.26285553 C6.82207756 320.26285553 -22.87792244 320.26285553 -53.47792244 320.26285553 Z M89.52207756 339.26285553 C89.43486837 342.84603511 89.38161644 346.4289412 89.33457756 350.01285553 C89.30944084 351.02863678 89.28430412 352.04441803 89.25840569 353.09098053 C89.24873772 354.07066803 89.23906975 355.05035553 89.22910881 356.05973053 C89.21339836 356.96046295 89.19768791 357.86119537 89.18150139 358.78922272 C89.5890212 361.74907274 90.46828223 363.12199002 92.52207756 365.26285553 C93.18207756 365.26285553 93.84207756 365.26285553 94.52207756 365.26285553 C94.52207756 365.92285553 94.52207756 366.58285553 94.52207756 367.26285553 C95.18207756 367.26285553 95.84207756 367.26285553 96.52207756 367.26285553 C96.52207756 367.92285553 96.52207756 368.58285553 96.52207756 369.26285553 C97.18207756 369.26285553 97.84207756 369.26285553 98.52207756 369.26285553 C99.18207756 371.24285553 99.84207756 373.22285553 100.52207756 375.26285553 C101.18207756 375.26285553 101.84207756 375.26285553 102.52207756 375.26285553 C102.52207756 389.12285553 102.52207756 402.98285553 102.52207756 417.26285553 C112.75207756 417.26285553 122.98207756 417.26285553 133.52207756 417.26285553 C133.52207756 410.99569059 133.35363138 405.28592829 132.64707756 399.13785553 C132.56844475 398.37859772 132.48981194 397.6193399 132.40879631 396.83707428 C130.23000944 377.36207168 119.98284791 362.06274108 105.52207756 349.26285553 C100.4480625 345.29058377 95.323368 342.07128371 89.52207756 339.26285553 Z M-115.10292244 343.63785553 C-116.10581306 344.2643399 -117.10870369 344.89082428 -118.14198494 345.53629303 C-118.91284431 346.10605865 -119.68370369 346.67582428 -120.47792244 347.26285553 C-120.47792244 347.92285553 -120.47792244 348.58285553 -120.47792244 349.26285553 C-121.025774 349.48586334 -121.57362556 349.70887115 -122.13807869 349.93863678 C-135.22141788 357.34306413 -143.20492517 372.27475781 -147.59510994 386.06754303 C-150.49104227 396.54928041 -150.47792244 406.25845181 -150.47792244 417.26285553 C-140.57792244 417.26285553 -130.67792244 417.26285553 -120.47792244 417.26285553 C-120.44053963 414.68473053 -120.40315681 412.10660553 -120.36464119 409.45035553 C-120.31832514 406.93155567 -120.26712835 404.41289851 -120.21547127 401.89420319 C-120.18237951 400.15438381 -120.15429937 398.41446114 -120.13148689 396.67447662 C-120.09764889 394.16182512 -120.04532218 391.65010687 -119.98964119 389.13785553 C-119.9800563 387.9857962 -119.9800563 387.9857962 -119.97027779 386.81046295 C-119.74887041 378.53137027 -117.21240466 372.27706859 -111.47792244 366.26285553 C-110.77312752 365.82223785 -110.0683326 365.38162018 -109.34218025 364.92765045 C-107.24379336 363.39563464 -107.24379336 363.39563464 -107.02382088 360.81095123 C-107.04476814 359.86308746 -107.06571541 358.91522369 -107.08729744 357.93863678 C-107.10018806 356.91060944 -107.11307869 355.88258209 -107.12635994 354.8234024 C-107.15987556 353.75154694 -107.19339119 352.67969147 -107.22792244 351.57535553 C-107.24596931 350.4918985 -107.26401619 349.40844147 -107.28260994 348.2921524 C-107.32978736 345.61483407 -107.39559995 342.93928644 -107.47792244 340.26285553 C-110.59237837 340.26285553 -112.50372388 341.99236807 -115.10292244 343.63785553 Z " fill="#555050" transform="translate(201.4779224395752,56.737144470214844)"/>
<path d="M0 0 C2.27434221 2.29515999 2.95373482 3.55832178 3.29296875 6.796875 C3.25816406 7.77140625 3.22335937 8.7459375 3.1875 9.75 C3.14689453 11.22726563 3.14689453 11.22726563 3.10546875 12.734375 C3.07066406 13.48203125 3.03585937 14.2296875 3 15 C3.54785156 14.95359375 4.09570312 14.9071875 4.66015625 14.859375 C13.82143576 14.4422761 24.76119346 16.17972407 32.4375 21.5625 C35.3174868 24.40575228 35.39684129 26.91585823 35.4375 30.875 C35.32572126 32.58589908 35.19100371 34.29612567 35 36 C34.34 36 33.68 36 33 36 C32.67 36.99 32.34 37.98 32 39 C28.86072615 41.17985532 26.53082035 41.14336498 22.8125 40.6875 C21.93207031 40.58824219 21.05164063 40.48898438 20.14453125 40.38671875 C18 40 18 40 17 39 C15.4043624 38.6279752 13.79789665 38.30180201 12.1875 38 C9.08653867 37.41370303 6.06598099 36.76649525 3 36 C3.33 46.23 3.66 56.46 4 67 C8.94745277 68.4750652 8.94745277 68.4750652 13.90063477 69.93066406 C18.70762531 71.39842873 22.71763398 73.36642931 27 76 C27 76.66 27 77.32 27 78 C27.59683594 78.26554687 28.19367188 78.53109375 28.80859375 78.8046875 C33.94652757 81.60719686 37.62282321 86.91745632 39.4765625 92.40234375 C40.70588422 98.50308215 40.78162565 104.79515629 41 111 C40.34 111 39.68 111 39 111 C39.0825 111.70125 39.165 112.4025 39.25 113.125 C38.91553181 116.97138418 37.36503039 119.00893216 35 122 C34.34 122 33.68 122 33 122 C33 122.66 33 123.32 33 124 C32.34 124 31.68 124 31 124 C31 124.66 31 125.32 31 126 C30.34 126 29.68 126 29 126 C29 126.66 29 127.32 29 128 C21.60443272 134.41306438 12.73932663 137.63517348 3 137 C3.02320313 137.74765625 3.04640625 138.4953125 3.0703125 139.265625 C3.08835937 140.25046875 3.10640625 141.2353125 3.125 142.25 C3.14820313 143.22453125 3.17140625 144.1990625 3.1953125 145.203125 C2.99429463 148.08170091 2.59161629 149.61784582 1 152 C-2.70896464 154.47264309 -5.701551 154.76100945 -10 154 C-13 152.25 -13 152.25 -15 149 C-15.40407355 144.96451217 -15.28999023 141.04053053 -15 137 C-16.28519531 137.04640625 -17.57039063 137.0928125 -18.89453125 137.140625 C-24.08512276 137.13656112 -28.70313833 136.11700216 -33.6875 134.75 C-34.91049805 134.44255859 -34.91049805 134.44255859 -36.15820312 134.12890625 C-42.06541529 132.55301295 -46.29548502 130.43406348 -50.875 126.3125 C-52.64909569 122.66574774 -52.22982999 118.98371984 -52 115 C-51.34 115 -50.68 115 -50 115 C-49.731875 114.38125 -49.46375 113.7625 -49.1875 113.125 C-48 111 -48 111 -45 109 C-41.1469007 108.63650007 -38.72168714 108.62735074 -35.25390625 110.41796875 C-31.64612671 112.17205124 -28.16507237 112.94813091 -24.25 113.625 C-17.20945946 114.89527027 -17.20945946 114.89527027 -15 116 C-15 106.1 -15 96.2 -15 86 C-16.65 85.67 -18.3 85.34 -20 85 C-31.34499222 81.40171937 -41.59445916 76.77997379 -47.8828125 66.24609375 C-51.84675775 58.2766234 -52.36188063 48.84735662 -49.875 40.3125 C-46.01029552 30.22831761 -37.61044822 22.21462218 -27.87890625 17.77734375 C-23.38067853 15.91633062 -19.86600374 14.90186211 -15 15 C-15.05800781 14.26394531 -15.11601562 13.52789062 -15.17578125 12.76953125 C-15.54706139 4.73927215 -15.54706139 4.73927215 -12.6875 0.875 C-7.86913226 -2.48665191 -5.39415513 -2.02280817 0 0 Z M-26.65234375 43.33203125 C-28.94817647 46.17354015 -28.52917346 49.0399098 -28.40625 52.55859375 C-28.13492932 55.24328395 -28.13492932 55.24328395 -26 57.9375 C-22.39469579 60.5936879 -22.39469579 60.5936879 -15 63 C-15 54.75 -15 46.5 -15 38 C-20.24116359 38 -22.66771457 40.1198361 -26.65234375 43.33203125 Z M3 91 C3 99.25 3 107.5 3 116 C11.2967148 113.94346149 11.2967148 113.94346149 16.8125 108.1875 C18.13767666 104.63044686 18.77795537 102.73418578 18 99 C13.69165596 93.51665304 10.01085242 92.75271311 3 91 Z " fill="#555050" transform="translate(378,208)"/>
<path d="M0 0 C1.09066772 -0.00997513 2.18133545 -0.01995026 3.30505371 -0.03022766 C4.49684235 -0.03089233 5.68863098 -0.03155701 6.91653442 -0.03224182 C8.80490021 -0.0447271 8.80490021 -0.0447271 10.73141479 -0.0574646 C14.18189291 -0.07939158 17.63228241 -0.08820597 21.08282232 -0.09329104 C23.23975643 -0.09693658 25.3966674 -0.10317763 27.55359268 -0.11029243 C35.08181018 -0.13478012 42.60995883 -0.14783747 50.13821411 -0.15138245 C57.15022026 -0.15501783 64.16178873 -0.18491461 71.17366111 -0.22678703 C77.19842935 -0.26150066 83.2230526 -0.27693106 89.24792016 -0.27762848 C92.84428485 -0.27842091 96.44020353 -0.28714286 100.03646469 -0.31562614 C104.04888463 -0.34669564 108.06026378 -0.3377423 112.07278442 -0.32521057 C113.85439468 -0.34746201 113.85439468 -0.34746201 115.67199707 -0.37016296 C124.64867646 -0.29021725 124.64867646 -0.29021725 128.35601807 2.68051147 C131.68495523 6.4873627 131.54506978 8.29815182 131.62405396 13.27415466 C131.18655396 15.77415466 131.18655396 15.77415466 130.62405396 17.27415466 C129.96405396 17.27415466 129.30405396 17.27415466 128.62405396 17.27415466 C128.62405396 17.93415466 128.62405396 18.59415466 128.62405396 19.27415466 C122.82917045 23.10257556 117.13959562 22.69786649 110.36404419 22.66233826 C109.13249603 22.66759521 107.90094788 22.67285217 106.63208008 22.67826843 C103.26630891 22.68918746 99.90109312 22.68666023 96.53535342 22.67713118 C93.0076263 22.66951604 89.4799223 22.67658517 85.95219421 22.68128967 C80.03002683 22.68674113 74.10797184 22.67957095 68.18582153 22.66526794 C61.34426387 22.64893497 54.50297434 22.65423693 47.66142315 22.67074716 C41.78014536 22.68437049 35.89894819 22.6862778 30.01765972 22.67843115 C26.50812673 22.67376023 22.99871971 22.67311385 19.48919487 22.68304062 C15.57758062 22.69333282 11.66626572 22.679059 7.75466919 22.66233826 C6.59452805 22.66841095 5.4343869 22.67448364 4.23908997 22.68074036 C3.17229004 22.67228088 2.10549011 22.66382141 1.00636292 22.65510559 C-0.37984678 22.65340898 -0.37984678 22.65340898 -1.79406071 22.65167809 C-6.29887581 21.99298376 -8.82695713 19.90982604 -11.75094604 16.52415466 C-13.74242431 12.54119813 -13.44054796 10.53256233 -12.37594604 6.27415466 C-12.04594604 5.61415466 -11.71594604 4.95415466 -11.37594604 4.27415466 C-10.71594604 4.27415466 -10.05594604 4.27415466 -9.37594604 4.27415466 C-9.37594604 3.61415466 -9.37594604 2.95415466 -9.37594604 2.27415466 C-6.14160527 0.36374902 -3.73508837 0.01833862 0 0 Z " fill="#555050" transform="translate(293.3759460449219,132.72584533691406)"/>
<path d="M0 0 C1.93970421 -0.00613312 1.93970421 -0.00613312 3.91859436 -0.01239014 C7.4580945 -0.0226407 10.9964277 0.00437152 14.53574038 0.03866386 C18.2405436 0.068775 21.94533293 0.06638865 25.65023804 0.06799316 C31.8694039 0.0753729 38.08812756 0.10528118 44.30712891 0.15039062 C52.2916499 0.20818797 60.27581538 0.22884286 68.26052284 0.23775482 C75.12517254 0.24571262 81.98974487 0.27071231 88.85433912 0.29844856 C91.06141579 0.30664567 93.26848972 0.31249725 95.47557449 0.31803894 C99.58411706 0.32964066 103.69234417 0.35899116 107.80078125 0.390625 C109.63829201 0.39397858 109.63829201 0.39397858 111.51292419 0.3973999 C113.18689522 0.41453033 113.18689522 0.41453033 114.89468384 0.43200684 C115.8662121 0.43795616 116.83774036 0.44390549 117.83870888 0.4500351 C120.27099609 0.71289062 120.27099609 0.71289062 123.27099609 2.71289062 C123.27099609 3.37289062 123.27099609 4.03289062 123.27099609 4.71289062 C123.93099609 4.71289062 124.59099609 4.71289062 125.27099609 4.71289062 C126.75010186 7.0620586 127.29909606 8.34759109 127.08349609 11.15039062 C125.5823388 15.88480979 123.51962408 19.09819394 119.27099609 21.71289062 C116.74130917 22.08762074 116.74130917 22.08762074 113.8368988 22.08711243 C112.73348145 22.09412674 111.63006409 22.10114105 110.49320984 22.10836792 C109.28735733 22.10072418 108.08150482 22.09308044 106.83911133 22.08520508 C104.92888687 22.09068108 104.92888687 22.09068108 102.98007202 22.0962677 C99.49044839 22.10566871 96.00110562 22.09625862 92.51150393 22.08293557 C88.86005027 22.07161646 85.20861033 22.07572887 81.55714417 22.0776825 C75.42631442 22.07856521 69.29559529 22.06748882 63.16479492 22.04907227 C56.07448485 22.02789551 48.98433672 22.02439688 41.89400142 22.03063422 C35.07455139 22.03632632 28.25515844 22.03068466 21.43571663 22.01946068 C18.53266406 22.0148136 15.62964639 22.01394129 12.72659111 22.01604652 C8.67546965 22.01827769 4.62457564 22.00382967 0.57348633 21.98754883 C-0.63439041 21.99002625 -1.84226715 21.99250366 -3.08674622 21.99505615 C-4.18734375 21.98797134 -5.28794128 21.98088654 -6.42189026 21.97358704 C-7.85900785 21.97050773 -7.85900785 21.97050773 -9.32515812 21.96736622 C-11.72900391 21.71289062 -11.72900391 21.71289062 -14.72900391 19.71289062 C-14.72900391 19.05289063 -14.72900391 18.39289063 -14.72900391 17.71289062 C-15.38900391 17.71289062 -16.04900391 17.71289062 -16.72900391 17.71289062 C-18.53236435 15.06088997 -18.72688023 13.59821223 -18.66650391 10.33789062 C-15.89661691 -0.3723391 -9.85186609 -0.14870741 0 0 Z " fill="#555050" transform="translate(298.72900390625,95.287109375)"/>
<path d="M0 0 C1.55208664 -0.0076664 1.55208664 -0.0076664 3.13552856 -0.01548767 C6.55338334 -0.02937927 9.97103638 -0.02842725 13.38891602 -0.02612305 C15.76636327 -0.03001008 18.14380983 -0.03434477 20.52125549 -0.03910828 C25.50361381 -0.04656947 30.48590125 -0.04627981 35.46826172 -0.04101562 C41.85175114 -0.03521985 48.23495053 -0.05215537 54.61839199 -0.0753603 C59.52803746 -0.09009433 64.43761302 -0.09096979 69.34727669 -0.08785057 C71.7007918 -0.0883639 74.05431082 -0.09360385 76.40780449 -0.10366249 C79.69914461 -0.11600342 82.98991889 -0.10924893 86.28125 -0.09765625 C87.25235214 -0.10529999 88.22345428 -0.11294373 89.22398376 -0.12081909 C95.3642569 -0.07303473 99.5449335 0.84358992 104.53344727 4.6809082 C106.04412342 6.73542777 106.23623552 8.24673422 106.45532227 10.7746582 C106.57133789 11.93481445 106.57133789 11.93481445 106.68969727 13.1184082 C106.70532227 15.2746582 106.70532227 15.2746582 105.70532227 18.2746582 C100.47792252 23.00164768 95.66357242 22.84661582 88.83813477 22.79223633 C87.21267731 22.80275024 87.21267731 22.80275024 85.55438232 22.81347656 C81.97943345 22.8310532 78.40527892 22.81943422 74.83032227 22.8059082 C72.34220223 22.80860319 69.85408323 22.81248567 67.3659668 22.81750488 C61.4870709 22.82415394 55.60846233 22.81017378 49.72960854 22.78890181 C45.04626668 22.77388349 40.36326102 22.77919647 35.67993164 22.79614258 C29.21496846 22.81933273 22.75032996 22.82296293 16.28533936 22.80992126 C13.82297693 22.80725418 11.36060064 22.81052308 8.89825439 22.81983948 C5.45596731 22.8300055 2.01471951 22.81450151 -1.42749023 22.79223633 C-2.95191742 22.80438171 -2.95191742 22.80438171 -4.50714111 22.81677246 C-10.41758453 22.7459993 -13.77280662 22.17805789 -18.29467773 18.2746582 C-20.41793999 15.59750145 -20.29601358 14.31139394 -20.16967773 10.8371582 C-19.20421503 6.90634575 -18.18090179 5.08070937 -15.29467773 2.2746582 C-10.46630515 -0.43192925 -5.37605037 -0.01368653 0 0 Z " fill="#555050" transform="translate(318.294677734375,169.725341796875)"/>
<path d="M0 0 C1.26496307 0.00718552 2.52992615 0.01437103 3.83322144 0.02177429 C5.21580718 0.03570893 6.59838587 0.05035969 7.98095703 0.06567383 C9.02659506 0.07610938 9.02659506 0.07610938 10.09335709 0.08675575 C13.78205919 0.12413164 17.47061656 0.16813094 21.15917969 0.21728516 C24.96439308 0.26663757 28.76939697 0.29282521 32.57485771 0.31371593 C35.50564058 0.33411158 38.4360137 0.37199693 41.36655045 0.41457558 C42.76905922 0.43188683 44.17166584 0.44260403 45.57427597 0.44652367 C47.53925508 0.45362434 49.50407808 0.48797526 51.46875 0.5234375 C52.58555145 0.53533615 53.70235291 0.5472348 54.85299683 0.55949402 C58.53646492 1.20266443 60.20204541 2.50750626 62.86376953 5.08520508 C64.40945241 7.82527927 64.8956788 9.4470197 64.73876953 12.58520508 C63.43585073 16.30783023 61.45609274 19.05861846 58.1166687 21.21157837 C55.19416659 22.34486296 52.76458868 22.35420242 49.62988281 22.37573242 C47.73739304 22.39487198 47.73739304 22.39487198 45.80667114 22.41439819 C44.43247634 22.41745594 43.05827947 22.41968365 41.68408203 22.42114258 C40.26927557 22.4275729 38.85447044 22.43430144 37.43966675 22.4413147 C34.47569701 22.45327967 31.51184375 22.45699635 28.54785156 22.45581055 C24.75925835 22.45560744 20.97141596 22.48290356 17.18300056 22.51735497 C14.26094161 22.53964901 11.33906262 22.54364733 8.41692734 22.54259109 C7.02073454 22.54494352 5.62453652 22.55374695 4.22842789 22.56925583 C2.27119947 22.58896183 0.31374988 22.58054346 -1.64355469 22.57104492 C-3.31090164 22.57531998 -3.31090164 22.57531998 -5.01193237 22.5796814 C-8.88651187 21.96645956 -11.07887869 20.49572089 -14.13623047 18.08520508 C-16.00417631 14.3493134 -15.82514644 10.14215468 -15.13623047 6.08520508 C-11.33759364 0.74787991 -6.13835794 -0.04359716 0 0 Z " fill="#555050" transform="translate(361.13623046875,380.914794921875)"/>
<path d="M0 0 C1.98 0 3.96 0 6 0 C6 0.33 6 0.66 6 1 C4.02 1 2.04 1 0 1 C0 0.67 0 0.34 0 0 Z " fill="#555050" transform="translate(381,93)"/>
<path d="M0 0 C1.98 0 3.96 0 6 0 C6 0.33 6 0.66 6 1 C4.02 1 2.04 1 0 1 C0 0.67 0 0.34 0 0 Z " fill="#555050" transform="translate(329,93)"/>
<path d="" fill="#555050" transform="translate(0,0)"/>
<path d="" fill="#555050" transform="translate(0,0)"/>
</svg>
