<?xml version="1.0" encoding="UTF-8"?>
<svg version="1.1" xmlns="http://www.w3.org/2000/svg" width="512" height="512">
<path d="M0 0 C0.73460449 0.19835449 1.46920898 0.39670898 2.22607422 0.60107422 C24.83004626 6.79806285 44.07957734 19.00597729 61 35 C61.81082031 35.74636719 62.62164062 36.49273437 63.45703125 37.26171875 C89.56948707 62.14051524 102.62643548 97.43848025 104 133 C104.63935666 170.43469141 90.87005031 206.0272918 65 233 C64.13117188 233.94359375 63.26234375 234.8871875 62.3671875 235.859375 C37.57133268 262.25718501 2.37503521 275.14141605 -33.23828125 277.01953125 C-40.16713509 276.99111101 -47.08458139 276.43221366 -54 276 C-54 295.47 -54 314.94 -54 335 C-50.04 335 -46.08 335 -42 335 C-42.08701172 333.69675781 -42.08701172 333.69675781 -42.17578125 332.3671875 C-42.59041665 321.77621482 -42.59041665 321.77621482 -39.8125 318.3125 C-35.90181504 315.09704792 -33.82667591 313.88257083 -28.71875 314.2109375 C-24.49033905 315.10814234 -22.32023182 316.47641747 -18.875 319.0625 C-17.99654419 319.7136377 -17.99654419 319.7136377 -17.1003418 320.37792969 C-15.05450129 321.90282526 -13.02671553 323.44978356 -11 325 C-9.36337875 326.24361791 -7.72665476 327.48710061 -6.08984375 328.73046875 C-3.43148399 330.75310133 -0.775356 332.77846515 1.87597656 334.81030273 C8.7466853 340.07243251 15.68925998 345.22812189 22.69604492 350.30761719 C35.22212869 359.44425738 35.22212869 359.44425738 37 363 C37.23828125 364.953125 37.23828125 364.953125 37.3125 367.25 C37.34988281 367.99765625 37.38726562 368.7453125 37.42578125 369.515625 C36.10735957 377.20843406 29.29684673 381.18586526 23.4375 385.5 C22.50655518 386.19706055 21.57561035 386.89412109 20.61645508 387.61230469 C17.75214959 389.75234487 14.87770171 391.87801816 12 394 C11.14728516 394.63099609 10.29457031 395.26199219 9.41601562 395.91210938 C6.22933685 398.26989787 3.0418093 400.62619604 -0.15966797 402.96386719 C-3.96987281 405.74704316 -7.74448207 408.56121842 -11.4609375 411.46875 C-12.17403076 412.02143555 -12.88712402 412.57412109 -13.62182617 413.14355469 C-14.94818736 414.17504702 -16.26683255 415.21658258 -17.57543945 416.27050781 C-21.93325269 419.64210074 -25.53245791 421.12361011 -31 422 C-36.27261834 420.50609147 -39.04230553 418.57677722 -42 414 C-42.390625 410.66796875 -42.390625 410.66796875 -42.25 407.1875 C-42.21390625 406.02605469 -42.1778125 404.86460937 -42.140625 403.66796875 C-42.09421875 402.78753906 -42.0478125 401.90710938 -42 401 C-42.80100128 401.00666183 -43.60200256 401.01332367 -44.42727661 401.02018738 C-51.98948747 401.08038998 -59.55158152 401.12602072 -67.1139698 401.15543652 C-71.00153991 401.17106807 -74.88891138 401.19226004 -78.77636719 401.22631836 C-82.53056659 401.25900201 -86.28457536 401.27687189 -90.0389061 401.28463173 C-91.46859613 401.29015915 -92.89827616 401.3009529 -94.32788467 401.31719017 C-96.33583584 401.33908159 -98.34398031 401.3402264 -100.35205078 401.34057617 C-101.49344513 401.34723801 -102.63483948 401.35389984 -103.81082153 401.36076355 C-109.89051526 400.67302158 -114.22441727 397.71947841 -118 393 C-119.61181719 387.68893418 -120.25176492 383.04973886 -120.25878906 377.4699707 C-120.2622937 376.7648233 -120.26579834 376.0596759 -120.26940918 375.3331604 C-120.27812501 373.03059694 -120.27241564 370.72834715 -120.265625 368.42578125 C-120.26697412 366.81251467 -120.26891671 365.19924848 -120.27142334 363.58598328 C-120.27436045 360.21800841 -120.27012096 356.85014015 -120.26074219 353.48217773 C-120.24932085 349.17143731 -120.25593294 344.86094524 -120.26788712 340.55021381 C-120.27512049 337.22417841 -120.27281147 333.89820173 -120.26763153 330.57216454 C-120.26630055 328.98258624 -120.26792338 327.39300256 -120.27259064 325.80343056 C-120.2776833 323.58275873 -120.26990873 321.36248776 -120.25878906 319.1418457 C-120.25719788 317.88024124 -120.25560669 316.61863678 -120.25396729 315.31880188 C-119.93462572 311.14569983 -119.1246026 308.24955844 -116.3125 305.125 C-112.89855615 303.46416245 -110.61242777 304.08047293 -107 305 C-105.31217957 306.09736633 -105.31217957 306.09736633 -104 308 C-103.69061019 310.51872503 -103.56245768 312.79616781 -103.56762695 315.31713867 C-103.5574353 316.05884811 -103.54724365 316.80055756 -103.53674316 317.56474304 C-103.50655337 320.01589451 -103.49733837 322.46665559 -103.48828125 324.91796875 C-103.47143895 326.61763311 -103.45328932 328.31728497 -103.43388367 330.016922 C-103.38632858 334.49014381 -103.35655498 338.963315 -103.33044434 343.43670654 C-103.30066651 348.00152589 -103.25412669 352.56617068 -103.20898438 357.13085938 C-103.12288867 366.08714838 -103.05557135 375.04347324 -103 384 C-101.72666054 383.99880661 -101.72666054 383.99880661 -100.42759705 383.99758911 C-92.40917185 383.99537703 -84.39145854 384.02188492 -76.37323666 384.0802784 C-72.2513571 384.10929348 -68.13004458 384.12738322 -64.00805664 384.12011719 C-60.02648739 384.11350712 -56.04603692 384.13610208 -52.06469917 384.17855453 C-50.54938301 384.18965627 -49.03395298 384.19041229 -47.51862907 384.18042374 C-34.16907652 384.10373953 -34.16907652 384.10373953 -29.60375977 387.74560547 C-27.29624769 390.25613935 -26.03049346 392.44304798 -25.5625 395.875 C-25.37880859 397.04675781 -25.37880859 397.04675781 -25.19140625 398.2421875 C-25.09666016 399.11230469 -25.09666016 399.11230469 -25 400 C-24.19502075 399.38294189 -24.19502075 399.38294189 -23.3737793 398.75341797 C-13.41951408 391.12945903 -3.44528727 383.53282935 6.625 376.0625 C7.42333252 375.46614746 8.22166504 374.86979492 9.04418945 374.25537109 C10.15540161 373.43480225 10.15540161 373.43480225 11.2890625 372.59765625 C11.93568848 372.11820557 12.58231445 371.63875488 13.24853516 371.14477539 C15 370 15 370 18 369 C18 368.34 18 367.68 18 367 C17.12891602 366.58947388 17.12891602 366.58947388 16.24023438 366.1706543 C14.03840974 365.02007135 12.14963455 363.74845399 10.15625 362.26953125 C9.4135083 361.72055176 8.6707666 361.17157227 7.90551758 360.60595703 C7.11169678 360.01411621 6.31787598 359.42227539 5.5 358.8125 C4.67717529 358.2026123 3.85435059 357.59272461 3.0065918 356.96435547 C-6.35718711 350.01415835 -15.68257158 343.01216172 -25 336 C-25.27972656 337.24910156 -25.55945313 338.49820312 -25.84765625 339.78515625 C-27.0064154 344.40898235 -28.62962058 346.62962058 -32 350 C-37.26440183 351.75480061 -42.8651067 351.22708984 -48.375 351.25 C-50.22351563 351.2809375 -50.22351563 351.2809375 -52.109375 351.3125 C-53.29789062 351.31765625 -54.48640625 351.3228125 -55.7109375 351.328125 C-56.79681152 351.3374707 -57.88268555 351.34681641 -59.00146484 351.35644531 C-62.51462256 350.9388252 -64.2498645 350.22281648 -67 348 C-69.69682267 343.53283293 -70.38488764 340.1702692 -70.43237305 334.98486328 C-70.44766052 333.97405449 -70.44766052 333.97405449 -70.46325684 332.94282532 C-70.49323594 330.73523482 -70.50262909 328.52807927 -70.51171875 326.3203125 C-70.52857673 324.78187637 -70.54672847 323.24345393 -70.56611633 321.70504761 C-70.61350137 317.67081986 -70.64338477 313.63664759 -70.66955566 309.60223389 C-70.69941949 305.47950283 -70.74592972 301.35696271 -70.79101562 297.234375 C-70.87691779 289.15634407 -70.94432091 281.07829553 -71 273 C-71.89678719 272.70892616 -71.89678719 272.70892616 -72.81169128 272.41197205 C-75.55706963 271.51781657 -78.30000814 270.61638743 -81.04296875 269.71484375 C-81.98329956 269.40977905 -82.92363037 269.10471436 -83.89245605 268.79040527 C-90.97449664 266.45442808 -97.4957732 263.67630211 -104 260 C-103.9685791 260.92280762 -103.9685791 260.92280762 -103.93652344 261.86425781 C-103.85322983 264.65933809 -103.80129987 267.45415715 -103.75 270.25 C-103.71648437 271.21808594 -103.68296875 272.18617188 -103.6484375 273.18359375 C-103.54975148 280.33833043 -103.54975148 280.33833043 -105.796875 283.640625 C-109.04486189 285.64470202 -111.26530012 285.53352855 -115 285 C-117.90717073 282.78136971 -118.83981643 281.48055071 -120 278 C-120.03434795 275.88175647 -120.01462337 273.76246832 -119.96484375 271.64453125 C-119.95989095 269.70402273 -119.95503115 267.76351217 -119.95336914 265.82299805 C-119.93769022 263.83659893 -119.87634639 261.85073092 -119.81445312 259.86523438 C-119.75184224 252.65806835 -119.75184224 252.65806835 -123.0534668 246.52124023 C-125.61432343 244.4989755 -128.24790619 242.7497485 -131 241 C-152.69242445 222.44787411 -166.51958529 197.2937079 -174 170 C-174.28593018 168.99864014 -174.28593018 168.99864014 -174.57763672 167.97705078 C-180.32824037 146.87688545 -179.01258519 119.81279488 -173 99 C-172.80164551 98.26539551 -172.60329102 97.53079102 -172.39892578 96.77392578 C-166.20193715 74.16995374 -153.99402271 54.92042266 -138 38 C-137.25363281 37.18917969 -136.50726563 36.37835938 -135.73828125 35.54296875 C-119.11082668 18.0910123 -97.15403261 6.25194432 -74 0 C-73.28215332 -0.20737793 -72.56430664 -0.41475586 -71.82470703 -0.62841797 C-49.44310073 -6.92433346 -22.26906662 -6.43328591 0 0 Z M-120 43 C-120.51272461 43.4635791 -121.02544922 43.9271582 -121.55371094 44.40478516 C-139.50080559 60.84820431 -151.46779129 81.66311487 -158 105 C-158.34160156 106.20269531 -158.68320313 107.40539062 -159.03515625 108.64453125 C-166.45656544 140.5048135 -159.80666124 174.34286245 -143 202 C-138.03662358 209.62689129 -132.23913138 216.39512643 -126 223 C-125.31421875 223.75023437 -124.6284375 224.50046875 -123.921875 225.2734375 C-102.17556266 248.2278783 -70.05914666 260.09397029 -38.890625 260.99609375 C-5.34683349 261.36360541 26.21549184 248.05586957 50.38842773 225.01660156 C74.22438045 201.61085399 87.64004923 169.83324555 88.02294922 136.38867188 C87.68599144 101.31638519 73.26731069 69.57094391 48.44824219 45.03100586 C2.43306353 0.973263 -72.91920926 0.27854173 -120 43 Z " fill="#555050" transform="translate(177,4)"/>
<path d="M0 0 C3.11391046 1.70230265 5.38917771 3.77835542 7 7 C7.07092842 9.2072923 7.08415025 11.41667452 7.0625 13.625 C7.05347656 14.81351563 7.04445313 16.00203125 7.03515625 17.2265625 C7.01775391 18.59941406 7.01775391 18.59941406 7 20 C7.80100128 19.99333817 8.60200256 19.98667633 9.42727661 19.97981262 C16.98948747 19.91961002 24.55158152 19.87397928 32.1139698 19.84456348 C36.00153991 19.82893193 39.88891138 19.80773996 43.77636719 19.77368164 C47.53056659 19.74099799 51.28457536 19.72312811 55.0389061 19.71536827 C56.46859613 19.70984085 57.89827616 19.6990471 59.32788467 19.68280983 C61.33583584 19.66091841 63.34398031 19.6597736 65.35205078 19.65942383 C66.49344513 19.65276199 67.63483948 19.64610016 68.81082153 19.63923645 C75.01761194 20.34135575 78.96555486 23.38920556 83 28 C84.05070406 31.15211218 84.10965085 33.3079791 84.084198 36.61514282 C84.07809006 37.78424194 84.07198212 38.95334106 84.06568909 40.15786743 C84.05416306 41.44204559 84.04263702 42.72622375 84.03076172 44.04931641 C84.02233434 45.4144456 84.01450083 46.77957858 84.00721741 48.14471436 C83.99545974 50.32706306 83.98325804 52.50940187 83.96924853 54.69173741 C83.93467337 60.10802141 83.91852383 65.5241327 83.91360474 70.94052124 C83.91287205 71.72687191 83.91213936 72.51322257 83.91138446 73.32340205 C83.90871947 76.56783414 83.90667273 79.81226634 83.9049089 83.05669904 C83.89912927 92.2619779 83.87542669 101.46640789 83.79785156 110.67138672 C83.73633905 117.9847261 83.71382903 125.29702204 83.73666394 132.61060083 C83.74728363 136.47884162 83.73847525 140.34480056 83.68233871 144.21269608 C83.6298991 147.85651375 83.62946778 151.49674993 83.66770744 155.14070892 C83.67502945 157.10366861 83.6280342 159.06659973 83.57902527 161.02896118 C83.67776083 166.330028 83.81999113 169.65922907 87.40561295 173.73334885 C90.17881102 176.01140115 93.01552685 178.01162578 96 180 C117.61182928 198.78811941 131.47664527 223.54961733 139 251 C139.19062012 251.66757324 139.38124023 252.33514648 139.57763672 253.02294922 C145.32824037 274.12311455 144.01258519 301.18720512 138 322 C137.80164551 322.73460449 137.60329102 323.46920898 137.39892578 324.22607422 C131.20193715 346.83004626 118.99402271 366.07957734 103 383 C102.25363281 383.81082031 101.50726563 384.62164062 100.73828125 385.45703125 C83.23665527 403.82650645 60.26156771 415.35060709 36 422 C35.33242676 422.19062012 34.66485352 422.38124023 33.97705078 422.57763672 C12.87688545 428.32824037 -14.18720512 427.01258519 -35 421 C-35.73460449 420.80164551 -36.46920898 420.60329102 -37.22607422 420.39892578 C-59.83004626 414.20193715 -79.07957734 401.99402271 -96 386 C-96.81082031 385.25363281 -97.62164062 384.50726563 -98.45703125 383.73828125 C-124.65263613 358.78026401 -137.98929836 322.90418784 -139 287.18359375 C-139.3759842 251.78065277 -126.82541557 218.86568073 -104 192 C-103.41734375 191.28199219 -102.8346875 190.56398438 -102.234375 189.82421875 C-99.71516281 186.75154327 -97.71892435 184.45646087 -94 183 C-90.64794489 183.17642395 -88.02608699 183.43730713 -85.0625 185.0625 C-83.19117779 188.47491109 -82.93652898 191.34040856 -84 195 C-85.93288579 197.61801666 -88.10027097 199.85697966 -90.3671875 202.19140625 C-111.80233946 225.05768853 -122.2913731 257.0276591 -122 288 C-120.8270117 322.41702209 -105.91393772 353.36992206 -81.21875 377.0859375 C-58.22331779 398.38060731 -25.7853303 409.96104561 5.44238281 408.91845703 C36.51721841 407.3037958 64.06630735 395.97145157 87 375 C87.79921875 374.28328125 88.5984375 373.5665625 89.421875 372.828125 C105.64771639 357.52289872 116.11156603 337.29159581 122 316 C122.3403125 314.79988281 122.680625 313.59976562 123.03125 312.36328125 C130.46956986 280.5093652 123.80382748 246.6524743 107 219 C102.03629911 211.37261012 96.23389569 204.61036541 90 198 C89.38769531 197.32324219 88.77539062 196.64648438 88.14453125 195.94921875 C67.46552589 173.94746251 35.95283312 162.45727636 6.32836914 161.07446289 C-16.42562905 160.41588448 -38.19117282 166.02441267 -58.21875 176.71875 C-61.91210804 178.4201846 -64.11528521 178.02615108 -68 177 C-70.64764845 175.32315598 -70.95477045 174.14861139 -71.875 171.125 C-72.03030872 167.24228211 -71.33978775 166.07568873 -69 163 C-66.69404515 161.4961164 -64.58913136 160.2961651 -62.125 159.125 C-61.42882568 158.78766846 -60.73265137 158.45033691 -60.01538086 158.1027832 C-42.60465108 149.95109286 -24.50985068 145.42341829 -5.375 144.25 C-4.30258057 144.18256592 -4.30258057 144.18256592 -3.20849609 144.11376953 C4.31860209 143.77568088 11.3448808 144.48965872 19 145 C19 125.53 19 106.06 19 86 C15.04 86 11.08 86 7 86 C7.08701172 87.30324219 7.08701172 87.30324219 7.17578125 88.6328125 C7.59076866 99.23277672 7.59076866 99.23277672 5.0625 102.6875 C1.26779898 105.55288648 -2.17294778 107.30764217 -7 107 C-13.21877637 104.74063895 -18.22133874 100.73803669 -23.3125 96.625 C-24.89937575 95.36638632 -26.48797346 94.1099412 -28.078125 92.85546875 C-28.88958984 92.21528809 -29.70105469 91.57510742 -30.53710938 90.91552734 C-34.48735855 87.84319834 -38.52182639 84.88929483 -42.5625 81.9375 C-48.9042638 77.28840109 -55.22880621 72.61903635 -61.5 67.875 C-62.2122876 67.34253662 -62.9245752 66.81007324 -63.65844727 66.26147461 C-71.55288747 60.25791829 -71.55288747 60.25791829 -72.46875 55.6328125 C-72.48421875 54.39144531 -72.48421875 54.39144531 -72.5 53.125 C-72.5309375 52.30257812 -72.561875 51.48015625 -72.59375 50.6328125 C-71.00242969 43.57656324 -64.04420911 39.55809093 -58.5 35.625 C-56.79302386 34.39234998 -55.08734193 33.15790617 -53.3828125 31.921875 C-52.05685059 30.9618457 -52.05685059 30.9618457 -50.70410156 29.98242188 C-47.1043298 27.34336926 -43.56295675 24.63228799 -40.0246582 21.91162109 C-36.53433705 19.2288367 -33.02614361 16.57000695 -29.51611328 13.91308594 C-27.86558843 12.65813613 -26.22050905 11.39598501 -24.58154297 10.12597656 C-22.3416641 8.39420318 -20.08085236 6.69421572 -17.8125 5 C-16.84352783 4.23405518 -16.84352783 4.23405518 -15.85498047 3.45263672 C-10.83342315 -0.22536012 -6.16785712 -1.11234572 0 0 Z M-14.0234375 23.0078125 C-14.87115723 23.65862793 -15.71887695 24.30944336 -16.59228516 24.97998047 C-17.51058105 25.68783691 -18.42887695 26.39569336 -19.375 27.125 C-26.74391095 32.77454073 -34.14561355 38.3724024 -41.625 43.875 C-42.82261963 44.75696045 -42.82261963 44.75696045 -44.04443359 45.65673828 C-47.00034472 47.82689274 -49.9481532 49.96543546 -53 52 C-51.88024077 55.35927769 -51.26397398 55.80914756 -48.484375 57.79296875 C-47.73736328 58.33348877 -46.99035156 58.87400879 -46.22070312 59.4309082 C-44.99770508 60.30042114 -44.99770508 60.30042114 -43.75 61.1875 C-42.02472308 62.43307145 -40.30081754 63.68054414 -38.578125 64.9296875 C-37.67126953 65.58678711 -36.76441406 66.24388672 -35.83007812 66.92089844 C-30.06587666 71.15553782 -24.41874264 75.54726561 -18.76855469 79.93237305 C-17.92711914 80.57988525 -17.08568359 81.22739746 -16.21875 81.89453125 C-15.47560547 82.47050049 -14.73246094 83.04646973 -13.96679688 83.63989258 C-11.94460313 85.17374221 -11.94460313 85.17374221 -9 86 C-8.86722656 85.31292969 -8.73445313 84.62585938 -8.59765625 83.91796875 C-8.42105469 83.01691406 -8.24445313 82.11585938 -8.0625 81.1875 C-7.88847656 80.29417969 -7.71445312 79.40085938 -7.53515625 78.48046875 C-7 76 -7 76 -6 73 C-0.15944053 69.85518481 6.48640476 70.592047 12.9375 70.5625 C14.20013672 70.52962891 15.46277344 70.49675781 16.76367188 70.46289062 C27.12327977 70.4027557 27.12327977 70.4027557 30.81640625 73.33984375 C34.17738867 77.43435006 34.13965342 80.52424703 34.20532227 85.67456055 C34.21522186 86.347995 34.22512146 87.02142944 34.23532104 87.715271 C34.26688389 89.93905127 34.29167275 92.1628529 34.31640625 94.38671875 C34.33698029 95.92943372 34.35797688 97.4721431 34.37937927 99.0148468 C34.4345535 103.07377602 34.48398325 107.13275573 34.53222656 111.19177246 C34.58247554 115.33427418 34.63814387 119.47670266 34.69335938 123.61914062 C34.80088409 131.74603181 34.90234166 139.8729843 35 148 C36.25068566 148.46960697 37.50142968 148.93905852 38.75219727 149.40844727 C39.79694969 149.8006118 39.79694969 149.8006118 40.86280823 150.20069885 C42.89490554 150.96069509 44.92929281 151.71415452 46.96484375 152.46484375 C48.2890625 152.95572917 49.61328125 153.44661458 50.9375 153.9375 C51.58912109 154.17662109 52.24074219 154.41574219 52.91210938 154.66210938 C58.06542747 156.57879981 62.94794575 158.75464256 68 161 C68 119.75 68 78.5 68 36 C45.51732036 35.75042088 45.51732036 35.75042088 23.03442383 35.52197266 C18.67712402 35.4675293 18.67712402 35.4675293 16.63456726 35.43954468 C15.21399337 35.42190829 13.79336896 35.40808172 12.37272644 35.39730835 C10.21547222 35.38019842 8.05868947 35.35084177 5.90161133 35.31884766 C4.6869368 35.30552399 3.47226227 35.29220032 2.22077942 35.2784729 C-0.96758502 35.00280264 -3.18485018 34.50547115 -6 33 C-7.938548 28.8321218 -8.45523286 24.53972614 -9 20 C-10.93973767 20 -12.5631358 21.88159735 -14.0234375 23.0078125 Z " fill="#555050" transform="translate(370,87)"/>
<path d="M0 0 C1.13953125 0.36222656 2.2790625 0.72445312 3.453125 1.09765625 C16.83598107 5.8657028 28.35044365 12.62474954 39 22 C40.03125 22.78375 41.0625 23.5675 42.125 24.375 C46.62149246 28.48049312 50.2752124 33.19698441 54 38 C54.91652344 39.15822266 54.91652344 39.15822266 55.8515625 40.33984375 C69.32250478 58.3318557 75.4183303 80.52563757 75.3125 102.75 C75.30686035 103.9884668 75.3012207 105.22693359 75.29541016 106.50292969 C74.96058556 131.73080283 65.66737269 155.09560753 49 174 C48.53464844 174.6084375 48.06929687 175.216875 47.58984375 175.84375 C32.6382546 195.23052004 5.52580682 206.5424578 -18 210 C-33.6160707 210.93197656 -49.01713515 210.77333679 -64 206 C-65.13953125 205.63777344 -66.2790625 205.27554688 -67.453125 204.90234375 C-80.83598107 200.1342972 -92.35044365 193.37525046 -103 184 C-104.03125 183.21625 -105.0625 182.4325 -106.125 181.625 C-110.62149246 177.51950688 -114.2752124 172.80301559 -118 168 C-118.61101562 167.22785156 -119.22203125 166.45570313 -119.8515625 165.66015625 C-136.88244215 142.91343343 -141.82178865 113.93653718 -138.67919922 86.16503906 C-134.30572639 58.60631477 -118.65309713 32.84053007 -96.29296875 16.13671875 C-68.62406507 -3.44636156 -32.61876061 -10.3918931 0 0 Z M-102.43554688 44.16943359 C-118.92333596 63.46179355 -124.51223054 87.387883 -123.22314453 112.18359375 C-121.9986054 127.63904602 -115.94343186 143.37397855 -107 156 C-106.67 156 -106.34 156 -106 156 C-105.90203125 155.02160156 -105.8040625 154.04320312 -105.703125 153.03515625 C-104.14863287 139.40654852 -100.12208127 128.33276117 -89.19140625 119.3828125 C-83.16053356 115.57723508 -76.00424608 113.21077116 -69 112 C-70.44538223 108.97092146 -72.12934592 106.1999532 -73.9375 103.375 C-80.82185947 91.74396725 -81.55744544 79.17531019 -79.53125 65.9375 C-78.87175806 63.48795849 -78.05504699 61.30591709 -77 59 C-76.5978125 58.10152344 -76.195625 57.20304687 -75.78125 56.27734375 C-69.17015918 42.92661312 -59.19850789 36.63672046 -45.88671875 31.125 C-33.68446302 27.22893609 -19.43812867 29.94297654 -8.25390625 35.3203125 C3.39319649 41.80865284 11.32142857 51.62973762 15.26953125 64.328125 C18.25082341 79.3142995 16.41519544 93.23581068 8.25 106.1875 C7.63640625 107.08855469 7.0228125 107.98960937 6.390625 108.91796875 C4.90742999 110.72130572 4.90742999 110.72130572 5 112 C5.75023437 112.14695312 6.50046875 112.29390625 7.2734375 112.4453125 C19.13953276 115.04569106 28.87756834 120.27494717 35.69140625 130.55078125 C40.30942399 138.77419116 41.32036129 146.76628789 42 156 C45.34867467 152.10567075 47.72506703 148.12727086 50 143.5625 C50.34812744 142.86600342 50.69625488 142.16950684 51.05493164 141.4519043 C60.4644962 122.00488338 62.4187034 98.11602526 56.19140625 77.39453125 C55.79824219 76.27433594 55.40507812 75.15414062 55 74 C54.63777344 72.95199219 54.27554688 71.90398437 53.90234375 70.82421875 C49.22423773 58.59771116 42.07018017 48.34405772 33 39 C32.38769531 38.31421875 31.77539062 37.6284375 31.14453125 36.921875 C18.06570013 22.75546517 -3.28586936 12.97035831 -22.45166016 11.85766602 C-54.46780231 10.75530542 -80.58405078 20.02416935 -102.43554688 44.16943359 Z M-59 58 C-64.56337636 66.82994597 -65.78856301 74.63761568 -65 85 C-62.69798638 94.64214846 -56.97023126 102.56316447 -48.55078125 107.7421875 C-39.87947784 112.0180829 -30.89387791 113.23274176 -21.66015625 110.2421875 C-12.41137699 106.47943628 -5.6578826 100.90041261 -1 92 C2.3043227 83.80709028 2.44620947 73.89133093 -0.5625 65.5625 C-4.9025057 56.41206841 -12.47434597 49.6066908 -21.85546875 45.859375 C-36.65902392 41.8136829 -49.17191712 46.77786281 -59 58 Z M-82.3046875 133.89453125 C-83.08199219 134.84392578 -83.08199219 134.84392578 -83.875 135.8125 C-84.40867187 136.43769531 -84.94234375 137.06289062 -85.4921875 137.70703125 C-90.362749 145.11381777 -90.66674458 151.76407853 -90.8125 160.5 C-90.88275391 161.69753906 -90.95300781 162.89507812 -91.02539062 164.12890625 C-91.20991649 170.79748697 -91.20991649 170.79748697 -87.89208984 176.296875 C-85.33218339 178.10643947 -82.79067136 179.57725433 -80 181 C-79.10772705 181.55365234 -78.2154541 182.10730469 -77.29614258 182.67773438 C-75.15274784 184.16634455 -75.15274784 184.16634455 -73 184 C-72.95101562 182.73542969 -72.90203125 181.47085938 -72.8515625 180.16796875 C-72.7765262 178.50779053 -72.70097873 176.84763536 -72.625 175.1875 C-72.57859375 173.93743164 -72.57859375 173.93743164 -72.53125 172.66210938 C-72.49257812 171.85966797 -72.45390625 171.05722656 -72.4140625 170.23046875 C-72.3826416 169.49207764 -72.3512207 168.75368652 -72.31884766 167.99291992 C-72 166 -72 166 -70 163 C-66.07989501 162.12886556 -62.82977542 161.62128085 -59 163 C-58.05533244 166.24078125 -57.80901172 169.27225655 -57.68359375 172.640625 C-57.64169922 173.71054688 -57.59980469 174.78046875 -57.55664062 175.8828125 C-57.51732422 176.99398437 -57.47800781 178.10515625 -57.4375 179.25 C-57.39431641 180.37664062 -57.35113281 181.50328125 -57.30664062 182.6640625 C-57.20067985 185.44258954 -57.09860858 188.22120391 -57 191 C-48.54548032 193.50779334 -40.80182355 194.46908125 -32 194.375 C-30.91460937 194.38660156 -29.82921875 194.39820313 -28.7109375 194.41015625 C-21.09255226 194.38288279 -14.29635491 193.16425662 -7 191 C-6.96241577 189.94087402 -6.96241577 189.94087402 -6.92407227 188.86035156 C-6.80792631 185.65672491 -6.68528397 182.45337882 -6.5625 179.25 C-6.52318359 178.13882813 -6.48386719 177.02765625 -6.44335938 175.8828125 C-6.40146484 174.81289062 -6.35957031 173.74296875 -6.31640625 172.640625 C-6.27974854 171.65610352 -6.24309082 170.67158203 -6.20532227 169.65722656 C-6.02401258 167.31076449 -5.65668181 165.25281588 -5 163 C2.33333333 161.77777778 2.33333333 161.77777778 5.4375 162.8125 C7 164 7 164 8 166 C8.15004973 167.3734635 8.24838006 168.7528526 8.31640625 170.1328125 C8.35830078 170.93847656 8.40019531 171.74414062 8.44335938 172.57421875 C8.48267578 173.41597656 8.52199219 174.25773437 8.5625 175.125 C8.60568359 175.97449219 8.64886719 176.82398438 8.69335938 177.69921875 C8.79954236 179.79928223 8.90028497 181.89961948 9 184 C11.00674242 183.35391231 13.00538579 182.68261159 15 182 C16.48113281 181.50693359 16.48113281 181.50693359 17.9921875 181.00390625 C21.60029625 179.19985188 24.17115527 177.61770015 26 174 C26.89836163 169.53488343 27.00547561 165.17067118 27 160.625 C26.99983887 159.45396729 26.99967773 158.28293457 26.99951172 157.07641602 C26.68246838 148.22842032 24.67614871 141.41987821 18.97265625 134.5625 C18.34230469 134.046875 17.71195312 133.53125 17.0625 133 C16.12083984 132.195625 16.12083984 132.195625 15.16015625 131.375 C10.14997012 128.1858761 5.10881613 127.70188439 -0.69848633 127.70947266 C-1.44568436 127.70275543 -2.19288239 127.69603821 -2.96272278 127.68911743 C-5.41922764 127.67020669 -7.87545824 127.66621668 -10.33203125 127.6640625 C-12.05067555 127.65762942 -13.76931877 127.65090068 -15.48796082 127.64389038 C-19.08648211 127.63193468 -22.68490752 127.62820776 -26.28344727 127.62939453 C-30.87651346 127.62959754 -35.46895969 127.60230623 -40.06187916 127.56785011 C-43.61112751 127.5455242 -47.16022805 127.54155874 -50.70953941 127.54261398 C-52.40189435 127.54026617 -54.09425386 127.53148921 -55.78653908 127.51594925 C-69.98934338 127.38614855 -69.98934338 127.38614855 -82.3046875 133.89453125 Z " fill="#555050" transform="translate(172,37)"/>
<path d="M0 0 C1.13953125 0.36222656 2.2790625 0.72445313 3.453125 1.09765625 C16.83598107 5.8657028 28.35044365 12.62474954 39 22 C40.03125 22.78375 41.0625 23.5675 42.125 24.375 C46.62149246 28.48049312 50.2752124 33.19698441 54 38 C54.91652344 39.15822266 54.91652344 39.15822266 55.8515625 40.33984375 C72.88244215 63.08656657 77.82178865 92.06346282 74.67919922 119.83496094 C70.30572639 147.39368523 54.65309713 173.15946993 32.29296875 189.86328125 C7.87155778 207.14790003 -21.71859015 213.9824721 -51.3671875 209.27734375 C-55.65983995 208.44372399 -59.83514191 207.32686709 -64 206 C-65.13953125 205.63777344 -66.2790625 205.27554688 -67.453125 204.90234375 C-80.83598107 200.1342972 -92.35044365 193.37525046 -103 184 C-104.03125 183.21625 -105.0625 182.4325 -106.125 181.625 C-110.62149246 177.51950688 -114.2752124 172.80301559 -118 168 C-118.61101562 167.22785156 -119.22203125 166.45570313 -119.8515625 165.66015625 C-133.32308015 147.66737583 -139.41683537 125.47494609 -139.3125 103.25 C-139.30758545 102.0129834 -139.3026709 100.7759668 -139.29760742 99.50146484 C-138.98585687 75.19131658 -130.44958375 52.80704847 -115 34 C-114.31292969 33.14792969 -113.62585938 32.29585938 -112.91796875 31.41796875 C-85.94837769 -0.35511162 -39.51687064 -12.58953706 0 0 Z M-95 37 C-95.886875 37.845625 -96.77375 38.69125 -97.6875 39.5625 C-98.450625 40.366875 -99.21375 41.17125 -100 42 C-100.51820313 42.52335937 -101.03640625 43.04671875 -101.5703125 43.5859375 C-109.30292677 51.80400738 -114.39352923 61.78570225 -118.375 72.25 C-118.73283569 73.18682617 -118.73283569 73.18682617 -119.09790039 74.14257812 C-127.47795533 97.37777202 -123.976725 122.56212467 -113.74609375 144.46875 C-111.73146554 148.54307639 -109.62633293 152.29223586 -107 156 C-106.67 156 -106.34 156 -106 156 C-105.92523438 154.98421875 -105.85046875 153.9684375 -105.7734375 152.921875 C-104.68758451 140.72462224 -101.67669745 130.32636669 -92.33203125 121.75 C-85.28923463 116.46495329 -77.63022768 113.43837128 -69 112 C-70.44538223 108.97092146 -72.12934592 106.1999532 -73.9375 103.375 C-80.90239293 91.59087798 -82.45238057 77.27865361 -79.12109375 63.91015625 C-74.8703865 50.98968967 -66.03415434 40.47017758 -53.9375 34.125 C-46.86247718 30.66609995 -39.89357202 29.62925859 -32.125 29.6875 C-31.33343506 29.69313965 -30.54187012 29.6987793 -29.72631836 29.70458984 C-23.72440118 29.8290266 -18.52049599 30.51295061 -13 33 C-12.10023438 33.4021875 -11.20046875 33.804375 -10.2734375 34.21875 C0.01255829 39.31924378 7.1685172 46.61421414 12 57 C12.30679688 57.64195312 12.61359375 58.28390625 12.9296875 58.9453125 C17.68166584 69.39966484 17.76209856 83.73287806 14.375 94.625 C12.57880285 99.2152816 10.1859132 103.19535345 7.26953125 107.16015625 C5.8184835 109.08035908 5.8184835 109.08035908 5 112 C5.75023437 112.14695312 6.50046875 112.29390625 7.2734375 112.4453125 C19.28259259 115.0770417 27.66802953 120.02037352 35 130 C39.84961267 137.79402037 41.3091749 145.96473486 42 155 C45.71237534 151.73509847 47.84542833 148.00315656 50 143.625 C50.34812744 142.9232666 50.69625488 142.2215332 51.05493164 141.49853516 C60.95414589 120.89352119 62.47618795 95.65001645 55 74 C46.23359952 49.30426567 28.972631 30.59732942 5.5 19.1875 C-28.69800662 4.52396304 -68.26733395 10.91089813 -95 37 Z M-59.25 58.3125 C-64.98943 67.12662464 -66.12432115 75.55987507 -65 86 C-64.12553703 89.37012135 -62.85480799 92.06466523 -61 95 C-60.57589844 95.69609375 -60.15179688 96.3921875 -59.71484375 97.109375 C-54.51961937 104.80814761 -47.0653201 109.58967448 -37.984375 111.40234375 C-27.61728655 113.01540471 -18.99957231 109.85686791 -10.375 104.3125 C-2.82269462 96.9589395 1.08737862 88.57217014 1.4375 78.125 C1.19462687 68.65294811 -1.49653772 61.72282268 -8.0078125 54.8203125 C-16.3679205 47.18146872 -24.17606047 44.48946635 -35.4609375 44.69140625 C-45.86318261 45.59844528 -52.22793722 51.09537992 -59.25 58.3125 Z M-85.875 138 C-90.75271156 144.88618103 -90.55833634 152.28743865 -90.75 160.4375 C-90.82476562 161.63955078 -90.89953125 162.84160156 -90.9765625 164.08007812 C-91.19805097 170.77162493 -91.19805097 170.77162493 -87.89648438 176.30126953 C-85.33515189 178.11103062 -82.79320151 179.57946193 -80 181 C-79.10764648 181.55357178 -78.21529297 182.10714355 -77.29589844 182.67749023 C-75.15275382 184.16638089 -75.15275382 184.16638089 -73 184 C-72.95101562 182.73542969 -72.90203125 181.47085938 -72.8515625 180.16796875 C-72.7765262 178.50779053 -72.70097873 176.84763536 -72.625 175.1875 C-72.57859375 173.93743164 -72.57859375 173.93743164 -72.53125 172.66210938 C-72.49257813 171.85966797 -72.45390625 171.05722656 -72.4140625 170.23046875 C-72.3826416 169.49207764 -72.3512207 168.75368652 -72.31884766 167.99291992 C-72 166 -72 166 -70 163 C-66.07989501 162.12886556 -62.82977542 161.62128085 -59 163 C-58.05533244 166.24078125 -57.80901172 169.27225655 -57.68359375 172.640625 C-57.64169922 173.71054687 -57.59980469 174.78046875 -57.55664062 175.8828125 C-57.51732422 176.99398437 -57.47800781 178.10515625 -57.4375 179.25 C-57.39431641 180.37664062 -57.35113281 181.50328125 -57.30664062 182.6640625 C-57.20067985 185.44258954 -57.09860858 188.22120391 -57 191 C-41.01799034 195.90357114 -22.98200966 195.90357114 -7 191 C-6.96241577 189.9330188 -6.96241577 189.9330188 -6.92407227 188.84448242 C-6.80811561 185.62530483 -6.68538755 182.40642015 -6.5625 179.1875 C-6.52318359 178.06794922 -6.48386719 176.94839844 -6.44335938 175.79492188 C-6.40146484 174.72177734 -6.35957031 173.64863281 -6.31640625 172.54296875 C-6.27974854 171.55321045 -6.24309082 170.56345215 -6.20532227 169.54370117 C-6 167 -6 167 -5 164 C-2.29585415 161.91988781 -0.83855664 162.00835052 2.625 162.1875 C6 163 6 163 8 166 C8.31884766 167.99291992 8.31884766 167.99291992 8.4140625 170.23046875 C8.45273437 171.03291016 8.49140625 171.83535156 8.53125 172.66210938 C8.5621875 173.49548828 8.593125 174.32886719 8.625 175.1875 C8.66367187 176.03248047 8.70234375 176.87746094 8.7421875 177.74804688 C8.83636279 179.83167524 8.91926675 181.91580753 9 184 C12.54792984 182.69616712 15.51253206 181.13915322 18.625 179 C19.38039063 178.484375 20.13578125 177.96875 20.9140625 177.4375 C21.60242188 176.963125 22.29078125 176.48875 23 176 C23.99 175.34 24.98 174.68 26 174 C26.70747746 169.70906696 26.50913197 165.34224969 26.5 161 C26.52835937 159.80503906 26.55671875 158.61007812 26.5859375 157.37890625 C26.60594984 148.2432741 24.89219199 141.59986326 18.9375 134.5625 C11.09859808 128.24080491 4.40550132 126.88890412 -5.69458008 126.85473633 C-6.98314407 126.84835648 -8.27170807 126.84197662 -9.59931946 126.83540344 C-10.98938967 126.83387427 -12.37946039 126.83276057 -13.76953125 126.83203125 C-15.21530693 126.82881205 -16.66108228 126.8254475 -18.1068573 126.82194519 C-21.13024652 126.81597708 -24.15360726 126.81410288 -27.17700195 126.81469727 C-31.02653663 126.81479872 -34.87588618 126.80115324 -38.72537708 126.78392506 C-41.71018796 126.77273559 -44.69495508 126.77078018 -47.67978477 126.77130699 C-49.09777145 126.77013706 -50.51575964 126.76577162 -51.93372536 126.75797462 C-65.94956713 126.68812042 -76.15638607 127.23302247 -85.875 138 Z " fill="#555050" transform="translate(404,269)"/>
</svg>
