<?xml version="1.0" encoding="UTF-8"?>
<svg version="1.1" xmlns="http://www.w3.org/2000/svg" width="512" height="512">
<path d="M0 0 C1.20992237 -0.00623996 2.41984474 -0.01247993 3.66643143 -0.01890898 C7.00809767 -0.03206399 10.34885927 -0.02738376 13.69046974 -0.0149641 C17.3006355 -0.00589149 20.91072379 -0.01989426 24.52087402 -0.03088379 C31.58648126 -0.0486501 38.65191832 -0.0448375 45.71753216 -0.03323323 C51.46099428 -0.02419172 57.20440878 -0.022978 62.94787598 -0.02732849 C63.7659892 -0.02794142 64.58410243 -0.02855436 65.42700696 -0.02918586 C67.08910085 -0.03046479 68.75119473 -0.03176164 70.41328859 -0.03307623 C85.99083599 -0.04447649 101.56828915 -0.03137702 117.14582109 -0.00987476 C130.50578989 0.00799573 143.86561965 0.00489147 157.22558594 -0.0135498 C172.7482113 -0.03496631 188.27075411 -0.04337791 203.79339218 -0.03110075 C205.44929757 -0.02982658 207.10520298 -0.0285691 208.7611084 -0.02732849 C209.57579944 -0.02671139 210.39049048 -0.02609429 211.22986913 -0.02545848 C216.96499316 -0.02200792 222.70006475 -0.02782759 228.43518066 -0.0372467 C235.4264688 -0.04847675 242.41757733 -0.0454056 249.40884495 -0.02412373 C252.9744613 -0.01362671 256.53977846 -0.00946813 260.10539246 -0.02272034 C263.97342483 -0.03687888 267.84096958 -0.01994861 271.70898438 0 C272.83194538 -0.00892289 273.95490639 -0.01784577 275.11189651 -0.02703905 C282.63281176 0.04824365 287.93889553 1.20775586 293.84277344 6.18371582 C294.27976562 6.72383301 294.71675781 7.2639502 295.16699219 7.82043457 C295.84181641 8.61900879 295.84181641 8.61900879 296.53027344 9.43371582 C301.29671024 16.89972745 301.26984677 23.26839042 301.1993866 31.98254395 C301.19909663 33.36128015 301.2001491 34.74001717 301.20242387 36.11875153 C301.20493257 39.8976563 301.18891852 43.67628956 301.16995966 47.45513916 C301.15285792 51.53425077 301.15326349 55.61336299 301.15185547 59.69250488 C301.1473715 66.75821485 301.13284664 73.82384574 301.11235619 80.88952637 C301.08074995 92.05726809 301.07899802 103.22492183 301.0818634 114.3927002 C301.08246303 118.21484374 301.08284471 122.03698728 301.08314228 125.85913086 C301.08326065 127.29179897 301.08326065 127.29179897 301.08338141 128.75340986 C301.0838125 139.61950508 301.07748826 150.48559331 301.06860352 161.35168457 C301.06739696 162.84129055 301.06739696 162.84129055 301.06616602 164.36098957 C301.05243634 180.4639735 301.01921863 196.56687706 300.98148175 212.66981983 C300.94348745 229.20559037 300.93613278 245.74119697 300.95476228 262.27700043 C300.96508466 272.47554665 300.94999365 282.67342807 300.90231637 292.87187099 C300.87173412 299.85826971 300.87005709 306.84429524 300.89119055 313.83072758 C300.90245902 317.86233634 300.90061096 321.89283541 300.86384773 325.92431641 C300.83043764 329.61602724 300.83392257 333.30580765 300.86659507 336.99750805 C300.87440218 338.96347474 300.84275278 340.92947619 300.80965489 342.89517975 C300.80759511 349.2678926 300.80759511 349.2678926 303.59997809 354.78330994 C305.60324148 356.54098014 307.65433659 358.01084055 309.85449219 359.50793457 C326.48549572 376.22098303 334.1202772 399.03089393 334.29199219 422.19543457 C333.97914177 449.25588662 323.69960875 470.662818 304.74511719 489.61730957 C295.62036943 498.20922534 284.66447609 504.42098201 272.85449219 508.50793457 C271.74589844 508.90109863 270.63730469 509.2942627 269.49511719 509.69934082 C247.40620162 516.3865969 222.36648722 513.89575725 201.85449219 503.50793457 C201.15847792 503.03378795 200.46246366 502.55964134 199.74535805 502.07112664 C193.40004064 497.83059247 188.74090117 496.64313226 181.18357849 496.76863098 C180.15641269 496.76153758 179.12924689 496.75444417 178.07095486 496.74713582 C174.65372843 496.73066159 171.23819202 496.75664376 167.82104492 496.78259277 C165.36129277 496.77933163 162.90154292 496.77339249 160.44180298 496.76498413 C155.1570504 496.75259909 149.87278987 496.75822144 144.58810234 496.78005409 C136.93775419 496.81136283 129.28775001 496.80651221 121.63736594 496.79251089 C109.21010219 496.7704617 96.78297607 496.77284835 84.35571289 496.79284668 C83.61308439 496.79403601 82.87045589 496.79522533 82.1053235 496.7964507 C81.36177531 496.79764286 80.61822712 496.79883502 79.85214716 496.80006331 C69.30906413 496.81691347 58.76599653 496.82793916 48.22290039 496.83190918 C47.10987035 496.83233751 47.10987035 496.83233751 45.97435486 496.8327745 C33.59017811 496.83704652 21.20602576 496.82920371 8.82185704 496.815211 C1.19291879 496.80737124 -6.43583464 496.81184986 -14.06475019 496.83246758 C-19.91108273 496.84771959 -25.75735741 496.84839358 -31.60371017 496.84389877 C-33.99781862 496.84468458 -36.39193188 496.85063786 -38.78601265 496.8621769 C-42.05803105 496.87731217 -45.32954485 496.8739869 -48.60157776 496.86628723 C-49.54516901 496.87522753 -50.48876026 496.88416782 -51.46094519 496.89337903 C-59.14001627 496.84349283 -66.99719273 495.59530007 -72.80909449 490.11169779 C-79.59534445 481.96785643 -79.86089782 473.24741415 -79.7736969 463.13381958 C-79.77874837 461.58535612 -79.78598183 460.03689851 -79.79519504 458.48845422 C-79.8140578 454.25438308 -79.8019178 450.02089251 -79.78447211 445.78683639 C-79.77106973 441.21290195 -79.78654515 436.63905086 -79.79829407 432.06512451 C-79.81665098 423.11480455 -79.80817252 414.16470322 -79.79020584 405.21439011 C-79.77617234 397.94252628 -79.77228865 390.67072175 -79.77564812 383.39884567 C-79.77612556 382.36337036 -79.776603 381.32789505 -79.77709491 380.26104169 C-79.77812124 378.15748194 -79.7791766 376.05392221 -79.78026067 373.95036249 C-79.78882313 355.36127377 -79.77216463 336.77229058 -79.74243164 318.18322754 C-79.71357033 300.13891166 -79.70652312 282.09474768 -79.72192383 264.05041504 C-79.73867329 244.3988901 -79.74273496 224.74743723 -79.72521347 205.09591043 C-79.72336906 203.00198325 -79.72153433 200.90805607 -79.7197094 198.81412888 C-79.71879731 197.78386436 -79.71788522 196.75359985 -79.71694549 195.6921152 C-79.7113342 188.42422356 -79.71465255 181.15636706 -79.72125435 173.88847733 C-79.72897406 165.03869365 -79.72228345 156.18905964 -79.69707931 147.33930619 C-79.68455544 142.82232201 -79.67847275 138.3055712 -79.68962097 133.78857803 C-79.69962527 129.6572157 -79.6912859 125.52631988 -79.66803979 121.39501457 C-79.66285944 119.89727893 -79.66448004 118.39950185 -79.67343444 116.90178402 C-79.6845631 114.87223667 -79.66885223 112.84259446 -79.65166569 110.81308937 C-79.65047421 109.68390575 -79.64928272 108.55472213 -79.64805514 107.39132082 C-79.02816085 103.83465149 -78.00848655 102.65103405 -75.14550781 100.50793457 C-71.64550781 100.00793457 -71.64550781 100.00793457 -68.14550781 100.50793457 C-65.78053342 102.37501962 -64.48520066 103.82854888 -63.14550781 106.50793457 C-63.04642984 108.50616765 -63.01342064 110.50777577 -63.00963593 112.50846004 C-63.00477818 113.79596501 -62.99992043 115.08346998 -62.99491549 116.40999025 C-62.99453017 117.85230122 -62.99423444 119.29461221 -62.99401855 120.73692322 C-62.99017118 122.25856373 -62.98588419 123.78020318 -62.98119307 125.30184132 C-62.96951903 129.49871081 -62.9640609 133.69556941 -62.95955825 137.89245188 C-62.95362238 142.41263361 -62.94195152 146.93280076 -62.93092346 151.45297241 C-62.91255064 159.29030919 -62.89771453 167.12764629 -62.88514709 174.96499443 C-62.8668796 186.29986364 -62.8422144 197.63471204 -62.81577319 208.9695648 C-62.77295015 227.36231221 -62.73384242 245.75506535 -62.69775391 264.14782715 C-62.6955911 265.24944606 -62.6934283 266.35106498 -62.69119996 267.48606629 C-62.67587153 275.30585553 -62.66067502 283.12564502 -62.64550781 290.94543457 C-62.62818478 299.87618019 -62.61080023 308.80692569 -62.59326172 317.7376709 C-62.59110285 318.83765061 -62.58894398 319.93763032 -62.58671969 321.07094275 C-62.55064161 339.39191985 -62.51069013 357.71288654 -62.46795893 376.0338493 C-62.44176843 387.34426527 -62.41911777 398.65467803 -62.40097535 409.96510983 C-62.38833063 417.71111818 -62.37221293 425.45711416 -62.3533262 433.20310979 C-62.34254444 437.6773095 -62.33343417 442.15149718 -62.32863045 446.62570763 C-62.3242127 450.71708765 -62.31528421 454.80843144 -62.30268723 458.89979423 C-62.2989366 460.38429683 -62.2968896 461.86880486 -62.29666704 463.35331219 C-62.29612941 465.36273717 -62.28894586 467.37215715 -62.2813797 469.38156796 C-62.27926373 470.50027906 -62.27714776 471.61899017 -62.27496767 472.77160162 C-62.26497908 475.6012558 -62.26497908 475.6012558 -61.14550781 478.50793457 C-58.46443566 479.5159004 -55.92009454 479.63253774 -53.07693863 479.6309824 C-52.27127685 479.63297345 -51.46561507 479.6349645 -50.63553929 479.63701588 C-49.7561635 479.63410304 -48.87678771 479.6311902 -47.97076416 479.62818909 C-47.03221297 479.62904351 -46.09366178 479.62989794 -45.12666965 479.63077825 C-41.97440112 479.63242844 -38.82218552 479.62691918 -35.66992188 479.62145996 C-33.41320293 479.62117796 -31.1564839 479.62133607 -28.89976501 479.62190247 C-22.76589198 479.62218995 -16.6320384 479.61630107 -10.4981699 479.60932851 C-4.09063884 479.60308688 2.31689264 479.60249053 8.72442627 479.6013031 C19.48149009 479.59854586 30.23854538 479.59229516 40.99560547 479.58337402 C52.07535771 479.57419483 63.15510801 479.56711647 74.23486328 479.56286621 C74.91783437 479.56260349 75.60080547 479.56234076 76.30447266 479.56207008 C79.73074242 479.56076504 83.1570122 479.55950133 86.58328199 479.55825818 C115.00702365 479.54789169 143.43075754 479.53020436 171.85449219 479.50793457 C171.23743408 478.56184326 170.62037598 477.61575195 169.98461914 476.64099121 C169.16635817 475.37928558 168.34825109 474.11748014 167.53027344 472.85559082 C167.1245813 472.23446411 166.71888916 471.6133374 166.30090332 470.97338867 C153.3688909 450.98158662 149.4294554 426.45707097 153.69042969 403.07043457 C155.96903555 392.96165508 160.34892426 377.11824008 168.85449219 370.50793457 C172.54445228 369.38490324 174.16437941 369.1705461 177.66699219 370.88293457 C180.80883588 373.2168756 180.80883588 373.2168756 181.35449219 376.69543457 C181.32287512 381.13763231 179.66616625 384.18497191 177.60449219 388.07043457 C168.91179339 404.57885013 167.03712113 423.38733351 171.41699219 441.57043457 C175.11595469 453.25136879 180.63607975 463.3976014 188.85449219 472.50793457 C189.45777344 473.20402832 190.06105469 473.90012207 190.68261719 474.61730957 C199.38651791 484.05263052 210.81678108 489.54370842 222.85449219 493.50793457 C223.91216797 493.85984863 223.91216797 493.85984863 224.99121094 494.21887207 C242.45407108 499.27102029 262.39546029 495.91943638 278.33105469 487.71887207 C297.21027467 476.62125096 310.05556527 460.32204157 315.85449219 439.19543457 C319.83815005 418.36585098 315.8539928 398.46889691 304.85449219 380.50793457 C293.69761948 364.12000067 276.4479297 353.05411864 257.05371094 349.13293457 C239.47469647 346.19544912 222.83016117 348.99594924 207.43188477 357.86535645 C202.66750833 360.51383156 199.31208804 360.99934945 193.85449219 360.50793457 C191.35449219 358.94543457 191.35449219 358.94543457 189.85449219 356.50793457 C189.29199219 353.07043457 189.29199219 353.07043457 189.85449219 349.50793457 C199.66945074 337.96092451 218.42624679 333.1888952 232.85449219 331.50793457 C239.12449219 331.50793457 245.39449219 331.50793457 251.85449219 331.50793457 C251.85449219 271.11793457 251.85449219 210.72793457 251.85449219 148.50793457 C225.45449219 148.50793457 199.05449219 148.50793457 171.85449219 148.50793457 C162.65898138 145.05961802 157.91058128 142.47349157 153.83813477 133.66394043 C152.67480217 129.93140123 152.6187962 126.51799431 152.72167969 122.65637207 C152.73606079 121.62129517 152.73606079 121.62129517 152.75073242 120.56530762 C152.77554746 118.87934445 152.81365218 117.19358568 152.85449219 115.50793457 C152.23642134 115.51069995 151.61835049 115.51346533 150.98155022 115.51631451 C135.9330688 115.58260683 120.88463227 115.63223091 105.8360424 115.66337109 C98.5586103 115.67883104 91.28127574 115.6999038 84.00390625 115.73425293 C77.6599404 115.7641821 71.31604522 115.78351591 64.97201073 115.79020005 C61.61377789 115.79410639 58.25574717 115.80326838 54.89757919 115.82512474 C51.14595262 115.84687716 47.39474582 115.84990232 43.64306641 115.84851074 C42.5331987 115.85929657 41.42333099 115.8700824 40.27983093 115.88119507 C33.92818289 115.85567368 29.11872348 115.48528568 24.20996094 111.00793457 C19.18963489 104.56042553 19.6094344 99.21117316 19.54199219 91.32043457 C19.49848633 89.65270996 19.49848633 89.65270996 19.45410156 87.95129395 C19.40556547 81.64533487 19.37914733 75.39558442 23.85449219 70.50793457 C30.07479348 65.96958957 35.30077513 65.95653939 42.84838867 66.05383301 C44.03934647 66.0532489 45.23030426 66.05266479 46.45735168 66.05206299 C49.70504687 66.05436363 52.95204249 66.0743506 56.19959903 66.10235882 C59.60016226 66.12745324 63.0007409 66.12972077 66.40138245 66.13446045 C72.83282029 66.14686676 79.26398445 66.17965618 85.69530207 66.21985841 C93.02055834 66.26464954 100.34582804 66.28658154 107.67118728 66.30664015 C122.73244502 66.34839124 137.79343093 66.41950788 152.85449219 66.50793457 C152.85449219 60.89793457 152.85449219 55.28793457 152.85449219 49.50793457 C125.41250947 49.54590828 97.97066339 49.60488415 70.52878952 49.69183731 C57.78758274 49.73167837 45.04643817 49.7640451 32.30517578 49.77893066 C21.20231258 49.79192093 10.09958599 49.81881828 -1.00320029 49.86254764 C-6.88425657 49.88522155 -12.76514399 49.9008417 -18.64624786 49.89981842 C-24.17844637 49.89907531 -29.71027075 49.91688535 -35.24237251 49.9491024 C-37.27572233 49.95764127 -39.30911392 49.95932449 -41.34247398 49.95373726 C-44.11346229 49.94713573 -46.88324676 49.96492508 -49.65411377 49.98895264 C-50.46345249 49.98119222 -51.27279122 49.9734318 -52.10665536 49.96543622 C-55.69995144 50.02080198 -57.73968864 50.20038943 -60.64507675 52.40220261 C-62.39210479 54.85401321 -62.64236917 56.11288954 -62.64941406 59.09777832 C-62.66810547 59.96467285 -62.68679687 60.83156738 -62.70605469 61.72473145 C-62.70669922 62.62256348 -62.70734375 63.52039551 -62.70800781 64.44543457 C-62.76350382 75.44157212 -62.76350382 75.44157212 -66.14550781 79.50793457 C-69.14550781 81.50793457 -69.14550781 81.50793457 -72.64550781 81.32043457 C-77.15663302 80.27320908 -77.15663302 80.27320908 -79.14550781 77.50793457 C-79.80052303 73.14367306 -79.60848626 68.72820554 -79.58300781 64.32043457 C-79.60298828 63.11322754 -79.62296875 61.90602051 -79.64355469 60.66223145 C-79.63899442 52.32150638 -78.70011906 46.63819137 -73.21582031 40.26574707 C-72.57386719 39.72691895 -71.93191406 39.18809082 -71.27050781 38.63293457 C-70.3153125 37.80148926 -70.3153125 37.80148926 -69.34082031 36.95324707 C-64.38559833 33.69091231 -59.60350928 33.26448001 -53.77832031 33.31262207 C-53.0987326 33.31545197 -52.4191449 33.31828186 -51.71896362 33.32119751 C-49.56929174 33.33230493 -47.42005168 33.35739066 -45.27050781 33.38293457 C-43.80436804 33.39297662 -42.33822167 33.40210032 -40.87207031 33.41027832 C-37.2964115 33.43221298 -33.72100187 33.46667643 -30.14550781 33.50793457 C-30.15783447 32.69679199 -30.17016113 31.88564941 -30.18286133 31.04992676 C-30.19244873 29.97903809 -30.20203613 28.90814941 -30.21191406 27.80480957 C-30.22424072 26.74616699 -30.23656738 25.68752441 -30.24926758 24.59680176 C-29.99598188 17.05663559 -27.20381144 11.96246213 -22.35253906 6.33215332 C-15.22428588 0.44030511 -8.93538771 -0.07099931 0 0 Z M-11.89550781 18.94543457 C-14.34407499 22.00614354 -14.25666476 24.94884926 -14.20800781 28.69543457 C-14.19898437 29.59648926 -14.18996094 30.49754395 -14.18066406 31.42590332 C-14.1690625 32.11297363 -14.15746094 32.80004395 -14.14550781 33.50793457 C-12.7805228 33.50598634 -12.7805228 33.50598634 -11.38796234 33.50399876 C10.76312326 33.4747861 32.91390007 33.48416648 55.06494904 33.53640079 C65.77711179 33.5607323 76.48899174 33.57204384 87.20117188 33.5526123 C96.53890321 33.53570711 105.87623898 33.54332494 115.21391821 33.58028215 C120.15742857 33.59899434 125.10027006 33.60549956 130.04377747 33.58262825 C134.69968646 33.56147524 139.35437169 33.57318391 144.0101738 33.60977936 C145.71611303 33.61745436 147.42215469 33.61326297 149.12802505 33.59612083 C163.61215667 33.46175575 163.61215667 33.46175575 168.3374176 37.47634888 C169.53876119 38.79436334 170.71017786 40.14011395 171.85449219 41.50793457 C173.35217416 42.98408839 174.86089395 44.44909755 176.37840271 45.90486145 C178.04671336 47.56729522 179.71234262 49.23242283 181.37573242 50.89978027 C182.29212997 51.81442551 183.20852753 52.72907074 184.1526947 53.6714325 C186.6421382 56.15635698 189.1284566 58.6443856 191.61404681 61.13316369 C194.22256222 63.74422693 196.83353473 66.35283138 199.44410706 68.96183777 C203.81927245 73.33519045 208.19233938 77.7106331 212.56420898 82.08728027 C217.62026396 87.14879659 222.67993881 92.20667294 227.74146885 97.26271373 C232.0950423 101.61175475 236.44667112 105.96273435 240.79666859 110.31535214 C243.39170077 112.91194375 245.98740503 115.50785381 248.58486748 118.10201454 C251.47244684 120.98617846 254.35593676 123.87439685 257.23901367 126.76306152 C258.10181946 127.62384308 258.96462524 128.48462463 259.85357666 129.37149048 C260.63432053 130.15505417 261.41506439 130.93861786 262.21946716 131.7459259 C262.90134315 132.42817891 263.58321913 133.11043192 264.28575802 133.81335926 C267.49489624 137.279929 267.00695228 140.74900245 267.01271057 145.22732544 C267.01764855 146.0334941 267.02258653 146.83966277 267.02767414 147.67026079 C267.04309968 150.38649495 267.0514234 153.10270538 267.05981445 155.81896973 C267.06938901 157.76012889 267.07939883 159.70128595 267.08981323 161.6424408 C267.11691417 166.92519832 267.13789559 172.20796482 267.15781522 177.49075365 C267.17964283 183.00678181 267.20704726 188.52278212 267.23387146 194.03878784 C267.28384205 204.48995797 267.32876465 214.94114352 267.37189382 225.39234388 C267.42122894 237.28819199 267.47616085 249.18401216 267.53157341 261.07983327 C267.64546048 285.55584099 267.75228483 310.03187549 267.85449219 334.50793457 C269.75013645 335.30005386 271.6460159 336.09161033 273.54199219 336.88293457 C274.59773438 337.32379395 275.65347656 337.76465332 276.74121094 338.21887207 C279.43810723 339.33552925 282.14328989 340.42666931 284.85449219 341.50793457 C284.96888142 300.82697052 285.0570125 260.1460274 285.10981883 219.46493473 C285.11607253 214.66457048 285.12254413 209.86420655 285.12915039 205.06384277 C285.13046194 204.1081576 285.13177349 203.15247242 285.13312479 202.16782709 C285.15489444 186.68382486 285.19432455 171.19991524 285.24025617 155.71596799 C285.28697743 139.83362534 285.31477841 123.95133126 285.32493466 108.0689227 C285.33180282 98.26482631 285.3535122 88.46099166 285.39407452 78.65697583 C285.42045945 71.93832408 285.42850285 65.21980809 285.42199907 58.50110827 C285.41878951 54.62192375 285.42378511 50.7431973 285.45051956 46.86409378 C285.47927159 42.66164236 285.46945935 38.46017166 285.45576477 34.25764465 C285.47032898 33.02710541 285.48489318 31.79656616 285.49989873 30.52873784 C285.505627 23.97050824 285.505627 23.97050824 282.56691265 18.27357769 C278.67251891 15.73853211 275.57887304 15.38310768 270.98778629 15.37930012 C270.00407144 15.37607567 269.02035658 15.37285123 268.00683218 15.36952907 C266.92853768 15.37107767 265.85024317 15.37262627 264.73927307 15.3742218 C263.59190499 15.37195625 262.4445369 15.36969069 261.26240009 15.36735648 C258.07723751 15.36211613 254.89211036 15.36137247 251.70694482 15.36255085 C248.27198212 15.36275477 244.83702787 15.357237 241.40206909 15.35249329 C234.67252515 15.34418455 227.94298996 15.34143835 221.21344132 15.34088091 C215.74447025 15.3404059 210.27550206 15.33835194 204.80653191 15.33518028 C189.30564587 15.32637351 173.80476675 15.321761 158.3038782 15.32251076 C157.0502224 15.32257069 157.0502224 15.32257069 155.77124023 15.32263184 C154.51605645 15.32269316 154.51605645 15.32269316 153.23551541 15.32275572 C139.66912985 15.32316231 126.10277202 15.31358945 112.53639448 15.29949347 C98.61109891 15.28513854 84.68581688 15.27822278 70.76051372 15.27908725 C62.94064248 15.2794195 55.12080033 15.2766601 47.30093575 15.26590919 C40.64402256 15.25681586 33.98715165 15.25461935 27.33023495 15.26141862 C23.93318613 15.26468959 20.53621848 15.26471976 17.13917732 15.25606537 C13.45827657 15.24838934 9.77759081 15.25296119 6.09669495 15.26069641 C5.02063116 15.25555285 3.94456738 15.25040928 2.8358956 15.24510986 C1.35641169 15.25200805 1.35641169 15.25200805 -0.15296078 15.2590456 C-1.00250519 15.25882823 -1.8520496 15.25861086 -2.72733778 15.25838691 C-6.28032631 15.62504433 -9.13156898 16.67505624 -11.89550781 18.94543457 Z M168.85449219 61.50793457 C168.76179659 70.04412692 168.69073 78.58010886 168.6472435 87.11668015 C168.62637166 91.0806125 168.5980622 95.04420044 168.55273438 99.00793457 C168.509261 102.83346184 168.48535204 106.65865791 168.47498322 110.48441315 C168.46759441 111.94368962 168.45316554 113.40294803 168.43157196 114.86208344 C168.40251595 116.90686657 168.39853677 118.95028277 168.40039062 120.99523926 C168.39150818 122.15883972 168.38262573 123.32244019 168.37347412 124.52130127 C168.95641497 128.14077143 170.01789981 129.26820661 172.85449219 131.50793457 C175.6448348 132.90310587 177.92675191 132.62748619 181.04833984 132.62145996 C182.34953766 132.62138443 183.65073547 132.6213089 184.99136353 132.62123108 C186.4170943 132.61612404 187.84282468 132.61090804 189.26855469 132.60559082 C190.7230118 132.60372604 192.17746953 132.60230242 193.63192749 132.6013031 C197.46241994 132.59748262 201.29287456 132.58765633 205.12335205 132.57659912 C209.03112272 132.56637492 212.9388995 132.56180331 216.84667969 132.5567627 C224.51596778 132.54603366 232.18522469 132.52896285 239.85449219 132.50793457 C235.87099671 127.73624983 231.71622068 123.22477989 227.31420898 118.83825684 C226.6907106 118.21300613 226.06721222 117.58775543 225.42481995 116.94355774 C223.3869388 114.90131564 221.34547035 112.862705 219.30371094 110.82434082 C217.87964003 109.39959573 216.45571755 107.97470226 215.03193665 106.54966736 C212.06059178 103.57685377 209.0874593 100.60584289 206.11303711 97.6361084 C202.29170659 93.82050594 198.47492472 90.00038974 194.65944195 86.17894077 C191.72657752 83.24247494 188.79135064 80.30837995 185.85538673 77.37501335 C184.44596671 75.96626215 183.03729395 74.55676294 181.62936974 73.1465168 C179.67124861 71.18587272 177.70997977 69.2284344 175.74780273 67.27185059 C175.16237701 66.68440063 174.57695129 66.09695068 173.9737854 65.49169922 C171.7747375 62.76378518 171.7747375 62.76378518 168.85449219 61.50793457 Z M35.85449219 82.50793457 C35.85449219 88.11793457 35.85449219 93.72793457 35.85449219 99.50793457 C74.46449219 99.50793457 113.07449219 99.50793457 152.85449219 99.50793457 C152.85449219 93.89793457 152.85449219 88.28793457 152.85449219 82.50793457 C114.24449219 82.50793457 75.63449219 82.50793457 35.85449219 82.50793457 Z " fill="#555050" transform="translate(112.1455078125,-0.5079345703125)"/>
<path d="M0 0 C4.99049313 3.77557907 8.15850084 7.96749238 10 14 C10.41870877 17.35660781 10.40965539 20.67848739 10.38768005 24.05786133 C10.39306559 25.05529012 10.39845113 26.05271891 10.40399987 27.08037281 C10.41827934 30.41438535 10.41117561 33.74800087 10.40405273 37.08203125 C10.40975624 39.4756197 10.41672042 41.86920543 10.42485046 44.26278687 C10.44093463 50.08422896 10.44288241 55.90554706 10.43763756 61.72700667 C10.4335917 66.45934248 10.43504434 71.19164642 10.44038582 75.92398071 C10.44113424 76.59819937 10.44188266 77.27241802 10.44265376 77.96706754 C10.44418528 79.33684469 10.44572363 80.70662183 10.44726873 82.07639897 C10.46098682 94.9127149 10.45556065 107.74896982 10.44408352 120.58528435 C10.43414884 132.32338304 10.44709702 144.06132415 10.47101771 155.79939854 C10.49541062 167.86029271 10.50501631 179.92111348 10.49836498 191.98203182 C10.49487357 198.7500816 10.4970998 205.51801016 10.51461601 212.28604126 C10.53006364 218.64891453 10.52615347 225.01148641 10.50731087 231.37434769 C10.50361918 233.70962084 10.50675023 236.04491621 10.51719666 238.38016891 C10.53036782 241.5678411 10.51889252 244.7545098 10.50120544 247.94213867 C10.51561295 249.32847866 10.51561295 249.32847866 10.53031152 250.74282551 C10.44927642 257.84015616 8.64782024 261.92527592 3.96484375 267.36328125 C2.96130859 268.32814453 2.96130859 268.32814453 1.9375 269.3125 C1.26589844 269.96863281 0.59429687 270.62476563 -0.09765625 271.30078125 C-2 273 -2 273 -5 275 C-5.51168511 277.98326091 -5.51168511 277.98326091 -5.5625 281.375 C-5.83339192 288.64803749 -5.83339192 288.64803749 -8 292 C-10.67633026 294.0815902 -12.11753668 293.99587591 -15.5625 293.875 C-19 293 -19 293 -20.703125 291.37109375 C-22.43910503 288.19717846 -22.2303854 285.78597463 -22.1875 282.1875 C-22.36660404 277.12999445 -22.36660404 277.12999445 -24.625 272.7734375 C-26.68300716 271.06622702 -28.8179846 269.54376592 -31 268 C-32.79296875 266.20703125 -32.79296875 266.20703125 -34.375 264.375 C-35.06722656 263.58222656 -35.06722656 263.58222656 -35.7734375 262.7734375 C-39.39968719 257.53038858 -39.28624825 252.53321208 -39.26069641 246.38592529 C-39.26452196 245.41203425 -39.26834751 244.4381432 -39.27228898 243.4347403 C-39.2826153 240.16835284 -39.27862745 236.90214128 -39.2746582 233.63574219 C-39.27900494 231.29495582 -39.28418796 228.95417088 -39.29014587 226.61338806 C-39.30355296 220.25169649 -39.3041125 213.89006427 -39.30158257 207.52836132 C-39.30037857 201.54611113 -39.3065891 195.56386928 -39.31201603 189.58162239 C-39.32289219 177.00612754 -39.32072908 164.43065949 -39.31463119 151.85516313 C-39.30946537 140.36080992 -39.32070844 128.86654154 -39.33972941 117.37220511 C-39.35912236 105.56223573 -39.36736104 93.75230646 -39.36360615 81.94232106 C-39.36169588 75.31504586 -39.36443001 68.68783374 -39.37832069 62.06056976 C-39.3908991 55.82580485 -39.3889546 49.59120953 -39.37590981 43.35644722 C-39.37354431 41.07039139 -39.37627772 38.78432363 -39.38453293 36.49828148 C-39.39500435 33.37266115 -39.38689603 30.24760939 -39.3742218 27.12200928 C-39.38159609 26.22169881 -39.38897037 25.32138834 -39.39656812 24.39379573 C-39.32539097 16.02456729 -37.55675703 8.7492825 -31.74609375 2.50390625 C-22.35152891 -5.58760933 -10.57417632 -5.85540709 0 0 Z M-21 15 C-23.24866427 18.39570531 -23.23313813 21.28735871 -23.1953125 25.296875 C-23.18886719 26.50214844 -23.18242187 27.70742187 -23.17578125 28.94921875 C-23.15902344 30.20347656 -23.14226562 31.45773438 -23.125 32.75 C-23.11597656 34.01972656 -23.10695313 35.28945312 -23.09765625 36.59765625 C-23.07409087 39.73185129 -23.03822013 42.86594941 -23 46 C-17.39 46 -11.78 46 -6 46 C-5.86183172 41.959857 -5.74256658 37.92576224 -5.67041016 33.88452148 C-5.6403267 32.5118425 -5.59944666 31.13935437 -5.54736328 29.76733398 C-4.98094029 22.07875954 -4.98094029 22.07875954 -7.22167969 14.95849609 C-11.99840248 10.69732268 -16.17882319 11.44755393 -21 15 Z M-23 62 C-23 114.14 -23 166.28 -23 220 C-17.39 220 -11.78 220 -6 220 C-6 167.86 -6 115.72 -6 62 C-11.61 62 -17.22 62 -23 62 Z M-23 236 C-24.16748149 246.35024412 -24.16748149 246.35024412 -21.21875 255.91015625 C-19.23801643 257.8316073 -17.30269536 259.48371622 -15 261 C-13.87411986 260.04270084 -12.7493285 259.08412105 -11.625 258.125 C-10.68527344 257.32449219 -10.68527344 257.32449219 -9.7265625 256.5078125 C-8.44163349 255.38567993 -7.20628025 254.20628025 -6 253 C-5.85442843 250.08274582 -5.81401033 247.28685195 -5.875 244.375 C-5.91625 241.61125 -5.9575 238.8475 -6 236 C-11.61 236 -17.22 236 -23 236 Z " fill="#555050" transform="translate(469,53)"/>
<path d="M0 0 C1.08347717 -0.00744736 1.08347717 -0.00744736 2.18884277 -0.01504517 C4.57862298 -0.02965051 6.96833679 -0.03646638 9.3581543 -0.04199219 C11.02101137 -0.04774538 12.68386842 -0.0535031 14.34672546 -0.05926514 C17.83450631 -0.06977077 21.32226415 -0.07561617 24.81005859 -0.07910156 C29.27222761 -0.08458259 33.73409091 -0.10860397 38.19616413 -0.13707352 C41.63204325 -0.15572792 45.06784917 -0.16090701 48.50377464 -0.16243744 C50.14836484 -0.16545864 51.79295391 -0.17346917 53.43749428 -0.18662262 C55.7424179 -0.20374064 58.04660053 -0.20178908 60.3515625 -0.1953125 C61.66155716 -0.19895813 62.97155182 -0.20260376 64.32124329 -0.20635986 C68.80099129 0.25755852 72.17130967 1.61184935 75.5144043 4.66113281 C79.46539627 9.73531648 79.99898069 12.92825549 80.046875 19.27539062 C80.0534462 19.99610245 80.0600174 20.71681427 80.06678772 21.45936584 C80.08649621 23.84433094 80.09817857 26.22923309 80.1081543 28.61425781 C80.11222982 29.43021172 80.11630535 30.24616562 80.12050438 31.0868454 C80.14135592 35.40668992 80.15566089 39.72650277 80.16503906 44.04638672 C80.17609421 48.49958125 80.21048606 52.95227484 80.25021076 57.40529251 C80.27640639 60.83692326 80.28473355 64.26843524 80.28832054 67.70015717 C80.29317987 69.34114714 80.30477525 70.98213204 80.32335854 72.62302399 C80.34781111 74.92551397 80.34677439 77.22671573 80.33984375 79.52929688 C80.34570999 80.83707092 80.35157623 82.14484497 80.35762024 83.49224854 C79.59398176 89.23641531 77.46202736 92.9264009 72.80737305 96.53613281 C68.2834305 99.03873933 65.05556069 99.29473784 59.93920898 99.32226562 C58.88740196 99.32971298 58.88740196 99.32971298 57.81434631 99.33731079 C55.49430356 99.3519159 53.17432923 99.35873252 50.85424805 99.36425781 C49.2386271 99.37001173 47.62300617 99.37576943 46.00738525 99.38153076 C42.61795738 99.39203682 39.22855319 99.3978817 35.83911133 99.40136719 C31.5070729 99.40684346 27.17535012 99.43085442 22.84341049 99.45933914 C19.5044261 99.47801457 16.16551688 99.48317378 12.82648468 99.48470306 C11.23016896 99.48772033 9.63385427 99.49571747 8.03759003 99.50888824 C5.79752515 99.52604788 3.55822015 99.52404455 1.31811523 99.51757812 C0.04587097 99.52122375 -1.22637329 99.52486938 -2.53717041 99.52862549 C-7.22304173 99.04934794 -11.22811144 97.79874258 -14.87231445 94.66113281 C-18.72081352 89.56518923 -19.25831552 86.34004816 -19.29125977 80.03100586 C-19.29622467 79.30868774 -19.30118958 78.58636963 -19.30630493 77.84216309 C-19.32091028 75.45238288 -19.32772615 73.06266907 -19.33325195 70.67285156 C-19.33900515 69.00999449 -19.34476286 67.34713744 -19.3505249 65.6842804 C-19.36103054 62.19649954 -19.36687593 58.70874171 -19.37036133 55.22094727 C-19.37584236 50.75877825 -19.39986373 46.29691495 -19.42833328 41.83484173 C-19.44698769 38.39896261 -19.45216677 34.96315669 -19.4536972 31.52723122 C-19.4567184 29.88264102 -19.46472894 28.23805195 -19.47788239 26.59351158 C-19.4950004 24.28858796 -19.49304885 21.98440533 -19.48657227 19.67944336 C-19.4902179 18.3694487 -19.49386353 17.05945404 -19.49761963 15.70976257 C-19.03370125 11.23001457 -17.67941042 7.85969619 -14.63012695 4.51660156 C-9.54640018 0.55817889 -6.35928321 0.03320659 0 0 Z M-3.13012695 16.16113281 C-3.13012695 38.27113281 -3.13012695 60.38113281 -3.13012695 83.16113281 C18.97987305 83.16113281 41.08987305 83.16113281 63.86987305 83.16113281 C63.86987305 61.05113281 63.86987305 38.94113281 63.86987305 16.16113281 C41.75987305 16.16113281 19.64987305 16.16113281 -3.13012695 16.16113281 Z " fill="#555050" transform="translate(93.130126953125,363.8388671875)"/>
<path d="M0 0 C9.21438322 3.39477276 15.96824685 12.90010469 21 21 C22.57118358 25.71355075 23.02006837 30.41169568 21.1640625 35.12109375 C18.5514464 39.618651 15.21251042 42.86839027 11.2265625 46.16015625 C8.80738991 48.15915676 6.50165981 50.25552348 4.1875 52.375 C0.81059018 55.42858867 -2.63217132 58.34429205 -6.1875 61.1875 C-10.82458295 64.93258397 -15.17082364 68.90991138 -19.5 73 C-21.994635 75.33913263 -24.49500567 77.67196652 -27 80 C-27.5269043 80.49193848 -28.05380859 80.98387695 -28.59667969 81.49072266 C-33.5940798 86.09652322 -37.78992274 89.87312308 -44.734375 90.48828125 C-51.24145771 89.08589274 -56.24797885 84.31522315 -61.0625 80 C-62.37721476 78.84070407 -63.69232865 77.68186065 -65.0078125 76.5234375 C-65.66942383 75.93788086 -66.33103516 75.35232422 -67.01269531 74.74902344 C-70.12657284 72.00850518 -73.28234944 69.31776151 -76.4375 66.625 C-77.58741109 65.63822066 -78.73715724 64.65124907 -79.88671875 63.6640625 C-81.77623667 62.04316656 -83.67393246 60.435161 -85.58203125 58.8359375 C-86.65517578 57.92714844 -86.65517578 57.92714844 -87.75 57 C-88.34296875 56.505 -88.9359375 56.01 -89.546875 55.5 C-92.64795182 52.29888845 -93.34832058 49.19224315 -93.5 44.8125 C-93.21908887 34.19405945 -84.94499937 27.50228885 -77.8046875 20.50390625 C-72.89233472 16.11836567 -69.38340771 15.43818668 -62.87890625 15.55078125 C-57.99085411 16.31350309 -54.78231818 18.96988769 -51 22 C-49.65071776 22.9651982 -48.29696225 23.92419374 -46.9375 24.875 C-45.968125 25.57625 -44.99875 26.2775 -44 27 C-37.04771055 21.50911017 -30.47042308 15.784637 -24.12451172 9.60668945 C-16.71069037 2.53262302 -10.53959162 -1.61903365 0 0 Z M-12.375 21.3125 C-13.30904663 22.12086304 -13.30904663 22.12086304 -14.26196289 22.94555664 C-17.86778662 26.08227054 -21.41414096 29.27604399 -24.91723633 32.52685547 C-27.2621147 34.70265557 -29.6272568 36.85458549 -32 39 C-32.65484375 39.59296875 -33.3096875 40.1859375 -33.984375 40.796875 C-37.73217863 43.85700824 -40.94517392 44.83188695 -45.67578125 44.55078125 C-50.14125151 43.49257737 -53.43909579 40.78352371 -57 38 C-58.52063412 36.87473075 -60.04145623 35.74971546 -61.5625 34.625 C-62.71021429 33.75246867 -63.85679443 32.87843044 -65 32 C-69.52615993 35.67832017 -73.39424999 39.41086363 -77 44 C-66.98388051 54.1238197 -56.11115599 63.11904019 -45 72 C-41.32043709 70.43767979 -38.83484207 68.16415918 -35.9375 65.4375 C-32.28859927 62.0431595 -28.58418125 58.80023354 -24.6875 55.6875 C-18.95444064 51.06327017 -13.6165341 46.06862672 -8.25 41.03125 C-5.08431911 38.06342417 -1.84755059 35.1888127 1.44921875 32.3671875 C3.03329094 30.97065031 4.52278347 29.50845676 6 28 C5.52949219 27.46890625 5.05898438 26.9378125 4.57421875 26.390625 C3.95160156 25.68421875 3.32898438 24.9778125 2.6875 24.25 C1.76517578 23.20585937 1.76517578 23.20585937 0.82421875 22.140625 C-1 20 -1 20 -2.60546875 17.734375 C-3.06566406 17.16203125 -3.52585937 16.5896875 -4 16 C-7.50301692 16 -9.84011575 19.09139094 -12.375 21.3125 Z " fill="#555050" transform="translate(391,377)"/>
<path d="M0 0 C1.24566818 -0.00967334 1.24566818 -0.00967334 2.51650137 -0.0195421 C3.87714054 -0.01489629 3.87714054 -0.01489629 5.26526737 -0.01015663 C6.23295915 -0.01468774 7.20065093 -0.01921886 8.1976667 -0.02388728 C11.44885053 -0.03657447 14.69986777 -0.03490812 17.95107365 -0.03325844 C20.27849894 -0.03924093 22.60592225 -0.04604582 24.93334293 -0.05361366 C31.26176294 -0.07130782 37.59012889 -0.07597044 43.91857123 -0.07724524 C49.19714369 -0.0791423 54.47570349 -0.0864975 59.75427109 -0.09358943 C71.49302217 -0.10923635 83.23174978 -0.11492617 94.97051036 -0.11357872 C95.67485308 -0.11349881 96.3791958 -0.1134189 97.10488224 -0.11333656 C97.81008438 -0.1132548 98.51528653 -0.11317304 99.24185843 -0.1130888 C110.67433493 -0.11227565 122.10667976 -0.13142085 133.53911816 -0.1596133 C145.27671715 -0.18833003 157.01425189 -0.2021543 168.7518869 -0.20042574 C175.34219635 -0.19991505 181.93235676 -0.20565762 188.52263546 -0.22678185 C194.71883481 -0.24610029 200.91474197 -0.24633242 207.11095142 -0.23174858 C209.38740241 -0.22965154 211.66387138 -0.23441431 213.9402914 -0.2464695 C217.04342975 -0.26184079 220.14555034 -0.25266719 223.24866581 -0.23720741 C224.15352787 -0.24749454 225.05838993 -0.25778167 225.99067205 -0.26838052 C230.14283514 -0.22253723 232.2793879 -0.07985183 235.87938881 2.16317368 C237.97388264 4.42278845 238.48347737 5.22987429 238.38295841 8.25726891 C238.38424747 8.91726891 238.38553654 9.57726891 238.38686466 10.25726891 C237.52081317 13.3153266 236.38644441 14.34653547 233.82045841 16.25726891 C230.65027099 16.86256048 227.512062 16.79224526 224.29299259 16.75847435 C222.82814592 16.76677595 222.82814592 16.76677595 221.33370638 16.77524525 C218.05234096 16.78888854 214.7717313 16.7738622 211.49038029 16.75897789 C209.14162719 16.76275972 206.79287633 16.76825862 204.4441309 16.77535057 C198.05784481 16.78934012 191.67182709 16.77811067 185.28555584 16.76163936 C179.28645654 16.74921482 173.28737576 16.75339715 167.2882697 16.75676907 C155.40100545 16.76264904 143.5138471 16.74847076 131.62661076 16.72382164 C120.08913548 16.69990043 108.55180169 16.69281718 97.01430607 16.70331383 C84.45385107 16.71472066 71.89346154 16.71665603 59.33300734 16.70221573 C52.68297208 16.69463825 46.03298254 16.69078872 39.38294315 16.69672012 C33.13177102 16.70148344 26.88079535 16.6914148 20.62966061 16.66976547 C18.3318374 16.66418866 16.03399535 16.66374045 13.73617077 16.66871834 C10.60653533 16.67464922 7.47750504 16.66220791 4.34792423 16.64494896 C2.97458904 16.65396403 2.97458904 16.65396403 1.57350969 16.66316122 C-4.51083706 16.60188466 -4.51083706 16.60188466 -7.7203207 14.94788265 C-10.05232928 12.24608076 -10.05724103 9.74283478 -10.17954159 6.25726891 C-9.37328801 3.54532505 -8.7808973 2.61705966 -6.35873169 1.16787946 C-4.04373861 0.20052139 -2.49450679 0.00491028 0 0 Z " fill="#555050" transform="translate(92.17954158782959,164.74273109436035)"/>
<path d="M0 0 C0.96189938 -0.00297112 1.92379876 -0.00594224 2.9148466 -0.0090034 C6.15838357 -0.01771875 9.40188375 -0.01920104 12.64543152 -0.02069092 C14.96270833 -0.02531708 17.27998437 -0.03034147 19.59725952 -0.03573608 C25.90719264 -0.04888141 32.21711511 -0.05530918 38.52705979 -0.05974674 C42.46593447 -0.06267399 46.40480622 -0.06677813 50.34367943 -0.07125092 C61.24598617 -0.08336286 72.14828968 -0.09374391 83.05060291 -0.09712601 C83.74863112 -0.09734557 84.44665932 -0.09756514 85.16583989 -0.09779136 C86.21541123 -0.09811878 86.21541123 -0.09811878 87.28618604 -0.09845281 C88.70411162 -0.09889628 90.12203719 -0.09934284 91.53996277 -0.09979248 C92.2433053 -0.10001391 92.94664783 -0.10023534 93.67130377 -0.10046348 C105.06831448 -0.10441159 116.46526126 -0.12186534 127.86224727 -0.145152 C139.55909674 -0.16885872 151.25591096 -0.1810695 162.95278472 -0.18249393 C169.52186274 -0.18354386 176.09085063 -0.18949169 182.65990639 -0.20731354 C188.83797624 -0.22374798 195.01588776 -0.22597223 201.19397163 -0.21717453 C203.46397067 -0.21640167 205.73397806 -0.22077939 208.00395584 -0.23063278 C211.09828671 -0.24327873 214.19205059 -0.23751537 217.28637695 -0.22705078 C218.1887123 -0.23510719 219.09104766 -0.24316359 220.0207265 -0.25146413 C224.76855176 -0.21380487 227.99673199 0.0135197 231.83366394 3.14044189 C233.3795327 6.23217941 233.12725915 8.73473742 232.83366394 12.14044189 C231.4095993 14.33567905 231.4095993 14.33567905 228.83366394 16.14044189 C225.6606201 16.735563 222.52651033 16.67543128 219.30619812 16.64164734 C217.84135144 16.64994893 217.84135144 16.64994893 216.34691191 16.65841824 C213.06554649 16.67206152 209.78493683 16.65703519 206.50358582 16.64215088 C204.15483272 16.6459327 201.80608186 16.65143161 199.45733643 16.65852356 C193.07105034 16.67251311 186.68503262 16.66128366 180.29876137 16.64481235 C174.29966207 16.63238781 168.30058129 16.63657014 162.30147523 16.63994206 C150.41421098 16.64582203 138.52705263 16.63164375 126.63981628 16.60699463 C115.10234101 16.58307342 103.56500722 16.57599017 92.0275116 16.58648682 C79.4670566 16.59789364 66.90666706 16.59982902 54.34621286 16.58538872 C47.69617761 16.57781124 41.04618807 16.57396171 34.39614868 16.57989311 C28.14497655 16.58465643 21.89400088 16.57458779 15.64286613 16.55293846 C13.34504293 16.54736165 11.04720088 16.54691344 8.7493763 16.55189133 C5.61974086 16.5578222 2.49071057 16.5453809 -0.63887024 16.52812195 C-2.01220544 16.53713702 -2.01220544 16.53713702 -3.41328478 16.54633421 C-9.50175058 16.48501617 -9.50175058 16.48501617 -12.69930267 14.82714939 C-15.10524845 12.06093643 -15.16633606 9.73195683 -15.16633606 6.14044189 C-11.03577811 -0.41147761 -7.22053946 -0.0068826 0 0 Z " fill="#555050" transform="translate(97.16633605957031,197.85955810546875)"/>
<path d="M0 0 C0.81589517 -0.00384115 1.63179034 -0.00768229 2.47240961 -0.01163983 C3.36325647 -0.01077335 4.25410334 -0.00990687 5.17194557 -0.00901413 C6.12259758 -0.01198525 7.07324958 -0.01495637 8.05270922 -0.01801753 C11.24624161 -0.0267067 14.43973652 -0.02821296 17.6332798 -0.02970505 C19.91967283 -0.034333 22.20606508 -0.03935763 24.49245644 -0.04475021 C30.70936602 -0.05787688 36.92626481 -0.06431949 43.14318609 -0.06876087 C47.02546109 -0.07169067 50.90773313 -0.07579527 54.79000664 -0.08026505 C65.54055575 -0.09237281 76.29110099 -0.10275566 87.04165649 -0.10614014 C87.72946006 -0.1063597 88.41726363 -0.10657927 89.12590972 -0.10680549 C89.81534745 -0.10702377 90.50478517 -0.10724204 91.21511495 -0.10746694 C92.61215297 -0.1079104 94.009191 -0.10835696 95.40622902 -0.10880661 C96.09920639 -0.10902804 96.79218377 -0.10924947 97.50616045 -0.10947761 C108.73747244 -0.11342652 119.96871959 -0.13088447 131.20000653 -0.15416613 C142.73307407 -0.17788032 154.26609983 -0.190084 165.79919302 -0.19150805 C172.27381735 -0.19255738 178.74835018 -0.1984926 185.22295189 -0.21632767 C191.31158749 -0.2327734 197.40006245 -0.23498082 203.48871231 -0.22618866 C205.72442937 -0.22541646 207.96015494 -0.229785 210.19585037 -0.23964691 C213.24593605 -0.25231318 216.29544819 -0.24651838 219.34552956 -0.23606491 C220.23191498 -0.24412132 221.11830041 -0.25217772 222.031546 -0.26047826 C227.04989806 -0.22020335 230.54874865 0.3141946 234.88572121 3.13142776 C236.43158996 6.22316528 236.17931642 8.72572329 235.88572121 12.13142776 C234.46444988 14.32666492 234.46444988 14.32666492 231.88572121 16.13142776 C228.69787131 16.72694541 225.54851692 16.66640209 222.31356239 16.63263321 C221.33220882 16.63816761 220.35085526 16.643702 219.3397637 16.64940411 C216.04224604 16.66304766 212.74548039 16.64802095 209.44797707 16.63313675 C207.08774938 16.63691854 204.72752391 16.64241742 202.36730385 16.64950943 C195.95009461 16.66349867 189.53315245 16.65227009 183.11595798 16.63579822 C177.08881571 16.62169567 171.06167052 16.6275558 165.03451867 16.63092793 C153.09286665 16.63680773 141.15132006 16.62262967 129.20969582 16.5979805 C117.61688219 16.57405396 106.02420939 16.56697815 94.4313755 16.57747269 C81.81196655 16.58887604 69.19262275 16.59081961 56.57321459 16.57637459 C55.22823656 16.57484872 53.88325853 16.57332837 52.53828049 16.57181358 C51.54560392 16.57067686 51.54560392 16.57067686 50.53287328 16.56951718 C45.86445672 16.56477025 41.19608652 16.56673703 36.52767181 16.57087898 C30.24777592 16.57563898 23.96807579 16.56558756 17.68821716 16.54392433 C15.37868599 16.5383432 13.06913606 16.53790323 10.7596035 16.5428772 C7.61648131 16.54879925 4.47396393 16.53638402 1.33089638 16.51910782 C0.40853579 16.52511786 -0.5138248 16.53112791 -1.46413571 16.53732008 C-2.30365699 16.52888014 -3.14317828 16.5204402 -4.00813961 16.5117445 C-4.73389519 16.51071537 -5.45965078 16.50968624 -6.20739895 16.50862592 C-8.70901178 16.01378418 -9.57031246 15.13220354 -11.11427879 13.13142776 C-12.05177879 9.75642776 -12.05177879 9.75642776 -12.11427879 6.13142776 C-10.46710441 3.32513067 -9.37885102 1.54991579 -6.22688997 0.5068295 C-4.10349039 0.12951071 -2.15545601 0.00382172 0 0 Z " fill="#555050" transform="translate(94.11427879333496,230.86857223510742)"/>
<path d="M0 0 C0.6847641 -0.0065712 1.3695282 -0.0131424 2.07504272 -0.01991272 C4.34519558 -0.03965166 6.61528225 -0.05130982 8.88549805 -0.0612793 C10.04835359 -0.06739259 10.04835359 -0.06739259 11.23470116 -0.07362938 C15.33826812 -0.0944931 19.44180161 -0.10879323 23.54541016 -0.11816406 C27.78248809 -0.12922666 32.01904058 -0.16362342 36.25593281 -0.20333576 C39.51506013 -0.2294913 42.77406209 -0.23785494 46.03328514 -0.24144554 C47.59498835 -0.24631464 49.15668584 -0.25793794 50.71828651 -0.27648354 C52.90636338 -0.30085293 55.09307876 -0.29991487 57.28125 -0.29296875 C59.14750786 -0.30176811 59.14750786 -0.30176811 61.0514679 -0.31074524 C64.95153221 0.26863375 66.59109225 1.39126949 69.3347168 4.17700195 C70.59081695 7.86679615 70.67824493 9.44087024 69.0222168 12.98950195 C67.3347168 15.17700195 67.3347168 15.17700195 65.3347168 16.17700195 C63.04836706 16.28457453 60.75881713 16.32592835 58.4699707 16.33813477 C57.76409317 16.34309967 57.05821564 16.34806458 56.33094788 16.35317993 C53.9910485 16.36780916 51.65121693 16.37460479 49.3112793 16.38012695 C47.68704221 16.38587779 46.06280515 16.39163553 44.43856812 16.3973999 C41.03057539 16.40791206 37.62260627 16.41375331 34.21459961 16.41723633 C29.84748732 16.4227215 25.48068676 16.44674892 21.11367226 16.47520828 C17.75765064 16.49383135 14.40170415 16.49904008 11.04563522 16.5005722 C9.43567577 16.50360003 7.82571767 16.51163297 6.21580887 16.52475739 C3.96304863 16.54181142 1.71105054 16.53993962 -0.54174805 16.53344727 C-1.82367035 16.5370929 -3.10559265 16.54073853 -4.42636108 16.54449463 C-7.88581274 16.15198036 -9.27770973 15.66995394 -11.6652832 13.17700195 C-12.6652832 9.80200195 -12.6652832 9.80200195 -12.6652832 6.17700195 C-9.03884831 0.42472592 -6.54037039 0.05184856 0 0 Z " fill="#555050" transform="translate(94.665283203125,313.822998046875)"/>
<path d="M0 0 C0.71577713 -0.00686325 1.43155426 -0.0137265 2.16902161 -0.02079773 C4.53614109 -0.03910551 6.90260027 -0.03522269 9.26977539 -0.02954102 C10.91500566 -0.03410111 12.56023402 -0.03940616 14.20545959 -0.04542542 C17.65462987 -0.05436444 21.10356871 -0.05192472 24.55273438 -0.04199219 C28.97266994 -0.03050444 33.39180637 -0.05070637 37.81163692 -0.07990932 C41.20973281 -0.09825743 44.60763674 -0.09798164 48.00576973 -0.0922718 C49.63526086 -0.0921184 51.26476484 -0.09817845 52.89420891 -0.11056328 C55.1734716 -0.12544512 57.45125238 -0.11481871 59.73046875 -0.09765625 C61.67547523 -0.097407 61.67547523 -0.097407 63.65977478 -0.09715271 C67.4631331 0.48577465 68.6426408 1.37199889 70.92993164 4.40405273 C71.63875467 7.31190155 71.26964953 9.34659174 70.92993164 12.40405273 C69.53134015 14.57186954 68.65299523 15.16684192 66.2341156 15.96038818 C63.2323307 16.53837396 60.37076979 16.54755238 57.31298828 16.56518555 C56.65719284 16.57015045 56.0013974 16.57511536 55.32572937 16.58023071 C53.16383808 16.59479433 51.0020201 16.60164367 48.84008789 16.60717773 C47.33320617 16.61293282 45.82632445 16.61869051 44.31944275 16.62445068 C41.16299093 16.63494336 38.00656445 16.64079773 34.85009766 16.64428711 C30.81046348 16.64977616 26.77116562 16.67381996 22.731637 16.70225906 C19.62006149 16.72090182 16.50856687 16.72609185 13.39694023 16.72762299 C11.90782261 16.73064504 10.41870626 16.73865851 8.92964363 16.75180817 C6.84492617 16.76890791 4.76102912 16.76697974 2.67626953 16.76049805 C1.49142471 16.76414368 0.3065799 16.76778931 -0.91416931 16.77154541 C-4.42681306 16.36251114 -6.26497652 15.52404859 -9.07006836 13.40405273 C-11.07006836 10.40405273 -11.07006836 10.40405273 -10.88256836 6.90405273 C-9.32762109 0.20581835 -6.55924105 0.02734791 0 0 Z " fill="#555050" transform="translate(176.070068359375,264.595947265625)"/>
<path d="M0 0 C3.32274404 2.45594125 4.77618008 3.9256644 5.625 8 C4.77980819 12.0569207 3.10599512 13.27767753 0 16 C-2.47581713 17.5897037 -5.05133394 18.9234276 -7.6796875 20.2421875 C-8.41067657 20.6148172 -9.14166565 20.9874469 -9.89480591 21.37136841 C-11.43361065 22.1511835 -12.97508346 22.92575376 -14.51904297 23.6953125 C-16.87119177 24.87309312 -19.20679433 26.07996824 -21.54296875 27.2890625 C-23.04595833 28.04609351 -24.54983689 28.80136269 -26.0546875 29.5546875 C-26.74658173 29.91601776 -27.43847595 30.27734802 -28.15133667 30.64962769 C-32.79525711 32.91753314 -35.82333292 33.3534246 -41 32 C-43.76913845 29.67749678 -43.97632892 28.14465659 -44.5625 24.5625 C-43.92470251 20.52311592 -42.89992557 19.67719153 -39.7722168 17.23599243 C-36.86169835 15.20611732 -33.79652493 13.59303538 -30.625 12.01171875 C-29.93744629 11.66365677 -29.24989258 11.31559479 -28.54150391 10.95698547 C-27.09806293 10.22956127 -25.65254985 9.5062354 -24.20507812 8.78686523 C-21.99883557 7.68691946 -19.8041415 6.56599519 -17.609375 5.44335938 C-16.1985661 4.73568298 -14.78712815 4.02925897 -13.375 3.32421875 C-12.7248291 2.98992355 -12.0746582 2.65562836 -11.40478516 2.311203 C-7.44572296 0.37139225 -4.40355975 -0.55163127 0 0 Z " fill="#555050" transform="translate(143,397)"/>
</svg>
