<?xml version="1.0" encoding="UTF-8"?>
<svg version="1.1" xmlns="http://www.w3.org/2000/svg" width="512" height="512">
<path d="M0 0 C1.69470101 -0.00668677 1.69470101 -0.00668677 3.4236384 -0.01350862 C5.28590725 -0.01323207 5.28590725 -0.01323207 7.18579769 -0.01294994 C8.50452513 -0.01662663 9.82325257 -0.02030332 11.18194145 -0.02409142 C14.84577874 -0.03410436 18.50959965 -0.03782708 22.17344868 -0.04048073 C26.12387133 -0.04438592 30.07428102 -0.05396416 34.0246954 -0.0626936 C43.56709908 -0.08245265 53.10950382 -0.09252382 62.65192285 -0.10142139 C67.14683676 -0.10580548 71.6417495 -0.111172 76.13666248 -0.11641026 C91.08115965 -0.1334225 106.02565608 -0.14791611 120.97016144 -0.155159 C124.8480247 -0.15706886 128.72588795 -0.1589892 132.60375118 -0.16094494 C134.04946883 -0.16167055 134.04946883 -0.16167055 135.5243929 -0.16241082 C151.13340549 -0.17070903 166.7423414 -0.19604244 182.35132051 -0.22852562 C198.38072771 -0.26161143 214.41009595 -0.27960916 230.43953747 -0.28280324 C239.43782617 -0.284967 248.43600306 -0.29369594 257.43425846 -0.31926441 C265.09856187 -0.34099227 272.76272632 -0.34901161 280.42705704 -0.33929763 C284.3352955 -0.33475886 288.24324736 -0.3366142 292.15144634 -0.35605907 C295.73506099 -0.37373444 299.31818088 -0.37265819 302.9018011 -0.35716178 C304.80028046 -0.35367674 306.69876528 -0.36977944 308.59717184 -0.38676625 C320.44789631 -0.29819053 329.83902966 2.86597124 338.47850704 11.13422108 C346.90768053 20.35362958 349.55508348 30.18699438 349.79491329 42.37250233 C349.81569439 43.25326939 349.83647549 44.13403645 349.85788631 45.04149342 C349.92304641 47.84315987 349.98211025 50.64491665 350.04100704 53.44672108 C350.08422419 55.35102713 350.12783949 57.2553242 350.17186642 59.1596117 C350.27869327 63.81772326 350.38005444 68.4759253 350.47850704 73.13422108 C351.02994381 71.83387928 351.02994381 71.83387928 351.59252071 70.50726795 C352.97568209 67.25461131 354.36486641 64.00466192 355.75804806 60.75629139 C356.35678973 59.35691989 356.95319861 57.95654764 357.54711056 56.55511951 C365.89092902 36.87802365 365.89092902 36.87802365 371.35350704 33.19672108 C374.47850704 32.13422108 374.47850704 32.13422108 377.92772579 32.10297108 C381.44357752 31.54220735 381.44357752 31.54220735 382.66503048 29.49725819 C383.70363786 27.22077574 384.5749477 24.92826539 385.41600704 22.57172108 C389.36184648 12.70905294 393.79944768 6.31156436 403.71678829 1.82562733 C410.90723056 -0.99634226 420.17352773 -1.221251 427.58006954 1.11078358 C430.01554418 2.31012607 432.23452312 3.61008942 434.47850704 5.13422108 C435.38600704 5.69109608 436.29350704 6.24797108 437.22850704 6.82172108 C443.53416094 13.30253203 447.27263273 21.03210656 447.57616329 30.02875233 C447.33292939 38.07492987 445.14056147 44.17378123 441.75585079 51.33343983 C440.34019041 53.9244511 440.34019041 53.9244511 440.47850704 56.13422108 C441.65413204 56.81484608 441.65413204 56.81484608 442.85350704 57.50922108 C445.6518865 59.24155122 446.45655845 60.06837531 447.47850704 63.13422108 C447.47850704 64.45422108 447.47850704 65.77422108 447.47850704 67.13422108 C448.00283321 67.35038074 448.52715939 67.56654041 449.06737423 67.78925037 C451.46074065 68.78560426 453.84442345 69.80336635 456.22850704 70.82172108 C457.05350704 71.16138905 457.87850704 71.50105701 458.72850704 71.85101795 C463.40412151 73.86831936 466.94099328 75.48443624 469.47850704 80.13422108 C470.32905019 86.21045424 467.68507715 91.01056616 465.25585079 96.41547108 C464.58394207 97.94693775 464.58394207 97.94693775 463.89845943 99.50934315 C462.92501877 101.72509952 461.9466289 103.93868666 460.96388912 106.15033436 C458.5836786 111.50757955 456.23277864 116.87763917 453.87890339 122.24649525 C453.05794156 124.11779397 452.2356065 125.98848445 451.41303158 127.85907459 C446.17701169 139.77441915 441.07054151 151.74380921 435.98799801 163.72537708 C434.54711154 167.11984 433.10245934 170.51267439 431.65648556 173.90497303 C427.68579944 183.22230449 423.71988553 192.54108588 419.81131649 201.88467884 C418.34104263 205.39350418 416.85908101 208.89730953 415.37447262 212.40009022 C414.70246573 213.99402508 414.03606716 215.59033797 413.37575436 217.18915272 C412.48396938 219.34766555 411.57355726 221.49734303 410.65819454 223.64593983 C410.16045528 224.83663074 409.66271603 226.02732166 409.14989376 227.25409412 C407.26761198 230.49763461 405.89966103 231.66352797 402.47850704 233.13422108 C399.029034 233.01527373 396.54515386 232.80976406 393.60350704 230.94672108 C392.0001008 228.36345547 391.77011377 226.15151463 391.47850704 223.13422108 C392.1892767 220.49977589 392.1892767 220.49977589 393.37621212 217.82098866 C393.81535442 216.80832432 394.25449673 215.79565998 394.70694637 214.75230885 C395.19488171 213.66791019 395.68281704 212.58351154 396.18553829 211.46625233 C397.21242948 209.11551923 398.2392838 206.76477003 399.2661047 204.41400623 C399.79979671 203.20714161 400.33348873 202.00027699 400.88335323 200.75684071 C403.3854945 195.07443816 405.80805651 189.35854241 408.24022579 183.64593983 C409.21548046 181.36762891 410.19148107 179.08963717 411.16820431 176.81195545 C411.65813869 175.66944324 412.14807308 174.52693104 412.65285397 173.34979725 C413.15219448 172.18553211 413.651535 171.02126698 414.16600704 169.82172108 C414.68331387 168.61507801 415.20062069 167.40843494 415.73360348 166.16522694 C422.31554503 150.81270086 428.90990497 135.46558774 435.54100704 120.13422108 C435.85226528 119.41447102 436.16352352 118.69472095 436.48421383 117.95316029 C440.78920811 108.0019165 445.12638961 98.06493926 449.47850704 88.13422108 C446.50850704 86.81422108 443.53850704 85.49422108 440.47850704 84.13422108 C429.21616904 109.91289816 418.02623116 135.72210772 406.8857336 161.55365467 C403.31461894 169.83339703 399.73915328 178.11126047 396.16399288 186.38925648 C394.18531723 190.97083345 392.20692664 195.55253352 390.22850704 200.13422108 C389.43684174 201.967555 388.64517507 203.80088833 387.85350704 205.63422108 C387.46163204 206.54172108 387.06975704 207.44922108 386.66600704 208.38422108 C379.14517371 225.80088774 371.62434038 243.21755441 364.10350704 260.63422108 C363.71161694 261.54175632 363.31972683 262.44929157 362.91596127 263.38432789 C362.12444797 265.21730552 361.33293389 267.05028282 360.54141903 268.88325977 C358.55989945 273.47203258 356.57839349 278.06081127 354.59691525 282.64960194 C351.06254108 290.83461866 347.52808326 299.01959918 343.99309444 307.20435047 C342.05066329 311.70177768 340.10832282 316.19924404 338.16600704 320.69672108 C337.78096004 321.58828907 337.39591305 322.47985706 336.99919796 323.39844227 C331.79972585 335.43808471 326.60352277 347.47913288 321.41083431 359.52170277 C319.03783465 365.02488452 316.66407812 370.52773669 314.2883215 376.02972889 C313.37772974 378.13876602 312.4671661 380.24781529 311.55663204 382.35687733 C310.89778263 383.88295109 310.89778263 383.88295109 310.22562313 385.43985462 C307.90838063 390.81023894 305.59852289 396.18365183 303.30129147 401.56262684 C302.09296114 404.39113564 300.88061359 407.21791178 299.66765499 410.04443836 C298.88499113 411.8731575 298.10861746 413.70456485 297.33251095 415.53607655 C291.69629504 428.65563836 291.69629504 428.65563836 285.79100704 433.44672108 C282.69670849 436.04730966 279.81244965 438.751333 276.97850704 441.63422108 C273.59609305 445.06304898 270.09780262 448.25470626 266.44335079 451.38812733 C264.37030381 453.23037783 262.42414903 455.1582377 260.47850704 457.13422108 C257.29629542 460.35985469 254.00302023 463.38024139 250.56444454 466.32953358 C247.47441603 469.00292904 244.47065178 471.77151139 241.45897579 474.53265858 C236.88773524 478.22932253 231.05760864 477.56646137 225.47850704 477.13422108 C220.18301247 475.36905622 217.72129226 472.48881837 214.47850704 468.13422108 C205.16972036 449.51664772 209.92124489 400.16011931 215.68306637 380.57706165 C218.49200255 372.55167668 222.46844996 365.10311576 226.74483395 357.77188587 C231.50093722 349.60639539 235.03853942 340.95985145 238.67537594 332.2533617 C240.63299336 327.58976479 242.64864226 322.95139494 244.65819454 318.31000233 C245.46284058 316.44505325 246.26720248 314.57998155 247.07128048 312.71478748 C250.64211901 304.43568535 254.21731148 296.15846342 257.79219723 287.88110828 C259.77507202 283.28978372 261.75762246 278.69831911 263.74022579 274.10687733 C266.48126645 267.75911538 269.22250534 261.41143911 271.96401119 255.06387806 C281.26939132 233.51858721 290.56970238 211.9711182 299.86431026 190.42117786 C307.43053242 172.87868353 315.00205492 155.33848397 322.57811642 137.8002367 C323.14330738 136.49170734 323.14330738 136.49170734 323.71991634 135.15674305 C324.4143177 133.54908007 325.10879905 131.94145164 325.80338192 130.33386707 C326.11342663 129.61604053 326.42347134 128.898214 326.74291134 128.15863514 C327.00742596 127.54635059 327.27194057 126.93406605 327.54447079 126.30322742 C327.85270275 125.58745533 328.16093472 124.87168324 328.47850704 124.13422108 C329.26220165 122.53643063 329.26220165 122.53643063 330.06172848 120.90636158 C331.76214845 116.91266667 331.90840929 113.04918078 331.88255978 108.75555897 C331.88942303 107.9480872 331.89628628 107.14061543 331.90335751 106.30867481 C331.92155495 103.65789325 331.91779821 101.00770753 331.91210079 98.35687733 C331.91666597 96.50274432 331.92197254 94.64861301 331.92798519 92.79448414 C331.93690243 88.91522806 331.93450897 85.036178 331.92455196 81.15692616 C331.91306385 76.19945107 331.93327839 71.24268846 331.9624691 66.28530693 C331.98086426 62.45814508 331.98053204 58.63115293 331.97483158 54.80395794 C331.97467877 52.97681587 331.98068943 51.14966199 331.99312305 49.32256222 C332.00809443 46.76201994 331.99731186 44.20278078 331.98021603 41.64227772 C331.989884 40.8965752 331.99955196 40.15087269 332.0095129 39.38257313 C331.91279526 32.4227162 329.58433877 27.24005281 324.66600704 22.32172108 C316.93533709 17.01635934 310.9315584 16.69893668 301.70743465 16.7398119 C300.41810679 16.73372079 299.12877893 16.72762969 297.80038053 16.72135401 C294.23253916 16.70498273 290.66491916 16.70726662 287.09705341 16.71272898 C283.24484266 16.71540268 279.39269046 16.70086095 275.5405035 16.68863392 C267.99753522 16.66759167 260.45464383 16.66303839 252.91164967 16.6648218 C246.77916942 16.66613011 240.64671314 16.66232181 234.5142374 16.65489674 C232.74688397 16.65279751 230.97953054 16.65069991 229.2121771 16.64860392 C228.332474 16.64756039 227.45277089 16.64651686 226.54641012 16.64544171 C209.91298938 16.626544 193.27961276 16.62758802 176.64618573 16.63441104 C161.43758037 16.63998544 146.2291435 16.61916462 131.02057751 16.58605057 C115.39674165 16.55229695 99.77298647 16.53714737 84.14911348 16.5417676 C75.38060082 16.54401069 66.61224387 16.53879268 57.8437624 16.51387501 C50.37818936 16.4928402 42.91285742 16.48929137 35.44727441 16.5081746 C31.64034951 16.51731934 27.83387386 16.51851485 24.02698421 16.49781895 C19.89448456 16.47560195 15.76303923 16.49235795 11.63053036 16.51276112 C10.43489395 16.50024327 9.23925754 16.48772542 8.00738972 16.47482824 C0.5374539 16.55382264 -5.34619052 17.74115814 -11.52149296 22.13422108 C-16.95488821 27.94500437 -18.67238304 32.52129629 -18.65571404 40.44636536 C-18.65806627 41.20044478 -18.6604185 41.95452421 -18.66284201 42.73145452 C-18.66954166 45.27866275 -18.66907349 47.82582008 -18.66866398 50.37303638 C-18.671962 52.20958577 -18.67568744 54.04613442 -18.67980546 55.88268214 C-18.68984056 60.9455622 -18.69354467 66.00843039 -18.69619477 71.07131898 C-18.70009333 76.52546308 -18.70967195 81.97959775 -18.71840763 87.43373585 C-18.73818439 100.61320781 -18.74823964 113.79268055 -18.75713542 126.97216365 C-18.76151621 133.1749495 -18.76688355 139.3777345 -18.77212429 145.58051968 C-18.78913754 166.19356293 -18.80363254 186.80660565 -18.81087303 207.41965485 C-18.812783 212.77071795 -18.81470166 218.12178104 -18.81665897 223.47284412 C-18.81689912 224.13764923 -18.81713927 224.80245434 -18.8173867 225.48740506 C-18.8252801 247.04327103 -18.84871251 268.59908199 -18.88121492 290.15492393 C-18.91551045 312.94155818 -18.93522277 335.72816506 -18.93851727 358.51482612 C-18.94068454 370.93748398 -18.94946497 383.36006098 -18.97497845 395.78269482 C-18.99665286 406.36064899 -19.00475191 416.93850267 -18.99501166 427.51647653 C-18.99045757 432.91490237 -18.99241769 438.31312072 -19.01177311 443.71151829 C-19.02933818 448.65318197 -19.02846123 453.59448578 -19.01287582 458.53615294 C-19.01048961 460.32421965 -19.01487551 462.11231086 -19.02670447 463.90034004 C-19.23378698 478.15328657 -19.23378698 478.15328657 -11.77149296 489.94672108 C-3.86255308 495.270046 3.03439716 495.57006499 12.33187008 495.52863026 C13.61796881 495.53472136 14.90406755 495.54081246 16.22913897 495.54708815 C19.7833198 495.56343832 23.33727809 495.56117988 26.89148331 495.55571318 C30.73072477 495.55303689 34.56990771 495.56758595 38.40912533 495.57980824 C45.924551 495.60083885 53.43989948 495.60540446 60.9553511 495.60362035 C67.06540089 495.60231158 73.17542665 495.6061227 79.28547192 495.61354542 C81.04694545 495.61564466 82.80841899 495.61774226 84.56989253 495.61983824 C85.88508293 495.62140353 85.88508293 495.62140353 87.22684284 495.62300044 C103.80065642 495.64189309 120.37442571 495.64085554 136.9482456 495.63403112 C152.10182215 495.62845577 167.25522963 495.64928245 182.40876667 495.68239158 C197.97839364 495.71614514 213.54793966 495.73129488 229.1176039 495.72667456 C237.85480275 495.72443163 246.59184532 495.72964725 255.32901287 495.75456715 C262.7671136 495.77560174 270.20497234 495.77915089 277.64308308 495.76026756 C281.43583867 495.75112309 285.22814334 495.7499265 289.02086353 495.77062321 C293.13798424 495.79284114 297.25404676 495.77608379 301.37117672 495.75568104 C302.56224006 495.76819889 303.7533034 495.78071673 304.98045957 495.79361391 C313.07283127 495.70772181 319.94687059 494.19846326 326.12652528 488.6561799 C329.99460548 484.30178772 331.72561185 479.93686253 331.73679256 474.16951466 C331.74703457 472.70814831 331.74703457 472.70814831 331.75748348 471.21725941 C331.75493053 470.15997639 331.75237759 469.10269337 331.74974728 468.01337147 C331.75497402 466.89086491 331.76020077 465.76835835 331.7655859 464.61183643 C331.77582031 462.17665027 331.78160533 459.74144227 331.78346729 457.30623531 C331.78712907 453.45211657 331.80385052 449.59825555 331.82422543 445.74419117 C331.87265188 436.17215737 331.90428649 426.60009126 331.92552853 417.02795887 C331.94350522 408.9391516 331.97289527 400.85060894 332.01957035 392.76190472 C332.03122429 390.20745698 332.03715073 387.65297648 332.03725147 385.09850216 C332.0374434 381.52696163 332.0557017 377.9559272 332.07787228 374.38446522 C332.0732951 373.32920643 332.06871792 372.27394764 332.06400204 371.18671131 C332.11738369 365.78059265 332.33981488 361.7626508 335.47850704 357.13422108 C338.61251589 355.56721665 342.110058 355.28257547 345.47850704 356.13422108 C347.9814905 358.31761663 349.31851106 360.13132434 349.84795094 363.44999218 C349.99357189 366.43172355 350.00719669 369.38994657 349.98021603 372.37518787 C349.9883205 374.07857067 349.9883205 374.07857067 349.99658871 375.81636524 C350.00910001 379.57232158 349.99256268 383.32751474 349.97460079 387.08343983 C349.97475578 389.69792693 349.97624466 392.31241427 349.97901058 394.92689991 C349.98171148 400.41040399 349.96825434 405.89368906 349.94505978 411.377141 C349.91851695 417.69543483 349.91668216 424.01336105 349.92844814 430.33169144 C349.93927602 436.42873599 349.93289305 442.52562773 349.91889286 448.62266445 C349.91438956 451.20731504 349.91403172 453.7919764 349.91795826 456.37662792 C349.92088483 460.00006709 349.90429094 463.62291709 349.88255978 467.24628162 C349.88931225 468.83565037 349.88931225 468.83565037 349.89620113 470.45712757 C349.77958913 482.22343854 346.45056767 492.61106634 338.40428829 501.39984608 C331.08824108 508.29455025 323.05998488 512.24994222 312.95701408 512.26844215 C311.82721341 512.2729 310.69741274 512.27735784 309.53337568 512.28195077 C307.67110683 512.28167423 307.67110683 512.28167423 305.77121639 512.2813921 C304.45248895 512.28506879 303.13376151 512.28874547 301.77507263 512.29253358 C298.11123534 512.30254651 294.44741444 512.30626924 290.7835654 512.30892289 C286.83314276 512.31282807 282.88273306 512.32240631 278.93231869 512.33113575 C269.389915 512.3508948 259.84751026 512.36096597 250.30509123 512.36986354 C245.81017732 512.37424763 241.31526458 512.37961415 236.8203516 512.38485241 C221.87585444 512.40186465 206.93135801 512.41635826 191.98685265 512.42360115 C188.10898939 512.42551101 184.23112614 512.42743135 180.3532629 512.42938709 C179.38945114 512.42987083 178.42563937 512.43035457 177.43262119 512.43085297 C161.82360859 512.43915118 146.21467269 512.46448459 130.60569357 512.49696777 C114.57628638 512.53005359 98.54691813 512.54805132 82.51747662 512.55124539 C73.51918791 512.55340915 64.52101102 512.5621381 55.52275562 512.58770657 C47.85845221 512.60943442 40.19428777 512.61745376 32.52995705 512.60773978 C28.62171859 512.60320101 24.71376673 512.60505636 20.80556774 512.62450123 C17.2219531 512.64217659 13.6388332 512.64110034 10.05521298 512.62560394 C8.15673362 512.62211889 6.2582488 512.6382216 4.35984224 512.65520841 C-7.49088223 512.56663268 -16.88201558 509.40247091 -25.52149296 501.13422108 C-33.38276941 492.53594996 -36.68209268 483.11443797 -36.65292072 471.58156776 C-36.65497336 470.82577984 -36.65702599 470.06999192 -36.65914083 469.29130134 C-36.66481028 466.75030289 -36.66335364 464.20935865 -36.66193485 461.66835499 C-36.66451852 459.83150504 -36.66753168 457.99465566 -36.67093825 456.15780705 C-36.67901132 451.1033052 -36.680798 446.04881755 -36.68153572 440.99431002 C-36.68338574 435.54561744 -36.6909328 430.09693223 -36.69767094 424.6482439 C-36.71125686 412.73089425 -36.71727935 400.81354795 -36.72168159 388.89619184 C-36.72444352 381.45614218 -36.72868078 374.01609382 -36.73318577 366.57604504 C-36.74537866 345.98008048 -36.75567801 325.38411697 -36.75906086 304.78814888 C-36.75928043 303.46978549 -36.75949999 302.15142209 -36.75972621 300.7931083 C-36.75994685 299.45822778 -36.76016733 298.12334727 -36.76038766 296.78846675 C-36.76083021 294.1105053 -36.76127733 291.43254385 -36.76172733 288.75458241 C-36.76183672 288.09060459 -36.76194611 287.42662677 -36.76205882 286.74252841 C-36.76568929 265.21401892 -36.7816093 243.68554311 -36.8049177 222.15704651 C-36.82952031 199.39151429 -36.84322717 176.62599858 -36.84442878 153.86045235 C-36.8453458 141.45230847 -36.85110491 129.04420868 -36.86924839 116.63607693 C-36.88464284 106.0706824 -36.88977368 95.50534559 -36.88151029 84.93994198 C-36.87760152 79.54939057 -36.87854458 74.15895544 -36.89256763 68.76841831 C-36.90529264 63.83171497 -36.90412125 58.89521545 -36.89197692 53.95851245 C-36.89001751 52.17450999 -36.89310962 50.39049317 -36.90182129 48.60651091 C-36.96666605 34.4275598 -35.63225404 22.09966451 -25.70508671 11.12640858 C-18.46860726 4.3723611 -9.94645764 0.01821334 0 0 Z M404.47850704 21.13422108 C401.51741619 25.81172687 399.25264483 30.9020181 397.47850704 36.13422108 C398.15475161 39.26808889 398.15475161 39.26808889 400.65575314 40.392766 C401.5949963 40.79600086 402.53423946 41.19923573 403.50194454 41.61468983 C404.52288204 42.05619373 405.54381954 42.49769764 406.59569454 42.95258045 C407.67077267 43.40439686 408.74585079 43.85621326 409.85350704 44.32172108 C411.45452267 45.01684803 411.45452267 45.01684803 413.08788204 45.72601795 C418.59431194 48.26364091 418.59431194 48.26364091 424.47850704 49.13422108 C430.46469783 37.65071725 430.46469783 37.65071725 429.81053829 25.23968983 C427.54807283 20.54680294 424.36435893 17.88653083 419.47850704 16.13422108 C413.34112655 15.12992245 408.73370954 16.67994478 404.47850704 21.13422108 Z M379.47850704 49.13422108 C374.87295773 58.83958663 370.48574088 68.61581827 366.28551388 78.50308704 C364.64947744 82.35377255 363.00462031 86.20069401 361.36131954 90.04828358 C361.03027218 90.82403233 360.69922482 91.59978107 360.35814571 92.39903736 C357.34033129 99.46768229 354.28976045 106.52176968 351.22850704 113.57172108 C350.17762686 115.99355322 349.12681792 118.41541609 348.07616329 120.83734608 C347.80182964 121.46968159 347.52749599 122.1020171 347.24484921 122.75351429 C343.46301252 131.47262135 339.69043621 140.19573325 335.9202795 148.91989613 C335.09989871 150.81789001 334.27919258 152.71574332 333.4581213 154.61343861 C328.05988174 167.090699 322.73062635 179.59473006 317.47850704 192.13422108 C319.51765575 194.17336978 320.86962934 194.87502717 323.48168087 195.99774647 C324.30626293 196.35474125 325.13084499 196.71173603 325.98041439 197.07954884 C326.87310528 197.45981724 327.76579617 197.84008564 328.68553829 198.23187733 C329.60308392 198.62620457 330.52062954 199.02053181 331.46597958 199.42680836 C333.40932317 200.26044819 335.35371567 201.09164642 337.29906368 201.92059803 C340.27151569 203.18840763 343.23943427 204.46640353 346.20702267 205.7455492 C348.0954296 206.55411097 349.98409328 207.36207342 351.87303829 208.16937733 C352.75965649 208.55166996 353.64627468 208.93396259 354.55976009 209.32783985 C355.81081791 209.85860378 355.81081791 209.85860378 357.08714962 210.40009022 C357.81613964 210.71160526 358.54512966 211.02312031 359.29621029 211.3440752 C361.66866378 212.20307127 363.99651266 212.69747733 366.47850704 213.13422108 C366.99421261 211.92741688 367.50991817 210.72061268 368.04125118 209.47723866 C378.3960636 185.25266785 388.79556523 161.04822713 399.29100704 136.88422108 C400.25741489 134.65807324 401.22380497 132.43191768 402.19017696 130.20575428 C406.20500502 120.95938117 410.22298095 111.7144329 414.25791073 102.47681141 C415.77599882 98.99954116 417.29050034 95.52071643 418.80428219 92.04156971 C419.49517629 90.45637758 420.18785975 88.87196394 420.88246822 87.28839588 C421.82253823 85.1451464 422.75666455 82.99940106 423.68944454 80.85297108 C424.20813107 79.66638905 424.72681759 78.47980701 425.26122189 77.25726795 C426.32888975 74.51807675 427.02518256 72.02951689 427.47850704 69.13422108 C408.50324916 60.6313554 408.50324916 60.6313554 389.41600704 52.38422108 C388.63249874 52.04970936 387.84899044 51.71519764 387.04173946 51.3705492 C383.38720396 49.71600473 383.38720396 49.71600473 379.47850704 49.13422108 Z M310.47850704 208.13422108 C298.7506962 235.09353938 287.05514111 262.06518107 275.4971838 289.09781361 C268.65550081 305.09651114 261.73977709 321.06174632 254.78639889 337.01218128 C247.23543295 354.33796528 239.81034016 371.7146438 232.47850704 389.13422108 C235.00994184 392.10406079 237.73224101 393.30189939 241.29881954 394.80609608 C242.46703243 395.30270741 243.63524532 395.79931873 244.8388586 396.31097889 C246.09365119 396.83560881 247.34853564 397.36001906 248.60350704 397.88422108 C249.8742521 398.42109477 251.14475944 398.95853148 252.41503048 399.49652576 C261.74312201 403.43937352 271.0981883 407.31739149 280.47850704 411.13422108 C285.35648149 400.88475835 289.94270653 390.53428026 294.38222408 380.08804798 C296.33906892 375.48488958 298.30524605 370.88572068 300.27147579 366.28656483 C300.68930828 365.30899723 301.10714077 364.33142963 301.53763485 363.32423878 C306.57460171 351.55280653 311.68508011 339.81335792 316.79100704 328.07172108 C326.59672534 305.51515637 336.33124598 282.92852479 345.9812994 260.30489063 C347.99500837 255.5862193 350.0242322 250.87504878 352.07713985 246.17328358 C352.49694118 245.20725208 352.91674252 244.24122059 353.3492651 243.24591541 C354.15125624 241.40160026 354.95750742 239.55912989 355.76863766 237.7188158 C356.12487209 236.89748158 356.48110653 236.07614735 356.84813595 235.2299242 C357.3218211 234.14862232 357.3218211 234.14862232 357.80507565 233.04547596 C358.64466933 231.00037632 358.64466933 231.00037632 358.47850704 228.13422108 C351.96624458 225.28081266 345.45152904 222.43306473 338.93505001 219.5892992 C336.71702808 218.62056032 334.49957782 217.65051146 332.28270626 216.67914295 C329.10206096 215.28574448 325.91941113 213.89702042 322.73631954 212.50922108 C321.24251263 211.8530077 321.24251263 211.8530077 319.71852779 211.18353748 C318.79772427 210.78312244 317.87692074 210.38270741 316.92821407 209.97015858 C316.11547024 209.61486073 315.3027264 209.25956287 314.46535397 208.89349842 C312.52163296 208.01522987 312.52163296 208.01522987 310.47850704 208.13422108 Z M229.47850704 407.13422108 C229.47850704 424.62422108 229.47850704 442.11422108 229.47850704 460.13422108 C232.48427987 460.45885227 232.48427987 460.45885227 234.24022579 458.63031483 C235.19348751 457.61131092 235.19348751 457.61131092 236.16600704 456.57172108 C238.84363098 453.78640477 241.54038347 451.1435061 244.47850704 448.63422108 C247.9865148 445.61952691 251.22628591 442.40858364 254.46678829 439.11078358 C257.03572336 436.58674252 259.75049663 434.26861287 262.52147579 431.97015858 C264.21018029 430.38594477 265.63252378 428.80121257 267.1008215 427.01947498 C267.88545773 426.06734119 268.67009396 425.11520741 269.47850704 424.13422108 C264.74780216 422.03109183 260.01550557 419.93160083 255.2817297 417.83539295 C253.67321932 417.12251202 252.06514014 416.40865728 250.45751095 415.69379139 C248.14013035 414.66352559 245.82119645 413.63682866 243.50194454 412.61078358 C242.78920376 412.29299946 242.07646297 411.97521534 241.34212399 411.6478014 C240.6618716 411.34764118 239.98161922 411.04748096 239.28075314 410.73822498 C238.69007046 410.47619282 238.09938778 410.21416065 237.49080563 409.94418812 C234.86526145 408.88738459 232.16351809 408.02922476 229.47850704 407.13422108 Z " fill="#555050" transform="translate(39.52149295806885,-0.13422107696533203)"/>
<path d="M0 0 C0.69903175 -0.00467997 1.3980635 -0.00935994 2.11827803 -0.01418173 C4.45441274 -0.02612248 6.78995983 -0.01667847 9.12609863 -0.00723267 C10.80343467 -0.01129879 12.48076803 -0.0166409 14.15809631 -0.02316284 C18.70971051 -0.03683744 23.26112066 -0.0315372 27.81273842 -0.02202559 C32.57633641 -0.01442975 37.33991695 -0.02147439 42.10351562 -0.02618408 C50.10309994 -0.03164185 58.10260116 -0.02444945 66.10217285 -0.01016235 C75.3504596 0.0061642 84.59854795 0.00087571 93.84682989 -0.01564157 C101.78751241 -0.02925582 109.72813521 -0.03117639 117.66882563 -0.02332556 C122.41132516 -0.01864871 127.15373144 -0.01802453 131.89622498 -0.02793503 C136.3548556 -0.03660152 140.81323043 -0.03058861 145.27183342 -0.01325226 C146.90809136 -0.00928572 148.54437082 -0.01042434 150.18062019 -0.01704025 C152.41440518 -0.02523943 154.64737073 -0.0149547 156.88110352 0 C158.13101326 0.00113108 159.380923 0.00226215 160.6687088 0.00342751 C164.25115294 0.41678982 166.08759279 1.21303025 168.94055176 3.38095093 C173.92246838 10.24492495 173.52202311 17.60813874 173.40710449 25.7539978 C173.37802536 28.00799707 173.38654486 30.25965495 173.39953613 32.51376343 C173.34666882 44.78967169 173.34666882 44.78967169 169.94055176 50.38095093 C166.10284784 53.93082705 163.12731645 55.48534682 157.91564941 55.55795288 C156.70892075 55.57720573 156.70892075 55.57720573 155.47781372 55.59684753 C154.17932999 55.60792793 154.17932999 55.60792793 152.85461426 55.61923218 C151.51371231 55.6313398 151.51371231 55.6313398 150.14572144 55.64369202 C148.25443453 55.65751863 146.36312283 55.66824715 144.47180176 55.67611694 C141.58329992 55.69334507 138.69593838 55.73724503 135.80773926 55.78134155 C133.969206 55.7914676 132.13066302 55.79998398 130.29211426 55.80673218 C129.4305069 55.82424026 128.56889954 55.84174835 127.68118286 55.85978699 C123.60792782 55.84508949 121.46900989 55.70324293 117.9185791 53.53793335 C115.37361937 50.76272732 114.94055176 49.13193001 114.94055176 45.38095093 C116.12394209 42.64046806 117.1032565 40.96272764 119.5645752 39.25253296 C122.94534478 38.01236162 126.21794125 38.13494755 129.76867676 38.18563843 C130.5176825 38.18846832 131.26668823 38.19129822 132.03839111 38.19421387 C134.42260951 38.20537833 136.80644755 38.23047562 139.19055176 38.25595093 C140.81033799 38.26598557 142.43013012 38.27511058 144.04992676 38.28329468 C148.01373165 38.30360106 151.97671764 38.34275552 155.94055176 38.38095093 C155.94055176 31.12095093 155.94055176 23.86095093 155.94055176 16.38095093 C104.46055176 16.38095093 52.98055176 16.38095093 -0.05944824 16.38095093 C-0.05944824 23.64095093 -0.05944824 30.90095093 -0.05944824 38.38095093 C2.57491211 38.36524048 5.20927246 38.34953003 7.92346191 38.33334351 C16.63260582 38.28360849 25.34175605 38.25048627 34.05100441 38.22551441 C39.33083236 38.20986627 44.61051466 38.18864338 49.89025879 38.15463257 C54.98661097 38.122009 60.08282315 38.1040915 65.1792717 38.0963192 C67.12251362 38.0907811 69.06574797 38.07996651 71.00893021 38.06376076 C73.73321269 38.04194675 76.45691848 38.03898567 79.18127441 38.04037476 C79.98256775 38.02958893 80.78386108 38.0188031 81.60943604 38.00769043 C86.44226467 38.03431087 89.74975857 38.70869925 93.94055176 41.38095093 C95.50755618 44.51495977 95.79219737 48.01250188 94.94055176 51.38095093 C92.07574677 54.45642375 89.8551674 55.63823287 85.74185181 55.8888855 C84.05190049 55.91257858 82.36155277 55.91428156 80.67150879 55.89852905 C79.2827655 55.90904297 79.2827655 55.90904297 77.8659668 55.91976929 C74.80979283 55.93735332 71.75454743 55.92572293 68.69836426 55.91220093 C66.56993431 55.91489618 64.44150557 55.91877887 62.31307983 55.92379761 C57.85268427 55.92969361 53.39260925 55.9211279 48.93225098 55.9024353 C43.22355616 55.87967369 37.51561474 55.89275087 31.80694771 55.91672516 C27.41106529 55.93120388 23.01536038 55.92656709 18.6194725 55.91621399 C16.51519557 55.91355101 14.41090237 55.91680133 12.30664444 55.9261322 C9.36012583 55.93632862 6.41481297 55.9207518 3.46838379 55.89852905 C2.60373505 55.90662598 1.7390863 55.9147229 0.84823608 55.92306519 C-4.93107231 55.84260344 -8.29836647 54.69810417 -13.05944824 51.38095093 C-16.54668358 47.3161492 -16.51277718 43.1506539 -16.49304199 38.00985718 C-16.49828384 37.20990829 -16.5035257 36.40995941 -16.50892639 35.58576965 C-16.51533121 33.89893755 -16.51402955 32.2120607 -16.50549316 30.52523804 C-16.49698595 27.95484269 -16.52575848 25.38667371 -16.55749512 22.8164978 C-16.5591075 21.17261826 -16.55852889 19.5287348 -16.55554199 17.88485718 C-16.56677597 17.12218033 -16.57800995 16.35950348 -16.58958435 15.57371521 C-16.52280069 10.41825289 -15.52889944 7.41991932 -12.05944824 3.38095093 C-7.99842069 0.35149255 -5.01563644 0.00453878 0 0 Z " fill="#555050" transform="translate(117.0594482421875,42.619049072265625)"/>
<path d="M0 0 C1.02163239 -0.00779995 2.04326477 -0.01559991 3.09585571 -0.02363622 C6.52390455 -0.04360181 9.9508489 -0.02777291 13.37890625 -0.01205444 C15.83456064 -0.01882848 18.29020995 -0.02773041 20.74584961 -0.03860474 C26.72609593 -0.05905847 32.70590776 -0.05603572 38.6861372 -0.04154153 C43.54631818 -0.03024964 48.40641123 -0.02871814 53.26660156 -0.03416061 C53.95832081 -0.03492678 54.65004005 -0.03569294 55.36272049 -0.03648233 C56.76793419 -0.03808095 58.17314786 -0.03970202 59.57836151 -0.04134528 C72.75515629 -0.05560311 85.93177714 -0.03920962 99.1085434 -0.01234345 C110.41489728 0.00999543 121.7209945 0.00611531 133.02734375 -0.01693726 C146.15696438 -0.04369477 159.28643257 -0.05422981 172.41607666 -0.03887594 C173.8161214 -0.03728319 175.21616615 -0.03571134 176.61621094 -0.03416061 C177.64948454 -0.03300355 177.64948454 -0.03300355 178.70363235 -0.03182311 C183.55799264 -0.02750593 188.41225625 -0.03479298 193.26660156 -0.04655838 C199.80020272 -0.06204567 206.33339373 -0.05101981 212.86697388 -0.0220871 C215.26758009 -0.01546491 217.66822703 -0.01739314 220.06881714 -0.02840042 C223.34070423 -0.0420218 226.61102575 -0.02497942 229.8828125 0 C230.83757477 -0.01115361 231.79233704 -0.02230722 232.77603149 -0.03379881 C237.3007381 0.03341672 239.31797126 0.16796737 243.03491211 2.95194435 C245.53413044 6.46904798 245.63307491 8.40805419 244.94140625 12.63491821 C243.0743212 14.99989261 241.62079194 16.29522537 238.94140625 17.63491821 C237.57560135 17.73004213 236.20528078 17.7640702 234.83616924 17.76634598 C233.97138854 17.77018712 233.10660783 17.77402827 232.21562165 17.77798581 C231.25990275 17.77711933 230.30418386 17.77625285 229.31950378 17.77536011 C228.30860178 17.77833123 227.29769977 17.78130235 226.25616437 17.78436351 C222.8467934 17.79308008 219.43745742 17.79456125 216.02807617 17.79605103 C213.5925743 17.8006771 211.15707316 17.80570147 208.72157288 17.81109619 C202.08933435 17.82424231 195.45710961 17.83070586 188.82486129 17.83510685 C184.68497511 17.8378677 180.54509128 17.84210478 176.40520668 17.84661102 C164.94702266 17.85880525 153.48884051 17.8691041 142.03065014 17.87248611 C141.2970106 17.87270568 140.56337106 17.87292525 139.80750002 17.87315147 C138.70437962 17.87347888 138.70437962 17.87347888 137.57897395 17.87381291 C136.08870073 17.87425638 134.59842751 17.87470295 133.1081543 17.87515259 C132.36892439 17.87537402 131.62969448 17.87559545 130.86806367 17.87582359 C118.88906701 17.87977185 106.91013118 17.89722601 94.93115803 17.92051211 C82.63766323 17.94421704 70.34419896 17.95668758 58.05068094 17.95785403 C51.14625857 17.95877131 44.24191544 17.96453664 37.33751488 17.98267365 C30.8442842 17.99967019 24.35116389 18.00133365 17.85791588 17.99253464 C15.47181292 17.99176164 13.08570203 17.99614138 10.69961929 18.00599289 C7.44765134 18.01863421 4.19622326 18.01287794 0.94425964 18.00241089 C-0.00476709 18.01046729 -0.95379382 18.0185237 -1.93157893 18.02682424 C-6.77247855 17.9902661 -10.16234431 17.8568484 -14.05859375 14.63491821 C-15.62794969 11.49620634 -15.41060478 9.09635999 -15.05859375 5.63491821 C-10.87745192 -0.30275623 -6.69010586 -0.07815435 0 0 Z " fill="#555050" transform="translate(81.05859375,177.36508178710938)"/>
<path d="M0 0 C1.02163239 -0.00779995 2.04326477 -0.01559991 3.09585571 -0.02363622 C6.52390455 -0.04360181 9.9508489 -0.02777291 13.37890625 -0.01205444 C15.83456064 -0.01882848 18.29020995 -0.02773041 20.74584961 -0.03860474 C26.72609593 -0.05905847 32.70590776 -0.05603572 38.6861372 -0.04154153 C43.54631818 -0.03024964 48.40641123 -0.02871814 53.26660156 -0.03416061 C53.95832081 -0.03492678 54.65004005 -0.03569294 55.36272049 -0.03648233 C56.76793419 -0.03808095 58.17314786 -0.03970202 59.57836151 -0.04134528 C72.75515629 -0.05560311 85.93177714 -0.03920962 99.1085434 -0.01234345 C110.41489728 0.00999543 121.7209945 0.00611531 133.02734375 -0.01693726 C146.15696438 -0.04369477 159.28643257 -0.05422981 172.41607666 -0.03887594 C173.8161214 -0.03728319 175.21616615 -0.03571134 176.61621094 -0.03416061 C177.64948454 -0.03300355 177.64948454 -0.03300355 178.70363235 -0.03182311 C183.55799264 -0.02750593 188.41225625 -0.03479298 193.26660156 -0.04655838 C199.80020272 -0.06204567 206.33339373 -0.05101981 212.86697388 -0.0220871 C215.26758009 -0.01546491 217.66822703 -0.01739314 220.06881714 -0.02840042 C223.34070423 -0.0420218 226.61102575 -0.02497942 229.8828125 0 C230.83757477 -0.01115361 231.79233704 -0.02230722 232.77603149 -0.03379881 C237.3007381 0.03341672 239.31797126 0.16796737 243.03491211 2.95194435 C245.53413044 6.46904798 245.63307491 8.40805419 244.94140625 12.63491821 C243.0743212 14.99989261 241.62079194 16.29522537 238.94140625 17.63491821 C237.57560135 17.73004213 236.20528078 17.7640702 234.83616924 17.76634598 C233.97138854 17.77018712 233.10660783 17.77402827 232.21562165 17.77798581 C231.25990275 17.77711933 230.30418386 17.77625285 229.31950378 17.77536011 C228.30860178 17.77833123 227.29769977 17.78130235 226.25616437 17.78436351 C222.8467934 17.79308008 219.43745742 17.79456125 216.02807617 17.79605103 C213.5925743 17.8006771 211.15707316 17.80570147 208.72157288 17.81109619 C202.08933435 17.82424231 195.45710961 17.83070586 188.82486129 17.83510685 C184.68497511 17.8378677 180.54509128 17.84210478 176.40520668 17.84661102 C164.94702266 17.85880525 153.48884051 17.8691041 142.03065014 17.87248611 C141.2970106 17.87270568 140.56337106 17.87292525 139.80750002 17.87315147 C138.70437962 17.87347888 138.70437962 17.87347888 137.57897395 17.87381291 C136.08870073 17.87425638 134.59842751 17.87470295 133.1081543 17.87515259 C132.36892439 17.87537402 131.62969448 17.87559545 130.86806367 17.87582359 C118.88906701 17.87977185 106.91013118 17.89722601 94.93115803 17.92051211 C82.63766323 17.94421704 70.34419896 17.95668758 58.05068094 17.95785403 C51.14625857 17.95877131 44.24191544 17.96453664 37.33751488 17.98267365 C30.8442842 17.99967019 24.35116389 18.00133365 17.85791588 17.99253464 C15.47181292 17.99176164 13.08570203 17.99614138 10.69961929 18.00599289 C7.44765134 18.01863421 4.19622326 18.01287794 0.94425964 18.00241089 C-0.00476709 18.01046729 -0.95379382 18.0185237 -1.93157893 18.02682424 C-6.77247855 17.9902661 -10.16234431 17.8568484 -14.05859375 14.63491821 C-15.62794969 11.49620634 -15.41060478 9.09635999 -15.05859375 5.63491821 C-10.87745192 -0.30275623 -6.69010586 -0.07815435 0 0 Z " fill="#555050" transform="translate(81.05859375,128.36508178710938)"/>
<path d="M0 0 C0.79295345 -0.00709439 1.58590691 -0.01418877 2.40288925 -0.02149814 C5.05717339 -0.03908573 7.70999462 -0.02097032 10.36425781 -0.00291443 C12.26819526 -0.00805297 14.17212796 -0.01533376 16.0760498 -0.02459717 C21.24552489 -0.04312762 26.41448489 -0.0301621 31.5839386 -0.01050687 C36.99216318 0.00586729 42.40035483 -0.00293155 47.80859375 -0.00802612 C56.89103431 -0.01254845 65.97326902 0.00333147 75.05566406 0.03126526 C85.55822426 0.06331771 96.06041316 0.06330183 106.56299973 0.04605049 C116.66350717 0.03019027 126.7638784 0.03691574 136.86437988 0.0539875 C141.16414004 0.06086259 145.46379117 0.05982083 149.7635498 0.05244255 C154.82634196 0.04478507 159.88871124 0.05688843 164.95143127 0.08429146 C166.81021367 0.091182 168.66903551 0.09126611 170.52781677 0.08407593 C173.06393935 0.07539561 175.5987526 0.0913123 178.13476562 0.11352539 C178.87163479 0.10528462 179.60850395 0.09704386 180.36770248 0.08855337 C185.1906005 0.16660484 187.69608697 1.17553503 191.06738281 4.62818909 C191.93086328 7.37416423 191.69878995 9.8327775 191.06738281 12.62818909 C188.85997601 15.59677065 187.58140909 16.456847 184.06738281 17.62818909 C181.54707843 17.72796906 179.05433514 17.77163731 176.53385925 17.76863098 C175.37255201 17.77308766 175.37255201 17.77308766 174.18778402 17.77763438 C171.58538356 17.78632777 168.98302907 17.78783017 166.38061523 17.7893219 C164.51800945 17.79394961 162.65540462 17.79897421 160.7928009 17.80436707 C155.72662192 17.81749739 150.66045619 17.82393723 145.59426284 17.82837772 C142.43010704 17.83130737 139.26595489 17.83541197 136.10180092 17.8398819 C126.20476173 17.85355836 116.30773084 17.86322435 106.41068286 17.86708379 C94.98062836 17.87156535 83.55069341 17.88911722 72.12067527 17.91808438 C63.28916909 17.9396903 54.45769658 17.94978748 45.62616426 17.95112491 C40.34982703 17.9521737 35.07360215 17.95809728 29.79729271 17.97594452 C24.83394299 17.99240636 19.87079029 17.99458986 14.90742302 17.98580551 C13.08613305 17.98503413 11.26483256 17.98939113 9.44356918 17.99926376 C6.95609672 18.01195653 4.46932487 18.00612122 1.9818573 17.99568176 C1.26210053 18.00373817 0.54234376 18.01179457 -0.19922382 18.02009511 C-4.82491051 17.97473021 -8.00726361 17.07714533 -11.93261719 14.62818909 C-13.50197313 11.48947721 -13.28462822 9.08963087 -12.93261719 5.62818909 C-9.18141593 0.6493889 -5.95381291 -0.09563124 0 0 Z " fill="#555050" transform="translate(78.9326171875,226.37181091308594)"/>
<path d="M0 0 C3.27055512 2.10373141 6.36501989 4.41272665 9.48046875 6.73828125 C17.58119136 12.75312297 24.29277541 16.9730279 34.72265625 16.6796875 C38.37087681 15.87855798 41.63113685 14.77921315 44.3203125 12.0703125 C45.72265625 10.6796875 45.72265625 10.6796875 47.72265625 10.6796875 C47.98949219 10.11765625 48.25632812 9.555625 48.53125 8.9765625 C50.72981142 4.73802441 53.16174351 0.89859167 56.72265625 -2.3203125 C59.88779559 -3.24413426 62.56345438 -3.27542004 65.72265625 -2.3203125 C68.01172499 -0.47124782 68.67407983 0.54043509 69.66015625 3.3671875 C69.80970034 11.29302418 64.21756833 16.88485455 59.08203125 22.34765625 C51.02897043 30.30738689 43.86912495 33.75409343 32.47265625 34.1171875 C17.61007035 33.76048544 6.76847334 27.79320753 -4.40234375 18.4296875 C-9.86265392 13.96452102 -14.74588171 12.0649379 -21.71484375 11.3046875 C-29.82514642 12.15840357 -36.9730138 14.17928314 -42.27734375 20.6796875 C-43.96442542 23.49679557 -45.48194998 26.33634974 -46.91796875 29.2890625 C-48.27734375 31.6796875 -48.27734375 31.6796875 -51.27734375 33.6796875 C-55.07856112 34.09436576 -57.38581548 34.20546058 -60.71484375 32.2421875 C-63.13244852 28.27731568 -63.25681439 25.19464463 -62.27734375 20.6796875 C-57.28435859 8.87949586 -49.40329912 1.54715768 -37.7578125 -3.41015625 C-25.58467276 -7.87683587 -11.09261244 -6.43105147 0 0 Z " fill="#555050" transform="translate(121.27734375,410.3203125)"/>
<path d="M0 0 C0.99731644 -0.0071553 1.99463287 -0.01431061 3.02217102 -0.02168274 C6.31537833 -0.0385769 9.60722577 -0.01916194 12.90039062 0.00219727 C15.1905529 0.00136864 17.48071513 -0.0010905 19.77087402 -0.00511169 C24.56927402 -0.00797021 29.36720738 0.0067374 34.16552734 0.03417969 C40.3160989 0.06826192 46.46583596 0.06224441 52.61644745 0.04351711 C57.34510248 0.03294844 62.07356334 0.04188387 66.80220032 0.05690193 C69.07000655 0.06208514 71.33783304 0.06160028 73.6056366 0.05535698 C76.775295 0.04990661 79.94375893 0.07027553 83.11328125 0.09765625 C84.05057571 0.09113037 84.98787018 0.08460449 85.9535675 0.07788086 C90.16445375 0.13973115 92.46322208 0.26666764 96.11950684 2.51210022 C98.39773717 5.00422421 98.97455809 6.26571969 99.05664062 9.63110352 C98.12047812 12.72764103 97.3524074 14.33533674 95.05664062 16.63110352 C92.29246639 17.54562306 89.75618645 17.7595462 86.85757446 17.77154541 C86.02774551 17.77725555 85.19791656 17.7829657 84.34294128 17.78884888 C82.99006767 17.79052567 82.99006767 17.79052567 81.60986328 17.79223633 C80.65331345 17.79720123 79.69676361 17.80216614 78.71122742 17.80728149 C75.547712 17.82188333 72.3842467 17.8287014 69.22070312 17.83422852 C67.02118936 17.83998103 64.82167561 17.84573876 62.62216187 17.85150146 C58.01047533 17.86200543 53.39880619 17.86785224 48.78710938 17.87133789 C42.88002932 17.87682519 36.97317947 17.90086097 31.06617165 17.92930984 C26.52283049 17.94793844 21.9795448 17.95314192 17.43616867 17.95467377 C15.25848505 17.95769967 13.0808024 17.96572607 10.90315628 17.97885895 C7.85599509 17.99592582 4.80939672 17.99403762 1.76220703 17.98754883 C0.41540611 18.001371 0.41540611 18.001371 -0.95860291 18.01547241 C-6.02407938 17.98170644 -9.56956543 17.48544226 -13.94335938 14.63110352 C-15.51271531 11.49239164 -15.2953704 9.0925453 -14.94335938 5.63110352 C-10.77471157 -0.26693382 -6.6595082 -0.08307347 0 0 Z " fill="#555050" transform="translate(80.943359375,275.368896484375)"/>
</svg>
