<?xml version="1.0" encoding="UTF-8"?>
<svg version="1.1" xmlns="http://www.w3.org/2000/svg" width="512" height="512">
<path d="M0 0 C1.06992188 0.474375 2.13984375 0.94875 3.2421875 1.4375 C19.75466286 9.51889971 30.60523995 22.82755446 37 40 C42.38128703 57.40893559 39.76672437 75.77158597 31.75 91.75 C29.55628407 95.89851231 26.9874115 99.23208917 23.86425781 102.70410156 C23.14135559 103.5099469 22.41845337 104.31579224 21.67364502 105.14605713 C21.12134216 105.75785828 20.56903931 106.36965942 20 107 C31.02273767 107.18596393 42.04509772 107.32781136 53.06908894 107.41449738 C58.18895988 107.45611868 63.30775188 107.51250491 68.42700195 107.60351562 C73.37434053 107.69091224 78.32064635 107.73837218 83.26869774 107.75901794 C85.14933708 107.77371622 87.02992455 107.80241905 88.91012001 107.84584045 C100.75523581 108.1083295 107.98466559 107.48992591 117 99 C147.89424192 78.07424881 189.28049662 70.85914148 225.875 77.125 C228.61000421 77.65989012 231.30183049 78.3043335 234 79 C234.76812012 79.18804199 235.53624023 79.37608398 236.32763672 79.56982422 C255.82305292 84.45436442 273.8731562 93.01637729 290 105 C290.93585938 105.69351563 291.87171875 106.38703125 292.8359375 107.1015625 C320.5965375 128.83786807 339.57930619 158.84281947 348 193 C348.48146484 194.90265625 348.48146484 194.90265625 348.97265625 196.84375 C356.25976113 229.67223861 351.60023641 269.15452465 334.54125977 298.19116211 C333.78269166 300.03891819 333.78269166 300.03891819 334.77886963 301.91751099 C336.01066006 304.01817944 337.24335198 305.44954159 338.99682617 307.12866211 C339.60052536 307.71284409 340.20422455 308.29702606 340.82621765 308.89891052 C341.47524551 309.51879349 342.12427338 310.13867645 342.79296875 310.77734375 C344.15877673 312.10813552 345.52399355 313.43953421 346.88867188 314.77148438 C349.04207878 316.86282351 351.1996908 318.9491721 353.36791992 321.02514648 C355.46057296 323.03334374 357.53404261 325.05978977 359.60546875 327.08984375 C360.26056931 327.70770248 360.91566986 328.32556122 361.59062195 328.96214294 C363.22781868 330.58030589 364.70491933 332.09716432 366 334 C366.01877337 337.36103874 364.83685316 339.68978907 363.15234375 342.55078125 C362.79462891 343.16630859 362.43691406 343.78183594 362.06835938 344.41601562 C361.50858398 345.35477539 361.50858398 345.35477539 360.9375 346.3125 C360.56044922 346.95767578 360.18339844 347.60285156 359.79492188 348.26757812 C358.86962507 349.84878152 357.93567319 351.4249146 357 353 C357.71285156 353.12117188 358.42570312 353.24234375 359.16015625 353.3671875 C360.11792969 353.53476562 361.07570313 353.70234375 362.0625 353.875 C363.47208984 354.11863281 363.47208984 354.11863281 364.91015625 354.3671875 C368.31537003 355.06458906 371.65784319 356.04509806 375 357 C375 377.46 375 397.92 375 419 C360 423 360 423 357 423 C357.66128906 424.02480469 358.32257813 425.04960937 359.00390625 426.10546875 C359.85754406 427.46566087 360.71036625 428.82636511 361.5625 430.1875 C362.00013672 430.86103516 362.43777344 431.53457031 362.88867188 432.22851562 C363.29794922 432.88916016 363.70722656 433.54980469 364.12890625 434.23046875 C364.51119385 434.83270264 364.89348145 435.43493652 365.28735352 436.05541992 C366.27695869 438.75573003 365.80618346 440.25331501 365 443 C363.39483643 445.1265564 363.39483643 445.1265564 361.29394531 447.25537109 C360.50932922 448.05905121 359.72471313 448.86273132 358.9163208 449.69076538 C358.06221619 450.54304718 357.20811157 451.39532898 356.328125 452.2734375 C355.45355652 453.15657623 354.57898804 454.03971497 353.67791748 454.94961548 C351.35302368 457.28893016 349.01808684 459.61768522 346.68029785 461.9440918 C345.24971781 463.37528231 343.82929803 464.81580927 342.41210938 466.26025391 C339.6909636 469.0302286 336.95033901 471.77934168 334.203125 474.5234375 C333.35711731 475.38786469 332.51110962 476.25229187 331.63946533 477.14291382 C330.8422406 477.92768097 330.04501587 478.71244812 329.22363281 479.52099609 C328.52715637 480.21873138 327.83067993 480.91646667 327.11309814 481.63534546 C325 483 325 483 322.3518219 482.77043152 C320.19461933 482.0637552 318.40014699 481.30102112 316.44921875 480.15234375 C315.83369141 479.79462891 315.21816406 479.43691406 314.58398438 479.06835938 C313.64522461 478.50858398 313.64522461 478.50858398 312.6875 477.9375 C312.04232422 477.56044922 311.39714844 477.18339844 310.73242188 476.79492188 C309.15121848 475.86962507 307.5750854 474.93567319 306 474 C305.87882812 474.71285156 305.75765625 475.42570312 305.6328125 476.16015625 C305.46523438 477.11792969 305.29765625 478.07570313 305.125 479.0625 C304.88136719 480.47208984 304.88136719 480.47208984 304.6328125 481.91015625 C303.93541094 485.31537003 302.95490194 488.65784319 302 492 C281.54 492 261.08 492 240 492 C236 477 236 477 236 474 C234.97519531 474.66128906 233.95039063 475.32257813 232.89453125 476.00390625 C231.53433913 476.85754406 230.17363489 477.71036625 228.8125 478.5625 C228.13896484 479.00013672 227.46542969 479.43777344 226.77148438 479.88867188 C226.11083984 480.29794922 225.45019531 480.70722656 224.76953125 481.12890625 C224.16729736 481.51119385 223.56506348 481.89348145 222.94458008 482.28735352 C220.24426997 483.27695869 218.74668499 482.80618346 216 482 C213.8734436 480.39483643 213.8734436 480.39483643 211.74462891 478.29394531 C210.94094879 477.50932922 210.13726868 476.72471313 209.30923462 475.9163208 C208.45695282 475.06221619 207.60467102 474.20811157 206.7265625 473.328125 C205.84342377 472.45355652 204.96028503 471.57898804 204.05038452 470.67791748 C201.71106984 468.35302368 199.38231478 466.01808684 197.0559082 463.68029785 C195.62471769 462.24971781 194.18419073 460.82929803 192.73974609 459.41210938 C189.9697714 456.6909636 187.22065832 453.95033901 184.4765625 451.203125 C183.61213531 450.35711731 182.74770813 449.51110962 181.85708618 448.63946533 C181.07231903 447.8422406 180.28755188 447.04501587 179.47900391 446.22363281 C178.78126862 445.52715637 178.08353333 444.83067993 177.36465454 444.11309814 C176 442 176 442 176.22956848 439.3518219 C176.9362448 437.19461933 177.69897888 435.40014699 178.84765625 433.44921875 C179.20537109 432.83369141 179.56308594 432.21816406 179.93164062 431.58398438 C180.49141602 430.64522461 180.49141602 430.64522461 181.0625 429.6875 C181.43955078 429.04232422 181.81660156 428.39714844 182.20507812 427.73242188 C183.13037493 426.15121848 184.06432681 424.5750854 185 423 C184.28714844 422.87882812 183.57429688 422.75765625 182.83984375 422.6328125 C181.88207031 422.46523438 180.92429687 422.29765625 179.9375 422.125 C178.52791016 421.88136719 178.52791016 421.88136719 177.08984375 421.6328125 C173.68462997 420.93541094 170.34215681 419.95490194 167 419 C167 405.14 167 391.28 167 377 C163.7 376.34 160.4 375.68 157 375 C142.5318217 371.01623265 128.56767566 364.87160065 116.19921875 356.34765625 C113.95157363 354.97032487 112.61778543 354.23400547 110 354 C107.86351513 355.44284763 107.86351513 355.44284763 105.890625 357.62109375 C104.75947266 358.77641602 104.75947266 358.77641602 103.60546875 359.95507812 C102.43951172 361.18387695 102.43951172 361.18387695 101.25 362.4375 C100.45722656 363.25283203 99.66445312 364.06816406 98.84765625 364.90820312 C96.88681688 366.92810392 94.9385351 368.95872128 93 371 C94.55194754 374.32759923 96.30621949 376.48580485 99 379 C97.36908365 383.30003129 94.09599076 386.03198671 90.82202148 389.10351562 C89.51066963 390.35221391 88.19960203 391.60121078 86.88877869 392.85046387 C86.19333387 393.51009628 85.49788906 394.1697287 84.78137016 394.84934998 C81.08588237 398.36799642 77.42928304 401.9267363 73.76757812 405.48046875 C69.11597253 409.99440464 64.45400554 414.49472909 59.73657227 418.93994141 C55.91827716 422.53995222 52.14972373 426.18606745 48.40883064 429.86637878 C46.98358252 431.2518458 45.54158711 432.62032019 44.08233452 433.96992493 C36.94405943 440.58859883 31.50063734 445.88517116 30.76302433 455.95832062 C30.70348483 459.28745348 30.83019396 462.58804018 30.99919319 465.91233826 C31.00181347 472.69245182 27.19668851 478.65745978 22.703125 483.46875 C14.45973163 490.88024129 5.72678152 492.57842178 -5.07421875 492.31640625 C-13.0347623 491.6748102 -18.24989394 488.30779021 -24 483 C-27.3812033 484.48772945 -30.12534519 486.52870432 -33.0234375 488.78125 C-40.68498163 493.50536417 -51.42411891 493.26954084 -60.01953125 491.3125 C-68.78862892 488.07965293 -74.89395195 482.36588068 -79 474 C-80.84935213 469.33963318 -81.28140562 465.17502866 -81.24050903 460.2171936 C-81.24221788 459.45252632 -81.24392673 458.68785903 -81.24568737 457.90002 C-81.248971 455.34812641 -81.23799725 452.79649812 -81.22705078 450.24462891 C-81.22648642 448.41125495 -81.22680371 446.57788053 -81.22793579 444.74450684 C-81.22850934 439.77390659 -81.21675453 434.80340298 -81.20278788 429.83282518 C-81.19028102 424.6358187 -81.18911005 419.43880998 -81.18673706 414.24179077 C-81.18052217 404.40341352 -81.1641112 394.56508075 -81.14403808 384.72672307 C-81.12167939 373.52486859 -81.11068572 362.32301197 -81.10064721 351.12114072 C-81.079745 328.08073583 -81.04456881 305.04037041 -81 282 C-81.6165596 281.80002411 -82.2331192 281.60004822 -82.86836243 281.39401245 C-83.67790878 281.12847565 -84.48745514 280.86293884 -85.3215332 280.58935547 C-86.5248101 280.19657913 -86.5248101 280.19657913 -87.75239563 279.79586792 C-100.80804031 275.17291518 -109.96484245 264.90319929 -116.3125 252.9375 C-120.71976746 243.00175464 -121.46183029 233.78267201 -121.43359375 223.01953125 C-121.43816783 221.47791823 -121.44347699 219.93630723 -121.44947815 218.3946991 C-121.45836925 215.17475061 -121.45603462 211.95505062 -121.44604492 208.73510742 C-121.43459776 204.65161027 -121.45472116 200.56898345 -121.48396206 196.48560047 C-121.50250505 193.30324539 -121.50199546 190.12109159 -121.49632454 186.93869591 C-121.49617332 185.43552117 -121.50204844 183.93233097 -121.51461601 182.42920876 C-121.65604392 162.73523754 -116.18504341 144.62390831 -102.33398438 130.14477539 C-92.08655009 119.93731583 -81.21531348 114.38891117 -68 109 C-68.6290625 108.37996094 -69.258125 107.75992188 -69.90625 107.12109375 C-82.7233186 93.86006043 -89.62789434 78.75815966 -89.4375 60.125 C-89.42920166 59.07143311 -89.42090332 58.01786621 -89.41235352 56.93237305 C-89.23905519 48.94276505 -88.35737007 42.33425486 -85 35 C-84.525625 33.93007813 -84.05125 32.86015625 -83.5625 31.7578125 C-75.48110029 15.24533714 -62.17244554 4.39476005 -45 -2 C-31.0853272 -6.30117326 -13.31519737 -6.09524021 0 0 Z M-61.40625 29.0625 C-71.24890124 41.02807602 -73.46520632 53.92634446 -72 69 C-69.65958771 81.39861275 -61.89285948 92.34700605 -51.6875 99.65625 C-39.60489325 107.3589118 -26.52953219 108.98759709 -12.5234375 106.34375 C0.49925334 102.44030778 11.12737247 93.35070272 17.7109375 81.57421875 C23.33801871 70.33710809 24.05039372 56.55336095 20.4375 44.5 C15.49171546 31.90914712 6.14856999 21.85554343 -6 16 C-12.14862265 13.4685678 -17.67955749 12.47589738 -24.3125 12.5625 C-25.55471313 12.57494751 -25.55471313 12.57494751 -26.82202148 12.58764648 C-40.78437254 12.96985989 -51.86288832 18.97894804 -61.40625 29.0625 Z M111 125 C110.19175781 125.67417969 109.38351563 126.34835938 108.55078125 127.04296875 C89.03720417 143.86079264 74.76558472 167.19685107 68 192 C67.80390137 192.68884277 67.60780273 193.37768555 67.40576172 194.08740234 C61.32608177 216.22380039 61.72819878 241.9688166 68 264 C68.18191895 264.66692871 68.36383789 265.33385742 68.55126953 266.02099609 C73.72004296 284.55744627 83.63324392 301.38263352 96 316 C97.01513672 317.21816406 97.01513672 317.21816406 98.05078125 318.4609375 C121.03704096 345.10314711 154.57617653 360.48425706 189.33569336 363.73095703 C223.2499643 366.12643409 258.55886844 355.42187047 284.45703125 333.234375 C285.29621094 332.49703125 286.13539063 331.7596875 287 331 C287.82886719 330.30390625 288.65773438 329.6078125 289.51171875 328.890625 C309.00716451 312.11903273 323.24817436 288.75270711 330 264 C330.19609863 263.31115723 330.39219727 262.62231445 330.59423828 261.91259766 C336.67391823 239.77619961 336.27180122 214.0311834 330 192 C329.81808105 191.33307129 329.63616211 190.66614258 329.44873047 189.97900391 C324.27995704 171.44255373 314.36675608 154.61736648 302 140 C301.32324219 139.18789062 300.64648438 138.37578125 299.94921875 137.5390625 C276.96295904 110.89685289 243.42382347 95.51574294 208.66430664 92.26904297 C172.86805671 89.74063551 138.12774427 101.83119685 111 125 Z M-26 124 C-27.77588215 134.32784222 -28.86146874 144.68684444 -29.85986328 155.11328125 C-30.12655208 157.89116681 -30.40080867 160.66823598 -30.67578125 163.4453125 C-30.84940739 165.23172725 -31.0226 167.01818419 -31.1953125 168.8046875 C-31.31714401 170.03455887 -31.31714401 170.03455887 -31.44143677 171.28927612 C-32.7144556 179.48240052 -32.7144556 179.48240052 -30.6875 186.99609375 C-29.8521875 187.70958984 -29.8521875 187.70958984 -29 188.4375 C-28.01 189.283125 -27.02 190.12875 -26 191 C-22.58859602 189.53796972 -20.28654485 187.94561487 -18 185 C-17.80839058 182.34335078 -17.8484151 180.19868781 -18.125 177.5859375 C-18.18631104 176.8463681 -18.24762207 176.10679871 -18.31079102 175.34481812 C-18.51965326 172.89420798 -18.75956418 170.4476981 -19 168 C-19.15396935 166.27260506 -19.30628601 164.54506209 -19.45703125 162.81738281 C-19.85570237 158.33068363 -20.28576513 153.84768443 -20.72949219 149.36523438 C-21.00445215 146.57989989 -21.27200841 143.79391498 -21.5390625 141.0078125 C-21.71310636 139.22651991 -21.88756922 137.44526821 -22.0625 135.6640625 C-22.18129517 134.42204575 -22.18129517 134.42204575 -22.30249023 133.15493774 C-22.62394638 129.94893552 -22.97749913 127.06750262 -24 124 C-24.66 124 -25.32 124 -26 124 Z M-89 141 C-103.81069823 157.03761997 -105.37562497 176.0825848 -105.125 196.875 C-105.11493329 198.3528584 -105.10581407 199.83072358 -105.09765625 201.30859375 C-105.0777004 204.87270829 -105.03850824 208.43584877 -105 212 C-97.08 212 -89.16 212 -81 212 C-81 196.16 -81 180.32 -81 164 C-75.72 164 -70.44 164 -65 164 C-65.02356567 166.49747803 -65.02356567 166.49747803 -65.04760742 169.04541016 C-65.10195117 175.2289546 -65.13636667 181.41247797 -65.16479492 187.59619141 C-65.17817551 190.27149721 -65.20033385 192.94632149 -65.22631836 195.62158203 C-65.26275084 199.46913751 -65.27973828 203.31636586 -65.29296875 207.1640625 C-65.30845261 208.35802643 -65.32393646 209.55199036 -65.33988953 210.78213501 C-65.47520054 218.88300162 -65.47520054 218.88300162 -62 226 C-57.91142765 228.13725022 -54.39062906 228.24304949 -49.82299805 228.22705078 C-49.12001083 228.22734283 -48.41702362 228.22763489 -47.69273376 228.22793579 C-45.38226738 228.22654877 -43.07212841 228.2110175 -40.76171875 228.1953125 C-39.15460893 228.19158013 -37.54749683 228.18873422 -35.94038391 228.18673706 C-31.7202623 228.17911821 -27.50027939 228.15948483 -23.2802124 228.1373291 C-18.97003048 228.11683293 -14.65982604 228.10772729 -10.34960938 228.09765625 C-1.89967609 228.07623721 6.55014468 228.04212248 15 228 C15.00142502 227.27052155 15.00285004 226.54104309 15.00431824 225.78945923 C15.02223369 218.87570935 15.06409841 211.96246251 15.13209057 205.04903603 C15.1662134 201.49566018 15.19144731 197.94270751 15.19555664 194.38916016 C15.20069965 190.29278675 15.24596063 186.1976711 15.29296875 182.1015625 C15.2890361 180.8407486 15.28510345 179.57993469 15.28105164 178.28091431 C15.42156143 169.69364466 16.785724 162.58107729 22.75505066 156.0921936 C27.99898247 151.14042829 33.71090815 148.62195834 40.9498291 148.78979492 C42.01106995 148.83197144 42.01106995 148.83197144 43.09375 148.875 C44.6340906 148.89170418 46.17445944 148.90595265 47.71484375 148.91796875 C50.11288718 148.95089946 52.5062841 149.00024135 54.90283203 149.09228516 C64.37631228 149.72825769 64.37631228 149.72825769 72.46118164 145.71728516 C74.232855 142.88521355 75.62007015 140.03846413 77 137 C78.68739495 134.65256767 80.53954701 132.56472354 82.4375 130.375 C85.45909786 127.46345201 85.45909786 127.46345201 87 124 C55.98 124 24.96 124 -7 124 C-5.02797993 144.50842828 -5.02797993 144.50842828 -3.05078125 165.01635742 C-2.80449976 167.58770989 -2.55839401 170.1590792 -2.3125 172.73046875 C-2.24796631 173.39500565 -2.18343262 174.05954254 -2.11694336 174.74421692 C-1.92600516 176.71232071 -1.73833926 178.68074112 -1.55078125 180.64916992 C-1.44419189 181.7572551 -1.33760254 182.86534027 -1.2277832 184.00700378 C-0.65298306 191.55968816 -0.65298306 191.55968816 -3.11132812 194.67895508 C-4.07189602 195.63873518 -5.04614279 196.58495525 -6.03125 197.51953125 C-6.54175903 198.02296555 -7.05226807 198.52639984 -7.57824707 199.04508972 C-9.20745309 200.64636321 -10.85318749 202.22935912 -12.5 203.8125 C-13.60920927 204.89662503 -14.71729651 205.98189932 -15.82421875 207.06835938 C-18.53665169 209.72573845 -21.26403939 212.36685937 -24 215 C-33.84396635 210.58320153 -43.24025653 201.07405019 -49 192 C-51.13307615 185.06842671 -49.14482319 178.07167919 -47.72412109 171.15185547 C-46.21725042 163.17542723 -45.81129138 155.00061616 -45.131073 146.92169189 C-44.71910307 142.12072756 -44.26134819 137.32422788 -43.8046875 132.52734375 C-43.64815375 130.86841962 -43.49172857 129.20948523 -43.33544922 127.55053711 C-43.22475098 126.37885986 -43.11405273 125.20718262 -43 124 C-60.73389723 123.89641957 -76.14143059 128.65372419 -89 141 Z M33.625 169.4375 C31.129103 173.37333757 30.87528836 176.6188054 30.88647461 181.22753906 C30.88655014 182.26831604 30.88662567 183.30909302 30.88670349 184.38140869 C30.89186478 185.49820007 30.89702606 186.61499146 30.90234375 187.765625 C30.9037587 188.91415955 30.90517365 190.06269409 30.90663147 191.24603271 C30.91222857 194.91404831 30.92478056 198.58200285 30.9375 202.25 C30.94251537 204.73697829 30.94707822 207.22395753 30.95117188 209.7109375 C30.96219705 215.8073125 30.97893231 221.90365189 31 228 C31.73605469 228.06058594 32.47210938 228.12117188 33.23046875 228.18359375 C34.69419922 228.30927734 34.69419922 228.30927734 36.1875 228.4375 C37.63189453 228.55931641 37.63189453 228.55931641 39.10546875 228.68359375 C41.78649602 228.97666151 44.3662986 229.42703754 47 230 C47.02578125 228.79988281 47.0515625 227.59976563 47.078125 226.36328125 C47.66409576 207.04388402 50.25466188 186.15726764 59.1796875 168.69140625 C60.21818774 166.86342297 60.21818774 166.86342297 60 164 C57.3118751 163.91835841 54.626277 163.85920332 51.9375 163.8125 C51.18533203 163.78736328 50.43316406 163.76222656 49.65820312 163.73632812 C43.22196038 163.65274056 38.28939929 164.65035336 33.625 169.4375 Z M-104 228 C-104 239.52514158 -100.98409376 247.63646416 -93 256 C-82.10501858 266.40069115 -69.49866041 268.14305924 -55.02319336 268.16113281 C-54.05791214 268.16609772 -53.09263092 268.17106262 -52.09809875 268.17617798 C-48.928673 268.19069511 -45.75929718 268.19758189 -42.58984375 268.203125 C-40.37602234 268.20888237 -38.16220093 268.21464002 -35.94837952 268.22039795 C-31.31771616 268.23087628 -26.68707001 268.23674053 -22.05639648 268.24023438 C-16.12935268 268.24573114 -10.20253719 268.26979787 -4.27556515 268.29820633 C0.29268561 268.31684091 4.86088124 268.32203862 9.42916679 268.32357025 C11.61439711 268.32659233 13.79962657 268.33460579 15.98481941 268.34775543 C19.04091941 268.36484276 22.09645927 268.36292967 25.15258789 268.35644531 C26.04992645 268.3656601 26.94726501 268.37487488 27.87179565 268.3843689 C34.46699202 268.34061586 39.37271273 267.35782191 44.4375 262.8125 C46.47199168 259.15041498 46.90957084 256.04165823 46 252 C42.93868192 247.13790658 40.49041836 245.36644908 35 244 C31.78374412 243.72631374 28.58428875 243.72970538 25.35791016 243.74462891 C24.40428085 243.74100845 23.45065155 243.737388 22.46812439 243.73365784 C20.40400777 243.72678163 18.33987303 243.72425506 16.27574539 243.72560501 C13.00486266 243.72657262 9.7343064 243.71360004 6.46347046 243.69662476 C-2.83389774 243.65042322 -12.13123184 243.62574864 -21.42871094 243.61914062 C-27.12215804 243.61411899 -32.81526329 243.58983711 -38.50859451 243.55381393 C-40.67342703 243.54403264 -42.83830666 243.54167483 -45.00315475 243.54698563 C-48.03551389 243.55407613 -51.06685781 243.53673291 -54.09912109 243.51416016 C-55.43042305 243.52641884 -55.43042305 243.52641884 -56.78862 243.53892517 C-63.57389835 243.44939063 -68.87698873 241.74921455 -74.0234375 237.21875 C-74.46945313 236.6515625 -74.91546875 236.084375 -75.375 235.5 C-75.83648437 234.9328125 -76.29796875 234.365625 -76.7734375 233.78125 C-78 232 -78 232 -80 228 C-87.92 228 -95.84 228 -104 228 Z M48.0078125 280.80859375 C42.39964511 284.13639736 38.27022218 283.39414815 31 284 C31 303.47 31 322.94 31 343 C36.89421783 337.95586645 36.89421783 337.95586645 42.4375 332.625 C43.11683594 331.93664062 43.79617187 331.24828125 44.49609375 330.5390625 C45.24052734 329.77722656 45.24052734 329.77722656 46 329 C49.32759923 330.55194754 51.48580485 332.30621949 54 335 C57.2586636 333.5735422 59.4024854 331.83295838 61.890625 329.3046875 C62.95410156 328.23154297 62.95410156 328.23154297 64.0390625 327.13671875 C64.76867187 326.39035156 65.49828125 325.64398438 66.25 324.875 C66.99507812 324.12089844 67.74015625 323.36679687 68.5078125 322.58984375 C70.3431342 320.73099228 72.1736191 318.86762995 74 317 C72.81442804 313.9066226 71.54033594 311.02773169 69.86328125 308.171875 C69.24912354 307.10718994 69.24912354 307.10718994 68.62255859 306.02099609 C67.97407959 304.89685303 67.97407959 304.89685303 67.3125 303.75 C62.40765821 295.11697849 58.54143754 286.26402535 55 277 C52.58733639 277 49.97893584 279.53209137 48.0078125 280.80859375 Z M-65 284 C-65.08741 315.06151202 -65.08741 315.06151202 -65.14648438 346.12304688 C-65.16428214 358.79064581 -65.1852001 371.45818485 -65.22631836 384.12573242 C-65.25625085 393.35162323 -65.27558217 402.57746542 -65.28226548 411.80340344 C-65.28617121 416.6869792 -65.29532973 421.57041593 -65.31719017 426.45394707 C-65.33761612 431.05447522 -65.34382147 435.65480762 -65.33932304 440.25537682 C-65.34014552 441.93995478 -65.34607468 443.62453959 -65.35761642 445.30907822 C-65.97905339 458.80668606 -65.97905339 458.80668606 -60.54796124 470.60086727 C-55.83277209 474.69731822 -52.59611766 475.35589346 -46.5390625 475.27734375 C-42.77539598 474.86623556 -40.78209813 473.5171364 -38 471 C-33.58443918 465.39104437 -32.87365452 460.91826015 -32.87974548 453.93193054 C-32.87837082 452.71341904 -32.87699615 451.49490753 -32.87557983 450.23947144 C-32.87911847 448.89752172 -32.88275327 447.55557226 -32.88647461 446.21362305 C-32.88675682 444.79418439 -32.88659809 443.37474558 -32.8860321 441.95530701 C-32.88574545 438.10860551 -32.89162095 434.26193525 -32.89860606 430.415241 C-32.90486147 426.39269911 -32.90544513 422.37015648 -32.90663147 418.34761047 C-32.90973833 410.73333712 -32.91794304 403.11907814 -32.92798096 395.50481111 C-32.93916211 386.83497092 -32.9446576 378.16513004 -32.94967639 369.49528444 C-32.96012618 351.66351459 -32.97791481 333.83175898 -33 316 C-27.72 316 -22.44 316 -17 316 C-17.00666183 317.78405746 -17.01332367 319.56811493 -17.02018738 321.40623474 C-17.08101752 338.22396747 -17.12616225 355.04167789 -17.15543652 371.85949612 C-17.17088739 380.50557825 -17.19194279 389.15157811 -17.22631836 397.79760742 C-17.25627531 405.33589153 -17.27558793 412.87411602 -17.28226548 420.412458 C-17.2861671 424.40178596 -17.29529911 428.39094343 -17.31719017 432.3802166 C-17.33765497 436.14028181 -17.34381377 439.90010739 -17.33932304 443.66022301 C-17.34053315 445.68744346 -17.35662272 447.71463823 -17.3732605 449.74179077 C-17.47623171 460.92526394 -17.47623171 460.92526394 -12.54796124 470.61234188 C-7.81728863 474.68853826 -4.59987753 475.35594222 1.4609375 475.27734375 C5.22460402 474.86623556 7.21790187 473.5171364 10 471 C14.73693543 464.98281175 15.12559585 460.21097239 15.12025452 452.71708679 C15.12110894 451.99410945 15.12196337 451.27113211 15.12284368 450.52624637 C15.12448764 448.1095132 15.11899488 445.6928498 15.11352539 443.27612305 C15.11324326 441.54141746 15.11340176 439.80671175 15.1139679 438.07200623 C15.11425486 433.36583037 15.10837444 428.65967998 15.10139394 423.95351005 C15.09514359 419.03409692 15.09455527 414.11468321 15.09336853 409.19526672 C15.09026018 399.8810282 15.08205347 390.56680142 15.07201904 381.25256807 C15.05875276 368.66526714 15.05335399 356.07796301 15.04751682 343.49065685 C15.03811326 323.66042911 15.01819101 303.83022613 15 284 C-11.4 284 -37.8 284 -65 284 Z M322 317 C320.49457477 318.68006144 320.49457477 318.68006144 318.9375 320.875 C315.55615573 325.35987922 311.9144156 329.50866369 308.11328125 333.640625 C305.97792816 336.02464213 303.9765857 338.48353424 302 341 C302.79664063 341.68964844 303.59328125 342.37929688 304.4140625 343.08984375 C315.15173726 352.54096123 325.01438427 364.28623678 326.17700195 379.28320312 C326.71753888 401.31815867 326.71753888 401.31815867 322 411 C321.52949219 411.97324219 321.05898438 412.94648438 320.57421875 413.94921875 C312.97367781 428.65930961 301.24507985 436.70135639 285.83984375 442.109375 C273.7610622 444.91096421 259.1963048 444.45547086 248 439 C247.02675781 438.52949219 246.05351562 438.05898438 245.05078125 437.57421875 C230.38600927 429.99709357 222.17164579 418.2318614 216.90625 402.79296875 C215.80516592 398.1845522 215.54786195 393.78179518 215.375 389.0625 C215.25125 386.071875 215.1275 383.08125 215 380 C204.44 380 193.88 380 183 380 C183 388.25 183 396.5 183 405 C188.33444193 406.77814731 192.57593154 408.16608535 197.875 409.1875 C202.55643756 410.42014742 202.55643756 410.42014742 204.3984375 412.828125 C205.93443542 416.63289049 206.17832648 419.06994813 205 423 C203.68696643 425.45395703 202.34747014 427.85378131 200.9375 430.25 C200.56044922 430.8996875 200.18339844 431.549375 199.79492188 432.21875 C198.86765885 433.81505091 197.93441544 435.40787529 197 437 C201.81867247 442.80891746 207.01256408 448.13065552 212.375 453.4375 C213.20644531 454.26443359 214.03789062 455.09136719 214.89453125 455.94335938 C216.9274104 457.96455531 218.96259963 459.98336335 221 462 C222.60081769 461.21995012 224.19933516 460.43517861 225.796875 459.6484375 C226.68729492 459.21192871 227.57771484 458.77541992 228.49511719 458.32568359 C230.59449424 457.21460977 232.37118998 456.05935364 234.25 454.625 C237 453 237 453 240.0625 453.125 C241.031875 453.41375 242.00125 453.7025 243 454 C244.24330078 454.22623047 244.24330078 454.22623047 245.51171875 454.45703125 C249.02453562 456.63530859 249.22327698 458.98029241 250.16796875 462.88085938 C250.36003906 463.76580078 250.55210937 464.65074219 250.75 465.5625 C251.15906441 467.3143628 251.57040106 469.0656971 251.984375 470.81640625 C252.15678711 471.59443604 252.32919922 472.37246582 252.50683594 473.17407227 C252.83856023 475.00465039 252.83856023 475.00465039 254 476 C256.52094076 476.08847743 259.01430893 476.11527301 261.53515625 476.09765625 C262.28840683 476.0962413 263.04165741 476.09482635 263.81773376 476.09336853 C266.2326956 476.08775376 268.64756601 476.07519883 271.0625 476.0625 C272.69596221 476.0574869 274.32942586 476.05292366 275.96289062 476.04882812 C279.97529585 476.03777954 283.98763241 476.02050506 288 476 C289.72140349 471.06353184 291.19650543 466.26625005 292.1875 461.125 C293.42014742 456.44356244 293.42014742 456.44356244 295.828125 454.6015625 C299.63289049 453.06556458 302.06994813 452.82167352 306 454 C308.45395703 455.31303357 310.85378131 456.65252986 313.25 458.0625 C314.22453125 458.62807617 314.22453125 458.62807617 315.21875 459.20507812 C316.81505091 460.13234115 318.40787529 461.06558456 320 462 C325.80891746 457.18132753 331.13065552 451.98743592 336.4375 446.625 C337.26443359 445.79355469 338.09136719 444.96210938 338.94335938 444.10546875 C340.96455531 442.0725896 342.98336335 440.03740037 345 438 C344.21995012 436.39918231 343.43517861 434.80066484 342.6484375 433.203125 C342.21192871 432.31270508 341.77541992 431.42228516 341.32568359 430.50488281 C340.21460977 428.40550576 339.05935364 426.62881002 337.625 424.75 C336 422 336 422 336.1875 418.9375 C336.455625 417.968125 336.72375 416.99875 337 416 C337.34171827 414.33503228 337.67641245 412.66858622 338 411 C339.64548828 410.60167969 339.64548828 410.60167969 341.32421875 410.1953125 C342.77869247 409.83873185 344.23311698 409.4819504 345.6875 409.125 C346.40873047 408.95097656 347.12996094 408.77695312 347.87304688 408.59765625 C348.57880859 408.42363281 349.28457031 408.24960937 350.01171875 408.0703125 C350.65584717 407.91320801 351.29997559 407.75610352 351.96362305 407.59423828 C354.36333059 406.89397594 356.67900073 405.92839971 359 405 C359 393.78 359 382.56 359 371 C353.66555807 369.22185269 349.42406846 367.83391465 344.125 366.8125 C339.44356244 365.57985258 339.44356244 365.57985258 337.6015625 363.171875 C336.06556458 359.36710951 335.82167352 356.93005187 337 353 C338.31303357 350.54604297 339.65252986 348.14621869 341.0625 345.75 C341.43955078 345.1003125 341.81660156 344.450625 342.20507812 343.78125 C343.13234115 342.18494909 344.06558456 340.59212471 345 339 C340.63178152 333.78391303 336.05759125 328.87481383 331.25 324.0625 C330.57839844 323.37865234 329.90679687 322.69480469 329.21484375 321.99023438 C328.24998047 321.0224707 328.24998047 321.0224707 327.265625 320.03515625 C326.68586914 319.4512915 326.10611328 318.86742676 325.50878906 318.26586914 C324.07288633 316.78575288 324.07288633 316.78575288 322 317 Z M85 330 C79.39 335.61 73.78 341.22 68 347 C69.83385923 350.66771845 71.25062829 352.46834996 74.125 355.25 C75.21167969 356.30960937 75.21167969 356.30960937 76.3203125 357.390625 C76.87460938 357.92171875 77.42890625 358.4528125 78 359 C81.15204981 357.60652624 83.26171773 355.97514921 85.671875 353.5234375 C86.33574219 352.853125 86.99960938 352.1828125 87.68359375 351.4921875 C88.36550781 350.79351562 89.04742187 350.09484375 89.75 349.375 C90.44738281 348.66859375 91.14476562 347.9621875 91.86328125 347.234375 C93.58012488 345.49401297 95.29211832 343.74915019 97 342 C96.13192399 340.93183555 95.25505217 339.87081915 94.375 338.8125 C93.88773438 338.22082031 93.40046875 337.62914062 92.8984375 337.01953125 C90.48592888 334.45313834 87.70590288 332.25491907 85 330 Z M36.33531189 360.69386292 C28.735588 368.98430738 29.35940507 378.1524539 29.68164062 388.86914062 C29.80692433 391.39201054 29.93389796 393.91479706 30.0625 396.4375 C30.13786898 399.01868506 30.20628758 401.60008291 30.26757812 404.18164062 C30.43160043 410.45912786 30.68143129 416.7285548 31 423 C36.47313966 418.43852453 41.53954809 413.59258679 46.55859375 408.5390625 C47.34774673 407.74849457 48.13689972 406.95792664 48.94996643 406.1434021 C51.44818661 403.63962374 53.94289044 401.13237525 56.4375 398.625 C58.13974208 396.91773752 59.84221373 395.21070391 61.54492188 393.50390625 C65.69927363 389.33858102 69.85075081 385.17040781 74 381 C72.18607734 377.08680828 69.65964538 374.36985383 66.625 371.359375 C66.09986816 370.83232971 65.57473633 370.30528442 65.03369141 369.76226807 C63.92661117 368.65383072 62.8170167 367.54789954 61.70507812 366.44433594 C59.99893025 364.74893699 58.30375953 363.0430839 56.609375 361.3359375 C55.53189108 360.25977442 54.45378733 359.18423149 53.375 358.109375 C52.86662598 357.59695251 52.35825195 357.08453003 51.83447266 356.55657959 C45.50778835 350.31406105 41.85968626 355.5040532 36.33531189 360.69386292 Z M287 352 C284.55045866 353.40190067 282.26654476 354.85580386 279.9375 356.4375 C267.4847974 364.52215581 254.33717845 370.04315209 240.01635742 373.92285156 C235.81562371 375.05232081 235.81562371 375.05232081 232.4921875 377.69921875 C230.14893652 388.65298723 231.59332447 399.91050387 237.5078125 409.42578125 C243.88890935 418.25543852 252.21972586 424.74242091 263 427 C274.78539374 428.15356528 284.93349538 426.90678065 294.75 419.8125 C303.57821408 412.37405844 309.24012841 403.76322414 310.37890625 392.12890625 C310.89878531 380.52841348 308.52324002 371.10782171 301.00390625 362.078125 C296.96857927 357.89334146 292.56733514 353.85577838 287 352 Z " fill="#555050" transform="translate(129,12)"/>
<path d="M0 0 C3.26701612 2.66358727 6.39330111 5.45632415 9.50390625 8.30078125 C10.70273437 9.37585938 10.70273437 9.37585938 11.92578125 10.47265625 C23.25289034 21.15709249 31.22417267 34.17323423 37.50390625 48.30078125 C38.22707031 49.89986328 38.22707031 49.89986328 38.96484375 51.53125 C50.75297985 79.71561176 49.78417969 113.38067819 38.81640625 141.61328125 C32.88884236 155.96145228 24.9509354 167.8762523 14.50390625 179.30078125 C13.7871875 180.1 13.07046875 180.89921875 12.33203125 181.72265625 C1.64253838 193.05512614 -11.36968274 201.0066886 -25.49609375 207.30078125 C-26.55054688 207.78289062 -27.605 208.265 -28.69140625 208.76171875 C-51.6867879 218.46565218 -80.5115563 220.05238771 -104.49609375 213.30078125 C-105.72457031 212.96046875 -106.95304687 212.62015625 -108.21875 212.26953125 C-139.63427907 202.65319557 -164.50751489 181.32853982 -180.44140625 152.8203125 C-189.75666771 134.97614282 -194.12665429 116.60373819 -193.93359375 96.55078125 C-193.9298877 95.85456665 -193.92618164 95.15835205 -193.92236328 94.44104004 C-193.68809984 63.3958102 -182.39194102 36.15179552 -161.49609375 13.30078125 C-160.779375 12.5015625 -160.06265625 11.70234375 -159.32421875 10.87890625 C-148.63472588 -0.45356364 -135.62250476 -8.4051261 -121.49609375 -14.69921875 C-120.44164062 -15.18132812 -119.3871875 -15.6634375 -118.30078125 -16.16015625 C-80.31158865 -32.19140121 -32.31783025 -25.47213687 0 0 Z M-140.49609375 17.30078125 C-141.19992187 17.83960938 -141.90375 18.3784375 -142.62890625 18.93359375 C-157.92516267 31.25729832 -167.62535655 49.92199327 -173.49609375 68.30078125 C-174.00849609 69.85539062 -174.00849609 69.85539062 -174.53125 71.44140625 C-181.14022642 95.90998871 -176.78804137 124.33650827 -164.30859375 146.23046875 C-163.71046875 147.24367188 -163.11234375 148.256875 -162.49609375 149.30078125 C-162.16609375 149.30078125 -161.83609375 149.30078125 -161.49609375 149.30078125 C-161.49609375 123.89078125 -161.49609375 98.48078125 -161.49609375 72.30078125 C-145.65609375 72.30078125 -129.81609375 72.30078125 -113.49609375 72.30078125 C-113.49609375 88.14078125 -113.49609375 103.98078125 -113.49609375 120.30078125 C-108.21609375 120.30078125 -102.93609375 120.30078125 -97.49609375 120.30078125 C-97.49609375 83.34078125 -97.49609375 46.38078125 -97.49609375 8.30078125 C-81.65609375 8.30078125 -65.81609375 8.30078125 -49.49609375 8.30078125 C-49.49609375 34.70078125 -49.49609375 61.10078125 -49.49609375 88.30078125 C-44.21609375 88.30078125 -38.93609375 88.30078125 -33.49609375 88.30078125 C-33.49609375 77.74078125 -33.49609375 67.18078125 -33.49609375 56.30078125 C-17.65609375 56.30078125 -1.81609375 56.30078125 14.50390625 56.30078125 C14.50390625 86.99078125 14.50390625 117.68078125 14.50390625 149.30078125 C29.4536885 130.61355343 30.74111779 105.20893756 29.50390625 82.30078125 C28.82903628 76.41649832 27.36231252 70.91232071 25.50390625 65.30078125 C25.11847656 64.13675781 24.73304688 62.97273438 24.3359375 61.7734375 C19.93584915 49.56995623 13.54714251 39.42613187 5.50390625 29.30078125 C4.69179688 28.23730469 4.69179688 28.23730469 3.86328125 27.15234375 C-12.19462525 7.28271198 -38.27683145 -3.88872043 -63.03515625 -7.16796875 C-91.76755605 -9.87508993 -118.3052389 -0.67578663 -140.49609375 17.30078125 Z M-81.49609375 24.30078125 C-81.49609375 82.05078125 -81.49609375 139.80078125 -81.49609375 199.30078125 C-72.81885286 200.64436353 -72.81885286 200.64436353 -65.49609375 199.30078125 C-65.49609375 141.55078125 -65.49609375 83.80078125 -65.49609375 24.30078125 C-70.77609375 24.30078125 -76.05609375 24.30078125 -81.49609375 24.30078125 Z M-17.49609375 72.30078125 C-17.49609375 108.60078125 -17.49609375 144.90078125 -17.49609375 182.30078125 C-10.97386699 179.69189054 -5.0305731 176.65733346 -1.49609375 170.30078125 C0.48489672 163.07921858 -0.21678669 155.29376166 -0.421875 147.88671875 C-0.44241581 145.70386693 -0.45806234 143.52096407 -0.46903992 141.33804321 C-0.51085017 135.61893337 -0.61872884 129.90294358 -0.74078369 124.18505859 C-0.85372926 118.33994754 -0.90363823 112.49432747 -0.95898438 106.6484375 C-1.07661954 95.19785498 -1.26411853 83.7495785 -1.49609375 72.30078125 C-6.77609375 72.30078125 -12.05609375 72.30078125 -17.49609375 72.30078125 Z M-145.49609375 88.30078125 C-145.65442385 98.871316 -145.78276757 109.44105961 -145.85877895 120.01251316 C-145.89526623 124.92163307 -145.94473303 129.8298977 -146.02416992 134.73852539 C-146.10039232 139.47834069 -146.14211793 144.21733497 -146.16023445 148.95771599 C-146.17313964 150.76347717 -146.19834186 152.56919486 -146.23620415 154.37460518 C-146.74797886 163.96898332 -146.74797886 163.96898332 -144.025177 172.90353394 C-142.26720587 174.70363949 -140.62853294 175.9807592 -138.49609375 177.30078125 C-137.85655258 177.79490005 -137.21701141 178.28901886 -136.55809021 178.79811096 C-133.3798331 181.43770139 -133.3798331 181.43770139 -129.49609375 182.30078125 C-129.49609375 151.28078125 -129.49609375 120.26078125 -129.49609375 88.30078125 C-134.77609375 88.30078125 -140.05609375 88.30078125 -145.49609375 88.30078125 Z M-49.49609375 104.30078125 C-49.49609375 134.66078125 -49.49609375 165.02078125 -49.49609375 196.30078125 C-42.04888015 195.44985245 -42.04888015 195.44985245 -33.49609375 192.30078125 C-33.49609375 163.26078125 -33.49609375 134.22078125 -33.49609375 104.30078125 C-38.77609375 104.30078125 -44.05609375 104.30078125 -49.49609375 104.30078125 Z M-113.49609375 136.30078125 C-113.49609375 154.78078125 -113.49609375 173.26078125 -113.49609375 192.30078125 C-102.97182332 196.51159976 -102.97182332 196.51159976 -97.49609375 196.30078125 C-97.49609375 176.50078125 -97.49609375 156.70078125 -97.49609375 136.30078125 C-102.77609375 136.30078125 -108.05609375 136.30078125 -113.49609375 136.30078125 Z " fill="#555050" transform="translate(401.49609375,143.69921875)"/>
<path d="M0 0 C1.06814941 -0.0038269 2.13629883 -0.00765381 3.23681641 -0.01159668 C5.47885082 -0.0142997 7.72091766 -0.00705241 9.96289062 0.00976562 C13.36661042 0.03119717 16.76821973 0.00990732 20.171875 -0.015625 C22.36458793 -0.01298144 24.55729955 -0.00785588 26.75 0 C27.75240723 -0.00809692 28.75481445 -0.01619385 29.78759766 -0.02453613 C41.03227718 0.12243166 50.22363982 3.74970578 58.375 11.53125 C67.18350953 20.75838177 70.00074301 30.38169324 69.84570312 42.89599609 C69.37749528 54.72322507 64.8266305 63.37232107 56.30859375 71.50390625 C45.11022885 80.93938007 33.49804747 81.09281803 19.58203125 80.921875 C17.78171929 80.91440053 15.98139911 80.90871331 14.18107605 80.90472412 C9.47753839 80.88956258 4.7745068 80.85036435 0.07116699 80.8059082 C-4.74219928 80.76474916 -9.55564853 80.74666934 -14.36914062 80.7265625 C-23.7879809 80.6838594 -33.20644812 80.61572518 -42.625 80.53125 C-42.72712012 73.75444534 -42.79676532 66.97784195 -42.84472656 60.20043945 C-42.86473827 57.89893173 -42.89195631 55.59747418 -42.92675781 53.29614258 C-42.97573699 49.97204138 -42.99807401 46.64861724 -43.015625 43.32421875 C-43.03627014 42.3091777 -43.05691528 41.29413666 -43.07818604 40.24833679 C-43.08167705 28.92237861 -39.45822835 19.73675059 -31.625 11.53125 C-22.47588214 2.79721499 -12.44751176 -0.10054452 0 0 Z M-19.25390625 24.171875 C-25.29024362 30.86275497 -26.77077716 37.41669874 -26.72265625 46.3671875 C-26.71943359 47.43066406 -26.71621094 48.49414062 -26.71289062 49.58984375 C-26.70451172 50.68425781 -26.69613281 51.77867188 -26.6875 52.90625 C-26.68298828 54.02386719 -26.67847656 55.14148437 -26.67382812 56.29296875 C-26.66209244 59.03911804 -26.64567363 61.78515586 -26.625 64.53125 C-18.81456295 64.58214285 -11.004169 64.61706449 -3.19360352 64.64111328 C-0.53890161 64.65000946 2.11558227 64.66477056 4.77026367 64.68212891 C8.59556799 64.7065076 12.42072566 64.71776312 16.24609375 64.7265625 C17.42457382 64.73688507 18.60305389 64.74720764 19.81724548 64.75784302 C28.90889381 64.75906874 37.10208949 64.51119865 44.375 58.53125 C49.73508585 53.13260238 52.64761914 48.53040968 52.75 40.71875 C52.59975225 33.90751873 51.2063374 29.51627168 46.50390625 24.55859375 C37.31325604 16.097636 27.71776545 16.34459851 15.74487305 16.34594727 C13.57906256 16.34376668 11.41376713 16.32559283 9.24804688 16.30664062 C-6.31449731 16.20680488 -6.31449731 16.20680488 -19.25390625 24.171875 Z " fill="#555050" transform="translate(434.625,7.46875)"/>
<path d="M0 0 C5.28 0 10.56 0 16 0 C16 5.28 16 10.56 16 16 C10.72 16 5.44 16 0 16 C0 10.72 0 5.44 0 0 Z " fill="#555050" transform="translate(456,40)"/>
<path d="M0 0 C5.28 0 10.56 0 16 0 C16 5.28 16 10.56 16 16 C10.72 16 5.44 16 0 16 C0 10.72 0 5.44 0 0 Z " fill="#555050" transform="translate(424,40)"/>
</svg>
