<?xml version="1.0" encoding="UTF-8"?>
<!DOCTYPE svg PUBLIC "-//W3C//DTD SVG 1.1//EN" "http://www.w3.org/Graphics/SVG/1.1/DTD/svg11.dtd">
<svg xmlns="http://www.w3.org/2000/svg" version="1.1" width="512px" height="512px" style="shape-rendering:geometricPrecision; text-rendering:geometricPrecision; image-rendering:optimizeQuality; fill-rule:evenodd; clip-rule:evenodd" xmlns:xlink="http://www.w3.org/1999/xlink">
<g><path style="opacity:0.984" fill="#757577" d="M 511.5,50.5 C 511.5,158.833 511.5,267.167 511.5,375.5C 507.34,389.826 498.006,398.993 483.5,403C 450.495,403.167 417.495,403.667 384.5,404.5C 358.348,457.68 315.515,485.68 256,488.5C 195.79,486.407 152.624,458.407 126.5,404.5C 93.505,403.667 60.505,403.167 27.5,403C 12.9937,398.993 3.66037,389.826 -0.5,375.5C -0.5,267.167 -0.5,158.833 -0.5,50.5C 4.0911,34.4176 14.7578,25.2509 31.5,23C 180.833,22.3333 330.167,22.3333 479.5,23C 496.095,25.4388 506.762,34.6055 511.5,50.5 Z M 33.5,55.5 C 181.5,55.3333 329.5,55.5 477.5,56C 478.126,56.7504 478.626,57.5838 479,58.5C 479.5,69.495 479.667,80.495 479.5,91.5C 409.499,91.3333 339.499,91.5 269.5,92C 264.849,92.7416 261.016,94.9083 258,98.5C 249.958,111.418 241.792,124.251 233.5,137C 166.167,137.5 98.8342,137.667 31.5,137.5C 31.3334,111.165 31.5,84.8312 32,58.5C 32.5133,57.4734 33.0133,56.4734 33.5,55.5 Z M 280.5,124.5 C 346.833,124.5 413.167,124.5 479.5,124.5C 479.5,128.833 479.5,133.167 479.5,137.5C 410.499,137.667 341.499,137.5 272.5,137C 275.552,133.059 278.218,128.893 280.5,124.5 Z M 31.5,170.5 C 180.833,170.5 330.167,170.5 479.5,170.5C 479.823,237.196 479.49,303.862 478.5,370.5C 450.532,371.475 422.532,371.808 394.5,371.5C 401.392,312.966 381.392,266.133 334.5,231C 293.97,205.393 250.97,200.393 205.5,216C 148.939,240.587 118.606,283.754 114.5,345.5C 114.987,354.187 115.653,362.854 116.5,371.5C 88.4682,371.808 60.4682,371.475 32.5,370.5C 31.5103,303.862 31.177,237.196 31.5,170.5 Z M 254.5,239.5 C 302.458,242.04 336.292,265.04 356,308.5C 366.454,336.126 365.788,363.459 354,390.5C 338.989,362.728 315.489,348.895 283.5,349C 304.996,334.19 312.496,314.023 306,288.5C 293.314,258.906 271.147,247.406 239.5,254C 215.933,262.425 203.599,279.259 202.5,304.5C 203.3,323.269 211.3,338.102 226.5,349C 194.913,349.193 171.746,363.027 157,390.5C 137.397,335.31 151.231,290.477 198.5,256C 215.965,245.895 234.631,240.395 254.5,239.5 Z M 251.5,284.5 C 267.939,284.105 275.772,292.105 275,308.5C 269.187,323.324 259.021,327.49 244.5,321C 232.5,310 232.5,299 244.5,288C 246.925,286.787 249.259,285.621 251.5,284.5 Z M 218.5,382.5 C 243.169,382.333 267.836,382.5 292.5,383C 317.285,387.456 329.118,402.289 328,427.5C 294.536,455.902 257.036,462.735 215.5,448C 203.599,442.748 192.766,435.914 183,427.5C 182.076,402.273 193.909,387.273 218.5,382.5 Z"/></g>
<g><path style="opacity:0.969" fill="#757577" d="M 82.5,80.5 C 100.35,79.2283 107.183,87.2283 103,104.5C 97.7922,112.114 90.6255,114.614 81.5,112C 72.3936,106.943 69.5603,99.4426 73,89.5C 75.4057,85.5915 78.5724,82.5915 82.5,80.5 Z"/></g>
<g><path style="opacity:0.972" fill="#757577" d="M 133.5,80.5 C 152.779,79.6103 159.279,88.277 153,106.5C 151.5,108 150,109.5 148.5,111C 129.413,115.906 121.246,108.74 124,89.5C 126.406,85.5915 129.572,82.5915 133.5,80.5 Z"/></g>
<g><path style="opacity:0.971" fill="#757577" d="M 184.5,80.5 C 201.007,78.839 208.173,86.1724 206,102.5C 201.313,111.852 193.813,115.018 183.5,112C 174.562,106.856 171.728,99.3557 175,89.5C 177.406,85.5915 180.572,82.5915 184.5,80.5 Z"/></g>
</svg>
