<?xml version="1.0" encoding="UTF-8"?>
<svg version="1.1" xmlns="http://www.w3.org/2000/svg" width="512" height="512">
<path d="M0 0 C1.22963457 -0.00382555 2.45926913 -0.00765109 3.72616535 -0.01159257 C7.12266334 -0.02010135 10.51894388 -0.0196983 13.91543543 -0.01541197 C17.58490606 -0.01293944 21.25435153 -0.0219654 24.92381287 -0.02944946 C32.10601725 -0.04218349 39.28818423 -0.0439918 46.470398 -0.0416492 C52.30918866 -0.03986457 58.14796798 -0.04161879 63.98675728 -0.04587364 C65.23430924 -0.04676643 65.23430924 -0.04676643 66.50706427 -0.04767724 C68.19677742 -0.04888902 69.88649057 -0.05010316 71.57620371 -0.05131962 C87.41365824 -0.06218999 103.25109146 -0.06003494 119.08854718 -0.05393478 C133.57023787 -0.04876507 148.0518613 -0.06002336 162.53353869 -0.07903299 C177.41271506 -0.09841433 192.29185962 -0.10666694 207.1710487 -0.10290974 C215.52084858 -0.10099828 223.87059121 -0.10348005 232.22038078 -0.11762428 C239.32798503 -0.12954275 246.43549678 -0.13093769 253.54310232 -0.11883412 C257.16753494 -0.11294892 260.7917984 -0.11183597 264.41621971 -0.12383652 C268.34950354 -0.13670814 272.28253159 -0.1262224 276.21582031 -0.11352539 C277.35532322 -0.12089968 278.49482612 -0.12827396 279.66885942 -0.13587171 C289.84783653 -0.06676566 298.22455827 2.01602945 305.67140198 9.26069641 C311.32831252 16.81414344 311.5485779 25.12426852 310.67140198 34.26069641 C309.11926533 39.1489608 307.23631982 43.07029409 303.11079502 46.20849991 C299.50079248 50.72537641 299.98747814 54.65232046 300.05908203 60.2794342 C300.05354862 61.40441669 300.0480152 62.52939917 300.04231411 63.68847203 C300.02971186 67.46649729 300.05274735 71.24347273 300.07545471 75.0214386 C300.07635003 77.72676437 300.06964781 80.43205806 300.06315613 83.13737488 C300.05295076 88.96778418 300.06055583 94.79795089 300.07981682 100.62833405 C300.10731997 109.06785644 300.10347045 117.50714426 300.091231 125.94669214 C300.07183429 139.65229625 300.07178011 153.35782309 300.08668518 167.06343079 C300.08757132 167.88365216 300.08845745 168.70387354 300.08937044 169.54895011 C300.09300417 172.87205499 300.09672155 176.19515977 300.100537 179.51826446 C300.11099233 188.65766732 300.11924255 197.79707115 300.12574768 206.93647766 C300.12633592 207.75448619 300.12692415 208.57249473 300.12753021 209.4152914 C300.13681655 223.06493104 300.13032322 236.71452451 300.11343724 250.36415601 C300.10385597 258.77971528 300.10898083 267.19502614 300.13320494 275.61055735 C300.14897966 281.3802729 300.15077107 287.14988278 300.14167171 292.91961238 C300.13695309 296.246456 300.14102191 299.57268144 300.15830803 302.89952469 C300.17616239 306.51130178 300.16942467 310.1222437 300.15673828 313.73402405 C300.17349481 315.30043738 300.17349481 315.30043738 300.19058985 316.89849544 C300.11707783 325.47878236 297.87625148 333.05584691 291.67140198 339.26069641 C283.17592571 345.76504543 274.73567564 346.55918684 264.33659363 346.52139282 C262.65245867 346.52713114 262.65245867 346.52713114 260.93430078 346.53298539 C257.18206908 346.54328235 253.42999134 346.53932946 249.67774963 346.53535461 C246.98346451 346.53970291 244.28919057 346.54482221 241.59490967 346.55084229 C235.04202955 346.56357146 228.48919045 346.5653852 221.93630005 346.56304202 C216.60810119 346.56125669 211.27991475 346.5630131 205.95171738 346.56726646 C205.19246418 346.56786165 204.43321099 346.56845684 203.65095013 346.56907007 C202.10836471 346.57028186 200.56577929 346.57149599 199.02319388 346.57271244 C184.56679055 346.58358113 170.11041057 346.58142868 155.65400593 346.5753276 C142.4404274 346.57015913 129.22692261 346.58141321 116.01335867 346.60042582 C102.43256111 346.61981642 88.85179841 346.62805807 75.27098691 346.62430257 C67.651653 346.62239236 60.03238183 346.62486042 52.41305923 346.63901711 C45.92654537 346.65094747 39.44013289 346.65231729 32.95361759 346.64022694 C29.64701188 346.63434978 26.34062913 346.63484283 23.03402901 346.64522934 C19.44257423 346.65569583 15.85161474 346.64759618 12.26017761 346.63491821 C11.2247522 346.6422925 10.18932679 346.64966678 9.12252486 346.65726453 C-1.12416671 346.58136525 -9.7607726 344.46064143 -17.32859802 337.26069641 C-23.37845842 329.61876749 -23.61492467 322.57726266 -23.5556488 313.19673157 C-23.55594086 311.98641266 -23.55623291 310.77609375 -23.55653381 309.52909851 C-23.55538215 306.22367518 -23.54537637 302.91850404 -23.5313859 299.61312532 C-23.51885313 296.15380889 -23.51770604 292.69448883 -23.51533508 289.2351532 C-23.50912778 282.69045006 -23.49272715 276.14581402 -23.4726361 269.60114038 C-23.45025372 262.14770632 -23.4392778 254.694269 -23.42924523 247.24080968 C-23.40836023 231.91406644 -23.37319889 216.58739009 -23.32859802 201.26069641 C-24.18840271 201.33288391 -25.0482074 201.40507141 -25.93406677 201.47944641 C-27.11613708 201.57225891 -28.2982074 201.66507141 -29.51609802 201.76069641 C-30.66465271 201.85350891 -31.8132074 201.94632141 -32.99656677 202.04194641 C-38.76589937 202.41238763 -44.55050815 202.300231 -50.32859802 202.26069641 C-50.3263197 203.13849911 -50.3263197 203.13849911 -50.32399535 204.03403521 C-50.23447184 238.72228247 -50.16584614 273.41050666 -50.1243367 308.09884492 C-50.11933391 312.26444925 -50.11415662 316.43005336 -50.10887146 320.59565735 C-50.10782222 321.42494977 -50.10677298 322.25424219 -50.10569194 323.10866469 C-50.08828944 336.53427202 -50.0567526 349.9598108 -50.01998684 363.38537747 C-49.9825731 377.16252301 -49.96036126 390.93963266 -49.95224404 404.71682692 C-49.94675716 413.21726816 -49.92943096 421.71751564 -49.89693215 430.21789724 C-49.87577892 436.04791544 -49.8693998 441.87783356 -49.87459251 447.70788735 C-49.87715312 451.07102919 -49.87105379 454.43355988 -49.85177612 457.79668808 C-49.83188112 461.44629731 -49.8366582 465.09507685 -49.84757996 468.7447052 C-49.83592859 469.80308609 -49.82427722 470.86146699 -49.81227279 471.95192003 C-49.87168005 479.29419506 -51.18398754 484.44972799 -55.96922302 490.24897766 C-62.34899596 495.49835394 -68.40154321 497.92100958 -76.74656677 497.60054016 C-84.39993786 496.59321295 -89.76476266 493.57577404 -94.85594177 487.84663391 C-99.81878032 479.13204738 -99.74721763 469.95169953 -99.66917419 460.1723175 C-99.66832642 458.67332476 -99.668806 457.17433077 -99.67050171 455.67533875 C-99.67135722 451.63462633 -99.65380404 447.59418483 -99.63277984 443.55353498 C-99.61393843 439.32016365 -99.61225674 435.08678509 -99.60870361 430.8533783 C-99.59940497 422.84964327 -99.57482093 414.84603218 -99.54465514 406.84235156 C-99.51104299 397.72501923 -99.49460804 388.60768078 -99.47956884 379.49030185 C-99.44826926 360.74702995 -99.39555149 342.00387317 -99.32859802 323.26069641 C-100.64859802 323.26069641 -101.96859802 323.26069641 -103.32859802 323.26069641 C-103.47616295 324.43001457 -103.47616295 324.43001457 -103.62670898 325.62295532 C-105.04837659 336.24545271 -107.13408543 346.68604105 -109.29344177 357.17866516 C-109.68713501 359.10671338 -110.08051453 361.03482568 -110.47360229 362.96299744 C-111.51708966 368.07466966 -112.56620604 373.18516803 -113.61746979 378.29524612 C-114.26741829 381.45461417 -114.91653197 384.6141528 -115.56547546 387.77372742 C-117.90522205 399.16186916 -120.25324464 410.54827976 -122.60826492 421.93327236 C-123.81752937 427.78114897 -125.02103363 433.63016788 -126.21873474 439.48042297 C-127.47766761 445.62851072 -128.75208356 451.77319742 -130.04298401 457.91465759 C-130.47888891 459.99881344 -130.9095657 462.0840705 -131.33467102 464.17045593 C-131.90875393 466.98129448 -132.50240013 469.78724706 -133.10203552 472.59272766 C-133.25651657 473.37169403 -133.41099762 474.1506604 -133.57015991 474.95323181 C-135.36746148 483.12278441 -139.37338004 489.4875076 -146.32859802 494.26069641 C-152.71289685 497.68036403 -159.51893219 498.41904525 -166.56687927 496.72163391 C-173.98765518 494.17816646 -177.67280609 490.21286291 -181.31297302 483.38179016 C-185.66582775 474.29102047 -182.95044704 463.80765527 -180.98948669 454.37983704 C-180.74071274 453.14078613 -180.49193878 451.90173523 -180.23562622 450.62513733 C-179.6983588 447.94976803 -179.15447686 445.27586499 -178.60519981 442.60293579 C-177.7325711 438.35634812 -176.87508201 434.10678508 -176.01934814 429.85676575 C-174.66049684 423.11718463 -173.29153915 416.37970281 -171.91827613 409.64304495 C-169.46825958 397.62299287 -167.03413654 385.59972119 -164.60572034 373.5752883 C-163.75633019 369.37161991 -162.90208409 365.16897709 -162.04387099 360.96710157 C-159.37743523 347.90071189 -156.79771228 334.85723167 -154.87225342 321.65852356 C-154.32859802 318.26069641 -154.32859802 318.26069641 -153.32859802 315.26069641 C-154.17422302 315.30710266 -155.01984802 315.35350891 -155.89109802 315.40132141 C-163.12816359 315.63159168 -168.297095 315.3965842 -174.32859802 311.26069641 C-175.23609802 310.68319641 -176.14359802 310.10569641 -177.07859802 309.51069641 C-181.7771471 304.81214733 -184.4403365 298.39732704 -184.47576904 291.77342224 C-184.48292435 290.85411423 -184.49007965 289.93480621 -184.49745178 288.98764038 C-184.50014069 287.98091782 -184.50282959 286.97419525 -184.50559998 285.93696594 C-184.51217117 284.87476334 -184.51874237 283.81256073 -184.5255127 282.71817017 C-184.54526379 279.19328237 -184.55691607 275.66843734 -184.56687927 272.14350891 C-184.5709548 270.93787167 -184.57503033 269.73223442 -184.57922935 268.49006271 C-184.60010374 262.10143454 -184.61439619 255.71282789 -184.62376404 249.32417297 C-184.63479527 242.74622028 -184.6691536 236.16860896 -184.70893574 229.59077644 C-184.73517897 224.51700748 -184.74346303 219.44331862 -184.74704552 214.36948776 C-184.75189623 211.94638148 -184.76346655 209.52327842 -184.78208351 207.1002388 C-184.90782927 189.64041548 -184.84634052 174.79631763 -172.32859802 161.26069641 C-162.26783475 152.16535992 -150.62973709 149.63897238 -137.39988708 149.80659485 C-135.55383377 149.80571869 -135.55383377 149.80571869 -133.67048645 149.80482483 C-130.33619108 149.80711371 -127.00291962 149.82699871 -123.66880512 149.85512066 C-120.16950893 149.8803388 -116.67019519 149.88249222 -113.17082214 149.88722229 C-106.56247352 149.89959273 -99.95439355 149.93233269 -93.34616256 149.97262025 C-85.81523134 150.0175242 -78.28428645 150.03937152 -70.75325441 150.05940199 C-55.27821405 150.10107166 -39.80344085 150.17130643 -24.32859802 150.26069641 C-24.29709503 137.09949401 -24.30321373 123.93889424 -24.35706425 110.77774811 C-24.38089509 104.66609822 -24.3918759 98.55499333 -24.37327576 92.4433136 C-24.355794 86.54260306 -24.37234656 80.64287061 -24.41227531 74.74227905 C-24.42155341 72.49371018 -24.41866791 70.24505644 -24.4032917 67.996521 C-24.38381021 64.84065434 -24.40798311 61.68786122 -24.44212341 58.53218079 C-24.42630722 57.60716766 -24.41049103 56.68215454 -24.39419556 55.72911072 C-24.52497126 49.4266856 -26.19740191 46.36249277 -30.69080257 41.94713593 C-34.69020004 37.8289526 -34.66905618 32.46787306 -34.76609802 27.01069641 C-34.62133122 18.80724412 -33.08019078 13.08361223 -27.27391052 7.16694641 C-18.94741485 0.1369639 -10.48428929 -0.0347047 0 0 Z M-17.32859802 21.26069641 C-18.56306541 24.26493121 -18.72365181 27.04462474 -18.32859802 30.26069641 C-16.67392262 33.38835737 -14.53438964 35.6578006 -11.32859802 37.26069641 C-9.70216211 37.35710796 -8.07178186 37.38987208 -6.44249249 37.39212418 C-5.403542 37.39596532 -4.36459152 37.39980647 -3.29415768 37.40376401 C-2.14389137 37.40289753 -0.99362506 37.40203104 0.1914978 37.40113831 C2.01411724 37.40559499 2.01411724 37.40559499 3.87355727 37.41014171 C7.25707006 37.41733775 10.6405321 37.42000224 14.02404892 37.42073917 C17.66900271 37.42258671 21.31394542 37.43013254 24.95889282 37.43687439 C32.93406085 37.45047071 40.90922387 37.45648448 48.88440156 37.46088505 C53.86183609 37.46364533 58.83926867 37.4678823 63.81670189 37.47238922 C77.59104319 37.48458369 91.36538292 37.49488258 105.1397295 37.49826431 C106.0217496 37.49848388 106.9037697 37.49870344 107.81251768 37.49892966 C108.69667869 37.49914794 109.58083969 37.49936622 110.49179345 37.49959111 C112.28351518 37.50003458 114.0752369 37.50048115 115.86695862 37.50093079 C116.75571926 37.50115222 117.64447991 37.50137365 118.5601727 37.50160179 C132.96411204 37.50555053 147.3680008 37.52300607 161.7719206 37.54629031 C176.55144227 37.56998935 191.33093855 37.58246551 206.11047953 37.58363223 C214.41218009 37.58454982 222.71381477 37.59032313 231.01549721 37.60845184 C238.08419545 37.62383334 245.15280747 37.62898488 252.22151927 37.62071374 C255.82921729 37.61680025 259.43674156 37.61777065 263.04441833 37.63177109 C266.95313952 37.6468013 270.86161461 37.63866414 274.77035522 37.62818909 C275.91392937 37.63624549 277.05750352 37.6443019 278.23573142 37.65260243 C279.80589201 37.64271767 279.80589201 37.64271767 281.40777302 37.63263321 C282.31004354 37.6332303 283.21231406 37.63382739 284.14192611 37.63444257 C288.27575593 37.02364291 290.90378645 35.18183505 293.54640198 32.01069641 C295.08262417 28.2554866 294.7808976 26.14393111 293.67140198 22.26069641 C291.92626958 19.35435121 291.92626958 19.35435121 288.67140198 17.26069641 C284.67885561 16.50858897 280.72913993 16.59091512 276.676651 16.63250732 C275.44675745 16.62541294 274.21686389 16.61831855 272.94970083 16.61100918 C269.53828078 16.59644696 266.12824778 16.60432828 262.7169292 16.62173212 C259.0372302 16.63509458 255.3576368 16.61967311 251.677948 16.60791016 C244.47052216 16.58952071 237.26336723 16.59805446 230.05594981 16.61599838 C224.19892184 16.63001796 218.34196746 16.63391857 212.48492432 16.63055611 C211.23503031 16.62983994 211.23503031 16.62983994 209.95988593 16.62910931 C208.26718523 16.62808299 206.57448456 16.62702763 204.8817839 16.62594355 C189.91039792 16.61737385 174.93914283 16.6340602 159.9677887 16.66377258 C145.43680829 16.69261065 130.90601643 16.69969389 116.37501526 16.6842804 C100.55578519 16.66752344 84.73664467 16.66347885 68.91741228 16.68099076 C67.23090141 16.68283516 65.54439053 16.68466989 63.85787964 16.68649483 C63.02806095 16.68740692 62.19824226 16.68831901 61.34327754 16.68925874 C55.49256926 16.69486728 49.64190465 16.69155399 43.79119873 16.68494987 C36.66213668 16.67722235 29.53326032 16.68394821 22.40423572 16.70912492 C18.7661101 16.72163361 15.12827376 16.72775016 11.4901371 16.71658325 C7.54862992 16.70471352 3.60762331 16.72377421 -0.33384705 16.74603271 C-1.48704768 16.73779195 -2.64024831 16.72955118 -3.82839441 16.72106069 C-11.44112001 16.72593081 -11.44112001 16.72593081 -17.32859802 21.26069641 Z M-8.32859802 53.26069641 C-8.32859802 85.27069641 -8.32859802 117.28069641 -8.32859802 150.26069641 C15.99354858 150.47061597 15.99354858 150.47061597 40.31593323 150.64863586 C45.0405426 150.69856262 45.0405426 150.69856262 47.25856018 150.72570801 C48.7939953 150.74176354 50.329497 150.75211515 51.86500549 150.7578125 C54.2031721 150.76763011 56.54048221 150.79605533 58.87843323 150.82832336 C60.8503363 150.84497795 60.8503363 150.84497795 62.86207581 150.86196899 C68.93422412 151.49754912 74.47502652 153.146311 78.54640198 157.94819641 C82.94828802 163.46562892 83.93902423 168.29618172 83.60890198 175.26069641 C82.73848881 181.8394006 79.90645236 186.28553561 74.98390198 190.63569641 C65.9977216 195.04401132 55.4276922 194.88296936 45.60108948 195.54975891 C44.06834514 195.65844368 42.53564096 195.76769612 41.00297546 195.87748718 C37.00202392 196.16258117 33.00057988 196.44004609 28.99897766 196.71583557 C24.90247613 196.99955166 20.8064963 197.29060403 16.71046448 197.58100891 C8.69793172 198.14801888 0.68486274 198.70695689 -7.32859802 199.26069641 C-7.42209394 215.06385241 -7.49260286 230.86693359 -7.53584671 246.67029762 C-7.55646048 254.00830463 -7.58455814 261.34613965 -7.63035583 268.68403625 C-7.67026023 275.08074033 -7.69603946 281.47731983 -7.704952 287.87414491 C-7.71016075 291.26039133 -7.72237773 294.64628142 -7.75151825 298.03241348 C-7.78052042 301.81526642 -7.78455516 305.59737923 -7.78269958 309.38032532 C-7.79708069 310.49954376 -7.81146179 311.61876221 -7.82627869 312.77189636 C-7.79381445 318.88123676 -7.57807724 322.7035301 -3.32859802 327.26069641 C-0.32122293 329.11151775 1.93438381 329.51201651 5.44161034 329.51796532 C6.88490701 329.52763866 6.88490701 329.52763866 8.3573612 329.53750741 C9.41162789 329.53441021 10.46589459 329.53131301 11.55210876 329.52812195 C12.67426997 329.53265306 13.79643117 329.53718417 14.95259726 329.54185259 C18.72658271 329.55455001 22.50042483 329.55287277 26.27442932 329.55122375 C28.97461494 329.55611723 31.67479039 329.56395345 34.37496948 329.57157898 C40.95646179 329.58819609 47.53791828 329.59368884 54.11942981 329.59480374 C59.46873563 329.59575384 64.81802962 329.59986228 70.1673317 329.60620499 C85.33113144 329.6238191 100.49490286 329.63304356 115.65871291 329.63154404 C116.47629874 329.63146413 117.29388457 329.63138421 118.13624573 329.63130188 C119.36412052 329.63117924 119.36412052 329.63117924 120.61680086 329.63105412 C133.88508749 329.6302411 147.15326063 329.64938224 160.42151444 329.67757861 C174.04284762 329.70629709 187.66412544 329.72011949 201.28548968 329.71839106 C208.93384316 329.71772681 216.58207767 329.72323425 224.2304039 329.74474716 C230.74203514 329.76294534 237.25349345 329.7673176 243.76513909 329.75372832 C247.08754405 329.74719158 250.40934595 329.74927322 253.73176384 329.76443481 C257.33371721 329.77980959 260.93479418 329.77062943 264.53672791 329.75517273 C266.11143579 329.77060342 266.11143579 329.77060342 267.71795595 329.78634584 C273.47956383 329.73156789 277.27116234 329.39376485 281.67140198 325.26069641 C284.68056214 320.6607812 283.94208259 314.82688831 283.91191101 309.52307129 C283.91362305 308.43112961 283.91533508 307.33918793 283.917099 306.2141571 C283.9204141 302.53714 283.90935453 298.86030434 283.89845276 295.18330383 C283.89784023 292.50940458 283.898018 289.83551619 283.89918327 287.16161823 C283.90024651 280.71889269 283.89101271 274.27622291 283.87818062 267.8335117 C283.86378167 260.38105246 283.86219118 252.92862673 283.86061096 245.47615051 C283.85010991 225.80015697 283.82218769 206.12417586 283.79640198 186.44819641 C283.73452698 120.52038391 283.73452698 120.52038391 283.67140198 53.26069641 C187.31140198 53.26069641 90.95140198 53.26069641 -8.32859802 53.26069641 Z M-105.32859802 166.26069641 C-105.91209168 173.49849954 -106.44360295 180.73880977 -106.93992615 187.98310852 C-107.11462537 190.44458826 -107.3010061 192.90526889 -107.49949646 195.36494446 C-107.7835622 198.91074486 -108.02482584 202.45734182 -108.25828552 206.00679016 C-108.35487457 207.09777512 -108.45146362 208.18876007 -108.55097961 209.31280518 C-109.00011688 217.03450542 -107.35646525 221.38026561 -102.32859802 227.26069641 C-97.38386712 222.89520432 -97.38386712 222.89520432 -95.10032654 217.01069641 C-95.24262725 208.25181569 -95.64380933 199.51285999 -96.12815857 190.76704407 C-96.26735595 188.23784004 -96.39882538 185.70830846 -96.5297699 183.17866516 C-96.61720015 181.56015064 -96.7050744 179.94166003 -96.79344177 178.32319641 C-96.83202805 177.57215637 -96.87061432 176.82111633 -96.91036987 176.0473175 C-97.10195507 172.6834126 -97.32176731 169.48929852 -98.32859802 166.26069641 C-100.63859802 166.26069641 -102.94859802 166.26069641 -105.32859802 166.26069641 Z M-161.32859802 174.26069641 C-166.73096032 181.02487389 -168.20761818 186.90494755 -168.08909607 195.41426086 C-168.09800369 196.48058243 -168.10691132 197.54690399 -168.11608887 198.64553833 C-168.13724701 202.13899037 -168.11513785 205.63057319 -168.09031677 209.12397766 C-168.09182028 211.56393624 -168.09525298 214.00389431 -168.1005249 216.44384766 C-168.10484586 221.54197885 -168.08808986 226.63947514 -168.05589294 231.73750305 C-168.01600839 238.27255155 -168.02546035 244.80641719 -168.05012798 251.3415041 C-168.06430182 256.37299312 -168.05423323 261.40420527 -168.03661537 266.43567467 C-168.03076675 268.84582547 -168.03206613 271.25600459 -168.04063988 273.66614723 C-168.04862453 277.0294425 -168.02441039 280.39099473 -167.99143982 283.75410461 C-167.99998993 284.74899902 -168.00854004 285.74389343 -168.01734924 286.76893616 C-167.93887005 291.40358107 -167.82056904 293.58982095 -165.01373291 297.4173584 C-162.37333443 299.60263504 -162.37333443 299.60263504 -158.70359802 299.26069641 C-154.77073862 298.19106781 -154.77073862 298.19106781 -152.32859802 295.26069641 C-151.34646311 290.65862023 -151.17783064 286.15321189 -151.17088318 281.46699524 C-151.16580246 280.71015945 -151.16072174 279.95332367 -151.15548706 279.17355347 C-151.14483533 277.53995713 -151.13619505 275.90634667 -151.12936783 274.27272987 C-151.11752417 271.68796918 -151.09806165 269.10337149 -151.07624817 266.51867676 C-151.01478587 259.17337934 -150.96046832 251.82810419 -150.92723083 244.48262024 C-150.90632301 239.98221734 -150.87106419 235.48212138 -150.82647324 230.98189354 C-150.81229599 229.26789132 -150.80358691 227.55383492 -150.80041885 225.83977699 C-150.79552681 223.44826014 -150.77241856 221.05756472 -150.74510193 218.66621399 C-150.74810806 217.95706848 -150.7511142 217.24792297 -150.75421143 216.51728821 C-150.70482378 213.61556756 -150.65613062 211.7124882 -148.92366028 209.32275391 C-146.9342035 207.99809245 -145.70763499 207.8586619 -143.32859802 207.88569641 C-142.30766052 207.87409485 -142.30766052 207.87409485 -141.26609802 207.86225891 C-138.61082557 208.40830284 -137.91846034 209.04255707 -136.32859802 211.26069641 C-136.03740392 213.90578373 -135.92896268 216.31456624 -135.95628357 218.95967102 C-135.9526329 219.7441864 -135.94898224 220.52870178 -135.94522095 221.33699036 C-135.93708437 223.94589083 -135.95078134 226.55417457 -135.96531677 229.16304016 C-135.9658363 230.99739583 -135.96531503 232.83175206 -135.96380615 234.66610718 C-135.9638961 238.53243725 -135.9743468 242.39855985 -135.99241638 246.2648468 C-136.0147114 251.13395833 -136.01547698 256.00276023 -136.00924492 260.87190819 C-135.97395324 295.52100862 -138.45372502 328.27503083 -145.32859802 362.26069641 C-145.53789444 363.29616356 -145.74719086 364.33163071 -145.96282959 365.39847565 C-147.60874515 373.53034816 -149.26784104 381.65950723 -150.93016052 389.78804016 C-151.17440514 390.98296711 -151.41864975 392.17789406 -151.67029572 393.40903091 C-152.41663204 397.05954635 -153.16353374 400.70994565 -153.91062927 404.36030579 C-154.15910236 405.57508795 -154.40757545 406.78987011 -154.66357803 408.04146385 C-155.94590931 414.30403503 -157.23625596 420.56480663 -158.5400238 426.82295227 C-159.824269 432.99038214 -161.08793089 439.16171364 -162.33779526 445.33619881 C-162.81266222 447.66255148 -163.29510418 449.98737189 -163.78543472 452.31051445 C-164.46345344 455.52716081 -165.11505056 458.74811963 -165.76072693 461.97138977 C-165.96623169 462.91510437 -166.17173645 463.85881897 -166.38346863 464.83113098 C-167.52313912 470.70227784 -167.40242875 474.05243191 -164.32859802 479.26069641 C-161.23686051 480.80656517 -158.7343025 480.55429162 -155.32859802 480.26069641 C-150.8715304 477.08257721 -150.1810409 472.89899545 -149.16453552 467.80757141 C-148.88013863 466.47680573 -148.88013863 466.47680573 -148.58999634 465.11915588 C-147.9462907 462.0859381 -147.3250175 459.04855269 -146.70359802 456.01069641 C-146.24496214 453.82427148 -145.78520552 451.6380814 -145.32444763 449.45210266 C-143.80134382 442.19171926 -142.30925651 434.92510154 -140.82012177 427.65769958 C-140.11384634 424.21342152 -139.4055679 420.76955607 -138.69741058 417.32566452 C-135.29278924 400.76733826 -131.89635009 384.20734611 -128.52342224 367.64253235 C-128.33240968 366.70460468 -128.14139711 365.76667702 -127.94459629 364.8003273 C-126.87796614 359.56193138 -125.81282657 354.32323578 -124.74918461 349.08423233 C-124.26782441 346.72249843 -123.78088413 344.36196082 -123.29371643 342.00141907 C-122.61211014 338.68841637 -121.96557485 335.37037875 -121.33491516 332.0473175 C-121.00078151 330.34108347 -120.66656571 328.63486552 -120.33226013 326.92866516 C-120.19018662 326.14711563 -120.04811312 325.3655661 -119.90173435 324.56033325 C-118.4703759 317.3842163 -115.43971028 312.49146644 -109.32859802 308.26069641 C-103.82087946 306.42479023 -98.2452043 306.45920651 -92.89109802 308.69819641 C-91.62266052 309.47163391 -91.62266052 309.47163391 -90.32859802 310.26069641 C-89.33859802 310.59069641 -88.34859802 310.92069641 -87.32859802 311.26069641 C-86.26609802 313.51069641 -86.26609802 313.51069641 -85.32859802 316.26069641 C-84.98445044 317.01012512 -84.64030285 317.75955383 -84.28572655 318.5316925 C-83.1630906 321.73259792 -83.07805319 324.28399403 -83.07704163 327.67475891 C-83.07165878 328.97018616 -83.06627594 330.2656134 -83.06072998 331.60029602 C-83.06474382 333.02876325 -83.06891473 334.45723005 -83.07322693 335.88569641 C-83.07047584 337.39554534 -83.06679522 338.90539282 -83.06225586 340.41523743 C-83.05415344 343.66240902 -83.05197296 346.90951179 -83.05420303 350.1566925 C-83.05703821 355.29167804 -83.04267717 360.42652622 -83.02522278 365.56147766 C-82.97821333 380.16171721 -82.95425009 394.76194703 -82.94773865 409.36225891 C-82.94398917 417.42909029 -82.92597093 425.49576591 -82.89264429 433.56253052 C-82.87241976 438.66681289 -82.87006474 443.77069386 -82.88092446 448.875 C-82.88353062 452.05036577 -82.86953278 455.22549749 -82.85084343 458.40080261 C-82.84551895 459.87257535 -82.84702268 461.34439113 -82.85587883 462.81614685 C-82.86699874 464.82629153 -82.8512252 466.83653124 -82.8341217 468.84663391 C-82.83303217 469.97117981 -82.83194263 471.09572571 -82.83082008 472.25434875 C-82.21557981 475.93723385 -80.91469308 477.61626767 -78.32859802 480.26069641 C-76.36334677 481.036676 -76.36334677 481.036676 -74.32859802 480.88569641 C-73.33859802 480.90503235 -73.33859802 480.90503235 -72.32859802 480.92475891 C-69.01885063 479.82581935 -68.12732728 478.25076032 -66.32859802 475.26069641 C-65.7279743 471.47661672 -65.7953439 467.72241594 -65.82980347 463.89787292 C-65.82441891 462.73598863 -65.81903436 461.57410433 -65.81348664 460.37701142 C-65.80250887 457.15584043 -65.8094009 453.93527582 -65.82376969 450.71413636 C-65.83488548 447.23898923 -65.82289065 443.76391424 -65.81358337 440.28877258 C-65.80049256 434.26850306 -65.80165692 428.24837238 -65.81217766 422.22809982 C-65.82711197 413.52054622 -65.81720702 404.81315565 -65.80065847 396.10561134 C-65.77419774 381.97387099 -65.7633386 367.84216721 -65.76438904 353.71040344 C-65.76444736 352.86468329 -65.76450568 352.01896313 -65.76456577 351.14761509 C-65.76483164 347.72057295 -65.76514893 344.29353082 -65.76552903 340.86648869 C-65.76649572 331.42774103 -65.76516683 321.98899448 -65.76243591 312.55024719 C-65.76207607 311.28230182 -65.76207607 311.28230182 -65.76170897 309.98874138 C-65.75730638 295.90746606 -65.74109008 281.82622476 -65.71721512 267.74496949 C-65.70312461 259.05612921 -65.70028217 250.36741792 -65.71183801 241.67857315 C-65.71914634 235.72949625 -65.71612167 229.78048446 -65.70487957 223.83141385 C-65.69879089 220.39609092 -65.69775949 216.96094991 -65.70975685 213.52563858 C-65.72030383 209.80677974 -65.71268318 206.08839552 -65.70040894 202.36955261 C-65.70798499 201.27667242 -65.71556105 200.18379223 -65.72336668 199.05779445 C-65.71288206 197.56953346 -65.71288206 197.56953346 -65.70218563 196.05120659 C-65.70245532 195.19233152 -65.70272501 194.33345646 -65.70300287 193.44855487 C-65.24099747 190.74879703 -64.48850083 189.90006612 -62.32859802 188.26069641 C-59.58538946 187.34629356 -57.56055098 187.0398351 -54.70724487 186.84346008 C-53.28391594 186.74259598 -53.28391594 186.74259598 -51.83183289 186.63969421 C-50.79234497 186.57005463 -49.75285706 186.50041504 -48.68186951 186.42866516 C-47.58558731 186.35209686 -46.48930511 186.27552856 -45.35980225 186.19664001 C-41.72334055 185.94352549 -38.08652481 185.69591321 -34.44969177 185.44819641 C-31.92200084 185.27304481 -29.39433697 185.09750236 -26.86669922 184.92158508 C-20.87943618 184.50565708 -14.89195632 184.093012 -8.90434366 183.68215847 C2.4276837 182.90449091 13.75923785 182.12000052 25.09069633 181.33409119 C28.80511957 181.0771864 32.51968874 180.8224813 36.23428345 180.56806946 C38.52916358 180.40968061 40.82403988 180.25123624 43.11891174 180.09272766 C44.14423004 180.02308807 45.16954834 179.95344849 46.22593689 179.88169861 C48.13372733 179.7492582 50.04113036 179.61106764 51.94801521 179.46617126 C53.79893109 179.32652284 55.65106862 179.20238131 57.50396538 179.09208679 C58.39561457 179.02744232 59.28726376 178.96279785 60.20593262 178.89619446 C61.38954833 178.82044441 61.38954833 178.82044441 62.59707546 178.74316406 C65.16856897 178.14506033 66.14722718 177.40573407 67.67140198 175.26069641 C67.43662999 171.61527796 67.43662999 171.61527796 66.67140198 168.26069641 C62.84150571 166.48391092 59.84976113 166.01279762 55.64129639 166.02018738 C53.82615036 166.01606339 53.82615036 166.01606339 51.97433472 166.01185608 C50.65515549 166.01904663 49.33597626 166.02623718 47.9768219 166.03364563 C46.56723539 166.03421005 45.1576483 166.03389257 43.74806213 166.03276062 C39.92818042 166.03218732 36.10842457 166.04393789 32.28857207 166.05790854 C28.29406229 166.07041972 24.29954955 166.0715867 20.30502319 166.07395935 C12.74385289 166.08017298 5.1827405 166.09658221 -2.37840432 166.11665833 C-10.98778 166.13902098 -19.59715846 166.15001168 -28.20655596 166.1600492 C-45.91393613 166.18094854 -63.62126242 166.21612224 -81.32859802 166.26069641 C-81.33358798 168.16419713 -81.33713087 170.06770168 -81.34007263 171.97120667 C-81.34220261 173.03122013 -81.34433258 174.0912336 -81.3465271 175.18336868 C-81.32304037 179.21460517 -81.13475583 183.2221374 -80.89109802 187.24507141 C-80.84670593 188.03037231 -80.80231384 188.81567322 -80.75657654 189.62477112 C-80.61710318 192.08694154 -80.47327111 194.54882649 -80.32859802 197.01069641 C-80.18433628 199.48686698 -80.04112896 201.96308193 -79.90061951 204.43946838 C-79.81386198 205.96673947 -79.72499029 207.49389263 -79.63352966 209.02088928 C-79.51482254 211.10035381 -79.42119309 213.17993029 -79.32859802 215.26069641 C-79.25561996 216.29760117 -79.25561996 216.29760117 -79.1811676 217.35545349 C-78.95130687 222.380913 -79.9222311 225.12078678 -82.75828552 229.22163391 C-83.47113708 230.26964172 -84.18398865 231.31764954 -84.91844177 232.39741516 C-85.67254333 233.46604797 -86.4266449 234.53468079 -87.20359802 235.63569641 C-87.95915592 236.73743013 -88.71307807 237.84028751 -89.46531677 238.94429016 C-94.86803255 246.80013093 -94.86803255 246.80013093 -97.32859802 249.26069641 C-102.90481753 249.80033056 -102.90481753 249.80033056 -105.32859802 249.26069641 C-109.61565754 245.71307157 -112.3154331 240.95866716 -115.28953552 236.31929016 C-117.19153154 233.33142777 -117.19153154 233.33142777 -119.18016052 231.10835266 C-123.13015705 226.38146108 -123.68778532 222.29987805 -123.54734802 216.27632141 C-123.53792175 215.49362885 -123.52849548 214.71093628 -123.51878357 213.90452576 C-123.3646539 204.3058169 -122.84950664 194.72006532 -122.32859802 185.13569641 C-122.23181597 183.29066672 -122.13545982 181.44561464 -122.03953552 179.60054016 C-121.8074398 175.15365346 -121.56967223 170.70710503 -121.32859802 166.26069641 C-124.80769173 166.20185913 -128.28665476 166.16682242 -131.76609802 166.13569641 C-132.73998474 166.1189386 -133.71387146 166.10218079 -134.7172699 166.08491516 C-145.07987334 166.01560009 -153.34444738 167.28226742 -161.32859802 174.26069641 Z " fill="#555050" transform="translate(192.32859802246094,6.7393035888671875)"/>
<path d="M0 0 C2.76970558 2.32297887 2.97087293 3.69949394 3.3203125 7.3046875 C2.936892 11.72805081 1.84033733 13.2046254 -1.0625 16.5 C-1.88234375 17.43972656 -2.7021875 18.37945312 -3.546875 19.34765625 C-6.14327212 22.15490727 -8.75197442 24.92318998 -11.515625 27.56640625 C-13.15158625 29.10451637 -13.15158625 29.10451637 -15.0625 31.375 C-17.68669261 33.57593574 -19.60734563 33.70795125 -23 34 C-25.71313477 33.25561523 -25.71313477 33.25561523 -28.44140625 32.05859375 C-29.43720703 31.64029297 -30.43300781 31.22199219 -31.45898438 30.79101562 C-33.53270898 29.88661591 -35.60562362 28.9803568 -37.67773438 28.07226562 C-38.67224609 27.65525391 -39.66675781 27.23824219 -40.69140625 26.80859375 C-41.59060791 26.41470459 -42.48980957 26.02081543 -43.41625977 25.61499023 C-46.7075145 24.8315951 -48.04760921 25.42555086 -51 27 C-53.02210708 28.29188351 -53.02210708 28.29188351 -54.92578125 29.78515625 C-55.99795898 30.58083008 -55.99795898 30.58083008 -57.09179688 31.39257812 C-58.56667862 32.50165806 -60.03552014 33.61881844 -61.49804688 34.74414062 C-66.40932921 38.36043013 -69.82344782 40.12048716 -76 40 C-78.87890625 38.734375 -78.87890625 38.734375 -81.5625 36.75 C-82.56925781 36.02296875 -83.57601562 35.2959375 -84.61328125 34.546875 C-85.15033691 34.14275391 -85.68739258 33.73863281 -86.24072266 33.32226562 C-88.1801181 31.86462398 -90.1407967 30.43899587 -92.10546875 29.015625 C-95.7538754 26.36612075 -99.38100825 23.68952392 -103 21 C-106.28560468 24.23932855 -109.43760972 27.5494194 -112.5 31 C-117.28049116 36.38646891 -122.20271898 41.28412255 -127.8125 45.8125 C-128.78832031 46.60269531 -129.76414063 47.39289063 -130.76953125 48.20703125 C-131.50558594 48.79871094 -132.24164063 49.39039063 -133 50 C-132.27793271 50.00238835 -131.55586542 50.00477671 -130.8119173 50.00723743 C-113.2434153 50.06637028 -95.67506062 50.1419093 -78.10670948 50.23571491 C-69.61078443 50.28068286 -61.11490139 50.3200952 -52.61889648 50.34643555 C-45.21388131 50.36940756 -37.80899898 50.4027966 -30.40408915 50.44870156 C-26.48313117 50.47264463 -22.56230483 50.49136626 -18.64127541 50.49761391 C-14.95007705 50.50365993 -11.2592156 50.52364193 -7.56814194 50.55427551 C-5.56884937 50.56725141 -3.56947812 50.56548448 -1.57014465 50.5632782 C0.21975891 50.58208542 0.21975891 50.58208542 2.04582214 50.60127258 C3.59858243 50.60818603 3.59858243 50.60818603 5.1827116 50.61523914 C8.45293175 51.0618575 10.34894433 52.06338118 13 54 C14.52846661 57.05693322 14.23242445 59.62984547 14 63 C12.23984869 66.1850357 11.50109084 66.83296972 8 68 C5.74138682 68.1007111 3.47986873 68.13940677 1.21902466 68.14717102 C0.52578531 68.15084771 -0.16745404 68.1545244 -0.88170063 68.1583125 C-3.21004096 68.16934613 -5.53833666 68.17319259 -7.86669922 68.17700195 C-9.53388613 68.18326673 -11.20107164 68.18991354 -12.86825562 68.19691467 C-17.40132211 68.21432014 -21.93437807 68.22487469 -26.46746969 68.2331202 C-29.29860842 68.23827019 -32.12974387 68.24434585 -34.96088028 68.25063133 C-43.81620574 68.26968017 -52.67152287 68.28391327 -61.52686489 68.2922433 C-71.75425402 68.30202261 -81.98142713 68.32836146 -92.20874012 68.36874419 C-100.11115069 68.39887835 -108.01349923 68.41370951 -115.91596615 68.41702431 C-120.63732112 68.41937742 -125.3584452 68.4283719 -130.07973862 68.45348549 C-134.52030406 68.47672479 -138.96048591 68.48101626 -143.40109634 68.47072411 C-145.03091964 68.47022766 -146.66076156 68.47658006 -148.29052734 68.49028015 C-150.51583243 68.50794015 -152.73975194 68.50092361 -154.96505737 68.48774719 C-156.83275693 68.49132972 -156.83275693 68.49132972 -158.73818779 68.49498463 C-162.62083177 67.9057879 -164.26768139 66.77633774 -167 64 C-167.99499435 61.01501694 -168.13790807 59.00773721 -168.16113281 55.8894043 C-168.17074036 54.84789719 -168.1803479 53.80639008 -168.19024658 52.73332214 C-168.19449646 51.60831802 -168.19874634 50.4833139 -168.203125 49.32421875 C-168.20882507 48.16630325 -168.21452515 47.00838776 -168.22039795 45.81538391 C-168.22984996 43.36334142 -168.23638272 40.9112862 -168.24023438 38.45922852 C-168.24993442 34.71282714 -168.28095452 30.96697559 -168.3125 27.22070312 C-168.31903066 24.83854492 -168.32428088 22.4563828 -168.328125 20.07421875 C-168.3404718 18.95528732 -168.3528186 17.8363559 -168.36553955 16.68351746 C-168.34955253 11.08497644 -168.31464981 6.76770918 -165 2 C-161.86128812 0.43064406 -159.46144178 0.64798897 -156 1 C-152.35057089 3.73665724 -151.13236238 5.2411583 -150.34057617 9.78051758 C-150.29978975 11.23470349 -150.28523537 12.68979402 -150.29296875 14.14453125 C-150.27028679 15.2992115 -150.27028679 15.2992115 -150.24714661 16.47721863 C-150.20434737 18.92261218 -150.1954399 21.3667696 -150.1875 23.8125 C-150.16434939 25.47594414 -150.13898287 27.13935902 -150.11132812 28.80273438 C-150.04855353 32.86859846 -150.01615751 36.93369425 -150 41 C-148.65760254 39.85241211 -148.65760254 39.85241211 -147.28808594 38.68164062 C-146.10360471 37.67307245 -144.91902945 36.6646147 -143.734375 35.65625 C-143.14575684 35.15254883 -142.55713867 34.64884766 -141.95068359 34.12988281 C-139.14339359 31.74388318 -136.38771425 29.44800582 -133.25 27.5 C-129.21713453 24.7422317 -126.48466887 20.86690038 -123.48046875 17.06640625 C-120.78039616 13.72852124 -117.96143094 10.53968218 -115.0625 7.375 C-114.35335449 6.59370728 -114.35335449 6.59370728 -113.62988281 5.79663086 C-109.31448996 1.1090863 -109.31448996 1.1090863 -105.17578125 0.765625 C-101.61022971 1.02876533 -100.1194323 1.76064367 -97.1875 3.75 C-96.25035156 4.37261719 -95.31320312 4.99523437 -94.34765625 5.63671875 C-91.75238433 7.4403486 -89.21722815 9.3180199 -86.68359375 11.20703125 C-85.93118408 11.7597168 -85.17877441 12.31240234 -84.40356445 12.88183594 C-82.89860324 13.99189197 -81.40582136 15.11867546 -79.92651367 16.26269531 C-76.09652487 19.28889313 -76.09652487 19.28889313 -71.484375 19.6875 C-67.28288298 16.83365636 -63.13438433 13.93219326 -59.05859375 10.90039062 C-54.73629587 7.80891852 -51.49437705 5.86397129 -46 6 C-42.47395585 7.05467152 -39.16584857 8.49210189 -35.8125 10 C-34.05266109 10.78101625 -32.28846125 11.55229868 -30.51953125 12.3125 C-29.74714111 12.65925781 -28.97475098 13.00601563 -28.17895508 13.36328125 C-25.65776139 14.10000653 -24.43205182 13.92593937 -22 13 C-20.16245736 11.56177403 -20.16245736 11.56177403 -18.5 9.75 C-17.89542969 9.12222656 -17.29085937 8.49445313 -16.66796875 7.84765625 C-15.3170025 6.35115265 -14.05026166 4.77890784 -12.8125 3.1875 C-8.95384477 -1.46949769 -5.79771163 -1.47578114 0 0 Z " fill="#555050" transform="translate(368,77)"/>
<path d="M0 0 C2.65436558 2.89535906 3.37271118 4.77771071 3.34057617 8.67675781 C3.34034958 9.59741028 3.34012299 10.51806274 3.33988953 11.46661377 C3.32440567 12.45216248 3.30892181 13.43771118 3.29296875 14.453125 C3.28872391 15.46848328 3.28447906 16.48384155 3.28010559 17.52996826 C3.26332424 20.77024954 3.22567241 24.00990697 3.1875 27.25 C3.17245249 29.44790768 3.1587642 31.64582512 3.14648438 33.84375 C3.11342255 39.22937922 3.06322836 44.61464503 3 50 C3.85111359 49.99000725 3.85111359 49.99000725 4.71942139 49.97981262 C10.62408788 49.91345104 16.52864846 49.86819606 22.43359375 49.83520508 C24.63741356 49.82011709 26.84120335 49.79964424 29.04492188 49.77368164 C32.21231497 49.73729942 35.37931111 49.72027368 38.546875 49.70703125 C40.02519806 49.68380547 40.02519806 49.68380547 41.53338623 49.66011047 C42.4540387 49.65988388 43.37469116 49.65965729 44.32324219 49.65942383 C45.53569611 49.64943108 45.53569611 49.64943108 46.77264404 49.63923645 C49.55697119 50.0902123 50.93215385 51.11703408 53 53 C56.51081606 62.50341589 52.29466835 74.47132417 48.41796875 83.1796875 C46.29393324 87.40435316 43.84030353 91.22509788 41 95 C40.55011719 95.61488281 40.10023438 96.22976563 39.63671875 96.86328125 C31.12873047 107.6720213 16.96311843 114.62424645 3.4921875 116.484375 C-13.73098045 117.74914327 -28.08150415 114.47252396 -42 104 C-42.61488281 103.55011719 -43.22976563 103.10023438 -43.86328125 102.63671875 C-54.72815439 94.08454588 -61.73841277 79.79764925 -63.484375 66.23828125 C-64.6725331 48.6780035 -61.54027673 33.74959858 -50.328125 19.66015625 C-47.14842326 16.02697355 -43.8641468 12.89031948 -40 10 C-39.4225 9.55269531 -38.845 9.10539063 -38.25 8.64453125 C-28.5151975 1.82597346 -11.73965882 -3.82059903 0 0 Z M-36.03125 28.8046875 C-44.50657722 38.25534999 -47.66996771 48.9443656 -47.34375 61.4765625 C-46.23786828 72.81185015 -41.02212461 82.58724652 -32.6875 90.3125 C-22.3970495 98.47548658 -10.92591114 101.09918943 2 100 C13.22958004 97.72686077 23.54465894 91.6061623 30 82 C33.11799286 76.6790774 35.05694839 72.1091062 36 66 C35.44289841 65.99413376 34.88579681 65.98826752 34.31181335 65.98222351 C28.52044539 65.91835586 22.72963656 65.83395404 16.9387207 65.73754883 C14.77668625 65.70426678 12.61456423 65.67624515 10.45239258 65.65356445 C7.34678782 65.62007892 4.24198802 65.567766 1.13671875 65.51171875 C0.16788254 65.50532883 -0.80095367 65.4989389 -1.79914856 65.49235535 C-2.6998558 65.47256119 -3.60056305 65.45276703 -4.52856445 65.43237305 C-5.32132278 65.42126999 -6.11408112 65.41016693 -6.93086243 65.39872742 C-9.56922597 64.89030889 -10.44815496 64.17987157 -12 62 C-12.39872742 59.93086243 -12.39872742 59.93086243 -12.43237305 57.52856445 C-12.46206429 56.17750359 -12.46206429 56.17750359 -12.49235535 54.79914856 C-12.49874527 53.83031235 -12.50513519 52.86147614 -12.51171875 51.86328125 C-12.52966995 50.86870407 -12.54762115 49.87412689 -12.56611633 48.84941101 C-12.62033016 45.6704839 -12.65415083 42.49170787 -12.6875 39.3125 C-12.72066326 37.15818205 -12.75515199 35.00388406 -12.79101562 32.84960938 C-12.87606272 27.56654173 -12.94436558 22.28345479 -13 17 C-21.72887718 17 -29.87749529 22.94078356 -36.03125 28.8046875 Z " fill="#555050" transform="translate(351,212)"/>
<path d="M0 0 C0.68572004 1.69797343 1.36273346 3.40195621 1.9375 5.140625 C3.82218909 8.43883091 7.24964015 9.68985274 10.4921875 11.4765625 C16.00744207 14.82695079 19.54847193 19.70505766 21.5234375 25.8203125 C22.42399502 29.93925589 22.75736365 33.83449995 22 38 C19.57388349 41.56781839 18.2173448 42.7463865 14 43.625 C9.87195257 42.76499012 8.52031536 41.36042048 6 38 C5.36382068 35.9901596 4.93759198 34.00046339 4.52734375 31.93359375 C3.72776566 29.00180744 2.08486518 27.15001722 0 25 C-3.24430347 23.37784826 -6.49378642 23.44707207 -10 24 C-13.42215793 25.92885265 -15.46291808 27.33142526 -16.6953125 31.16015625 C-17.26716574 34.80419976 -17.21786681 37.37363291 -16 40.875 C-11.93997505 45.18877651 -7.25660272 46.01527353 -1.625 46.875 C5.87305528 48.15038938 11.60667966 50.82966021 16.375 56.875 C21.92171277 65.19506916 23.19657609 71.93534132 22 82 C18.9641437 91.44488626 12.67598989 97.49921054 4 102 C3.34 102 2.68 102 2 102 C1.9175 102.928125 1.835 103.85625 1.75 104.8125 C1 108 1 108 -0.625 109.875 C-3.97395179 111.46134558 -6.34026746 111.45746657 -10 111 C-12.4375 109.3125 -12.4375 109.3125 -14 107 C-14.25 104.25 -14.25 104.25 -14 102 C-14.825 101.79375 -15.65 101.5875 -16.5 101.375 C-23.17041286 98.75448066 -28.46848516 94.6314208 -32.0234375 88.34375 C-34.49189382 82.41945483 -35.83324566 76.45807469 -33.75 70.3125 C-32 68 -32 68 -30 67 C-27.06821053 66.71627844 -24.84833174 66.51397514 -22 67 C-18.84195934 69.65940267 -17.88490064 72.08804022 -17.0625 76 C-16.13167583 80.24487919 -14.57488469 82.37841789 -11 85 C-6.95802419 86.17584751 -4.7538188 86.24644076 -0.75 84.9375 C2.62547612 82.55932365 3.7187601 80.91908675 5 77 C5 72.4642798 4.51406801 70.60633663 1.5625 67.125 C-1.96306154 64.2013636 -4.14644516 63.79408907 -8.625 63.1875 C-17.72669901 61.68686145 -24.27135509 58.38617161 -30 51 C-34.73294915 43.02569779 -35.86816742 35.44731894 -33.78515625 26.453125 C-31.52205614 19.38234455 -27.05173192 14.19479872 -21 10 C-19.39125 9.2884375 -19.39125 9.2884375 -17.75 8.5625 C-14.01489189 6.44027948 -13.6216719 3.87791107 -12 0 C-7.82276296 -2.90085906 -4.46516887 -2.06720781 0 0 Z " fill="#555050" transform="translate(432,67)"/>
<path d="M0 0 C8.0827405 7.21469971 13.75843468 16.78898516 14.45703125 27.703125 C14.8113588 41.53147582 12.03295147 52.46213044 2.44140625 62.91796875 C-7.13163612 72.00159178 -18.0020198 74.40741288 -30.73828125 74.1875 C-41.33888768 73.78798582 -50.61820885 69.13486159 -58.11328125 61.65234375 C-67.14697805 50.99291673 -69.66251122 39.71212092 -68.78125 25.98046875 C-66.71720035 14.52255536 -60.73958271 5.30355025 -51.78125 -2.01953125 C-35.58860668 -12.32166191 -15.4058917 -11.72948573 0 0 Z M-47.28125 16.98046875 C-52.12530817 23.96492472 -52.70249356 30.64079023 -51.78125 38.98046875 C-49.60022423 46.40610066 -45.52653706 51.27908379 -38.78125 54.98046875 C-31.68190873 58.46606591 -25.13793744 58.68223227 -17.6171875 56.29296875 C-11.34658388 53.58135637 -6.65424892 48.8460197 -3.6796875 42.70703125 C-1.09654631 35.63356986 -1.08906794 29.32549752 -3.68359375 22.25390625 C-6.77030644 15.86078602 -11.54283828 11.1381192 -18.19921875 8.609375 C-29.27574388 5.91146192 -40.02905827 7.75358384 -47.28125 16.98046875 Z " fill="#555050" transform="translate(114.78125,76.01953125)"/>
<path d="M0 0 C11.37262013 2.98951679 21.42993143 8.42908931 29.31640625 17.3125 C30.56640625 20.5 30.56640625 20.5 30.31640625 23.3125 C28.4902179 26.74975019 26.40829 29.48970856 23.70629883 32.27661133 C22.63421928 33.38719658 22.63421928 33.38719658 21.54048157 34.5202179 C20.77173203 35.3037413 20.00298248 36.08726471 19.2109375 36.89453125 C18.01388435 38.11579964 18.01388435 38.11579964 16.79264832 39.36174011 C15.10525936 41.07673298 13.41478067 42.78869059 11.72143555 44.49780273 C9.99300075 46.2493506 8.27355531 48.00981493 6.56323242 49.77905273 C4.09011216 52.33734635 1.5916968 54.86824621 -0.9140625 57.39453125 C-1.67269089 58.18817581 -2.43131927 58.98182037 -3.2129364 59.79951477 C-9.25094219 65.78915625 -9.25094219 65.78915625 -14.0793457 65.9206543 C-18.08858912 65.24416406 -19.34801136 64.58231534 -21.68359375 61.3125 C-22.67362319 58.34241167 -22.81575866 56.37754982 -22.82885742 53.27783203 C-22.83523727 52.25311798 -22.84161713 51.22840393 -22.84819031 50.17263794 C-22.84930313 49.06637054 -22.85041595 47.96010315 -22.8515625 46.8203125 C-22.8548909 45.68222137 -22.8582193 44.54413025 -22.86164856 43.37155151 C-22.86671447 40.96238611 -22.86905699 38.55321369 -22.86889648 36.14404297 C-22.87108089 32.45919209 -22.88923472 28.77464155 -22.90820312 25.08984375 C-22.91113752 22.75000102 -22.91312201 20.41015688 -22.9140625 18.0703125 C-22.92124802 16.96809357 -22.92843353 15.86587463 -22.93583679 14.73025513 C-22.93276016 13.69923676 -22.92968353 12.66821838 -22.92651367 11.60595703 C-22.92793869 10.70233429 -22.92936371 9.79871155 -22.93083191 8.8677063 C-22.65157687 5.98160557 -22.00220194 3.89294152 -20.68359375 1.3125 C-14.78496215 -2.61992107 -6.72715825 -1.25554597 0 0 Z M-5.68359375 16.3125 C-5.68359375 22.9125 -5.68359375 29.5125 -5.68359375 36.3125 C-0.08283373 31.5545634 -0.08283373 31.5545634 5.25390625 26.5625 C5.84042969 25.99015625 6.42695313 25.4178125 7.03125 24.828125 C8.53198458 23.38945259 8.53198458 23.38945259 8.31640625 21.3125 C6.35991228 20.47485732 4.40115069 19.64250941 2.44140625 18.8125 C1.35085938 18.3484375 0.2603125 17.884375 -0.86328125 17.40625 C-3.49021304 16.19197544 -3.49021304 16.19197544 -5.68359375 16.3125 Z " fill="#555050" transform="translate(381.68359375,173.6875)"/>
<path d="M0 0 C9.63054857 5.45200477 15.00756682 17.44080864 18.5 27.5 C20.32802467 34.1510719 21.2119712 41.16483891 20 48 C17.91113003 50.6857117 16.72301738 51.86173015 13.34399414 52.50793457 C11.82986938 52.51270813 11.82986938 52.51270813 10.28515625 52.51757812 C8.56317017 52.53649109 8.56317017 52.53649109 6.80639648 52.55578613 C5.57091064 52.54768921 4.3354248 52.53959229 3.0625 52.53125 C1.79027588 52.5350769 0.51805176 52.53890381 -0.79272461 52.54284668 C-3.48313827 52.54556927 -6.17209871 52.54019814 -8.86230469 52.52148438 C-12.30594745 52.49869362 -15.74834327 52.51181969 -19.19194031 52.53577423 C-22.48217128 52.55372552 -25.77225275 52.5411472 -29.0625 52.53125 C-30.29798584 52.53934692 -31.53347168 52.54744385 -32.80639648 52.55578613 C-33.95438721 52.54317749 -35.10237793 52.53056885 -36.28515625 52.51757812 C-37.29457275 52.51439575 -38.30398926 52.51121338 -39.34399414 52.50793457 C-42.71086295 51.86405457 -43.87957366 50.63722131 -46 48 C-47.22950003 44.8852666 -47.18954422 43.50496824 -46.01000977 40.36254883 C-43.25740771 35.75771607 -39.71157606 32.32202759 -35.90234375 28.57421875 C-35.11227432 27.78602249 -34.3222049 26.99782623 -33.50819397 26.18574524 C-31.84319512 24.52744977 -30.17461172 22.87274651 -28.50268555 21.22143555 C-25.9359889 18.68600731 -23.38022257 16.13995757 -20.82617188 13.59179688 C-19.20635269 11.98114352 -17.58593079 10.37109603 -15.96484375 8.76171875 C-15.19712143 7.99824631 -14.42939911 7.23477386 -13.63841248 6.44816589 C-12.92749954 5.7468605 -12.21658661 5.04555511 -11.48413086 4.32299805 C-10.85808456 3.70377975 -10.23203827 3.08456146 -9.58702087 2.44657898 C-6.48700817 -0.37910107 -4.1140204 -0.6094845 0 0 Z M-4 21 C-6.33734099 23.30847944 -8.66918466 25.62243341 -11 27.9375 C-11.66773438 28.59685547 -12.33546875 29.25621094 -13.0234375 29.93554688 C-13.97089844 30.87817383 -13.97089844 30.87817383 -14.9375 31.83984375 C-15.52402344 32.42113037 -16.11054688 33.00241699 -16.71484375 33.60131836 C-18.11276523 34.80615028 -18.11276523 34.80615028 -18 36 C-11.07 36 -4.14 36 3 36 C0.74560524 27.25438305 0.74560524 27.25438305 -4 21 Z " fill="#555050" transform="translate(420,205)"/>
<path d="M0 0 C0.67661682 -0.00335861 1.35323364 -0.00671722 2.050354 -0.01017761 C4.29286523 -0.01969632 6.53530185 -0.02163126 8.77783203 -0.02270508 C10.33480867 -0.02591732 11.89178499 -0.02928137 13.44876099 -0.03279114 C16.71552225 -0.03878492 19.98225706 -0.04063081 23.24902344 -0.04003906 C27.43446677 -0.03993749 31.61974026 -0.05358305 35.80514336 -0.07081127 C39.0221942 -0.08193242 42.23920402 -0.08395823 45.45627213 -0.08342934 C46.99923411 -0.08460954 48.54219715 -0.08903356 50.08514023 -0.0967617 C52.24438088 -0.10656281 54.40325338 -0.10368311 56.5625 -0.09765625 C58.40544144 -0.09979378 58.40544144 -0.09979378 60.28561401 -0.10197449 C63.27909372 0.13485597 64.93097315 0.51073205 67.41064453 2.14526367 C69.50743856 4.84114171 69.40575274 6.23820767 69.22314453 9.70776367 C68.14977497 14.2489426 68.14977497 14.2489426 65.41064453 16.14526367 C62.03929637 17.26904639 59.46144976 17.28593887 55.90722656 17.30639648 C54.92375244 17.31384384 54.92375244 17.31384384 53.92041016 17.32144165 C51.75308174 17.3360372 49.58582651 17.34286073 47.41845703 17.34838867 C45.91014606 17.35414209 44.40183511 17.3598998 42.89352417 17.36566162 C39.73109599 17.37616406 36.56869317 17.38201173 33.40625 17.38549805 C29.35874004 17.39098248 25.31156653 17.41501231 21.26416206 17.44347 C18.14829536 17.46211515 15.03250942 17.46730296 11.91659164 17.46883392 C10.42468297 17.47185655 8.93277559 17.47987196 7.44092178 17.4930191 C5.35130624 17.51012025 3.26250915 17.50819008 1.17285156 17.50170898 C-0.60893997 17.50717743 -0.60893997 17.50717743 -2.42672729 17.51275635 C-5.94345385 17.10411797 -7.78163835 16.26819925 -10.58935547 14.14526367 C-12.58935547 11.14526367 -12.58935547 11.14526367 -12.40185547 7.64526367 C-11.61776387 4.26763833 -11.32110568 3.11212382 -8.58935547 1.14526367 C-5.70861155 -0.29510829 -3.21913163 0.01000026 0 0 Z " fill="#555050" transform="translate(210.58935546875,304.854736328125)"/>
<path d="M0 0 C0.69656204 -0.00554901 1.39312408 -0.01109802 2.11079407 -0.01681519 C4.40261641 -0.02858187 6.69244827 -0.0043729 8.98413086 0.02148438 C10.58165904 0.0231962 12.17919002 0.02312907 13.77671814 0.0213623 C17.11997457 0.02301376 20.462559 0.04168054 23.80566406 0.07324219 C28.08872146 0.11295198 32.3709005 0.11728279 36.65410709 0.10977936 C39.95100436 0.10670872 43.24770451 0.11883287 46.54455376 0.13591003 C48.12378134 0.14293517 49.70303126 0.14606516 51.28227425 0.1452179 C53.48937433 0.14701757 55.69542533 0.16841076 57.90234375 0.1953125 C59.15745255 0.20373169 60.41256134 0.21215088 61.70570374 0.2208252 C65.11557511 0.64364238 66.52189914 1.15939459 68.88647461 3.61523438 C69.99020839 7.58867599 70.30191043 9.70523209 68.57397461 13.49023438 C66.88647461 15.61523438 66.88647461 15.61523438 64.88647461 16.61523438 C62.63627758 16.73301492 60.38255446 16.78509998 58.12939453 16.80810547 C57.43487686 16.81628296 56.74035919 16.82446045 56.02479553 16.83288574 C53.72218692 16.85773506 51.41963995 16.87425465 49.11694336 16.88867188 C48.33067377 16.89399555 47.54440418 16.89931923 46.73430824 16.90480423 C42.57239379 16.93153413 38.41050932 16.95090928 34.24853516 16.96533203 C29.95080771 16.98197769 25.65384745 17.02675423 21.35641003 17.07770348 C18.05096054 17.1113687 14.74569331 17.12290858 11.44008827 17.12855911 C9.85603282 17.13527393 8.27198947 17.15050223 6.68810081 17.17444992 C4.46867854 17.20609123 2.25132712 17.20614129 0.03173828 17.19873047 C-1.23019852 17.20681732 -2.49213531 17.21490417 -3.79231262 17.22323608 C-8.01548312 16.45011643 -9.48696276 14.94290706 -12.11352539 11.61523438 C-12.73852539 8.61523438 -12.73852539 8.61523438 -12.11352539 5.61523438 C-8.36943179 0.87976595 -5.96483802 -0.00975745 0 0 Z " fill="#555050" transform="translate(210.113525390625,216.384765625)"/>
<path d="M0 0 C1.22484604 -0.00953201 2.44969208 -0.01906403 3.71165466 -0.02888489 C5.69142052 -0.02751778 5.69142052 -0.02751778 7.71118164 -0.02612305 C9.08354319 -0.03001207 10.45590353 -0.03434717 11.82826233 -0.03910828 C14.70227971 -0.04656239 17.57617423 -0.04628515 20.45019531 -0.04101562 C24.126673 -0.03522205 27.80264672 -0.05215257 31.4790411 -0.0753603 C34.31269758 -0.09011793 37.14623324 -0.09096661 39.97992134 -0.08785057 C41.99232832 -0.0886112 44.0047166 -0.10246776 46.01707458 -0.11653137 C47.24507278 -0.11030258 48.47307098 -0.10407379 49.73828125 -0.09765625 C50.81653671 -0.09828568 51.89479218 -0.0989151 53.00572205 -0.0995636 C56.34938803 0.32776673 58.23457603 1.28710065 60.93383789 3.2746582 C62.47970665 6.36639572 62.2274331 8.86895373 61.93383789 12.2746582 C60.06675284 14.6396326 58.61322358 15.93496536 55.93383789 17.2746582 C53.9897817 17.38639223 52.04191044 17.43394275 50.09472656 17.45166016 C48.86972946 17.46449539 47.64473236 17.47733063 46.38261414 17.49055481 C45.03901574 17.49872253 43.69541279 17.5061662 42.35180664 17.51293945 C41.67586267 17.51701498 40.99991871 17.52109051 40.30349159 17.52528954 C36.72511729 17.54614949 33.14678133 17.56045093 29.56835938 17.56982422 C25.87605364 17.58088298 22.18435153 17.61527581 18.49225903 17.65499592 C15.65003862 17.68116959 12.8079618 17.6895167 9.96563148 17.6931057 C8.60488119 17.69797056 7.24413726 17.70958192 5.88350487 17.72814369 C3.97619567 17.75254382 2.06859272 17.74914945 0.16113281 17.74462891 C-0.92315506 17.75049515 -2.00744293 17.75636139 -3.12458801 17.7624054 C-6.80575293 17.15202544 -8.45921696 15.90562407 -11.06616211 13.2746582 C-11.99611423 9.80283696 -12.40884457 7.42731738 -11.37866211 3.9621582 C-8.36090347 0.08218282 -4.65858856 0.01992087 0 0 Z " fill="#555050" transform="translate(210.066162109375,245.725341796875)"/>
<path d="M0 0 C1.30815674 -0.0157608 2.61631348 -0.03152161 3.96411133 -0.04776001 C5.38884321 -0.03881024 6.8135674 -0.02855525 8.23828125 -0.01708984 C9.70272219 -0.02045921 11.16716041 -0.02531283 12.6315918 -0.03158569 C15.6983507 -0.03895156 18.76438064 -0.02826218 21.83105469 -0.00488281 C25.75913003 0.02360657 29.68549744 0.00720081 33.61351013 -0.02274513 C36.63680861 -0.04082688 39.65970317 -0.03505646 42.68301392 -0.02210617 C44.13107506 -0.01877449 45.57917307 -0.02285099 47.02719116 -0.03450394 C49.05197432 -0.04722307 51.07688633 -0.0243935 53.1015625 0 C54.25309814 0.00397797 55.40463379 0.00795593 56.59106445 0.01205444 C59.55078125 0.64697266 59.55078125 0.64697266 61.91870117 2.99990845 C63.93992679 6.27812626 64.26051977 7.86170057 63.55078125 11.64697266 C61.03723655 14.75979895 59.51996738 16.4416709 55.5534668 17.28189087 C54.44269775 17.28586884 53.33192871 17.2898468 52.1875 17.29394531 C50.29028198 17.31758652 50.29028198 17.31758652 48.35473633 17.34170532 C46.98257574 17.33275522 45.61042313 17.32250014 44.23828125 17.31103516 C42.82250553 17.31440608 41.40673264 17.319261 39.9909668 17.32553101 C37.0285274 17.3328896 34.06684351 17.32223123 31.10449219 17.29882812 C27.31440599 17.27033889 23.52609002 17.28674859 19.73606873 17.31669044 C16.81395217 17.33479207 13.89225268 17.32899273 10.97012329 17.31605148 C9.57312814 17.31272528 8.17609464 17.31677697 6.77914429 17.32844925 C4.82412478 17.34120113 2.86897182 17.31830541 0.9140625 17.29394531 C-0.75209106 17.28797836 -0.75209106 17.28797836 -2.4519043 17.28189087 C-6.41840488 16.4416709 -7.93567405 14.75979895 -10.44921875 11.64697266 C-11.15895727 7.86170057 -10.83836429 6.27812626 -8.81713867 2.99990845 C-5.75579308 -0.04206503 -4.26393805 0.01472972 0 0 Z " fill="#555050" transform="translate(208.44921875,275.35302734375)"/>
</svg>
