<?xml version="1.0" encoding="UTF-8"?>
<svg version="1.1" xmlns="http://www.w3.org/2000/svg" width="512" height="512">
<path d="M0 0 C79.2 0 158.4 0 240 0 C240 21.12 240 42.24 240 64 C271.68 64 303.36 64 336 64 C336 153.76 336 243.52 336 336 C295.08 336.33 254.16 336.66 212 337 C209.69 339.97 207.38 342.94 205 346 C203.52443222 347.72948042 202.02869458 349.44229514 200.5 351.125 C199.8090625 351.89070313 199.118125 352.65640625 198.40625 353.4453125 C172.94781084 380.47423979 136.47052294 399.05404715 98.93867493 400.28947449 C95.29206344 400.36916339 91.64737641 400.38474879 88 400.375 C87.23164825 400.37445618 86.46329651 400.37391235 85.67166138 400.37335205 C73.08619157 400.33251188 61.17205294 399.42265225 49 396 C48.24058105 395.79101074 47.48116211 395.58202148 46.69873047 395.36669922 C32.52346648 391.34288943 18.09093212 385.50985987 6 377 C1.67495164 378.65863505 -1.09418825 381.871041 -4.25 385.125 C-4.80429688 385.68832031 -5.35859375 386.25164062 -5.9296875 386.83203125 C-7.29104485 388.21686028 -8.64614859 389.60783204 -10 391 C-8.93635977 393.26662197 -8.2015004 394.82088854 -6.3125 396.5 C-5.879375 396.995 -5.44625 397.49 -5 398 C-5.42182133 401.27251707 -6.61584281 403.03774556 -8.8125 405.4375 C-9.44027344 406.12972656 -10.06804687 406.82195312 -10.71484375 407.53515625 C-11.46894531 408.34855469 -12.22304687 409.16195313 -13 410 C-13.93905187 411.01930119 -14.8778373 412.03884787 -15.81640625 413.05859375 C-17.88078291 415.29867625 -19.9493087 417.53485177 -22.01953125 419.76953125 C-25.28959607 423.30543811 -28.50820506 426.88618901 -31.72265625 430.47265625 C-34.29809775 433.33082203 -36.89685764 436.16710261 -39.5 439 C-42.85293117 442.64927171 -46.18998357 446.31169598 -49.5 450 C-52.81001774 453.68830548 -56.14719583 457.35061053 -59.5 461 C-62.93151698 464.73675269 -66.35225564 468.48243313 -69.75 472.25 C-70.47960937 473.05566406 -71.20921875 473.86132812 -71.9609375 474.69140625 C-73.24914326 476.14989208 -74.50893318 477.63443933 -75.7265625 479.15234375 C-80.34033721 484.84849688 -85.56462555 488.52260888 -92 492 C-92.80824219 492.43699219 -93.61648437 492.87398438 -94.44921875 493.32421875 C-104.53578738 497.83704773 -118.69569281 497.91086198 -129.125 494.375 C-130.77337502 493.63323124 -132.40043569 492.84187595 -134 492 C-134.845625 491.5875 -135.69125 491.175 -136.5625 490.75 C-147.9448263 484.64241028 -154.94396009 474.82256045 -159.10546875 462.80859375 C-161.73832409 451.59883849 -161.48562038 438.24423083 -156 428 C-155.57203125 427.13890625 -155.1440625 426.2778125 -154.703125 425.390625 C-149.60887842 416.30500997 -141.73295083 409.78738815 -134 403 C-133.24332031 402.33226562 -132.48664063 401.66453125 -131.70703125 400.9765625 C-130.50134384 399.92255005 -129.29179459 398.87293622 -128.078125 397.828125 C-124.6333138 394.79772718 -121.28471699 391.66305985 -117.91967773 388.54467773 C-113.82251649 384.75070287 -109.68563517 381.00430511 -105.52734375 377.27734375 C-102.66917797 374.70190225 -99.83289739 372.10314236 -97 369.5 C-92.55479324 365.415768 -88.08086602 361.3653718 -83.5859375 357.3359375 C-81.66490315 355.60062249 -79.75418359 353.85685419 -77.8515625 352.1015625 C-77.3153125 351.60720703 -76.7790625 351.11285156 -76.2265625 350.60351562 C-75.18599978 349.64289858 -74.14685417 348.68074338 -73.109375 347.71679688 C-65.80477739 340.97485071 -65.80477739 340.97485071 -63 341.0625 C-60.44310478 342.26104463 -58.88003733 343.9185301 -57 346 C-52.67495164 344.34136495 -49.90581175 341.128959 -46.75 337.875 C-46.19570312 337.31167969 -45.64140625 336.74835938 -45.0703125 336.16796875 C-43.70895515 334.78313972 -42.35385141 333.39216796 -41 332 C-42.35727008 328.28007459 -44.09867791 324.92971046 -46.02050781 321.484375 C-63.76621162 289.4084585 -70.35811557 248.87277635 -61 213 C-60.80664062 212.22269531 -60.61328125 211.44539062 -60.4140625 210.64453125 C-53.47749031 183.36924431 -39.24679151 159.21884728 -19.5625 139.1875 C-18.84755371 138.45164673 -18.84755371 138.45164673 -18.11816406 137.70092773 C-17.62670898 137.21567627 -17.13525391 136.7304248 -16.62890625 136.23046875 C-16.12605606 135.72799118 -15.62320587 135.22551361 -15.1051178 134.70780945 C-13 133 -13 133 -10.06950378 131.70028687 C-6.11646045 129.66556836 -3.29115412 127.87558488 -1 124 C1.0597003 116.24095826 0.58368292 107.93307833 0.45306396 99.96632385 C0.39364531 96.18814223 0.39340641 92.41533717 0.41357422 88.63684082 C0.42431614 79.57023629 0.33090887 70.50374988 0.25 61.4375 C0.1675 41.163125 0.085 20.88875 0 0 Z M16 16 C16 48.01 16 80.02 16 113 C19.58905619 111.80364794 22.95010108 110.65965294 26.3984375 109.1953125 C36.77987564 104.86275334 46.93031011 101.13979918 58 99 C58.8755957 98.82774902 59.75119141 98.65549805 60.65332031 98.47802734 C68.35735738 97.06931095 75.93070441 96.58799656 83.75 96.375 C87.7925 96.25125 91.835 96.1275 96 96 C96 85.44 96 74.88 96 64 C138.24 64 180.48 64 224 64 C224 48.16 224 32.32 224 16 C155.36 16 86.72 16 16 16 Z M112 80 C112 85.94 112 91.88 112 98 C113.27230469 98.268125 114.54460937 98.53625 115.85546875 98.8125 C155.99597398 107.60804405 190.60226856 128.20289427 213.88671875 162.6953125 C216.63640539 166.99519216 219.19716321 171.37594251 221.6875 175.83203125 C222.120625 176.54746094 222.55375 177.26289063 223 178 C223.33 178 223.66 178 224 178 C224 172.06 224 166.12 224 160 C234.56 160 245.12 160 256 160 C256 149.44 256 138.88 256 128 C271.84 128 287.68 128 304 128 C304 186.08 304 244.16 304 304 C279.58 304 255.16 304 230 304 C225.19829172 311.69270836 225.19829172 311.69270836 223 320 C255.01 320 287.02 320 320 320 C320 240.8 320 161.6 320 80 C251.36 80 182.72 80 112 80 Z M0 145 C-0.80824219 145.67417969 -1.61648437 146.34835938 -2.44921875 147.04296875 C-21.96279583 163.86079264 -36.23441528 187.19685107 -43 212 C-43.19609863 212.68884277 -43.39219727 213.37768555 -43.59423828 214.08740234 C-49.67391823 236.22380039 -49.27180122 261.9688166 -43 284 C-42.81808105 284.66692871 -42.63616211 285.33385742 -42.44873047 286.02099609 C-37.27995704 304.55744627 -27.36675608 321.38263352 -15 336 C-13.98486328 337.21816406 -13.98486328 337.21816406 -12.94921875 338.4609375 C10.03704096 365.10314711 43.57617653 380.48425706 78.33569336 383.73095703 C113.96272278 386.24741188 149.08105965 374.28373302 176 351 C176.80566406 350.32710937 177.61132812 349.65421875 178.44140625 348.9609375 C197.96381608 332.15761136 212.23604462 308.79717566 219 284 C219.19609863 283.31115723 219.39219727 282.62231445 219.59423828 281.91259766 C225.67391823 259.77619961 225.27180122 234.0311834 219 212 C218.81808105 211.33307129 218.63616211 210.66614258 218.44873047 209.97900391 C213.27995704 191.44255373 203.36675608 174.61736648 191 160 C190.32324219 159.18789062 189.64648438 158.37578125 188.94921875 157.5390625 C165.96295904 130.89685289 132.42382347 115.51574294 97.66430664 112.26904297 C61.86805671 109.74063551 27.12774427 121.83119685 0 145 Z M272 144 C272 191.52 272 239.04 272 288 C277.28 288 282.56 288 288 288 C288 240.48 288 192.96 288 144 C282.72 144 277.44 144 272 144 Z M240 176 C239.98541748 178.60704834 239.97083496 181.21409668 239.95581055 183.90014648 C239.90515339 192.577436 239.83850648 201.2545519 239.76428509 209.93167019 C239.71982638 215.18530642 239.68051841 220.43886944 239.65356445 225.69262695 C239.62728437 230.77620222 239.58671365 235.85949197 239.53681374 240.94288826 C239.52031016 242.86860628 239.50869436 244.79437349 239.50238609 246.7201519 C239.45877651 258.82536467 238.44885671 270.14739949 236 282 C235.67 283.98 235.34 285.96 235 288 C241.93 288 248.86 288 256 288 C256 251.04 256 214.08 256 176 C250.72 176 245.44 176 240 176 Z M-31.30688477 347.19335938 C-31.84627686 347.73798828 -32.38566895 348.28261719 -32.94140625 348.84375 C-33.52470703 349.43027344 -34.10800781 350.01679688 -34.70898438 350.62109375 C-35.62647461 351.55115234 -35.62647461 351.55115234 -36.5625 352.5 C-37.48579102 353.43005859 -37.48579102 353.43005859 -38.42773438 354.37890625 C-39.95405516 355.91705898 -41.4773115 357.45825142 -43 359 C-41.5735422 362.2586636 -39.83295838 364.4024854 -37.3046875 366.890625 C-36.58925781 367.59960938 -35.87382812 368.30859375 -35.13671875 369.0390625 C-34.39035156 369.76867187 -33.64398438 370.49828125 -32.875 371.25 C-32.12089844 371.99507813 -31.36679688 372.74015625 -30.58984375 373.5078125 C-28.73099228 375.3431342 -26.86762995 377.1736191 -25 379 C-20.99625569 377.16307611 -18.28042066 374.50882084 -15.25 371.375 C-14.74339844 370.859375 -14.23679688 370.34375 -13.71484375 369.8125 C-12.47196098 368.54616661 -11.23534724 367.2736856 -10 366 C-14.00620442 361.07809171 -18.33616202 356.55349248 -22.8125 352.0625 C-23.39990967 351.47057861 -23.98731934 350.87865723 -24.5925293 350.26879883 C-27.61234365 346.24017079 -27.61234365 346.24017079 -31.30688477 347.19335938 Z M-68.53515625 367.25390625 C-69.26283203 367.94419922 -69.99050781 368.63449219 -70.74023438 369.34570312 C-71.50658203 370.07724609 -72.27292969 370.80878906 -73.0625 371.5625 C-78.00279398 376.27020822 -82.9778372 380.90261838 -88.13549805 385.37182617 C-90.93488059 387.81638322 -93.65518815 390.34267322 -96.375 392.875 C-101.03833223 397.1986416 -105.73696176 401.47818453 -110.47265625 405.72265625 C-113.84493558 408.76135617 -117.18949651 411.82996911 -120.52612305 414.90771484 C-122.91734057 417.1094717 -125.32294707 419.28155526 -127.7734375 421.41796875 C-135.56991138 428.21939717 -142.23900211 434.53160207 -143.3359375 445.296875 C-143.45486421 455.80999583 -142.10045645 463.01012262 -134.875 470.875 C-127.15349434 477.96874098 -119.72177251 479.72785747 -109.33203125 479.37890625 C-92.46717282 477.46109703 -80.16407573 459.08453241 -69.828125 447.078125 C-66.79772718 443.6333138 -63.66305985 440.28471699 -60.54467773 436.91967773 C-56.75195093 432.82386429 -53.006599 428.68852353 -49.28125 424.53125 C-46.68455516 421.64998586 -44.0628397 418.79263562 -41.4375 415.9375 C-36.90410664 411.00587107 -32.42906743 406.02553209 -28 401 C-32.17282346 396.02426582 -36.51527427 391.33695213 -41.11328125 386.75390625 C-41.76830124 386.09792953 -42.42332123 385.44195282 -43.09819031 384.76609802 C-44.46926195 383.39435098 -45.84157673 382.0238454 -47.21508789 380.65454102 C-49.32751101 378.54752743 -51.43447608 376.43515974 -53.54101562 374.32226562 C-54.87728318 372.98665795 -56.21386041 371.65136001 -57.55078125 370.31640625 C-58.18301102 369.68215225 -58.81524078 369.04789825 -59.46662903 368.39442444 C-63.95993611 363.43452416 -63.95993611 363.43452416 -68.53515625 367.25390625 Z " fill="#555050" transform="translate(168,8)"/>
<path d="M0 0 C3.26701612 2.66358727 6.39330111 5.45632415 9.50390625 8.30078125 C10.70273437 9.37585938 10.70273437 9.37585938 11.92578125 10.47265625 C23.25289034 21.15709249 31.22417267 34.17323423 37.50390625 48.30078125 C38.22707031 49.89986328 38.22707031 49.89986328 38.96484375 51.53125 C50.78051581 79.78144774 49.75735979 113.27799334 38.81640625 141.55078125 C32.90163585 155.93577959 24.97055595 167.85479591 14.50390625 179.30078125 C13.7871875 180.1 13.07046875 180.89921875 12.33203125 181.72265625 C1.64253838 193.05512614 -11.36968274 201.0066886 -25.49609375 207.30078125 C-26.55054688 207.78289062 -27.605 208.265 -28.69140625 208.76171875 C-51.6867879 218.46565218 -80.5115563 220.05238771 -104.49609375 213.30078125 C-105.72457031 212.96046875 -106.95304687 212.62015625 -108.21875 212.26953125 C-139.63427907 202.65319557 -164.50751489 181.32853982 -180.44140625 152.8203125 C-189.75666771 134.97614282 -194.12665429 116.60373819 -193.93359375 96.55078125 C-193.9298877 95.85456665 -193.92618164 95.15835205 -193.92236328 94.44104004 C-193.68809984 63.3958102 -182.39194102 36.15179552 -161.49609375 13.30078125 C-160.779375 12.5015625 -160.06265625 11.70234375 -159.32421875 10.87890625 C-148.63472588 -0.45356364 -135.62250476 -8.4051261 -121.49609375 -14.69921875 C-120.44164062 -15.18132812 -119.3871875 -15.6634375 -118.30078125 -16.16015625 C-80.31158865 -32.19140121 -32.31783025 -25.47213687 0 0 Z M-126.49609375 7.30078125 C-126.49609375 7.63078125 -126.49609375 7.96078125 -126.49609375 8.30078125 C-106.36609375 8.30078125 -86.23609375 8.30078125 -65.49609375 8.30078125 C-65.49609375 3.35078125 -65.49609375 -1.59921875 -65.49609375 -6.69921875 C-87.1137432 -10.11644169 -107.75833619 -2.86249775 -126.49609375 7.30078125 Z M-49.49609375 -3.69921875 C-49.49609375 53.06078125 -49.49609375 109.82078125 -49.49609375 168.30078125 C-32.99609375 168.30078125 -16.49609375 168.30078125 0.50390625 168.30078125 C5.25811623 163.54657127 8.94658226 159.79846377 12.50390625 154.30078125 C12.50390625 153.64078125 12.50390625 152.98078125 12.50390625 152.30078125 C-2.67609375 152.30078125 -17.85609375 152.30078125 -33.49609375 152.30078125 C-33.49609375 131.18078125 -33.49609375 110.06078125 -33.49609375 88.30078125 C-22.93609375 88.30078125 -12.37609375 88.30078125 -1.49609375 88.30078125 C-1.49609375 83.02078125 -1.49609375 77.74078125 -1.49609375 72.30078125 C7.74390625 72.30078125 16.98390625 72.30078125 26.50390625 72.30078125 C23.6738814 52.49060732 12.47131089 36.08482646 -1.49609375 22.30078125 C-2.38167969 21.40488281 -3.26726562 20.50898438 -4.1796875 19.5859375 C-16.46145225 7.74215544 -32.52764136 -1.27515412 -49.49609375 -3.69921875 Z M-136.37109375 14.05078125 C-137.23476562 14.746875 -138.0984375 15.44296875 -138.98828125 16.16015625 C-139.81585938 16.8665625 -140.6434375 17.57296875 -141.49609375 18.30078125 C-142.19845154 18.84031433 -142.90080933 19.37984741 -143.62445068 19.93572998 C-146.24330325 23.24497237 -146.02743644 26.24118515 -145.95019531 30.28222656 C-145.95077942 31.08260345 -145.95136353 31.88298035 -145.95196533 32.70761108 C-145.9491825 35.3484867 -145.91808209 37.98822826 -145.88671875 40.62890625 C-145.87925705 42.4616433 -145.87356378 44.29438834 -145.86956787 46.12713623 C-145.85430596 50.94749027 -145.81501937 55.7673611 -145.77075195 60.58752441 C-145.72261132 66.37274184 -145.70426788 72.15812098 -145.68093872 77.94348145 C-145.64216864 86.72958397 -145.56551903 95.51462655 -145.49609375 104.30078125 C-119.09609375 104.30078125 -92.69609375 104.30078125 -65.49609375 104.30078125 C-65.49609375 99.02078125 -65.49609375 93.74078125 -65.49609375 88.30078125 C-86.61609375 88.30078125 -107.73609375 88.30078125 -129.49609375 88.30078125 C-129.49609375 83.02078125 -129.49609375 77.74078125 -129.49609375 72.30078125 C-108.37609375 72.30078125 -87.25609375 72.30078125 -65.49609375 72.30078125 C-65.49609375 67.02078125 -65.49609375 61.74078125 -65.49609375 56.30078125 C-86.61609375 56.30078125 -107.73609375 56.30078125 -129.49609375 56.30078125 C-129.49609375 51.02078125 -129.49609375 45.74078125 -129.49609375 40.30078125 C-108.37609375 40.30078125 -87.25609375 40.30078125 -65.49609375 40.30078125 C-65.49609375 35.02078125 -65.49609375 29.74078125 -65.49609375 24.30078125 C-86.61609375 24.30078125 -107.73609375 24.30078125 -129.49609375 24.30078125 C-129.49609375 19.68078125 -129.49609375 15.06078125 -129.49609375 10.30078125 C-132.58375612 10.30078125 -134.01296121 12.13348654 -136.37109375 14.05078125 Z M-162.49609375 43.30078125 C-175.80968685 67.84668614 -181.82530412 96.20316602 -173.6953125 123.6796875 C-173.29957031 124.87464844 -172.90382812 126.06960938 -172.49609375 127.30078125 C-172.11066406 128.46480469 -171.72523438 129.62882812 -171.328125 130.828125 C-166.92543794 143.03881371 -160.52421032 153.15616122 -152.49609375 163.30078125 C-151.99335938 163.95949219 -151.490625 164.61820312 -150.97265625 165.296875 C-135.71092692 184.39609119 -109.98221313 196.2753029 -86.18652344 199.45996094 C-62.33861677 202.11179605 -41.34607636 196.60972202 -20.49609375 185.30078125 C-20.49609375 184.97078125 -20.49609375 184.64078125 -20.49609375 184.30078125 C-35.34609375 184.30078125 -50.19609375 184.30078125 -65.49609375 184.30078125 C-65.49609375 163.18078125 -65.49609375 142.06078125 -65.49609375 120.30078125 C-97.17609375 120.30078125 -128.85609375 120.30078125 -161.49609375 120.30078125 C-161.49609375 94.89078125 -161.49609375 69.48078125 -161.49609375 43.30078125 C-161.82609375 43.30078125 -162.15609375 43.30078125 -162.49609375 43.30078125 Z M14.50390625 88.30078125 C14.50390625 104.14078125 14.50390625 119.98078125 14.50390625 136.30078125 C17.14390625 136.30078125 19.78390625 136.30078125 22.50390625 136.30078125 C23.4892336 133.09430749 24.46605144 129.88530121 25.44140625 126.67578125 C25.71919922 125.77214844 25.99699219 124.86851562 26.28320312 123.9375 C28.87347718 115.3864748 29.64121274 107.84501618 29.56640625 98.92578125 C29.56189453 97.90355469 29.55738281 96.88132812 29.55273438 95.828125 C29.54100942 93.31898502 29.5230759 90.80987539 29.50390625 88.30078125 C24.55390625 88.30078125 19.60390625 88.30078125 14.50390625 88.30078125 Z M-17.49609375 104.30078125 C-17.49609375 114.86078125 -17.49609375 125.42078125 -17.49609375 136.30078125 C-12.21609375 136.30078125 -6.93609375 136.30078125 -1.49609375 136.30078125 C-1.49609375 125.74078125 -1.49609375 115.18078125 -1.49609375 104.30078125 C-6.77609375 104.30078125 -12.05609375 104.30078125 -17.49609375 104.30078125 Z " fill="#555050" transform="translate(329.49609375,159.69921875)"/>
<path d="M0 0 C47.52 0 95.04 0 144 0 C144 5.28 144 10.56 144 16 C96.48 16 48.96 16 0 16 C0 10.72 0 5.44 0 0 Z " fill="#555050" transform="translate(232,40)"/>
<path d="M0 0 C42.24 0 84.48 0 128 0 C128 5.28 128 10.56 128 16 C85.76 16 43.52 16 0 16 C0 10.72 0 5.44 0 0 Z " fill="#555050" transform="translate(344,104)"/>
<path d="M0 0 C15.84 0 31.68 0 48 0 C48 5.28 48 10.56 48 16 C32.16 16 16.32 16 0 16 C0 10.72 0 5.44 0 0 Z " fill="#555050" transform="translate(200,72)"/>
<path d="M0 0 C5.28 0 10.56 0 16 0 C16 5.28 16 10.56 16 16 C10.72 16 5.44 16 0 16 C0 10.72 0 5.44 0 0 Z " fill="#555050" transform="translate(200,40)"/>
<path d="M0 0 C2.5 1.5 2.5 1.5 4 4 C4.791013 8.02098277 4.62153384 10.96411027 2.5 14.5 C-1.03588973 16.62153384 -3.97901723 16.791013 -8 16 C-10.5 14.5 -10.5 14.5 -12 12 C-12.791013 7.97901723 -12.62153384 5.03588973 -10.5 1.5 C-6.96411027 -0.62153384 -4.02098277 -0.791013 0 0 Z " fill="#555050" transform="translate(52,456)"/>
</svg>
