<?xml version="1.0" encoding="UTF-8"?>
<svg version="1.1" xmlns="http://www.w3.org/2000/svg" width="512" height="512">
<path d="M0 0 C0 0.66 0 1.32 0 2 C0.556875 2.061875 1.11375 2.12375 1.6875 2.1875 C4.94477526 3.33194806 6.6499098 5.52622084 9 8 C9.99 8.495 9.99 8.495 11 9 C11 9.66 11 10.32 11 11 C11.99 11 12.98 11 14 11 C14 11.66 14 12.32 14 13 C15.32 13 16.64 13 18 13 C18 13.66 18 14.32 18 15 C18.598125 15.144375 19.19625 15.28875 19.8125 15.4375 C21.56150404 15.8872439 23.28677023 16.42892341 25 17 C25 17.66 25 18.32 25 19 C25.886875 19.12375 26.77375 19.2475 27.6875 19.375 C30.72814546 19.94870669 33.14538563 20.85815425 36 22 C37.9924325 22.37593066 39.9918674 22.71979545 42 23 C42 23.66 42 24.32 42 25 C42.60328125 24.98839844 43.2065625 24.97679687 43.828125 24.96484375 C45.02695312 24.95130859 45.02695312 24.95130859 46.25 24.9375 C47.03890625 24.92589844 47.8278125 24.91429687 48.640625 24.90234375 C51 25 51 25 52.828125 25.4921875 C56.03325054 26.24158736 59.22633176 26.19098016 62.5 26.1875 C63.55598389 26.18737915 63.55598389 26.18737915 64.63330078 26.18725586 C71.30753718 26.11544924 78.94103029 26.02948486 85 23 C86.99960012 22.960008 89.00047242 22.95653201 91 23 C91 22.34 91 21.68 91 21 C92.65 21 94.3 21 96 21 C96 20.34 96 19.68 96 19 C98.97 18.34 101.94 17.68 105 17 C105 16.34 105 15.68 105 15 C106.32 15 107.64 15 109 15 C109 14.34 109 13.68 109 13 C111.475 12.01 111.475 12.01 114 11 C114 10.34 114 9.68 114 9 C115.32 9 116.64 9 118 9 C118 8.34 118 7.68 118 7 C118.66 7 119.32 7 120 7 C120 6.34 120 5.68 120 5 C122.475 4.01 122.475 4.01 125 3 C125 2.34 125 1.68 125 1 C125.66 1 126.32 1 127 1 C127 0.34 127 -0.32 127 -1 C131.08718695 -1.24042276 134.17679443 -0.42258812 138 1 C138 1.66 138 2.32 138 3 C138.7425 3.144375 139.485 3.28875 140.25 3.4375 C142.52027739 3.90187492 144.75759479 4.41863569 147 5 C147 5.66 147 6.32 147 7 C147.66 7.103125 148.32 7.20625 149 7.3125 C152.83841009 8.19213564 156.33096691 9.56969896 160 11 C160 11.66 160 12.32 160 13 C160.7425 13.28875 161.485 13.5775 162.25 13.875 C164.56739797 14.82302644 166.77917115 15.84845911 169 17 C169 17.66 169 18.32 169 19 C169.66 19 170.32 19 171 19 C171 20.32 171 21.64 171 23 C170.34 23 169.68 23 169 23 C169 23.66 169 24.32 169 25 C167.68 25 166.36 25 165 25 C165 25.66 165 26.32 165 27 C164.01 27 163.02 27 162 27 C162 27.66 162 28.32 162 29 C155.5 33 155.5 33 151 33 C151 33.66 151 34.32 151 35 C149.33535403 35.63036226 147.66815224 36.25397593 146 36.875 C145.071875 37.22304687 144.14375 37.57109375 143.1875 37.9296875 C135.2380341 40.59899345 128.21389125 41.34110321 119.890625 41.47851562 C114.82126877 41.64559248 111.48861839 42.41041247 107 45 C106.34 45 105.68 45 105 45 C105 45.66 105 46.32 105 47 C104.34 47 103.68 47 103 47 C102.67 48.98 102.34 50.96 102 53 C101.34 53 100.68 53 100 53 C100.33 65.87 100.66 78.74 101 92 C101.33 92 101.66 92 102 92 C102.05534912 92.81267334 102.11069824 93.62534668 102.16772461 94.46264648 C102.41956497 98.12127632 102.67843639 101.77937485 102.9375 105.4375 C103.06801758 107.3565918 103.06801758 107.3565918 103.20117188 109.31445312 C103.33168945 111.13686523 103.33168945 111.13686523 103.46484375 112.99609375 C103.543396 114.12200928 103.62194824 115.2479248 103.70288086 116.40795898 C103.71936688 118.92669355 103.71936688 118.92669355 105 120 C105.32097751 122.31817089 105.51220956 124.63779357 105.71875 126.96875 C105.79065837 128.99180593 105.79065837 128.99180593 107 130 C107.04092937 132.33297433 107.04241723 134.66705225 107 137 C107.66 137 108.32 137 109 137 C109 139.31 109 141.62 109 144 C109.66 144 110.32 144 111 144 C111 145.98 111 147.96 111 150 C111.66 150 112.32 150 113 150 C113.13277344 150.73605469 113.26554688 151.47210938 113.40234375 152.23046875 C113.66724609 153.69419922 113.66724609 153.69419922 113.9375 155.1875 C114.11152344 156.15042969 114.28554688 157.11335937 114.46484375 158.10546875 C114.9523735 160.74239972 115.46671105 163.3719905 116 166 C116.66 166 117.32 166 118 166 C118 167.65 118 169.3 118 171 C118.66 171 119.32 171 120 171 C120 172.32 120 173.64 120 175 C120.66 175 121.32 175 122 175 C122.50615298 176.26839526 123.00469099 177.53983102 123.5 178.8125 C123.91765625 179.87404297 123.91765625 179.87404297 124.34375 180.95703125 C125 183 125 183 125 186 C125.66 186 126.32 186 127 186 C127 186.99 127 187.98 127 189 C127.66 189 128.32 189 129 189 C129 190.32 129 191.64 129 193 C129.66 193 130.32 193 131 193 C131 193.99 131 194.98 131 196 C131.66 196 132.32 196 133 196 C133.33 197.65 133.66 199.3 134 201 C134.66 201 135.32 201 136 201 C136 201.99 136 202.98 136 204 C136.66 204 137.32 204 138 204 C138 204.99 138 205.98 138 207 C138.66 207 139.32 207 140 207 C140 207.66 140 208.32 140 209 C140.66 209 141.32 209 142 209 C143.2890625 210.4609375 143.2890625 210.4609375 144.625 212.375 C145.07101562 213.00148438 145.51703125 213.62796875 145.9765625 214.2734375 C147 216 147 216 147 218 C148.32 218.33 149.64 218.66 151 219 C151 219.99 151 220.98 151 222 C151.598125 222.28875 152.19625 222.5775 152.8125 222.875 C155 224 155 224 158 226 C158 226.66 158 227.32 158 228 C158.66 228 159.32 228 160 228 C160 228.66 160 229.32 160 230 C161.65 230.66 163.3 231.32 165 232 C165 232.66 165 233.32 165 234 C165.66 234 166.32 234 167 234 C167 234.66 167 235.32 167 236 C168.32 236 169.64 236 171 236 C171 236.66 171 237.32 171 238 C172.65 238.66 174.3 239.32 176 240 C176 240.66 176 241.32 176 242 C177.32 242 178.64 242 180 242 C180 242.66 180 243.32 180 244 C180.57234375 244.13277344 181.1446875 244.26554688 181.734375 244.40234375 C183.97650875 244.99380317 186.08579619 245.73288854 188.25 246.5625 C189.30960937 246.96662109 189.30960937 246.96662109 190.390625 247.37890625 C190.92171875 247.58386719 191.4528125 247.78882813 192 248 C192 248.66 192 249.32 192 250 C194.04190981 249.85761163 196.08352045 249.71092972 198.125 249.5625 C199.26195312 249.48128906 200.39890625 249.40007812 201.5703125 249.31640625 C204.7540478 249.02269035 207.85510907 248.56875687 211 248 C211 247.34 211 246.68 211 246 C213.64738916 244.5393715 214.89448334 244 218 244 C218 243.34 218 242.68 218 242 C219.32 242 220.64 242 222 242 C222 241.34 222 240.68 222 240 C222.99 240 223.98 240 225 240 C225 239.34 225 238.68 225 238 C226.4540625 237.5978125 226.4540625 237.5978125 227.9375 237.1875 C229.4534375 236.5996875 229.4534375 236.5996875 231 236 C231.33 235.01 231.66 234.02 232 233 C234.0625 232.3125 234.0625 232.3125 236 232 C236 231.34 236 230.68 236 230 C237.64453125 228.4921875 237.64453125 228.4921875 239.8125 226.875 C240.52019531 226.33617187 241.22789062 225.79734375 241.95703125 225.2421875 C244 224 244 224 247 224 C246.85967508 227.18776711 246.71173356 230.3751385 246.5625 233.5625 C246.52318359 234.45775391 246.48386719 235.35300781 246.44335938 236.27539062 C246.05521209 244.42648359 245.05945104 251.41788221 242 259 C241.34 259 240.68 259 240 259 C240 259.99 240 260.98 240 262 C239.34 262 238.68 262 238 262 C238 262.66 238 263.32 238 264 C237.34 264 236.68 264 236 264 C236 264.66 236 265.32 236 266 C235.34 266 234.68 266 234 266 C234 266.66 234 267.32 234 268 C233.34 268 232.68 268 232 268 C232 268.66 232 269.32 232 270 C231.01 270 230.02 270 229 270 C228.67 270.99 228.34 271.98 228 273 C186.02806019 273.09149665 144.05613186 273.16200877 102.08411212 273.20426132 C97.13224646 273.20926432 92.18038099 273.21444159 87.22851562 273.21972656 C86.24266199 273.2207758 85.25680836 273.22182505 84.24108037 273.22290608 C68.26496527 273.2403253 52.28890756 273.27187132 36.31282654 273.30861118 C19.927631 273.34597844 3.54246559 273.36822692 -12.84277081 273.37635398 C-22.9585278 273.38185051 -33.07412256 273.39922904 -43.18982962 273.43166587 C-50.12057975 273.45276176 -57.05124566 273.45921125 -63.98202559 273.45400551 C-67.98455917 273.45143602 -71.9868087 273.45545582 -75.98929214 273.4768219 C-79.65102313 273.49622684 -83.31227792 273.49731001 -86.97403041 273.48359558 C-88.9315647 273.4810939 -90.88909306 273.49840029 -92.84654689 273.51632524 C-94.58277399 273.50437894 -94.58277399 273.50437894 -96.35407639 273.49219131 C-97.85549057 273.49446964 -97.85549057 273.49446964 -99.38723636 273.49679399 C-102.70823716 272.86533495 -103.7736992 271.46548927 -106 269 C-106.99 268.67 -107.98 268.34 -109 268 C-109 267.34 -109 266.68 -109 266 C-109.66 266 -110.32 266 -111 266 C-111 265.34 -111 264.68 -111 264 C-111.66 264 -112.32 264 -113 264 C-116 258.375 -116 258.375 -116 255 C-116.66 255 -117.32 255 -118 255 C-119.16849315 249.4481171 -119.14093782 244.03972858 -119.12939453 238.39575195 C-119.13114685 237.33965225 -119.13289917 236.28355255 -119.13470459 235.19544983 C-119.13909963 231.70971017 -119.13619228 228.22402142 -119.1328125 224.73828125 C-119.13348646 222.30698131 -119.13445726 219.87568143 -119.13571167 217.44438171 C-119.13718567 212.34776162 -119.13504454 207.25115907 -119.13037109 202.15454102 C-119.12468917 195.64275615 -119.12794495 189.13101265 -119.13394356 182.61922932 C-119.13757013 177.59616285 -119.1364007 172.57310606 -119.13381577 167.55003929 C-119.1331515 165.150423 -119.13395731 162.75080581 -119.13629532 160.35119057 C-119.13885462 156.98451056 -119.13493468 153.61789589 -119.12939453 150.2512207 C-119.13141876 149.27161377 -119.13344299 148.29200684 -119.13552856 147.28271484 C-119.11593695 140.80730072 -118.6858911 134.43844293 -118 128 C-117.34 128 -116.68 128 -116 128 C-116.061875 126.948125 -116.12375 125.89625 -116.1875 124.8125 C-116.22052363 118.70312877 -114.50603532 112.88070933 -113 107 C-112.34 107 -111.68 107 -111 107 C-111 105.35 -111 103.7 -111 102 C-110.34 102 -109.68 102 -109 102 C-109 100.35 -109 98.7 -109 97 C-108.34 97 -107.68 97 -107 97 C-106.87625 96.319375 -106.7525 95.63875 -106.625 94.9375 C-105.90899123 91.5722588 -104.97054875 88.29986575 -104 85 C-103.34 85 -102.68 85 -102 85 C-102 83.68 -102 82.36 -102 81 C-101.34 81 -100.68 81 -100 81 C-100 80.01 -100 79.02 -100 78 C-99.34 78 -98.68 78 -98 78 C-97.87753906 77.42765625 -97.75507812 76.8553125 -97.62890625 76.265625 C-96.97237132 73.90046809 -96.06276488 71.92793203 -94.9375 69.75 C-94.57527344 69.04359375 -94.21304688 68.3371875 -93.83984375 67.609375 C-93.42412109 66.81273437 -93.42412109 66.81273437 -93 66 C-92.34 66 -91.68 66 -91 66 C-91 65.01 -91 64.02 -91 63 C-90.34 63 -89.68 63 -89 63 C-89 62.34 -89 61.68 -89 61 C-88.34 61 -87.68 61 -87 61 C-87 60.01 -87 59.02 -87 58 C-86.34 58 -85.68 58 -85 58 C-84.9175 57.21625 -84.835 56.4325 -84.75 55.625 C-84 53 -84 53 -81.9375 51.6875 C-81.298125 51.460625 -80.65875 51.23375 -80 51 C-80 50.34 -80 49.68 -80 49 C-79.34 49 -78.68 49 -78 49 C-78 48.34 -78 47.68 -78 47 C-77.34 47 -76.68 47 -76 47 C-76 46.34 -76 45.68 -76 45 C-75.34 45 -74.68 45 -74 45 C-73.67 43.68 -73.34 42.36 -73 41 C-72.34 41 -71.68 41 -71 41 C-71 40.34 -71 39.68 -71 39 C-66.52941176 35 -66.52941176 35 -64 35 C-64 34.34 -64 33.68 -64 33 C-63.34 33 -62.68 33 -62 33 C-62 32.34 -62 31.68 -62 31 C-61.34 31 -60.68 31 -60 31 C-60 30.34 -60 29.68 -60 29 C-58.02678947 27.6273318 -56.02456848 26.29572383 -54 25 C-53.34 24.34 -52.68 23.68 -52 23 C-51.01 23 -50.02 23 -49 23 C-49 22.34 -49 21.68 -49 21 C-47.35 20.34 -45.7 19.68 -44 19 C-44 18.34 -44 17.68 -44 17 C-42.68 17 -41.36 17 -40 17 C-40 16.34 -40 15.68 -40 15 C-37.35261084 13.5393715 -36.10551666 13 -33 13 C-33 12.34 -33 11.68 -33 11 C-29.91190305 9.23537317 -28.76687864 9 -25 9 C-25 8.34 -25 7.68 -25 7 C-24.01 7 -23.02 7 -22 7 C-22 6.34 -22 5.68 -22 5 C-21.443125 4.81824219 -20.88625 4.63648438 -20.3125 4.44921875 C-19.549375 4.19785156 -18.78625 3.94648438 -18 3.6875 C-17.18015625 3.41808594 -16.3603125 3.14867187 -15.515625 2.87109375 C-13.21847076 2.07565059 -10.99503759 1.17971977 -8.75 0.25 C-5.10868929 -0.96377024 -3.55821137 -1.22313516 0 0 Z M-21 53 C-23.207809 54.53827847 -23.207809 54.53827847 -25 57 C-24.99732315 61.35056675 -24.99732315 61.35056675 -23 65 C-20.04195427 65.33340471 -20.04195427 65.33340471 -17 65 C-14.43312633 61.1496895 -15.16711276 59.41430237 -16 55 C-18.475 54.01 -18.475 54.01 -21 53 Z M-44 73 C-44.80528889 75.05000871 -44.80528889 75.05000871 -45 77 C-45.66 77 -46.32 77 -47 77 C-47.66 77.66 -48.32 78.32 -49 79 C-49 79.99 -49 80.98 -49 82 C-49.66 82 -50.32 82 -51 82 C-52.56484351 84.10889008 -52.56484351 84.10889008 -54.0625 86.75 C-54.85333984 88.07257813 -54.85333984 88.07257813 -55.66015625 89.421875 C-56.82839487 91.6697977 -57.53220782 93.52820924 -58 96 C-58.66 96 -59.32 96 -60 96 C-60 96.99 -60 97.98 -60 99 C-60.66 99 -61.32 99 -62 99 C-64.64472478 105.28275689 -64.64472478 105.28275689 -65 112 C-65.66 112 -66.32 112 -67 112 C-67.495 114.475 -67.495 114.475 -68 117 C-68.33 117 -68.66 117 -69 117 C-69.2165625 118.7015625 -69.2165625 118.7015625 -69.4375 120.4375 C-70 124 -70 124 -71 125 C-73.63894605 134.70939955 -73.29087719 144.44939045 -73.265625 154.4296875 C-73.26697414 156.31153412 -73.26891675 158.1933804 -73.27142334 160.07522583 C-73.27435852 164.00037995 -73.27012598 167.92544252 -73.26074219 171.85058594 C-73.24930121 176.88103888 -73.25594653 181.91127946 -73.26788712 186.94172478 C-73.27510891 190.81930141 -73.27281713 194.69682753 -73.26763153 198.57440567 C-73.26629837 200.42996369 -73.26793108 202.2855263 -73.27259064 204.14107895 C-73.27766628 206.72812867 -73.26993319 209.31483161 -73.25878906 211.90185547 C-73.26283752 212.66657669 -73.26688599 213.43129791 -73.27105713 214.2191925 C-73.24114645 217.96489063 -73.09346905 220.82122329 -71 224 C-70.34 224 -69.68 224 -69 224 C-69 224.66 -69 225.32 -69 226 C-62.41870748 229.51718063 -57.07535649 230.576722 -49.66259766 230.48583984 C-48.17555832 230.49153488 -48.17555832 230.49153488 -46.65847778 230.49734497 C-43.41000866 230.50470299 -40.16245088 230.48344321 -36.9140625 230.4609375 C-34.64724838 230.45855124 -32.38043226 230.45764814 -30.11361694 230.4581604 C-25.37786366 230.45504108 -20.64241499 230.43853578 -15.90673828 230.41162109 C-9.830253 230.37752597 -3.75410005 230.36999631 2.32246971 230.37151146 C6.99609562 230.3709685 11.66964859 230.3600151 16.34325027 230.34550858 C18.58479893 230.33913802 20.82635584 230.33520108 23.06791306 230.33372116 C26.19174141 230.32939755 29.31521286 230.31192005 32.43896484 230.29052734 C33.83223999 230.2918869 33.83223999 230.2918869 35.25366211 230.29327393 C36.52770401 230.28047897 36.52770401 230.28047897 37.82748413 230.26742554 C38.93407662 230.262398 38.93407662 230.262398 40.06302452 230.25726891 C42.32472472 230.10152607 42.32472472 230.10152607 45 228 C45.43827201 226.09542071 45.43827201 226.09542071 45.3125 224 C45.30863281 223.29875 45.30476563 222.5975 45.30078125 221.875 C45.14912946 219.7583423 45.14912946 219.7583423 43 218 C41.04421032 217.70266683 41.04421032 217.70266683 38.77328491 217.75949097 C37.44393166 217.75536697 37.44393166 217.75536697 36.08772278 217.75115967 C35.11308578 217.75835022 34.13844879 217.76554077 33.13427734 217.77294922 C32.10986038 217.77265717 31.08544342 217.77236511 30.02998352 217.77206421 C26.63188307 217.77346151 23.23399981 217.78904161 19.8359375 217.8046875 C17.48467122 217.8084162 15.13340339 217.81126385 12.78213501 217.81326294 C6.58426649 217.82091062 0.38649125 217.84056885 -5.81134033 217.8626709 C-13.24271721 217.88669564 -20.67412522 217.8959049 -28.10552979 217.90757751 C-39.40375146 217.92699257 -50.70176834 217.96530737 -62 218 C-62 189.62 -62 161.24 -62 132 C-61.34 132 -60.68 132 -60 132 C-60 129.36 -60 126.72 -60 124 C-59.34 124 -58.68 124 -58 124 C-57.731875 123.01 -57.46375 122.02 -57.1875 121 C-56.20947219 117.53116756 -54.95643368 114.22578681 -53.5859375 110.89453125 C-52.80302018 108.69361047 -52.80302018 108.69361047 -53 105 C-52.34 105 -51.68 105 -51 105 C-51 103.68 -51 102.36 -51 101 C-50.34 101 -49.68 101 -49 101 C-49 100.01 -49 99.02 -49 98 C-48.34 98 -47.68 98 -47 98 C-47 97.01 -47 96.02 -47 95 C-46.34 95 -45.68 95 -45 95 C-44.67 93.35 -44.34 91.7 -44 90 C-43.34 90 -42.68 90 -42 90 C-42 89.01 -42 88.02 -42 87 C-41.34 87 -40.68 87 -40 87 C-40 86.34 -40 85.68 -40 85 C-39.34 85 -38.68 85 -38 85 C-38 84.34 -38 83.68 -38 83 C-37.34 83 -36.68 83 -36 83 C-34.07341755 78.05520312 -34.07341755 78.05520312 -35.1875 73.0625 C-35.785625 72.381875 -36.38375 71.70125 -37 71 C-40.15081975 71 -41.41847698 71.27898465 -44 73 Z " fill="#414042" transform="translate(145,207)"/>
<path d="M0 0 C2.97 0 5.94 0 9 0 C9 0.66 9 1.32 9 2 C9.66 2 10.32 2 11 2 C11 2.99 11 3.98 11 5 C11.639375 5.103125 12.27875 5.20625 12.9375 5.3125 C13.618125 5.539375 14.29875 5.76625 15 6 C15.495 7.485 15.495 7.485 16 9 C16.99 9.495 16.99 9.495 18 10 C18 10.66 18 11.32 18 12 C18.66 12 19.32 12 20 12 C20 12.66 20 13.32 20 14 C21.32 14 22.64 14 24 14 C24.99 15.485 24.99 15.485 26 17 C27.485 17.495 27.485 17.495 29 18 C29 18.66 29 19.32 29 20 C29.66 20 30.32 20 31 20 C31 20.66 31 21.32 31 22 C32.32 22 33.64 22 35 22 C35 22.66 35 23.32 35 24 C35.99 24 36.98 24 38 24 C38 24.66 38 25.32 38 26 C39.32 26 40.64 26 42 26 C42 26.66 42 27.32 42 28 C42.56203125 28.13277344 43.1240625 28.26554687 43.703125 28.40234375 C46.09366153 29.02437111 48.41035775 29.77115041 50.75 30.5625 C51.54921875 30.83191406 52.3484375 31.10132813 53.171875 31.37890625 C53.77515625 31.58386719 54.3784375 31.78882813 55 32 C55 32.66 55 33.32 55 34 C56.65 34 58.3 34 60 34 C60 34.66 60 35.32 60 36 C61.03125 36.144375 62.0625 36.28875 63.125 36.4375 C66.42549813 36.91660457 69.71268341 37.43875083 73 38 C73 38.66 73 39.32 73 40 C74.9490625 40.185625 74.9490625 40.185625 76.9375 40.375 C88.25762195 41.62881098 88.25762195 41.62881098 93 44 C94.0887731 47.26631931 94.12930042 49.67255284 94.1328125 53.109375 C94.13474609 54.33309814 94.13667969 55.55682129 94.13867188 56.81762695 C94.13416016 58.11531006 94.12964844 59.41299316 94.125 60.75 C94.12306641 62.0599292 94.12113281 63.3698584 94.11914062 64.71948242 C94.07981503 73.51803826 93.84720149 82.2405417 93 91 C92.34 91 91.68 91 91 91 C91.01160156 91.78246094 91.02320313 92.56492187 91.03515625 93.37109375 C91.04417969 94.38300781 91.05320312 95.39492188 91.0625 96.4375 C91.07410156 97.44683594 91.08570313 98.45617187 91.09765625 99.49609375 C91 102 91 102 90 103 C89.79395915 104.32781878 89.6337041 105.66295895 89.5 107 C89.11111111 110.88888889 89.11111111 110.88888889 88 112 C87.855625 113.03125 87.71125 114.0625 87.5625 115.125 C87.01408465 118.9029724 86.06467238 122.34018868 85 126 C84.63729412 127.99488234 84.29359301 129.9937811 84 132 C83.34 132 82.68 132 82 132 C82 133.98 82 135.96 82 138 C81.34 138 80.68 138 80 138 C80 139.65 80 141.3 80 143 C79.34 143 78.68 143 78 143 C77.814375 143.99 77.814375 143.99 77.625 145 C76.85479462 148.69698583 75.93049337 152.34005942 75 156 C74.34 156 73.68 156 73 156 C73 157.32 73 158.64 73 160 C72.34 160 71.68 160 71 160 C71 160.99 71 161.98 71 163 C70.34 163 69.68 163 69 163 C69 164.32 69 165.64 69 167 C68.34 167 67.68 167 67 167 C66.87625 167.556875 66.7525 168.11375 66.625 168.6875 C65.94023145 171.22114364 65.00866237 173.57921032 64 176 C63.34 176 62.68 176 62 176 C62 176.99 62 177.98 62 179 C61.34 179 60.68 179 60 179 C59.731875 179.721875 59.46375 180.44375 59.1875 181.1875 C58.00098638 183.99766383 56.72514361 186.48416557 55 189 C54.34 189 53.68 189 53 189 C53 189.66 53 190.32 53 191 C52.34 191 51.68 191 51 191 C51 191.66 51 192.32 51 193 C50.34 193 49.68 193 49 193 C49 193.66 49 194.32 49 195 C48.34 195 47.68 195 47 195 C46.67 196.32 46.34 197.64 46 199 C45.34 199 44.68 199 44 199 C44 199.66 44 200.32 44 201 C43.34 201 42.68 201 42 201 C42 201.66 42 202.32 42 203 C41.34 203 40.68 203 40 203 C40 203.66 40 204.32 40 205 C39.34 205 38.68 205 38 205 C38 205.66 38 206.32 38 207 C37.01 207 36.02 207 35 207 C35 207.66 35 208.32 35 209 C34.34 209 33.68 209 33 209 C33 209.66 33 210.32 33 211 C30 213 30 213 27 213 C27 213.66 27 214.32 27 215 C25.35 215.66 23.7 216.32 22 217 C22 217.66 22 218.32 22 219 C20.68 219 19.36 219 18 219 C18 219.66 18 220.32 18 221 C17.01 221 16.02 221 15 221 C15 221.66 15 222.32 15 223 C13.13365525 223.73083403 11.25637896 224.43378778 9.375 225.125 C8.33085937 225.51945313 7.28671875 225.91390625 6.2109375 226.3203125 C-0.14222075 227.66514162 -5.44813565 223.85136165 -10.875 220.875 C-11.56335938 220.50246094 -12.25171875 220.12992188 -12.9609375 219.74609375 C-14.64294798 218.83500474 -16.32180436 217.91809685 -18 217 C-18 216.34 -18 215.68 -18 215 C-19.32 215 -20.64 215 -22 215 C-22.66 214.01 -23.32 213.02 -24 212 C-24.99 211.67 -25.98 211.34 -27 211 C-27 210.34 -27 209.68 -27 209 C-27.66 209 -28.32 209 -29 209 C-29 208.34 -29 207.68 -29 207 C-29.66 207 -30.32 207 -31 207 C-31 206.34 -31 205.68 -31 205 C-31.598125 204.71125 -32.19625 204.4225 -32.8125 204.125 C-35 203 -35 203 -38 201 C-38 200.34 -38 199.68 -38 199 C-38.66 199 -39.32 199 -40 199 C-40 198.34 -40 197.68 -40 197 C-40.66 197 -41.32 197 -42 197 C-45 192.61538462 -45 192.61538462 -45 190 C-45.66 190 -46.32 190 -47 190 C-47.66 188.35 -48.32 186.7 -49 185 C-49.66 185 -50.32 185 -51 185 C-51 184.34 -51 183.68 -51 183 C-51.66 183 -52.32 183 -53 183 C-53.33 181.02 -53.66 179.04 -54 177 C-54.66 177 -55.32 177 -56 177 C-56 176.01 -56 175.02 -56 174 C-56.66 174 -57.32 174 -58 174 C-58 173.01 -58 172.02 -58 171 C-58.66 171 -59.32 171 -60 171 C-60.4125 170.01 -60.825 169.02 -61.25 168 C-62.72368405 164.5237979 -64.42736983 161.21034237 -66.23046875 157.89453125 C-67 156 -67 156 -67 152 C-67.66 152 -68.32 152 -69 152 C-69 150.35 -69 148.7 -69 147 C-69.66 147 -70.32 147 -71 147 C-71 145.35 -71 143.7 -71 142 C-71.66 142 -72.32 142 -73 142 C-73.10957031 141.3709375 -73.21914063 140.741875 -73.33203125 140.09375 C-74.12491166 135.81348503 -74.97392725 131.78769449 -76.625 127.75 C-77.93937315 124.16534597 -78.28250631 121.7667508 -78 118 C-78.66 118 -79.32 118 -80 118 C-80.33 115.36 -80.66 112.72 -81 110 C-81.33 110 -81.66 110 -82 110 C-82.08302368 108.9627478 -82.08302368 108.9627478 -82.16772461 107.90454102 C-82.41963531 104.79012786 -82.67847351 101.67632905 -82.9375 98.5625 C-83.06801758 96.92958008 -83.06801758 96.92958008 -83.20117188 95.26367188 C-83.28818359 94.22919922 -83.37519531 93.19472656 -83.46484375 92.12890625 C-83.543396 91.17056885 -83.62194824 90.21223145 -83.70288086 89.22485352 C-83.76667071 87.03090111 -83.76667071 87.03090111 -85 86 C-85.14499624 84.51061211 -85.22708483 83.01497979 -85.28125 81.51953125 C-85.31863281 80.60236328 -85.35601562 79.68519531 -85.39453125 78.74023438 C-85.42933594 77.77408203 -85.46414062 76.80792969 -85.5 75.8125 C-85.709479 70.11389534 -86.00051259 64.6231324 -87 59 C-87.11171758 56.98128932 -87.1744564 54.95925752 -87.1875 52.9375 C-87.20167969 51.93589844 -87.21585938 50.93429687 -87.23046875 49.90234375 C-86.99161281 46.89437827 -86.26398326 44.7228098 -85 42 C-84.34 42 -83.68 42 -83 42 C-83 41.34 -83 40.68 -83 40 C-82.030625 39.97421875 -81.06125 39.9484375 -80.0625 39.921875 C-64.05245514 39.79286988 -64.05245514 39.79286988 -50 34 C-48.33382885 33.95936168 -46.66611905 33.957279 -45 34 C-45 33.34 -45 32.68 -45 32 C-43.56570999 31.32645501 -42.12742943 30.66140299 -40.6875 30 C-39.48673828 29.443125 -39.48673828 29.443125 -38.26171875 28.875 C-36 28 -36 28 -33 28 C-33 27.34 -33 26.68 -33 26 C-31.71086513 25.32845067 -30.41859796 24.66291141 -29.125 24 C-28.40570313 23.62875 -27.68640625 23.2575 -26.9453125 22.875 C-25 22 -25 22 -23 22 C-23 21.34 -23 20.68 -23 20 C-22.01 20 -21.02 20 -20 20 C-20 19.34 -20 18.68 -20 18 C-19.34 18 -18.68 18 -18 18 C-18 17.34 -18 16.68 -18 16 C-16.35 15.34 -14.7 14.68 -13 14 C-13 13.34 -13 12.68 -13 12 C-12.34 12 -11.68 12 -11 12 C-11 11.34 -11 10.68 -11 10 C-9.01310269 8.64721885 -7.01254782 7.31431695 -5 6 C-4.67 5.34 -4.34 4.68 -4 4 C-3.34 4 -2.68 4 -2 4 C-2 3.34 -2 2.68 -2 2 C-1.34 2 -0.68 2 0 2 C0 1.34 0 0.68 0 0 Z M42 82 C42 82.66 42 83.32 42 84 C40.68 84 39.36 84 38 84 C38 84.66 38 85.32 38 86 C37.34 86 36.68 86 36 86 C35.67 87.32 35.34 88.64 35 90 C34.34 90 33.68 90 33 90 C33 90.66 33 91.32 33 92 C32.443125 92.2475 31.88625 92.495 31.3125 92.75 C28.57589087 94.22924818 26.32349131 95.93467439 24 98 C24 98.66 24 99.32 24 100 C23.40574219 100.2578125 22.81148437 100.515625 22.19921875 100.78125 C19.822493 102.09836977 18.53214427 103.41343934 16.8125 105.5 C16.04873047 106.41265625 16.04873047 106.41265625 15.26953125 107.34375 C13.92882362 108.98469533 13.92882362 108.98469533 13 111 C12.34 111 11.68 111 11 111 C11 111.66 11 112.32 11 113 C10.34 113 9.68 113 9 113 C9 113.66 9 114.32 9 115 C8.01 115.33 7.02 115.66 6 116 C6 116.66 6 117.32 6 118 C5.11828125 118.10828125 5.11828125 118.10828125 4.21875 118.21875 C1.20374444 119.28037168 0.30931463 120.90116626 -1.5 123.5 C-4.51369863 127.82876712 -4.51369863 127.82876712 -7.21875 128.78125 C-8.10046875 128.88953125 -8.10046875 128.88953125 -9 129 C-9 128.34 -9 127.68 -9 127 C-9.66 127 -10.32 127 -11 127 C-11 126.34 -11 125.68 -11 125 C-11.66 125 -12.32 125 -13 125 C-13.268125 124.401875 -13.53625 123.80375 -13.8125 123.1875 C-14.99917406 121.00152146 -16.09599113 119.58667406 -18 118 C-18.66 118 -19.32 118 -20 118 C-20.33 117.01 -20.66 116.02 -21 115 C-22.33645153 113.13245468 -22.33645153 113.13245468 -23.9375 111.3125 C-24.46214844 110.68988281 -24.98679687 110.06726563 -25.52734375 109.42578125 C-26.89785404 107.76813996 -26.89785404 107.76813996 -29 108 C-29 107.34 -29 106.68 -29 106 C-31.4404341 104.46343038 -32.70744102 103.97910293 -35.625 104.1875 C-38.33651167 104.8464189 -38.33651167 104.8464189 -40 108 C-40 109.32 -40 110.64 -40 112 C-39.34 112 -38.68 112 -38 112 C-38 112.66 -38 113.32 -38 114 C-37.34 114 -36.68 114 -36 114 C-36 114.66 -36 115.32 -36 116 C-35.34 116 -34.68 116 -34 116 C-33.67 117.32 -33.34 118.64 -33 120 C-32.34 120 -31.68 120 -31 120 C-31 120.66 -31 121.32 -31 122 C-30.34 122 -29.68 122 -29 122 C-29 122.66 -29 123.32 -29 124 C-28.34 124 -27.68 124 -27 124 C-27 124.66 -27 125.32 -27 126 C-26.34 126 -25.68 126 -25 126 C-24 128 -23 130 -22 132 C-21.34 132 -20.68 132 -20 132 C-20 132.66 -20 133.32 -20 134 C-19.34 134 -18.68 134 -18 134 C-18 134.66 -18 135.32 -18 136 C-17.38125 136.0825 -16.7625 136.165 -16.125 136.25 C-14 137 -14 137 -12.9375 138.9375 C-12.4734375 139.9584375 -12.4734375 139.9584375 -12 141 C-9.25799558 143.28784083 -9.25799558 143.28784083 -6.5625 142.75 C-4.18047686 142.05282249 -2.16453858 141.20252143 0 140 C0 139.34 0 138.68 0 138 C0.66 138 1.32 138 2 138 C2 137.34 2 136.68 2 136 C2.66 136 3.32 136 4 136 C6.39820305 133.36315253 6.39820305 133.36315253 7 130 C7.66 130 8.32 130 9 130 C9 129.34 9 128.68 9 128 C9.66 128 10.32 128 11 128 C11 127.34 11 126.68 11 126 C11.598125 125.71125 12.19625 125.4225 12.8125 125.125 C15.19327792 123.95257974 15.19327792 123.95257974 18 122 C18 121.34 18 120.68 18 120 C18.66 120 19.32 120 20 120 C20 119.34 20 118.68 20 118 C20.66 118 21.32 118 22 118 C22 117.34 22 116.68 22 116 C22.66 116 23.32 116 24 116 C26.39820305 113.36315253 26.39820305 113.36315253 27 110 C27.66 110 28.32 110 29 110 C29 109.34 29 108.68 29 108 C29.598125 107.71125 30.19625 107.4225 30.8125 107.125 C33.19327792 105.95257974 33.19327792 105.95257974 36 104 C36 103.34 36 102.68 36 102 C36.66 102 37.32 102 38 102 C38 101.34 38 100.68 38 100 C38.66 100 39.32 100 40 100 C40 99.34 40 98.68 40 98 C40.66 98 41.32 98 42 98 C42 97.34 42 96.68 42 96 C42.66 96 43.32 96 44 96 C44 95.34 44 94.68 44 94 C44.66 94 45.32 94 46 94 C47.14352916 91.71294169 47.10334439 90.40735238 47.0625 87.875 C47.041875 86.59625 47.02125 85.3175 47 84 C45.35 83.34 43.7 82.68 42 82 Z " fill="#414042" transform="translate(341,220)"/>
<path d="M0 0 C6.06891692 -0.0493933 12.13771713 -0.08571643 18.20678711 -0.10986328 C20.271912 -0.11992835 22.33702263 -0.13358154 24.40209961 -0.15087891 C27.36836264 -0.17510493 30.33443744 -0.18647797 33.30078125 -0.1953125 C34.2258699 -0.20563507 35.15095856 -0.21595764 36.1040802 -0.22659302 C36.96474594 -0.22674408 37.82541168 -0.22689514 38.7121582 -0.22705078 C39.46938675 -0.231492 40.2266153 -0.23593323 41.00679016 -0.24050903 C43 0 43 0 46 2 C47.32189401 2.45164712 48.65720002 2.86493236 50 3.25 C55.73849212 5.07459469 60.80431743 7.99912913 66 11 C66 11.66 66 12.32 66 13 C67.32 13 68.64 13 70 13 C70 13.66 70 14.32 70 15 C70.66 15 71.32 15 72 15 C72 15.66 72 16.32 72 17 C72.99 17 73.98 17 75 17 C75 17.66 75 18.32 75 19 C75.66 19 76.32 19 77 19 C77 19.66 77 20.32 77 21 C77.66 21 78.32 21 79 21 C79 21.66 79 22.32 79 23 C79.66 23 80.32 23 81 23 C86 28.47619048 86 28.47619048 86 31 C86.66 31 87.32 31 88 31 C88 31.66 88 32.32 88 33 C88.66 33 89.32 33 90 33 C90 33.66 90 34.32 90 35 C90.66 35 91.32 35 92 35 C95 40.625 95 40.625 95 44 C95.66 44 96.32 44 97 44 C97 44.99 97 45.98 97 47 C97.66 47 98.32 47 99 47 C100.87581409 49.81372113 101.35285705 51.06508795 101.9375 54.25 C102.55073457 57.27692584 103.30179049 59.8981992 104.625 62.6875 C106.03925531 66.09456961 106.2665823 68.35670854 106 72 C106.66 72 107.32 72 108 72 C108.33 75.63 108.66 79.26 109 83 C109.33 83 109.66 83 110 83 C110 90.59 110 98.18 110 106 C109.67 106 109.34 106 109 106 C108.67 109.63 108.34 113.26 108 117 C107.34 117 106.68 117 106 117 C106.061875 117.845625 106.12375 118.69125 106.1875 119.5625 C105.96564836 123.62978004 104.66111043 126.29444597 103 130 C102.23098138 132.65194907 101.61441767 135.30601483 101 138 C100.34 138 99.68 138 99 138 C99 139.32 99 140.64 99 142 C98.34 142 97.68 142 97 142 C97 142.99 97 143.98 97 145 C96.34 145 95.68 145 95 145 C94.87625 145.556875 94.7525 146.11375 94.625 146.6875 C93.94023145 149.22114364 93.00866237 151.57921032 92 154 C91.34 154 90.68 154 90 154 C90 154.66 90 155.32 90 156 C89.34 156 88.68 156 88 156 C88 156.66 88 157.32 88 158 C87.34 158 86.68 158 86 158 C86 158.66 86 159.32 86 160 C85.34 160 84.68 160 84 160 C83.690625 160.61875 83.38125 161.2375 83.0625 161.875 C82.375 163.25 81.6875 164.625 81 166 C80.34 166 79.68 166 79 166 C79 166.66 79 167.32 79 168 C78.34 168 77.68 168 77 168 C77 168.66 77 169.32 77 170 C76.34 170 75.68 170 75 170 C75 170.66 75 171.32 75 172 C74.01 172 73.02 172 72 172 C72 172.66 72 173.32 72 174 C71.34 174 70.68 174 70 174 C70 174.66 70 175.32 70 176 C68.68 176 67.36 176 66 176 C66 176.66 66 177.32 66 178 C44.25559142 189.77226851 23.46441147 193.25446702 -1 188 C-1 187.34 -1 186.68 -1 186 C-2.60875 185.7834375 -2.60875 185.7834375 -4.25 185.5625 C-6.91662949 185.16250558 -9.41399729 184.72408076 -12 184 C-12 183.34 -12 182.68 -12 182 C-13.32 182 -14.64 182 -16 182 C-16 181.34 -16 180.68 -16 180 C-16.99 180 -17.98 180 -19 180 C-19 179.34 -19 178.68 -19 178 C-20.32 178 -21.64 178 -23 178 C-23 177.34 -23 176.68 -23 176 C-24.65 175.34 -26.3 174.68 -28 174 C-28 173.34 -28 172.68 -28 172 C-28.66 172 -29.32 172 -30 172 C-30 171.34 -30 170.68 -30 170 C-31.4540625 169.62875 -31.4540625 169.62875 -32.9375 169.25 C-33.948125 168.8375 -34.95875 168.425 -36 168 C-36.875 165.875 -36.875 165.875 -37 164 C-37.66 164 -38.32 164 -39 164 C-39 163.34 -39 162.68 -39 162 C-39.66 162 -40.32 162 -41 162 C-41 161.34 -41 160.68 -41 160 C-41.66 160 -42.32 160 -43 160 C-43 159.34 -43 158.68 -43 158 C-43.66 158 -44.32 158 -45 158 C-48 152.25 -48 152.25 -48 150 C-48.66 150 -49.32 150 -50 150 C-50 149.01 -50 148.02 -50 147 C-50.66 147 -51.32 147 -52 147 C-52 146.01 -52 145.02 -52 144 C-52.66 144 -53.32 144 -54 144 C-54 142.68 -54 141.36 -54 140 C-54.66 140 -55.32 140 -56 140 C-56.27714844 139.14535156 -56.55429688 138.29070312 -56.83984375 137.41015625 C-57.20207031 136.30542969 -57.56429687 135.20070312 -57.9375 134.0625 C-58.29714844 132.96035156 -58.65679687 131.85820312 -59.02734375 130.72265625 C-59.73856668 128.11876525 -59.73856668 128.11876525 -61 127 C-61.04080783 125.00041636 -61.04254356 122.99954746 -61 121 C-61.66 121 -62.32 121 -63 121 C-63.33 118.69 -63.66 116.38 -64 114 C-64.33 114 -64.66 114 -65 114 C-65 101.46 -65 88.92 -65 76 C-64.34 76 -63.68 76 -63 76 C-63 73.36 -63 70.72 -63 68 C-62.34 68 -61.68 68 -61 68 C-61 66.02 -61 64.04 -61 62 C-60.34 62 -59.68 62 -59 62 C-59.061875 61.360625 -59.12375 60.72125 -59.1875 60.0625 C-58.85161929 54.57644839 -57.03822491 49.55733736 -54 45 C-53.34 45 -52.68 45 -52 45 C-52 44.01 -52 43.02 -52 42 C-51.34 42 -50.68 42 -50 42 C-50 41.01 -50 40.02 -50 39 C-49.34 39 -48.68 39 -48 39 C-46.92474806 36.34771188 -45.90543849 33.71631546 -45 31 C-44.34 31 -43.68 31 -43 31 C-43 30.34 -43 29.68 -43 29 C-42.34 29 -41.68 29 -41 29 C-41 28.34 -41 27.68 -41 27 C-40.34 27 -39.68 27 -39 27 C-39 26.34 -39 25.68 -39 25 C-38.34 25 -37.68 25 -37 25 C-36.67 23.68 -36.34 22.36 -36 21 C-35.34 21 -34.68 21 -34 21 C-34 20.34 -34 19.68 -34 19 C-32.68 19 -31.36 19 -30 19 C-30 18.34 -30 17.68 -30 17 C-29.34 17 -28.68 17 -28 17 C-28 16.34 -28 15.68 -28 15 C-26.35 14.34 -24.7 13.68 -23 13 C-23 12.34 -23 11.68 -23 11 C-21.68 11 -20.36 11 -19 11 C-19 10.34 -19 9.68 -19 9 C-18.01 9 -17.02 9 -16 9 C-16 8.34 -16 7.68 -16 7 C-14.68 7 -13.36 7 -12 7 C-12 6.34 -12 5.68 -12 5 C-8.17679443 3.57741188 -5.08718695 2.75957724 -1 3 C-0.67 2.01 -0.34 1.02 0 0 Z " fill="#414042" transform="translate(186,32)"/>
<path d="M0 0 C0.33 0 0.66 0 1 0 C1 22.77 1 45.54 1 69 C0.67 69 0.34 69 0 69 C0 46.23 0 23.46 0 0 Z " fill="#414042" transform="translate(81,352)"/>
</svg>
