<?xml version="1.0" encoding="UTF-8"?>
<svg version="1.1" xmlns="http://www.w3.org/2000/svg" width="512" height="512">
<path d="M0 0 C6.23710462 3.58008192 10.2311476 8.47027938 14.25 14.3125 C15.24523336 15.75303649 16.25007642 17.18699379 17.265625 18.61328125 C17.69649414 19.24016846 18.12736328 19.86705566 18.57128906 20.51293945 C20.38115148 22.39671799 21.39849371 22.80384637 24 23 C26.31877565 22.24264644 26.31877565 22.24264644 28.66796875 20.9453125 C29.56193359 20.49542969 30.45589844 20.04554687 31.37695312 19.58203125 C33.2320657 18.62031201 35.08625336 17.65680627 36.93945312 16.69140625 C42.49373959 13.90034748 47.66418991 11.6316206 54 12 C59.5234267 13.9220452 62.09195707 16.9022355 65 22 C66.06210167 25.09987531 66.82173092 28.24745405 67.5625 31.4375 C68.94388726 37.24115011 70.48309269 42.57953005 73 48 C73.7206665 48.01458252 74.44133301 48.02916504 75.18383789 48.04418945 C78.47724087 48.11906959 81.76967436 48.21559841 85.0625 48.3125 C86.19623047 48.33505859 87.32996094 48.35761719 88.49804688 48.38085938 C95.44218638 48.60355773 101.2250008 48.82595359 106.7421875 53.46484375 C110.94883418 58.93348444 111.61439553 63.18020959 111 70 C110.29248613 73.72678816 109.50319891 77.42353441 108.65625 81.12109375 C107.91866769 85.48073202 107.86357673 89.59466522 108 94 C108.57967529 94.27674561 109.15935059 94.55349121 109.7565918 94.83862305 C112.40555526 96.1108139 115.04645254 97.39896127 117.6875 98.6875 C118.59951172 99.12255859 119.51152344 99.55761719 120.45117188 100.00585938 C125.43476539 102.45235074 129.3575045 104.68890112 133 109 C133.5878125 109.66773438 134.175625 110.33546875 134.78125 111.0234375 C137.10948958 114.79936451 136.63383114 118.73548562 136 123 C133.63496945 130.27789595 128.99547993 135.69201776 123.890625 141.26171875 C121.47241004 144.76413339 120.85884957 146.72906128 121 151 C122.52576954 153.9575361 124.55048881 156.39903425 126.6875 158.9375 C137.07930218 171.64680967 137.07930218 171.64680967 137.5 179.125 C136.62158187 185.93274047 132.74870051 189.49942069 127.78125 193.80078125 C125.79015039 195.14128033 124.39230468 195.7660221 122 196 C120.51266595 194.81013276 119.03081814 193.61111411 117.60546875 192.34765625 C111.80297627 187.47695088 105.69926748 187.47756488 98.3828125 187.6484375 C91.2317219 188.39162244 86.64626003 191.5793633 82 197 C77.04532471 203.51185896 75.83981127 209.77903855 75.34375 217.765625 C75 220 75 220 73 223 C70.94042969 223.38476562 70.94042969 223.38476562 68.421875 223.40625 C67.50792969 223.42816406 66.59398437 223.45007813 65.65234375 223.47265625 C64.69457031 223.48167969 63.73679687 223.49070312 62.75 223.5 C54.85931102 223.57556063 49.53413196 223.95900273 43.3125 229.3125 C37.59088323 235.96194652 36.85794195 242.24721099 36.68359375 250.703125 C36.6524221 251.95980988 36.6524221 251.95980988 36.62062073 253.24188232 C36.5553745 255.91117356 36.49635642 258.58056098 36.4375 261.25 C36.39429106 263.06250984 36.35067601 264.87501005 36.30664062 266.6875 C36.19971871 271.12490209 36.09838134 275.56240068 36 280 C34.27690125 279.24036662 32.55380249 278.48073324 30.83070374 277.72109985 C27.86536021 276.55307428 26.13451809 276.29045529 23 277 C20.62583275 279.26998901 18.87843036 281.89991134 17.0625 284.625 C12.48135755 291.33591861 7.74214368 297.78899009 0 301 C-6.49570952 300.75941817 -10.39160461 298.66719119 -14.90625 294.05078125 C-19.03477124 289.50146842 -22.78617378 284.74554345 -26.359375 279.75 C-28.288988 277.69174613 -29.24077307 277.38202728 -32 277 C-34.69583757 278.15535896 -37.18307179 279.35679733 -39.75 280.75 C-55.16973328 288.95822304 -55.16973328 288.95822304 -62.046875 287.69921875 C-67.05128776 285.90763898 -70.17181654 282.63529354 -72.53515625 277.96875 C-74.46633649 273.17597516 -75.50549538 268.15586025 -76.625 263.125 C-77.05151858 261.2310544 -77.4810399 259.33778164 -77.9140625 257.4453125 C-78.0992041 256.61531738 -78.2843457 255.78532227 -78.47509766 254.93017578 C-78.82611713 253.0082926 -78.82611713 253.0082926 -80 252 C-81.75892368 251.87840934 -83.52231165 251.82029879 -85.28515625 251.7890625 C-86.37376953 251.76070312 -87.46238281 251.73234375 -88.58398438 251.703125 C-90.87550075 251.65165916 -93.16718719 251.6072132 -95.45898438 251.5703125 C-109.99352969 251.16064828 -109.99352969 251.16064828 -115.4375 245.4375 C-119.66204658 238.84720734 -118.64552222 230.67797543 -117.328125 223.171875 C-116.79922428 220.82674917 -116.24443686 218.48721275 -115.65625 216.15625 C-114.70694469 211.59795242 -114.70694469 211.59795242 -115 207 C-118.56421869 203.95370684 -122.68935288 202.12016806 -126.91381836 200.15893555 C-133.66287488 197.01622099 -138.84715481 194.41803347 -143 188 C-144.78864266 182.63407201 -144.47893223 178.47242367 -142.125 173.375 C-139.4626793 168.34275221 -136.054974 163.97737312 -132.39111328 159.64208984 C-129.52985139 156.15080533 -127.82323112 153.57831387 -128 149 C-129.62636943 146.4591701 -131.1555214 144.42401081 -133.125 142.1875 C-134.14856606 140.94994066 -135.16813419 139.70906337 -136.18359375 138.46484375 C-136.91811768 137.57128174 -136.91811768 137.57128174 -137.66748047 136.65966797 C-142.32288474 130.86130992 -144.87298221 125.83454978 -144.40625 118.28515625 C-143.44284449 112.86600026 -140.37988471 110.08625657 -136.0625 107.0625 C-131.10537531 103.93124957 -125.92272449 101.21601132 -120.72265625 98.515625 C-117.95534754 97.13794855 -117.95534754 97.13794855 -116 95 C-116.26301398 89.6520491 -117.27420261 84.75249807 -118.5625 79.5625 C-120.20548981 72.63442472 -121.21349309 66.44887511 -118.8125 59.625 C-115.68891247 55.10118357 -112.15658173 52.73628198 -107 51 C-104.0456543 50.68115234 -104.0456543 50.68115234 -100.82421875 50.5859375 C-99.08881836 50.52792969 -99.08881836 50.52792969 -97.31835938 50.46875 C-96.12017578 50.4378125 -94.92199219 50.406875 -93.6875 50.375 C-92.46998047 50.33632812 -91.25246094 50.29765625 -89.99804688 50.2578125 C-86.99884772 50.16371998 -83.99965177 50.07807791 -81 50 C-80.74605469 48.73285156 -80.49210937 47.46570313 -80.23046875 46.16015625 C-79.88310252 44.46087819 -79.53542983 42.76166275 -79.1875 41.0625 C-79.02185547 40.23169922 -78.85621094 39.40089844 -78.68554688 38.54492188 C-77.02153307 30.47602476 -75.26148538 22.53699698 -70 16 C-65.118507 13.04214619 -60.5301508 12.9596746 -55 14 C-50.74701727 15.6585271 -46.68261225 17.68686064 -42.63842773 19.7980957 C-41.85282471 20.20503662 -41.06722168 20.61197754 -40.2578125 21.03125 C-39.5580127 21.40830078 -38.85821289 21.78535156 -38.13720703 22.17382812 C-35.57862484 23.16288937 -33.7215454 23.29103393 -31 23 C-28.66265078 20.90438322 -28.66265078 20.90438322 -26.625 18.0625 C-25.84898437 17.06347656 -25.07296875 16.06445312 -24.2734375 15.03515625 C-22.86022661 13.14844687 -21.44849291 11.26062894 -20.0390625 9.37109375 C-14.60988051 2.17564949 -9.5491937 -2.36392627 0 0 Z M-57 93 C-57.65613281 93.63421875 -58.31226563 94.2684375 -58.98828125 94.921875 C-70.75177137 107.14508772 -78.594888 126.07210577 -79 143 C-79.03867188 144.05316406 -79.07734375 145.10632813 -79.1171875 146.19140625 C-79.53778848 167.47848941 -73.78737852 188.09832813 -59.625 204.3125 C-58.10293547 205.89410107 -56.56125968 207.45707726 -55 209 C-54.25234375 209.76957031 -53.5046875 210.53914062 -52.734375 211.33203125 C-38.26760592 225.39162306 -20.25239345 230.66190406 -0.42016602 230.47094727 C20.22279931 229.82718865 37.41215829 220.06764449 51.625 205.4375 C68.61534827 185.73722163 72.36231778 162.25167247 71 137 C69.06055545 118.7536774 58.05343497 98.72428095 44 87 C36.51310915 81.27297592 28.89415597 76.28697068 20 73 C19.17242187 72.68160156 18.34484375 72.36320312 17.4921875 72.03515625 C-9.91377686 63.36592262 -37.53828632 73.33705737 -57 93 Z " fill="#414042" transform="translate(243,64)"/>
<path d="M0 0 C5.9999383 4.93328261 9.32037323 9.66238974 10.8125 17.3125 C11.03143953 20.99639552 10.99844319 24.62807013 10.8125 28.3125 C11.8025 28.24289062 12.7925 28.17328125 13.8125 28.1015625 C20.96175466 27.74952958 26.62413516 27.56723606 32.296875 32.51171875 C36.66748258 37.70463137 37.27632295 41.41936422 37.10546875 48.06640625 C36.63006101 53.33392401 35.25165644 58.23963636 33.8125 63.3125 C33.26518887 65.54028754 32.7233644 67.76943143 32.1875 70 C30.93557692 75.18942308 30.93557692 75.18942308 29.8125 76.3125 C29.56806535 77.68486805 29.34204704 79.06053488 29.125 80.4375 C28.02685593 85.50834174 25.91825433 89.0978526 21.8125 92.3125 C16.34800599 95.11060261 12.08317127 95.74775609 5.9921875 95.67578125 C5.17050079 95.67627975 4.34881409 95.67677826 3.50222778 95.67729187 C1.77603724 95.67496414 0.04984246 95.66531303 -1.67626953 95.64868164 C-4.31183285 95.62500599 -6.94638792 95.62814094 -9.58203125 95.63476562 C-11.265631 95.62919053 -12.94922652 95.6220817 -14.6328125 95.61328125 C-15.41625031 95.61419266 -16.19968811 95.61510406 -17.00686646 95.61604309 C-21.1920045 95.56197442 -24.4051921 95.11269709 -28.1875 93.3125 C-31.53401176 92.88873315 -34.95540667 92.62919933 -37.9765625 94.3046875 C-43.39930265 96.77653725 -51.91818551 96.23609446 -57.62109375 94.625 C-61.86711202 92.4335067 -63.48933197 89.63180002 -65.1875 85.3125 C-65.61690289 82.13307864 -65.63196108 78.99012488 -65.62109375 75.78515625 C-65.6263356 74.87801376 -65.63157745 73.97087128 -65.63697815 73.03623962 C-65.64338061 71.1241864 -65.64208443 69.2120937 -65.63354492 67.30004883 C-65.62503641 64.38746446 -65.65381827 61.47684399 -65.68554688 58.56445312 C-65.68715923 56.70052142 -65.6865807 54.83658626 -65.68359375 52.97265625 C-65.69482773 52.10890884 -65.70606171 51.24516144 -65.71763611 50.35523987 C-65.65099267 44.5229197 -64.58322008 41.09196248 -61.1875 36.3125 C-56.72639456 33.23414954 -53.09345214 32.9531151 -47.75 33.0625 C-46.49316406 33.07796875 -45.23632812 33.0934375 -43.94140625 33.109375 C-40.2820523 33.30738375 -36.80146927 33.73426492 -33.1875 34.3125 C-29.11287675 28.149312 -26.89630335 23.03891654 -26.25 15.625 C-25.62950576 9.52554163 -24.5866691 6.01556016 -20.109375 1.76953125 C-13.47222672 -3.26229051 -7.36553193 -3.89939926 0 0 Z M-12.1875 11.3125 C-14.50608409 14.79037613 -14.27039655 15.81825007 -14.1875 19.875 C-14.57430485 26.46555957 -16.75572529 31.25659778 -19.9375 37 C-20.36804688 37.79027588 -20.79859375 38.58055176 -21.2421875 39.39477539 C-24.02018585 44.16842038 -24.64567864 45.09577146 -30.1875 47.3125 C-30.1875 57.5425 -30.1875 67.7725 -30.1875 78.3125 C-24.4511036 81.0362449 -24.4511036 81.0362449 -18.9362793 81.68481445 C-18.18247482 81.69104324 -17.42867035 81.69727203 -16.65202332 81.70368958 C-15.86322281 81.69447983 -15.0744223 81.68527008 -14.26171875 81.67578125 C-13.43291702 81.67627975 -12.6041153 81.67677826 -11.75019836 81.67729187 C-10.0114195 81.67496479 -8.27263639 81.66531761 -6.53393555 81.64868164 C-3.86541965 81.62491467 -1.19789298 81.62815231 1.47070312 81.63476562 C3.16406848 81.62919386 4.85742963 81.62208715 6.55078125 81.61328125 C7.34970291 81.61419266 8.14862457 81.61510406 8.97175598 81.61604309 C13.36035308 81.72921848 13.36035308 81.72921848 16.8125 79.3125 C16.83625926 77.3193433 16.83625926 77.3193433 16.4375 75.1875 C16.23125 73.90875 16.025 72.63 15.8125 71.3125 C17.1325 70.6525 18.4525 69.9925 19.8125 69.3125 C20.04678313 64.5227679 20.04678313 64.5227679 17.8125 60.3125 C19.7925 59.8175 19.7925 59.8175 21.8125 59.3125 C22.81467064 55.72922247 22.81467064 55.72922247 21.8125 52.3125 C21.1525 52.3125 20.4925 52.3125 19.8125 52.3125 C19.8125 51.6525 19.8125 50.9925 19.8125 50.3125 C21.7925 49.8175 21.7925 49.8175 23.8125 49.3125 C24.49051034 46.41176819 24.49051034 46.41176819 24.8125 43.3125 C22.95160279 41.01988003 22.95160279 41.01988003 20.01513672 41.08544922 C18.85256348 41.09592285 17.68999023 41.10639648 16.4921875 41.1171875 C15.23535156 41.12363281 13.97851562 41.13007813 12.68359375 41.13671875 C10.70552734 41.16185547 10.70552734 41.16185547 8.6875 41.1875 C7.34766279 41.19753017 6.00781848 41.20665596 4.66796875 41.21484375 C1.38263427 41.23847925 -1.90234465 41.27142766 -5.1875 41.3125 C-4.71054687 40.11625 -4.23359375 38.92 -3.7421875 37.6875 C-1.2164944 30.92851918 -0.01563218 23.6235523 -2.5 16.6875 C-3.95362321 13.33555827 -3.95362321 13.33555827 -6.1875 11.3125 C-9.1875 10.89583333 -9.1875 10.89583333 -12.1875 11.3125 Z " fill="#414042" transform="translate(354.1875,263.6875)"/>
<path d="M0 0 C0.66 0 1.32 0 2 0 C2.53469802 1.72492978 3.05219175 3.455198 3.5625 5.1875 C3.85253906 6.15042969 4.14257812 7.11335938 4.44140625 8.10546875 C5.06944638 11.3598585 5.15675619 12.89328337 4 16 C2.21867988 18.47660089 0.18719132 20.69311877 -1.875 22.9375 C-3.07170051 24.27624602 -4.26566232 25.61744463 -5.45703125 26.9609375 C-6.05596191 27.63608398 -6.65489258 28.31123047 -7.27197266 29.00683594 C-9.81499668 31.9400442 -12.19536048 34.98683486 -14.5625 38.0625 C-20.12273977 45.2614388 -26.02757991 52.14161881 -32 59 C-22.43636367 57.56728172 -13.17573213 55.40045873 -3.828125 52.94726562 C-2.77367187 52.68236328 -1.71921875 52.41746094 -0.6328125 52.14453125 C0.30675293 51.90065674 1.24631836 51.65678223 2.21435547 51.40551758 C5.42517212 50.93810597 7.86026426 51.21133421 11 52 C14.00223499 55.00223499 13.46823526 58.46597597 13.6328125 62.5078125 C13.67437469 63.34843231 13.71593689 64.18905212 13.75875854 65.05514526 C13.88969646 67.74475934 14.00749125 70.43476896 14.125 73.125 C14.21137579 74.94665575 14.29860456 76.76827126 14.38671875 78.58984375 C14.60105273 83.05948885 14.80360003 87.52953241 15 92 C21.63015688 82.9203069 28.18672963 73.80366513 34.5 64.5 C40.34147228 55.89758869 46.34709966 47.42167256 52.50341797 39.04150391 C53.55835707 37.60244994 54.60335996 36.15608593 55.64111328 34.70458984 C56.17333496 33.97062988 56.70555664 33.23666992 57.25390625 32.48046875 C57.73287354 31.81297607 58.21184082 31.1454834 58.70532227 30.45776367 C59.34618774 29.73617065 59.34618774 29.73617065 60 29 C60.66 29 61.32 29 62 29 C63.68732277 30.98260426 65.35366057 32.9832342 67 35 C67.66 35.33 68.32 35.66 69 36 C68.39345004 39.11651555 67.40802726 41.12304178 65.515625 43.66015625 C64.7412207 44.71203125 64.7412207 44.71203125 63.95117188 45.78515625 C63.38978516 46.53667969 62.82839844 47.28820312 62.25 48.0625 C57.54327986 54.46322241 52.95391229 60.92083614 48.5 67.5 C43.72584923 74.53350773 38.83235959 81.46542916 33.82666016 88.3359375 C31.05397883 92.14425962 28.31131849 95.96878798 25.62109375 99.8359375 C25.07590088 100.6182373 24.53070801 101.40053711 23.96899414 102.20654297 C22.93112431 103.69984197 21.89752794 105.19612315 20.86889648 106.69580078 C20.40427002 107.36337402 19.93964355 108.03094727 19.4609375 108.71875 C19.05665527 109.30591797 18.65237305 109.89308594 18.23583984 110.49804688 C17 112 17 112 14 114 C6.90829694 114.67540029 6.90829694 114.67540029 3.5625 112.1875 C1.34379424 109.08131194 0.87503949 106.61216455 0.88647461 102.89575195 C0.88655014 102.07512772 0.88662567 101.25450348 0.88670349 100.40901184 C0.89186478 99.52767075 0.89702606 98.64632965 0.90234375 97.73828125 C0.9037587 96.83248825 0.90517365 95.92669525 0.90663147 94.99345398 C0.91222999 92.09976909 0.92478219 89.20616151 0.9375 86.3125 C0.94251519 84.35091258 0.94707807 82.38932394 0.95117188 80.42773438 C0.96219893 75.61845979 0.97946253 70.809243 1 66 C-0.80803101 66.46224976 -0.80803101 66.46224976 -2.65258789 66.93383789 C-7.14266514 68.0781308 -11.63690305 69.20527391 -16.13256836 70.32739258 C-18.0744939 70.81461346 -20.01527416 71.3064237 -21.95483398 71.80297852 C-24.74952417 72.51759922 -27.54797264 73.21539193 -30.34765625 73.91015625 C-31.63870018 74.24600487 -31.63870018 74.24600487 -32.95582581 74.58863831 C-37.965087 75.81165802 -41.8742547 76.23243086 -47 75 C-50.20778162 72.80520205 -50.89134076 71.36672494 -52 67.625 C-52 61.12218201 -47.04159533 56.71713075 -42.9375 52 C-39.0412101 47.46501696 -35.28161693 42.85500878 -31.625 38.125 C-27.17484447 32.38547954 -22.49879021 26.88070761 -17.71557617 21.41699219 C-12.24765957 15.16653699 -6.88971146 8.82101811 -1.87890625 2.1953125 C-1.25886719 1.47085937 -0.63882813 0.74640625 0 0 Z " fill="#414042" transform="translate(156,334)"/>
<path d="M0 0 C0.66 0 1.32 0 2 0 C3.71159887 2.27906445 5.30399013 4.56357219 6.875 6.9375 C7.87266852 8.41736117 8.87140146 9.8965052 9.87109375 11.375 C10.38784668 12.14199219 10.90459961 12.90898437 11.43701172 13.69921875 C13.89092381 17.31147547 16.41169867 20.87530213 18.9375 24.4375 C19.43338623 25.13834717 19.92927246 25.83919434 20.44018555 26.5612793 C21.44998017 27.98822323 22.46015364 29.41489914 23.47070312 30.84130859 C26.0454846 34.47576226 28.61691249 38.11257933 31.1875 41.75 C31.86317017 42.70410767 31.86317017 42.70410767 32.55249023 43.67749023 C37.08192822 50.0857582 41.53930075 56.54380598 46 63 C46.00410889 61.90534424 46.00821777 60.81068848 46.01245117 59.68286133 C46.03427052 55.61028355 46.08858831 51.53866809 46.15258789 47.46655273 C46.17574364 45.70623009 46.19015794 43.94576939 46.19555664 42.18530273 C46.20486442 39.65000621 46.24589048 37.11687372 46.29296875 34.58203125 C46.2890361 33.79850784 46.28510345 33.01498444 46.28105164 32.2077179 C46.39014215 28.09586409 46.72924118 26.37566328 49.20922852 22.93481445 C52 21 52 21 54.57714844 20.82177734 C55.95435059 21.13816162 55.95435059 21.13816162 57.359375 21.4609375 C58.41060547 21.6887793 59.46183594 21.91662109 60.54492188 22.15136719 C61.68509766 22.43141602 62.82527344 22.71146484 64 23 C65.21751953 23.2774707 66.43503906 23.55494141 67.68945312 23.84082031 C71.55171778 24.73491782 75.40168428 25.67325567 79.25 26.625 C80.59234967 26.95352669 81.93479717 27.28165393 83.27734375 27.609375 C86.51920787 28.40234896 89.76003945 29.19929067 93 30 C88.95111556 24.45910337 84.68263416 19.37338528 79.953125 14.39453125 C77.99078301 11.98869997 76.9776353 9.9277057 76 7 C88.78819944 5.48361271 88.78819944 5.48361271 93.68359375 8.83984375 C95.99582833 11.44883571 97.99883163 14.14606102 100 17 C101.61353587 18.96778974 103.23842881 20.9263263 104.875 22.875 C106.25879123 24.57622004 107.6347609 26.28385607 109 28 C109.56847656 28.67417969 110.13695312 29.34835937 110.72265625 30.04296875 C112.64371904 32.98624844 112.60519534 35.36122156 112.46875 38.80078125 C111.82948044 41.80002095 110.39676449 43.56731167 107.85620117 45.265625 C99.64744038 48.51328414 85.64803119 42.36988478 77.25830078 40.28759766 C74.978505 39.72393012 72.69649032 39.17008392 70.4140625 38.6171875 C69.71407135 38.44017303 69.0140802 38.26315857 68.2928772 38.08078003 C64.9950581 37.28590799 63.2871919 36.90426937 60 38 C59.98541748 39.18553467 59.97083496 40.37106934 59.95581055 41.5925293 C59.89774062 46.00038477 59.82050816 50.40773404 59.73754883 54.81518555 C59.70434038 56.72102631 59.67629575 58.62696446 59.65356445 60.53295898 C59.61994332 63.27630015 59.56762405 66.01875222 59.51171875 68.76171875 C59.50532883 69.61086349 59.4989389 70.46000824 59.49235535 71.33488464 C59.37659183 76.01622454 59.04606015 79.20421225 56 83 C52.68194318 84.65902841 49.54430171 84.88364449 46 84 C40.52920003 79.29799792 36.49068669 72.66261405 32.4375 66.75 C31.20975395 64.97778246 29.98188586 63.20564946 28.75390625 61.43359375 C28.13273926 60.53366699 27.51157227 59.63374023 26.87158203 58.70654297 C23.89075701 54.39589515 20.88255149 50.10452225 17.875 45.8125 C17.2987085 44.9887085 16.72241699 44.16491699 16.12866211 43.31616211 C12.27005257 37.80238493 8.38896788 32.30488921 4.5 26.8125 C0.57520973 21.26763002 -3.29882101 15.69786766 -7 10 C-5.15014033 6.06048404 -2.92434659 3.21678125 0 0 Z " fill="#414042" transform="translate(262,364)"/>
<path d="M0 0 C3 1 3 1 4.02050781 2.99365234 C4.32827148 3.84910645 4.63603516 4.70456055 4.953125 5.5859375 C8.32918489 15.46658404 8.32918489 15.46658404 14.77148438 23.26855469 C19.04276976 24.99358269 23.45664709 25.0048592 28 25 C29.98113427 25.21148304 31.96079887 25.43795901 33.9375 25.6875 C35.29102115 25.79974322 36.64498368 25.90754006 38 26 C38 29 38 29 35.8125 31.375 C34.884375 32.24125 33.95625 33.1075 33 34 C31.6696875 35.3921875 31.6696875 35.3921875 30.3125 36.8125 C28 39 28 39 26 39 C25.731875 39.598125 25.46375 40.19625 25.1875 40.8125 C24 43 24 43 22.40307617 44.34228516 C20.77497364 45.91679163 20.77497364 45.91679163 20.93481445 48.18896484 C21.14690552 49.43734131 21.14690552 49.43734131 21.36328125 50.7109375 C21.50830078 51.62617188 21.65332031 52.54140625 21.80273438 53.484375 C21.97095703 54.43828125 22.13917969 55.3921875 22.3125 56.375 C22.62408296 58.25732013 22.93277152 60.14012212 23.23828125 62.0234375 C23.38305908 62.85794434 23.52783691 63.69245117 23.67700195 64.55224609 C24.00840445 67.06369087 24.05502775 69.46985246 24 72 C18.5205808 70.42372872 14.02417999 67.75087527 9.29882812 64.65820312 C6.13968218 62.73052936 4.15990271 61.99772318 0.43359375 62.05078125 C-3.18623728 63.05148539 -5.82903839 64.37628217 -9 66.375 C-13.24698309 69.02936443 -17.37619393 71.11579902 -22 73 C-21.52200865 69.62483247 -21.0423961 66.24989719 -20.5625 62.875 C-20.42779297 61.92367187 -20.29308594 60.97234375 -20.15429688 59.9921875 C-20.02216797 59.0640625 -19.89003906 58.1359375 -19.75390625 57.1796875 C-19.63345947 56.33132324 -19.5130127 55.48295898 -19.38891602 54.60888672 C-19 52 -19 52 -18.21289062 48.95458984 C-17.6924435 45.95016751 -17.6924435 45.95016751 -19.53881836 43.69824219 C-20.29815674 42.98829102 -21.05749512 42.27833984 -21.83984375 41.546875 C-22.65517578 40.763125 -23.47050781 39.979375 -24.31054688 39.171875 C-25.17744141 38.37265625 -26.04433594 37.5734375 -26.9375 36.75 C-28.63800866 35.14474014 -30.33483592 33.53556834 -32.02734375 31.921875 C-32.78781006 31.21643555 -33.54827637 30.51099609 -34.33178711 29.78417969 C-36 28 -36 28 -36 26 C-18.14350797 23.88838269 -18.14350797 23.88838269 -10 23 C-9.75507813 22.19304687 -9.51015625 21.38609375 -9.2578125 20.5546875 C-7.73868763 16.26150851 -5.84272902 12.22733258 -3.875 8.125 C-3.50246094 7.34125 -3.12992188 6.5575 -2.74609375 5.75 C-1.83381003 3.83186501 -0.91733016 1.91572671 0 0 Z " fill="#414042" transform="translate(238,178)"/>
</svg>
