<?xml version="1.0" encoding="UTF-8"?>
<svg version="1.1" xmlns="http://www.w3.org/2000/svg" width="96" height="234">
<path d="M0 0 C2.50593536 1.9511575 4.90308748 3.97779321 7.28125 6.08203125 C8.21904297 6.86126953 8.21904297 6.86126953 9.17578125 7.65625 C20.4265103 17.73873179 27.04318685 34.65433753 27.88095093 49.56126404 C27.96775995 52.49756172 27.97518531 55.42659639 27.93310547 58.36376953 C27.90624083 60.58278886 27.93305478 62.79675493 27.96484375 65.015625 C28.03368 93.67820878 11.6541922 112.79644683 -7.5697937 132.11672974 C-13.56219293 138.12489547 -19.56105615 144.0503295 -26.00073242 149.58007812 C-28.35511086 151.63836094 -30.53784411 153.84218196 -32.71875 156.08203125 C-36.23981323 159.64603427 -39.85061008 162.98507293 -43.65625 166.23828125 C-46.99816441 169.2257502 -50.09699135 172.45258471 -53.24609375 175.640625 C-56.60108145 178.95321159 -60.13500948 182.02228412 -63.71875 185.08203125 C-64.04875 185.41203125 -64.37875 185.74203125 -64.71875 186.08203125 C-19.17875 186.57703125 -19.17875 186.57703125 27.28125 187.08203125 C27.28125 198.63203125 27.28125 210.18203125 27.28125 222.08203125 C-4.06875 222.08203125 -35.41875 222.08203125 -67.71875 222.08203125 C-68.069375 208.05703125 -68.42 194.03203125 -68.78125 179.58203125 C-68.93601807 175.18568359 -69.09078613 170.78933594 -69.25024414 166.25976562 C-69.89101603 135.04856793 -69.89101603 135.04856793 -61.90318298 126.71447754 C-59.03547577 124.3421836 -56.07721717 122.37315367 -52.85812378 120.51220703 C-49.77264475 118.44955794 -47.62446405 115.82808625 -45.31044006 112.95446777 C-43.64905952 111.00004858 -41.87645869 109.40744977 -39.90625 107.76953125 C-26.43302309 96.17628949 -17.11245273 82.11831709 -15.44140625 64.08984375 C-15.08176742 53.01296764 -17.30223639 42.58124757 -24.71875 34.08203125 C-30.96885867 29.00381795 -37.19751817 27.68961522 -45.03125 27.70703125 C-45.7830957 27.70864258 -46.53494141 27.71025391 -47.30957031 27.71191406 C-56.05917935 27.90500366 -60.9186614 30.64196037 -67.71875 36.08203125 C-67.71875 21.56203125 -67.71875 7.04203125 -67.71875 -7.91796875 C-45.96659235 -16.61883181 -19.15216627 -13.51108281 0 0 Z " fill="#FAD029" transform="translate(68.71875,11.91796875)"/>
</svg>
