<?xml version="1.0" encoding="UTF-8"?>
<svg version="1.1" xmlns="http://www.w3.org/2000/svg" width="121" height="242">
<path d="M0 0 C14.19 0 28.38 0 43 0 C43 47.85 43 95.7 43 145 C45.97 144.67 48.94 144.34 52 144 C54.84493763 143.9130145 57.65750767 143.85891042 60.5 143.875 C61.21414062 143.87113281 61.92828125 143.86726562 62.6640625 143.86328125 C67.87318452 143.87318452 67.87318452 143.87318452 69 145 C69.08855161 147.6662603 69.11524673 150.30647114 69.09765625 152.97265625 C69.0962413 153.77029892 69.09482635 154.56794159 69.09336853 155.38975525 C69.08775316 157.94737435 69.07519812 160.50490718 69.0625 163.0625 C69.05748698 164.79231645 69.05292373 166.52213426 69.04882812 168.25195312 C69.03862791 172.50136239 69.01905568 176.75058416 69 181 C60.42 181 51.84 181 43 181 C43 197.17 43 213.34 43 230 C29.47 230 15.94 230 2 230 C2 214.16 2 198.32 2 182 C-15.82 181.67 -33.64 181.34 -52 181 C-52.40108809 158.76189349 -52.40108809 158.76189349 -52.48828125 149.17578125 C-52.5477291 142.67119282 -52.61752329 136.16803105 -52.75439453 129.66455078 C-52.86422054 124.41238837 -52.92308238 119.16175831 -52.94877243 113.908535 C-52.96704399 111.91916695 -53.00271752 109.92986897 -53.05730057 107.94116592 C-53.42490095 93.9737042 -51.064332 84.60781077 -43.27926254 72.9343071 C-41.25789408 69.87789981 -39.42499108 66.71784911 -37.5625 63.5625 C-36.82306803 62.33896419 -36.0823406 61.11620958 -35.33984375 59.89453125 C-32.71303393 55.54489264 -30.16638664 51.14994598 -27.625 46.75 C-27.16359619 45.95158691 -26.70219238 45.15317383 -26.22680664 44.33056641 C-23.89367556 40.28960443 -21.56630783 36.24536854 -19.2421875 32.19921875 C-18.78247559 31.4009668 -18.32276367 30.60271484 -17.84912109 29.78027344 C-17.00362907 28.31206109 -16.15992088 26.84281845 -15.31884766 25.37207031 C-10.38238617 16.8055684 -5.16107615 8.44539733 0 0 Z M2 65 C-1.17120296 70.78991384 -4.32249757 76.58978831 -7.4375 82.41015625 C-8.02273437 83.50263672 -8.60796875 84.59511719 -9.2109375 85.72070312 C-10.40527154 87.95160438 -11.59797609 90.18337876 -12.7890625 92.41601562 C-15.41481368 97.31182702 -18.06144696 102.16962974 -20.953125 106.9140625 C-24.43659426 112.63946574 -27.59742788 118.53211416 -30.75146484 124.44262695 C-31.75885023 126.32907308 -32.77176733 128.21247653 -33.78515625 130.09570312 C-34.43522592 131.30971914 -35.0849772 132.52390571 -35.734375 133.73828125 C-36.31413086 134.82149658 -36.89388672 135.90471191 -37.49121094 137.02075195 C-39.19879102 140.28392504 -39.19879102 140.28392504 -41 145 C-26.48 145 -11.96 145 3 145 C3 118.6 3 92.2 3 65 C2.67 65 2.34 65 2 65 Z " fill="#F7CE2B" transform="translate(52,4)"/>
</svg>
