<?xml version="1.0" encoding="UTF-8"?>
<svg version="1.1" xmlns="http://www.w3.org/2000/svg" width="110" height="234">
<path d="M0 0 C1.02221649 -0.01929062 2.04443298 -0.03858124 3.09762573 -0.05845642 C7.8096768 -0.1163787 12.52157351 -0.16555659 17.23388672 -0.19628906 C19.7089643 -0.21778197 22.1839677 -0.25177952 24.65869141 -0.29882812 C28.24041467 -0.36628551 31.82056049 -0.39337283 35.40283203 -0.41235352 C37.03948318 -0.4540995 37.03948318 -0.4540995 38.709198 -0.49668884 C51.56493234 -0.46283953 61.35890946 6.37097487 71.09814453 14.20874023 C71.74525391 14.72823242 72.39236328 15.24772461 73.05908203 15.78295898 C82.6140203 24.36510942 89.43102905 38.90584913 90.25927734 51.69726562 C90.77848882 83.95780655 90.77848882 83.95780655 79.17626953 96.24389648 C74.73804014 100.29507099 69.33094494 105.20874023 63.09814453 105.20874023 C63.09814453 105.86874023 63.09814453 106.52874023 63.09814453 107.20874023 C63.82001953 107.31573242 64.54189453 107.42272461 65.28564453 107.53295898 C68.33829516 108.26644309 70.4332012 109.37647052 73.09814453 111.02124023 C73.92314453 111.52268555 74.74814453 112.02413086 75.59814453 112.54077148 C85.7075692 119.28565326 92.51655323 129.63252549 96.09814453 141.20874023 C96.27104004 141.75216064 96.44393555 142.29558105 96.62207031 142.85546875 C97.75577001 148.45943358 97.40615692 154.41805402 97.44824219 160.12231445 C97.46466411 161.74550858 97.49176807 163.36863464 97.53027344 164.99145508 C97.97774536 183.99928424 92.59520407 198.87724823 79.35986328 212.90014648 C78.2403125 214.04290039 78.2403125 214.04290039 77.09814453 215.20874023 C76.50646484 215.83651367 75.91478516 216.46428711 75.30517578 217.11108398 C71.14791012 221.15822341 66.48017486 223.79058965 61.34814453 226.39624023 C60.40152954 226.87794678 60.40152954 226.87794678 59.43579102 227.36938477 C57.34749649 228.38276405 55.23554564 229.30356609 53.09814453 230.20874023 C52.28708252 230.57572021 51.47602051 230.9427002 50.64038086 231.32080078 C41.58963367 234.92811621 32.65240136 234.78511641 23.06030273 234.67529297 C20.27349085 234.64611298 17.48856234 234.65476455 14.70166016 234.66772461 C12.91063538 234.6614917 11.11961652 234.65310428 9.32861328 234.64233398 C8.50556198 234.64526962 7.68251068 234.64820526 6.83451843 234.65122986 C6.05292862 234.63854568 5.27133881 234.62586151 4.46606445 234.61279297 C3.7894426 234.60738998 3.11282074 234.601987 2.41569519 234.59642029 C0.09814453 234.20874023 0.09814453 234.20874023 -6.90185547 231.20874023 C-6.90185547 215.36874023 -6.90185547 199.52874023 -6.90185547 183.20874023 C-4.42685547 185.68374023 -4.42685547 185.68374023 -1.90185547 188.20874023 C7.65670667 195.2194075 17.33117866 197.42601257 29.09814453 196.20874023 C36.49584062 194.40561273 44.00086511 191.52015319 48.56298828 185.16967773 C54.91318913 174.457165 55.82630468 161.71876127 53.37548828 149.65014648 C51.30323206 142.92999574 49.0016904 137.45280767 42.67236328 133.81420898 C31.58750307 128.60927462 19.44705127 127.85720773 7.35595703 128.23608398 C5.09814453 128.20874023 5.09814453 128.20874023 3.09814453 127.20874023 C3.09814453 114.66874023 3.09814453 102.12874023 3.09814453 89.20874023 C9.03814453 88.87874023 14.97814453 88.54874023 21.09814453 88.20874023 C33.46064919 86.51131349 33.46064919 86.51131349 43.09814453 79.20874023 C45.95657889 73.62061515 46.56839339 68.41049956 46.47314453 62.20874023 C46.48474609 61.45334961 46.49634766 60.69795898 46.50830078 59.91967773 C46.47414495 53.29344625 45.12310844 47.75440915 40.91064453 42.45874023 C32.68584062 35.87889711 25.2686853 35.24045484 15.03759766 35.9855957 C9.10126508 36.66860275 4.87695973 39.0711138 0.78564453 43.33374023 C-2.46598866 47.49112083 -4.20698602 52.25373956 -5.90185547 57.20874023 C-6.23185547 57.20874023 -6.56185547 57.20874023 -6.90185547 57.20874023 C-6.90185547 38.72874023 -6.90185547 20.24874023 -6.90185547 1.20874023 C-4.43925448 -0.02256026 -2.75467795 0.04854567 0 0 Z " fill="#FAD029" transform="translate(8.90185546875,-0.208740234375)"/>
</svg>
