<svg xmlns="http://www.w3.org/2000/svg" width="512" height="512" viewBox="0 0 512 512" version="1.1"><path d="" stroke="none" fill="#144c94" fill-rule="evenodd"/><path d="M 6 0.597 C 6 0.925, 9.740 6.662, 14.311 13.347 C 18.882 20.031, 25.709 30, 29.480 35.500 C 33.252 41, 38.815 49.100, 41.842 53.500 C 44.869 57.900, 49.379 64.425, 51.863 68 C 54.348 71.575, 57.743 76.525, 59.408 79 C 61.073 81.475, 68.494 92.275, 75.898 103 C 83.303 113.725, 92.448 127, 96.220 132.500 C 99.993 138, 109.568 151.950, 117.498 163.500 C 125.428 175.050, 134.372 188.100, 137.373 192.500 C 140.374 196.900, 146.076 205.225, 150.043 211 C 154.010 216.775, 159.762 225.100, 162.823 229.500 C 165.885 233.900, 170.683 240.875, 173.486 245 C 176.288 249.125, 183.401 259.542, 189.291 268.148 C 195.181 276.755, 200 284.207, 200 284.710 C 200 285.212, 199.205 286.495, 198.233 287.561 C 197.262 288.628, 192.436 294.225, 187.509 300 C 182.583 305.775, 175.211 314.325, 171.127 319 C 167.044 323.675, 162.754 328.625, 161.594 330 C 160.435 331.375, 155.439 337.201, 150.493 342.948 C 145.547 348.694, 134.329 361.744, 125.565 371.948 C 116.801 382.151, 106.723 393.875, 103.169 398 C 99.615 402.125, 95.536 406.856, 94.104 408.514 C 92.672 410.171, 86.107 417.821, 79.514 425.514 C 72.922 433.206, 67.295 439.725, 67.008 440 C 66.722 440.275, 64.018 443.425, 61 447 C 57.982 450.575, 55.282 453.725, 55 454 C 54.718 454.275, 52.018 457.425, 49 461 C 45.982 464.575, 43.268 467.725, 42.970 468 C 42.671 468.275, 38.405 473.225, 33.489 479 C 28.574 484.775, 21.211 493.325, 17.127 498 C 13.044 502.675, 8.641 507.738, 7.344 509.250 L 4.985 512 27.742 511.954 L 50.500 511.907 77 480.850 C 91.575 463.768, 105.750 447.226, 108.500 444.090 C 111.250 440.954, 121.441 429.188, 131.146 417.944 C 140.851 406.700, 150.526 395.401, 152.646 392.835 C 154.766 390.270, 162.800 380.871, 170.500 371.950 C 178.200 363.029, 188.266 351.403, 192.869 346.115 C 197.472 340.827, 205.533 331.457, 210.783 325.292 C 216.033 319.128, 220.616 314.262, 220.967 314.480 C 221.319 314.697, 226 321.315, 231.371 329.187 C 236.741 337.059, 246.705 351.600, 253.512 361.500 C 260.320 371.400, 268.820 383.775, 272.403 389 C 275.985 394.225, 281.541 402.325, 284.750 407 C 287.959 411.675, 294.142 420.675, 298.490 427 C 302.838 433.325, 310.432 444.350, 315.365 451.500 C 320.299 458.650, 326.810 468.100, 329.835 472.500 C 332.859 476.900, 338.252 484.775, 341.819 490 C 345.385 495.225, 350.300 502.313, 352.739 505.750 L 357.176 512 432.095 512 L 507.014 512 503.692 507.250 C 501.864 504.637, 497.440 498.225, 493.859 493 C 490.278 487.775, 477.298 468.875, 465.013 451 C 452.728 433.125, 439.431 413.775, 435.463 408 C 431.496 402.225, 417.430 381.750, 404.206 362.500 C 390.982 343.250, 377.824 324.125, 374.967 320 C 372.110 315.875, 362.050 301.250, 352.612 287.500 C 343.173 273.750, 331.887 257.325, 327.532 251 C 323.176 244.675, 316.127 234.402, 311.868 228.171 L 304.123 216.841 322.311 195.628 C 332.315 183.961, 343.392 171.060, 346.926 166.958 C 350.461 162.856, 358.817 153.200, 365.496 145.500 C 372.175 137.800, 380.308 128.332, 383.570 124.460 C 386.831 120.588, 397.430 108.213, 407.122 96.960 C 416.814 85.707, 431.147 69.075, 438.973 60 C 446.800 50.925, 455.476 40.880, 458.254 37.678 C 461.032 34.475, 464.924 29.904, 466.903 27.519 C 468.881 25.133, 474.337 18.753, 479.027 13.341 C 483.717 7.928, 488.159 2.712, 488.899 1.750 L 490.245 0 467.811 -0 L 445.377 -0 435.798 11.250 C 430.530 17.437, 422.737 26.550, 418.482 31.500 C 414.226 36.450, 409.564 41.856, 408.122 43.514 C 406.680 45.171, 400.107 52.821, 393.514 60.514 C 386.922 68.206, 381.297 74.725, 381.014 75 C 380.732 75.275, 378.037 78.425, 375.026 82 C 372.016 85.575, 369.313 88.725, 369.020 89 C 368.727 89.275, 366.018 92.425, 363 96 C 359.982 99.575, 357.260 102.725, 356.951 103 C 356.643 103.275, 353.490 106.897, 349.945 111.049 C 346.400 115.201, 334.050 129.567, 322.500 142.974 C 310.950 156.381, 298.812 170.534, 295.527 174.425 C 292.242 178.316, 288.298 182.850, 286.762 184.500 L 283.969 187.500 283.235 186.369 C 282.831 185.747, 276.949 177.197, 270.165 167.369 C 263.381 157.541, 247.004 133.750, 233.774 114.500 C 220.543 95.250, 205.404 73.200, 200.132 65.500 C 194.860 57.800, 185.726 44.525, 179.833 36 C 173.941 27.475, 166.055 15.907, 162.310 10.293 L 155.500 0.087 80.750 0.043 L 6 0 6 0.597 M 67 34.324 C 67 34.502, 77.993 50.365, 91.429 69.574 C 104.865 88.783, 118.076 107.650, 120.788 111.500 C 123.499 115.350, 140.473 139.650, 158.507 165.500 C 176.542 191.350, 193.685 215.875, 196.603 220 C 199.520 224.125, 216.508 248.425, 234.352 274 C 252.197 299.575, 268.567 322.975, 270.731 326 C 272.895 329.025, 298.009 364.913, 326.539 405.750 L 378.411 480 411.765 480 L 445.118 480 444.382 478.750 C 443.977 478.063, 441.158 473.900, 438.117 469.500 C 435.076 465.100, 429.903 457.675, 426.621 453 C 423.340 448.325, 414.995 436.390, 408.078 426.477 C 401.160 416.564, 394.150 406.530, 392.500 404.178 C 390.850 401.826, 386.891 396.212, 383.701 391.701 C 380.512 387.191, 373.994 377.875, 369.217 371 C 364.440 364.125, 358.634 355.800, 356.316 352.500 C 353.997 349.200, 350.073 343.575, 347.597 340 C 345.120 336.425, 336.802 324.500, 329.111 313.500 C 321.421 302.500, 312.599 289.900, 309.507 285.500 C 306.415 281.100, 299.749 271.625, 294.693 264.444 C 289.637 257.263, 282.891 247.588, 279.703 242.944 C 276.514 238.300, 271.379 230.900, 268.292 226.500 C 265.205 222.100, 255.403 208.150, 246.510 195.500 C 237.617 182.850, 227.550 168.450, 224.139 163.500 C 220.728 158.550, 214.914 150.185, 211.219 144.911 C 207.523 139.637, 200.675 129.837, 196 123.133 C 191.325 116.430, 177.981 97.345, 166.346 80.722 C 154.712 64.100, 142.581 46.788, 139.388 42.250 L 133.584 34 100.292 34 C 81.981 34, 67 34.146, 67 34.324" stroke="none" fill="#144c8c" fill-rule="evenodd"/></svg>